<?xml version="1.0" encoding="UTF-8"?>
<svg width="64px" height="44px" viewBox="0 0 64 44" version="1.1" xmlns="http://www.w3.org/2000/svg" xmlns:xlink="http://www.w3.org/1999/xlink">
    <!-- Generator: Sketch 50 (54983) - http://www.bohemiancoding.com/sketch -->
    <title>Fill 48</title>
    <desc>Created with Sketch.</desc>
    <defs></defs>
    <g id="Icons" stroke="none" stroke-width="1" fill="none" fill-rule="evenodd">
        <path d="M50,40 C44.48,40 40,35.5 40,30 C40,25.5 42.95,21.7 47.02,20.399 L49.8,30.499 C50.11,31.599 51.28,32.2 52.42,31.999 C53.55,31.7 54.23,30.499 53.93,29.399 L51.34,20.1 C56.23,20.8 60,24.899 60,30 C60,35.5 55.52,40 50,40 L50,40 Z M36.15,28 L27.84,28 C27.39,24.899 25.91,22.099 23.77,19.999 L40.22,19.999 C38.07,22.099 36.6,24.899 36.15,28 L36.15,28 Z M14,31.999 L23.8,31.999 C22.87,36.6 18.84,40 14,40 C8.48,40 4,35.5 4,30 C4,24.499 8.48,19.999 14,19.999 C18.84,19.999 22.87,23.399 23.8,28 L14,28 C12.9,28 12,28.9 12,30 C12,31.099 12.9,31.999 14,31.999 L14,31.999 Z M50.21,16 L46.83,3.799 C47.52,3.499 48,2.8 48,1.999 C48,0.899 47.1,0 46,0 L44.44,0 L43.89,0 L38,0 C36.9,0 36,0.899 36,1.999 C36,3.099 36.9,4 38,4 L42.47,4 L45.79,16 L24,16 L24,7.999 L26,7.999 C27.1,7.999 28,7.099 28,6 C28,4.9 27.1,4 26,4 L18,4 C16.9,4 16,4.9 16,6 C16,7.099 16.9,7.999 18,7.999 L20,7.999 L20,16 L14,16 C6.27,16 0,22.3 0,30 C0,37.7 6.27,43.999 14,43.999 C21.05,43.999 26.87,38.8 27.84,31.999 L36.16,31.999 C37.13,38.8 42.95,43.999 50,43.999 C57.73,43.999 64,37.7 64,30 C64,22.3 57.85,16.099 50.21,16 L50.21,16 Z" id="Fill-48" fill="#373B39"></path>
    </g>
</svg>