<?xml version="1.0" encoding="UTF-8"?>
<svg width="64px" height="64px" viewBox="0 0 64 64" version="1.1" xmlns="http://www.w3.org/2000/svg" xmlns:xlink="http://www.w3.org/1999/xlink">
    <!-- Generator: Sketch 50 (54983) - http://www.bohemiancoding.com/sketch -->
    <title>Fill 68</title>
    <desc>Created with Sketch.</desc>
    <defs></defs>
    <g id="Icons" stroke="none" stroke-width="1" fill="none" fill-rule="evenodd">
        <path d="M60,12 L4,12 L4,6 C4,4.9 4.894,4 6,4 L58,4 C59.104,4 60,4.9 60,6 L60,12 L60,12 Z M60,58 C60,59.098 59.104,60 58,60 L6,60 C4.894,60 4,59.098 4,58 L4,16 L60,16 L60,58 L60,58 Z M60,0 L4,0 C1.792,0 0,1.78 0,4 L0,60 C0,62.2 1.792,64 4,64 L60,64 C62.208,64 64,62.2 64,60 L64,4 C64,1.78 62.208,0 60,0 L60,0 Z M24,28 L38.534,28 L26.24,49.06 C25.688,50 26.016,51.198 26.974,51.738 C27.934,52.278 29.16,51.96 29.712,51.02 L43.766,26.938 C43.79,26.9 43.788,26.86 43.806,26.82 C43.834,26.76 43.848,26.698 43.868,26.64 C44.146,25.92 43.972,25.14 43.424,24.598 C43.41,24.58 43.394,24.58 43.378,24.562 C43.268,24.46 43.172,24.34 43.032,24.258 C42.97,24.22 42.902,24.22 42.838,24.198 C42.77,24.16 42.696,24.14 42.622,24.118 C42.45,24.06 42.284,24.02 42.11,24.02 C42.072,24.02 42.04,24 42,24 L24,24 C22.894,24 22,24.9 22,26 C22,27.1 22.894,28 24,28 L24,28 Z" id="Fill-68" fill="#373B39"></path>
    </g>
</svg>