<?xml version="1.0" encoding="UTF-8"?>
<svg width="499px" height="336px" viewBox="0 0 499 336" version="1.1" xmlns="http://www.w3.org/2000/svg" xmlns:xlink="http://www.w3.org/1999/xlink">
    <!-- Generator: Sketch 50 (54983) - http://www.bohemiancoding.com/sketch -->
    <title>Group 146</title>
    <desc>Created with Sketch.</desc>
    <defs></defs>
    <g id="Page-1" stroke="none" stroke-width="1" fill="none" fill-rule="evenodd">
        <g id="Group-146" transform="translate(-1.000000, 0.000000)">
            <g id="Group-144">
                <path d="M171.593129,95.0953192 L165.593129,83.8946327 C159.830797,80.0351224 157.348187,80.0351224 158.145299,83.8946327 C158.942412,87.7541429 162.688996,93.645731 169.385052,101.569397" id="Line-83" fill="#3277DC"></path>
                <path d="M248.172693,177.943104 L239.118634,168.34085 C230.423218,165.032124 226.676935,165.032124 227.879785,168.34085 C229.082636,171.649575 234.736269,176.700384 244.840684,183.493276" id="Line-83" fill="#3277DC" transform="translate(237.916610, 174.676291) rotate(-85.000000) translate(-237.916610, -174.676291) "></path>
                <path d="M266,27.0886074 C268.982271,30.925158 271.959006,28.0886074 271.024763,25" id="Path-290" fill="#000000"></path>
                <path d="M164.546777,94.3467313 C171.324672,108.677535 176.847986,118.237593 181.116721,123.026904 C187.519823,130.210872 194.391828,138.006252 199.119334,140.578226 C202.271004,142.292875 207.023738,142.292875 213.377534,140.578226 C223.365627,133.495395 230.640252,127.644955 235.20141,123.026904 C239.762568,118.408854 246.770125,109.798969 256.22408,97.1972482 L225.331103,87.0478402 C221.859492,89.9568856 219.779268,92.3898493 219.090431,94.3467313 C217.269507,99.5197013 218.600107,106.167334 217.402861,109.436514 C215.526256,114.56074 211.058635,119.09087 204,123.026904 C196.755712,112.206536 191.098265,104.827808 187.02766,100.890721 C182.957056,96.9536349 176.70314,93.4645338 168.265915,90.4234182 L164.546777,94.3467313 Z" id="Line-75" fill="#FCB405"></path>
                <path d="M239.31218,115.244636 C244.210613,119.472019 247.960849,122.453058 250.562889,124.187751 C253.164929,125.922444 256.414693,127.608072 260.31218,129.244636 C252.472992,137.673031 247.085102,144.291452 244.148513,149.099899 C241.211923,153.908347 238.495752,160.559722 236,169.054025 L240.984132,176.859911 C255.403825,165.921466 265.038089,158.11282 269.886923,153.433972 C280.089678,143.588899 285.73394,134.323719 286.311269,131.308152 C287.30016,126.142872 278.938439,114.373488 261.226108,96 L255.186062,96 L239.31218,115.244636 Z" id="Line-76" fill="#EFAC08"></path>
                <path d="M254.313446,31.0612073 L249.313446,31.0612073 L231.386818,33.9042545 C221.575414,35.2914343 215.396777,38.7887467 212.850907,44.3961918 C209.032102,52.8073595 226.244992,68.2520919 229.275248,74.1336876 C231.295419,78.0547514 229.93799,82.7909944 225.202961,88.3424166 C231.629594,90.9709953 238.933738,93.3503515 247.115394,95.480485 C255.29705,97.6106186 260.581314,98.2641543 262.968186,97.4410921 L265.770072,64.5557997 L269.947288,59.2764568 L269.947288,53.9086333 L292.795464,62.1249114 C294.098959,61.801175 294.842829,61.4933725 295.027075,61.2015039 C295.21132,60.9096352 301.517203,50.0497145 313.944725,28.6217417 L311.885707,23 C306.945757,29.0548501 303.358176,33.712925 301.122963,36.9742246 C298.88775,40.2355242 296.111917,44.862024 292.795464,50.8537239 C288.850785,47.5419828 285.776605,45.1950727 283.572924,43.8129936 C281.538201,42.5368801 275.747491,40.0016666 267.351822,35.450393 C266.88705,35.1984411 266.3598,34.6830616 265.770072,33.9042545 L265.770072,27.4569751 L258.703183,27.4569751 L254.313446,31.0612073 Z" id="Line-77" fill="#3277DC"></path>
                <path d="M262.525447,97.7562488 L266.386419,66.0472181 C268.450525,62.632106 269.752663,60.2226385 270.29283,58.8188157 C270.832998,57.414993 270.832998,55.5975422 270.29283,53.3664635 L270.29283,36.5214575 L266.386419,35.1054945 C263.455941,44.7109619 260.759002,49.2093523 258.2956,48.6006657 C255.832198,47.9919792 253.72834,42.1250906 251.984027,31 L245.676565,31.5521445 L239.892378,46.4874667 L230,50.8790149 L238.552021,75.7709547 L245.676565,95.3497263 C248.893635,96.1571308 251.39911,96.7268397 253.19299,97.0588528 C254.986871,97.390866 258.097689,97.6233313 262.525447,97.7562488 Z" id="Line-80" fill="#F03F6D"></path>
                <polygon id="Line-78" fill="#1A54A8" points="227 49.3740799 238.298103 75.1692981 230.290653 50.557635 239.928909 46"></polygon>
                <path d="M228.894272,73 L240.093653,93.8251859 C238.12716,93.3958545 235.866617,92.7399102 233.312023,91.8573529 C230.757429,90.9747956 227.986755,89.7624044 225,88.2201792 C227.596182,84.9376546 228.894272,82.0330917 228.894272,79.5064902 C228.894272,76.9798887 228.894272,74.8110587 228.894272,73 Z" id="Line-81" fill="#DD3D67"></path>
                <path d="M292.663522,62.0278446 C278.936873,57.4958972 286.276548,60.5695916 271,52 L271,54.628325 L292.663522,62.0278446 Z" id="Path-285" fill="#1A54A8"></path>
                <polygon id="Line-79" fill="#1A54A8" points="256 29.4032138 265.555757 27 258.59138 27"></polygon>
                <path d="M257.648922,28.2912261 C259.390392,29.4494933 261.356552,29.7398163 263.547402,29.1621951 C266.833677,28.2957633 270.098136,28.7171204 271.343509,21.7623342 C272.588882,14.807548 268.574307,9.28853113 267.648922,6.25725302 C267.031998,4.23640094 262.800901,4.65171907 254.95563,7.5032074 C253.249047,9.36536766 252.659403,12.3313933 253.186697,16.4012844 C253.713992,20.4711755 255.2014,24.4344894 257.648922,28.2912261 Z" id="Line-82" fill="#3277DC"></path>
                <path d="M268,12 C270.079234,12.8138728 270.885974,14.7382383 272.424111,14.9757135 C276.345692,15.5811718 276.125786,17.7835784 269.517648,16.6947722" id="Path-286" fill="#3277DC"></path>
                <path d="M252,11.1579828 C253.929098,1.90914126 259.796182,-0.980374483 267.722407,5.49071753 C263.946544,8.21888819 261.090179,9.932053 259.153312,10.630212 C257.216445,11.3283709 254.832008,11.5042945 252,11.1579828 Z" id="Path-287" fill="#EF3062"></path>
                <path d="M263,8.76067441 C275.265806,-4.31582457 278.396764,-0.850016142 267.422256,6.82037158" id="Path-288" fill="#EF3062"></path>
                <circle id="Oval-44" fill="#333333" cx="266.5" cy="12.5" r="1"></circle>
                <path d="M252.334106,11.534148 L257.634817,11.534148 L265.133508,8 C264.503951,9.67349346 264.930778,11.0952987 264.315548,12.363857 C263.682253,13.6696629 262.007309,14.8110262 261.387929,15.7504571 C260.820146,16.6116298 261.945051,19.1963131 261.387929,19.8008248 C260.66398,20.5863544 259.352341,19.3463819 258.160776,19.2591926 C257.348954,19.1997898 256.592569,20.3024241 256.116914,20.4920612 C255.722733,20.6492158 254.810331,21.9814794 254.453344,21.8714436 C253.944778,21.7146861 254.077538,19.4584603 252.334106,19.2591926 C250.802698,19.0841584 250.589707,17.1169934 251.695133,13.3576978 L252.334106,11.534148 Z" id="Path-289" fill="#000000"></path>
                <path d="M145.408496,77.1766632 C154.355283,97.5979904 148.259053,90.3044539 160.695509,101.250392 L164.408496,97.833622 L160.695509,89.2135279 L159.431448,80.6500027 L154.908496,82.2061658 L152.902352,79.071212 L152.902352,73.7496075 L145.408496,77.1766632 Z" id="Path-291" fill="#F03F6D" transform="translate(154.908496, 87.500000) rotate(90.000000) translate(-154.908496, -87.500000) "></path>
                <path d="M238.40908,107.313998 C239.021794,104.682691 240.561135,102.362358 241.128011,100.483952 C243.450062,92.7895768 244.333059,94.5109105 243.847288,96.2171558 C243.118685,98.776339 242.384481,100.576575 243.847288,99.5506842 C245.941744,98.0818082 246.219456,96.2171558 246.888599,94.5235505 C247.062835,94.0825582 247.355847,92.1775999 248.194953,92.1775999 C249.034059,92.1775999 247.21133,96.8510425 247.761134,97.0056482 C247.962834,97.0623663 248.251869,96.652647 248.576916,95.9172345 C249.128184,94.6700006 249.763754,92.8029384 250.112481,92.9885807 C250.819857,93.3651478 249.745056,97.5250853 250.112481,97.7577893 C250.522332,98.0173634 251.257755,96.0552594 251.715217,96.2171558 C252.215708,96.394281 251.311992,98.0674401 251.715217,98.4302849 C252.097612,98.7743862 252.70978,97.6452661 253.157638,97.7577893 C254.058059,97.9840183 250.601577,103.457052 250.112481,103.758941 C246.128941,106.217733 243.684854,109.030197 240.261418,113.270404" id="Path-78" fill="#3277DC" transform="translate(245.857824, 102.724002) rotate(-240.000000) translate(-245.857824, -102.724002) "></path>
                <path d="M311.346184,22.6557178 C311.929667,20.1499439 313.395569,17.9403075 313.935401,16.1515157 C316.146674,8.82421849 316.987545,10.4634319 316.524949,12.0882768 C315.831105,14.5253681 315.131928,16.2397194 316.524949,15.2627713 C318.519484,13.8639716 318.783947,12.0882768 319.421167,10.4754689 C319.58709,10.0555152 319.866123,8.24143743 320.665198,8.24143743 C321.464273,8.24143743 319.728501,12.6919224 320.252076,12.8391522 C320.444152,12.8931645 320.719399,12.5029918 321.028939,11.8026639 C321.553907,10.6149323 322.159156,8.83694264 322.491246,9.01372845 C323.164875,9.37233057 322.14135,13.3338084 322.491246,13.5554108 C322.881544,13.8026012 323.581882,11.934104 324.017519,12.0882768 C324.494134,12.2569518 323.633531,13.8502889 324.017519,14.1958233 C324.381671,14.5235085 324.964635,13.4482557 325.391126,13.5554108 C326.248591,13.7708469 322.957009,18.982777 322.491246,19.2702634 C318.69775,21.6117531 316.370264,24.290042 313.110151,28.3279596" id="Path-78" fill="#3277DC" transform="translate(318.439567, 18.284699) rotate(-2.000000) translate(-318.439567, -18.284699) "></path>
                <path d="M308,26.4749529 C309.20513,28.6740073 310.41026,30.8730618 311.615391,33.0721162 L312.89449,31.2108053 L309.536128,25 L308,26.4749529 Z" id="Path-292" fill="#D8D8D8"></path>
                <polygon id="Line-85" fill="#1A54A8" points="316 22 323 19 316.567895 24.3538983"></polygon>
                <polygon id="Line-86" fill="#1A54A8" points="241 95 244.008793 104.38775 243.295521 105.975701"></polygon>
                <path d="M262.385802,71.8591134 L260.181071,84.3292742 C255.028944,84.4279484 251.232185,84.4279484 248.790793,84.3292742 C246.349402,84.2306001 244.093002,83.9859484 242.021594,83.5953193 L237,70 C242.619164,71.0312204 246.850131,71.6509249 249.692901,71.8591134 C252.535672,72.067302 256.766639,72.067302 262.385802,71.8591134 Z" id="Line-70" fill="#FFFFFF"></path>
                <path d="M242,77.3483732 C250.760726,67.9966457 247.812685,81.2043117 247.757209,81.1850649 C244.911136,80.197652 251.287787,74.6778138 253.590606,75.2565295 C254.26615,75.4262987 254.284072,76.4647643 254.630804,77.0688817" id="Path-298" stroke="#979797" stroke-width="0.5"></path>
                <rect id="Rectangle-103" fill="#D0F0FE" style="mix-blend-mode: screen;" x="154" y="150" width="45" height="45" rx="5"></rect>
                <g id="Group-133" transform="translate(101.500000, 170.500000) scale(-1, 1) translate(-101.500000, -170.500000) translate(53.000000, 143.000000)">
                    <path d="M27.8665072,52.3822257 C27.5486773,52.1161037 21.741752,46.0127423 14.3422126,38.9545329 C10.898609,35.6697776 6.27494469,32.8631421 4.26207632,29.274696 C0.903375832,23.2869644 -3.35806014,17.1235054 4.26207632,13.044767 C6.60480202,11.7908045 10.3715956,8.966068 11.9829049,11.0854931 C15.7632891,16.0579969 13.1229057,24.0842446 16.6010046,29.274696 L23.8033448,40.6183425 C24.3961953,41.5030676 26.2225589,41.9648644 26.9388778,41.1777427 C29.9757633,37.8406832 19.169706,12.5594396 25.1537836,2.07283327 C26.1083356,0.400059097 30.3307443,-0.971787773 30.7915467,0.90001559 C33.2474872,10.8761743 34.8179928,15.7123552 35.9228157,24.55955 C36.2399,27.0986957 34.4780747,32.2334317 35.1998342,35.1262985 C35.48215,36.2578417 36.1088049,43.1778919 37.1464455,42.6545225 C48.6563729,36.8490984 31.6760427,13.5552663 45.0385848,6.08018925 C46.5084008,5.25796639 48.6981689,4.59430176 50.0612695,5.58487749 C50.6116519,5.98484466 51.0994673,10.9823719 50.0612695,17.3657039 C49.799891,18.9727826 47.8703,20.7941879 47.6583632,22.5042601 C46.648278,30.6544184 46.6107544,39.3358566 47.6583632,42.8770007 C48.1129669,44.4136595 50.5641562,41.3602355 51.5875751,40.1303551 C53.5900969,37.7238506 54.3849746,33.7303398 56.0594347,31.0541601 C57.6335298,28.5383872 60.0762104,27.3295212 62.2471116,25.3451617 C63.6023677,24.1063603 66.3046174,24.2231041 67.7436344,25.3625571 C75.3601551,31.3935265 61.3394554,40.1355903 60.2788607,42.3111917 C59.1341136,44.6594153 60.8573463,47.5654179 60.4820644,50.152865 C60.3487519,51.0720111 56.9775996,52.2739245 56.0594347,52.3822257 C45.7987303,53.5925167 38.1837259,53.4607419 27.8665072,54 L27.8665072,52.3822257 Z" id="Path-275" fill="#2F9E84"></path>
                    <path d="M6.5,53.5 L96.5055554,53.5" id="Line-102" stroke="#2F9E84" stroke-width="2" stroke-linecap="square"></path>
                    <path d="M27.8311246,10 C31.8583525,12.3584469 30.0787686,15.5180778 28.0758765,19.3245476 C21.6611378,31.5156733 32.3403796,14.2150151 30.4093366,24.2460679 C30.1519236,25.5832327 28.7978098,26.3839529 28.8698775,27.7678043 C28.9145468,28.6255478 30.3567856,27.5289879 30.6204818,28.3004957 C31.2055874,30.0123657 30.8734939,32.1001652 31,34" id="Path-277" stroke="#FFFFFF" stroke-width="0.5"></path>
                    <path d="M48.857593,10 C36.2194016,20.6916239 52.7777207,18.667049 48.1629882,15.3227692" id="Path-276" stroke="#FFFFFF" stroke-width="0.5"></path>
                    <path d="M60,33 C52.7286819,42.8524556 60.5379908,42.570761 46,47" id="Path-278" stroke="#FFFFFF" stroke-width="0.5"></path>
                    <path d="M8,16 C8.62091074,27.2266884 14.4462789,24.5581217 16,35" id="Path-279" stroke="#FFFFFF" stroke-width="0.5"></path>
                </g>
                <polygon id="Line-97" fill="#2968C5" points="253 277 261 286 261.853689 279.265284"></polygon>
                <g id="Group-142" transform="translate(0.000000, 218.000000)">
                    <path d="M312.084607,106.293202 C312.96149,102.669011 315.164508,99.4731345 315.97579,96.8859407 C319.298982,86.2882077 320.562678,88.659061 319.86747,91.0091325 C318.824732,94.533985 317.773981,97.0135129 319.86747,95.6005178 C322.864939,93.5773835 323.262385,91.0091325 324.220025,88.6764705 C324.469381,88.0690763 324.888724,85.4453106 326.089606,85.4453106 C327.290489,85.4453106 324.681899,91.8822067 325.468749,92.0951506 C325.75741,92.1732704 326.171062,91.6089497 326.636251,90.5960403 C327.425195,88.8781814 328.334788,86.3066111 328.833866,86.5623028 C329.846224,87.0809619 328.308028,92.8105895 328.833866,93.131101 C329.420422,93.4886214 330.47292,90.7861468 331.127613,91.0091325 C331.843889,91.2530932 330.55054,93.5575938 331.127613,94.0573526 C331.674875,94.5312955 332.550977,92.9761188 333.191926,93.131101 C334.480559,93.442694 329.533834,100.980896 328.833866,101.396697 C323.132844,104.783278 323.722023,105.189675 318.82259,111.02986" id="Path-78" fill="#3277DC" transform="translate(322.744836, 98.237586) scale(-1, 1) rotate(-150.000000) translate(-322.744836, -98.237586) "></path>
                    <path d="M147.936334,32.1915849 C148.685666,29.0945669 150.568235,26.3635607 151.261507,24.1526986 C154.10131,15.0965055 155.18119,17.1224959 154.587106,19.1307274 C153.696044,22.142857 152.798134,24.2617142 154.587106,23.0542525 C157.148565,21.3254022 157.488198,19.1307274 158.306541,17.137373 C158.519626,16.61833 158.877972,14.3762157 159.904174,14.3762157 C160.930377,14.3762157 158.701232,19.8768048 159.373626,20.0587739 C159.620299,20.1255305 159.973781,19.6432955 160.371304,18.7777233 C161.045489,17.3097432 161.822773,15.112232 162.249256,15.3307309 C163.114357,15.7739462 161.799906,20.6701455 162.249256,20.9440356 C162.750491,21.2495513 163.649893,18.9401771 164.209355,19.1307274 C164.821442,19.3392017 163.716223,21.308491 164.209355,21.7355552 C164.677013,22.1405586 165.425678,20.811597 165.973395,20.9440356 C167.074584,21.2103045 162.847406,27.6520037 162.249256,28.0073234 C157.377501,30.901294 157.880978,31.2485769 153.694214,36.2392522 L150.523292,38.8656033" id="Path-78" fill="#3277DC" transform="translate(157.045933, 26.620909) scale(-1, 1) rotate(-300.000000) translate(-157.045933, -26.620909) "></path>
                    <path d="M220.824501,67.1205197 C199.237882,67.1205197 184.042261,70.6413416 163.043724,76.699125" id="Path-314" stroke="#979797" transform="translate(191.934112, 71.909822) scale(-1, 1) translate(-191.934112, -71.909822) "></path>
                    <g id="Group-140">
                        <path d="M248.995756,62.4263617 L253.164356,54.5477916 L252.306529,40.0046723 L252.306529,27.8456625 C254.522289,24.7738517 257.203556,22.9082856 260.350329,22.2489642 C265.070489,21.2599821 266.838656,21.2763298 270.034968,24.1311465 C273.231279,26.9859631 274.657601,27.9466356 274.970212,35.3068548 C275.282823,42.6670739 272.650973,47.0794946 271.186289,51.2382691 C270.209832,54.0107855 268.838275,56.1759785 267.071616,57.7338481 C267.098754,59.7094406 267.778676,61.2736118 269.111383,62.4263617 C270.44409,63.5791116 272.397033,64.0728179 274.970212,63.9074805 L268.331767,72.6569214 L253.992078,69.3477406 L248.995756,62.4263617 Z" id="Line-65" fill="#3277DC" transform="translate(261.995756, 47.156921) rotate(-285.000000) translate(-261.995756, -47.156921) "></path>
                        <path d="M66.9018292,68.7308623 C66.9018292,68.7308623 63.333709,72.257865 49.9426085,77.685751 C45.9438033,79.306608 41.0968397,80.4531461 35.1725489,82.5334211 C30.8660605,82.5334211 27.9076431,83.2216288 26.2972968,84.598044 C24.6869505,85.9744593 24.6869505,89.3194816 26.2972968,94.6331109 L23,114.481279 C24.4835829,116.813899 25.5826818,117.653472 26.2972968,117 C27.0119117,116.346528 27.0119117,114.501894 26.2972968,111.466099 L36.4374163,92.8654311 C47.5132122,88.5695655 55.8089805,85.8137698 61.3247211,84.598044 C66.8404617,83.3823183 77.5846337,81.9415159 93.5572373,80.275637 C95.1033084,81.7808264 96.7389664,82.5334211 98.4642114,82.5334211 C100.189456,82.5334211 101.941463,81.7808264 103.720231,80.275637 C107.773413,82.2524354 114.919815,82.2524354 125.159438,80.275637 C135.399061,78.2988386 143.872458,75.2833766 150.579631,71.2292508 L138.98826,55.5662439 C90.9306394,64.3426561 66.9018292,68.7308623 66.9018292,68.7308623 Z" id="Path-308" fill="#1A54A8"></path>
                        <path d="M2.12600729,55.4669031 C-0.529968049,56.4083885 2.10734822,57.4783647 3.78498919,57.7744189 C4.9034165,57.9717885 15.3084201,59.2026165 35,61.4669031 C52.260854,64.258879 64.1979809,66.448935 70.8113807,68.037071 C81.2376399,70.5408238 87.6330608,75.2267758 95.7044367,75.8587912 C111.455351,77.0921397 129.917194,75.3249195 151.089966,70.5571305 C153.592112,63.3950929 154.45986,58.3650171 153.693209,55.4669031 C152.926558,52.5687891 149.502448,47.935236 143.420879,41.5662439 L95.7044367,55.4669031 C91.9428798,51.68142 84.4996173,49.7886785 73.3746493,49.7886785 C62.2496813,49.7886785 50.1288935,51.68142 37.0122858,55.4669031 C36.9581606,51.0831932 35.9462816,48.6500975 33.9766489,48.1676159 C31.0221999,47.4438936 25.2849072,50.6638407 21.4719094,51.66013 C9.60901597,54.7597577 3.46596522,54.9919173 2.12600729,55.4669031 Z" id="Line-92" fill="#2D7FF9"></path>
                        <path d="M174.318279,43.7369185 L207.318279,35.7369185 C205.00286,32.6423519 203.555043,30.2778377 202.974828,28.6433759 C202.394612,27.0089141 201.984013,24.1382856 201.74303,20.0314903 C192.9172,20.6490776 186.524689,21.3993425 182.565497,22.2822849 C178.606305,23.1652273 174.675528,24.8247702 170.773168,27.2609135 L160,22.2822849 C168.180694,19.7755139 174.183178,17.5057238 178.007452,15.4729145 C183.743862,12.4237005 187.843949,1.5662439 199.209791,1.5662439 C210.575633,1.5662439 219.069152,10.7973422 224.057981,15.4729145 C227.383866,18.5899627 228.239861,22.5192957 226.625964,27.2609135 L242.765377,38.1067086 L247.426068,54.8186908 C255.400478,57.9181435 261.206655,60.3003201 264.844597,61.9652204 C268.482539,63.6301207 272.963248,65.9557264 278.286725,68.9420376 C285.788007,72.994083 292.400026,76.5982505 298.122782,79.7545401 C303.845539,82.9108297 308.897554,85.9541991 313.278827,88.8846483 L309.534179,96.9032748 C298.220002,94.0250033 289.797166,91.3521278 284.265672,88.8846483 C278.734178,86.4171687 274.34257,83.3737993 271.09085,79.7545401 L245.11681,77.1662438 L238.780987,68.9420376 L219.696698,77.1662438 L170.773168,68.9420376 C172.798145,64.1810903 173.979848,60.5975266 174.318279,58.1913464 C174.656709,55.7851662 174.656709,50.9670236 174.318279,43.7369185 Z" id="Line-93" fill="#3277DC"></path>
                        <path d="M39.7872431,80.4528648 L43.9493325,89.9865675 C50.9399536,88.7291196 56.0762284,87.7196564 59.3581569,86.9581781 C62.6400855,86.1966999 73.5185191,84.3708047 91.9934577,81.4804925 C94.5085763,84.1601642 96.7785803,85.5 98.8034698,85.5 C100.828359,85.5 102.668337,84.1601642 104.323402,81.4804925 C107.616082,84.9636995 115.007935,85.5318016 126.498962,83.1847988 C137.989989,80.837796 149.34413,75.7781153 160.561387,68.0057568 L143.363762,60.1591474 L67.0780254,66.580693 C63.2975641,70.5438001 59.5138335,73.3745215 55.7268335,75.0728575 C51.9398335,76.7711934 46.6266367,78.5645292 39.7872431,80.4528648 Z" id="Line-94" fill="#EDA905"></path>
                        <path d="M45.4697007,52.9442788 C46.2056646,56.4472306 46.9416284,59.9501824 47.6775923,63.4531342 L70.021289,68.2494087 L95.6830779,77.1925166 L151.389081,70.8461312 L163.001367,68.2494087 L219.771122,78.3965815 C227.633365,74.2500334 233.348102,72.1767594 236.915334,72.1767594 C242.266182,72.1767594 234.572512,75.8229437 244.361725,78.3965815 C244.709085,78.4879043 253.307538,79.3277763 270.157085,80.9161976 L281.833464,89.3580064 L298.89994,95.0323454 L304.838786,82.666344 L277.132252,68.2494087 L249.315809,54.8763803 C245.139067,52.5161353 242.621069,49.852567 241.761818,46.8856756 C240.902566,43.9187841 241.769202,40.8804019 244.361725,37.770529 L228.436337,27.4487574 C229.892604,23.8836716 228.955824,19.8229608 225.625999,15.266625 C222.296173,10.7102891 217.114725,6.39917914 210.081653,2.333295 C208.702915,1.189871 205.035694,0.618159 199.079991,0.618159 C190.146436,0.618159 183.689912,9.78618426 180.004928,12.5099819 C177.548272,14.325847 175.459787,15.244728 173.739475,15.266625 L177.420653,24.5787707 C180.06196,23.5506453 182.541633,22.8492298 184.859669,22.4745242 C187.177706,22.0998186 192.692308,21.5089769 201.403475,20.7019992 C201.093625,23.8926955 201.093625,26.1416149 201.403475,27.4487574 C201.713324,28.7558998 202.792991,31.0616943 204.642473,34.3661409 L169.388391,39.0515764 C165.130375,33.9863793 159.130605,32.4245674 151.389081,34.3661409 C143.647556,36.3077143 125.078889,42.500427 95.6830779,52.9442788 C82.8457044,50.1033064 72.5589342,48.6828202 64.8227672,48.6828202 C60.2624111,48.6828202 53.8113889,50.1033064 45.4697007,52.9442788 Z" id="Path-309" fill="#FCB405"></path>
                        <path d="M260.792218,37.6074444 C275.333004,37.2467831 281.498899,39.62916 282.388274,54.9985024 C286.908833,50.8336123 289.169113,47.6943472 289.169113,45.5807068 C289.169113,42.4102464 289.169113,32.208112 278.348166,32.208112 C271.134201,32.208112 265.282218,34.0078895 260.792218,37.6074444 Z" id="Path-310" fill="#F03F6D"></path>
                        <path d="M272.310918,41.6631408 C271.835,43.5978204 271.670268,46.0808484 272.249391,47.0074461 C272.936623,48.1070167 274.274225,48.1396557 274.981856,47.0074461 C275.717241,45.8308297 275.646287,43.9253084 274.929848,41.6967309 C274.724041,41.0565429 274.2281,40.8098997 273.546533,40.9148272 C272.936753,41.0087029 272.378592,41.3880341 272.310918,41.6631408 Z" id="Rectangle-104" stroke="#333333" fill="#D8D8D8"></path>
                        <path d="M273.310918,51.6631408 C272.835,53.5978204 272.670268,56.0808484 273.249391,57.0074461 C273.936623,58.1070167 275.274225,58.1396557 275.981856,57.0074461 C276.717241,55.8308297 276.646287,53.9253084 275.929848,51.6967309 C275.724041,51.0565429 275.2281,50.8098997 274.546533,50.9148272 C273.936753,51.0087029 273.378592,51.3880341 273.310918,51.6631408 Z" id="Rectangle-104" stroke="#333333" fill="#D8D8D8"></path>
                        <path d="M274.592986,47.6332384 C275.633997,48.4214435 275.633997,49.6946458 274.716935,50.8845748" id="Path-311" stroke="#33363A"></path>
                        <path d="M274.141777,40.7811352 C274.433891,38.0351673 275.359815,35.1422236 275.07258,32.426581" id="Path-312" stroke="#333333"></path>
                        <path d="M272.19588,41.2883355 C269.623876,36.5516137 267.720356,38.7885574 265.655986,34.6764438" id="Path-313" stroke="#333333"></path>
                    </g>
                    <polygon id="Line-95" fill="#EDA905" points="163.5 68.5 232.5 72.5 219.934249 78.4503326"></polygon>
                    <path d="M197.072536,20.816639 L202.960098,18.4913693 C202.577525,23.0155353 202.156688,25.5189195 201.697588,26.001522 C201.238489,26.4841246 201.005959,24.8937408 201,21.2303707 L197.072536,20.816639 Z" id="Line-96" fill="#EDA905"></path>
                </g>
                <polygon id="Line-99" fill="#2968C5" points="345 170.028695 346 175.028695 348.743779 166.553127 346 164"></polygon>
                <polygon id="Line-100" fill="#2968C5" points="345.391194 201 357.391194 207 343 202.915535"></polygon>
                <g id="Group-141" transform="translate(91.000000, 73.000000)">
                    <g id="Group-83" transform="translate(315.000000, 152.500000) rotate(-360.000000) translate(-315.000000, -152.500000) translate(225.000000, 86.000000)">
                        <g id="Group-76" transform="translate(0.000000, 39.000000)">
                            <ellipse id="Oval-21" stroke="#4F5E71" stroke-width="8" cx="149.037008" cy="62.4899311" rx="30.9455893" ry="30.828366"></ellipse>
                            <ellipse id="Oval-21" stroke="#4F5E71" stroke-width="8" cx="30.9455893" cy="62.4899311" rx="30.9455893" ry="30.828366"></ellipse>
                            <path d="M61.5590804,23.0189742 C67.183441,39.6633575 73.1398998,56.6771359 78.7642604,73.3215191 L134.832093,19.867778 C135.231824,19.4866834 135.246933,18.8536987 134.865838,18.4539671 C134.660978,18.2390888 134.371232,18.1263456 134.075016,18.1462499 L61.5590804,23.0189742 Z" id="Path-140" stroke="#333333" stroke-width="7" stroke-linecap="round"></path>
                            <path d="M135.491499,18.3303798 L150.54611,61.656732" id="Line-16" stroke="#333333" stroke-width="3" stroke-linecap="round"></path>
                            <path d="M60.2184441,24.9959724 L31.7819566,58.3239357" id="Line-16" stroke="#333333" stroke-width="3" stroke-linecap="square"></path>
                            <path d="M76.9457897,76.6543154 L31.7819566,61.656732" id="Line-16" stroke="#333333" stroke-width="3" stroke-linecap="square"></path>
                            <path d="M135.491499,18.3303798 C136.841554,-7.83354582 145.52362,13.0207842 159.745108,10.554072 C160.328542,10.4528757 160.303381,9.40296983 160.582518,8.82741874" id="Path-141" stroke="#333333" stroke-width="3" stroke-linecap="round"></path>
                            <ellipse id="Oval-22" fill="#333333" cx="75.2730551" cy="73.3215191" rx="10.0364073" ry="9.99838897"></ellipse>
                            <ellipse id="Oval-22" fill="#333333" cx="30.9455893" cy="60.8235329" rx="2.50910184" ry="2.49959724"></ellipse>
                            <path d="M71.6984762,84.3045361 C58.7983218,79.6634656 44.8700551,70.8405107 32.3381481,65.2549137 C26.3067683,62.5666671 28.2029074,58.7405284 29.0739971,57.4967326 C31.2650644,54.368191 45.7459135,57.0079456 49.2766677,57.4967326 C60.107208,58.9960799 71.0804876,60.3133123 81.5018673,63.6624203 C88.3658739,65.8682991 89.2851525,75.9899619 81.5018673,83.1008874 C80.025188,84.4500036 76.757391,84.8512199 71.6984762,84.3045361 Z" id="Path-142" stroke="#333333"></path>
                            <path d="M63.1362261,27.2758615 C61.4634915,18.9438707 58.5457095,11.6647871 56.872975,3.33279632 L63.1362261,27.2758615 Z" id="Path-143" stroke="#333333" stroke-width="5"></path>
                            <rect id="Rectangle-65" fill="#6C6B6B" x="46.8365676" y="0" width="21.7455493" height="4.99919449" rx="2.49959724"></rect>
                        </g>
                        <g id="Group-82" transform="translate(95.000000, 6.500000) scale(-1, 1) translate(-95.000000, -6.500000) translate(88.000000, 0.000000)" stroke="#FFFFFF" stroke-linecap="round">
                            <g id="Group-81" transform="translate(6.791912, 6.175205) rotate(-34.000000) translate(-6.791912, -6.175205) translate(1.291912, 2.675205)">
                                <path d="M10.5130776,6.54148134 C2.68401298,4.22029209 6.22008394,6.24272376 0.089037513,0.167084248" id="Path-54" transform="translate(5.301058, 3.354283) scale(-1, 1) translate(-5.301058, -3.354283) "></path>
                            </g>
                        </g>
                    </g>
                    <path d="M249,34.9790276 L251.885954,29.5721658 L251.292074,19.5915937 L251.292074,11.2471752 C252.826061,9.13906983 254.682323,7.85877939 256.860858,7.4063039 C260.128661,6.72759067 261.352777,6.73880969 263.565608,8.69799759 C265.778439,10.6571855 266.765893,11.3164706 266.982316,16.3676013 C267.198738,21.4187321 265.376689,24.446864 264.362676,27.3009249 C263.686668,29.2036322 262.737128,30.689549 261.514057,31.7586752 C261.532845,33.1144739 262.00356,34.1879248 262.926203,34.9790276 C263.848847,35.7701305 265.200884,36.1089486 266.982316,35.9954818 L262.386469,42 L252.458992,39.7289936 L249,34.9790276 Z" id="Line-65" fill="#3277DC" transform="translate(258.000000, 24.500000) scale(-1, 1) translate(-258.000000, -24.500000) "></path>
                    <path d="M233.35104,98.7905762 C248.052503,98.0488635 241.823322,96.8304394 252.323296,100.415013" id="Path-322" stroke="#979797"></path>
                    <path d="M250.678219,19 C251.39088,20.4283769 250.876086,22.6285397 251.477976,23.032061 C254.284905,24.9138909 253.066046,25.4850063 249,24.576819" id="Path-272" fill="#3277DC" transform="translate(251.000000, 22.000000) scale(-1, 1) translate(-251.000000, -22.000000) "></path>
                    <path d="M188.321801,103.46897 C189.397215,123.495604 187.097024,123.133247 196.059656,140.215543 C197.303097,142.585474 200.658617,145.934156 201.175007,148.559058 C202.448063,155.030234 200.486599,159.659025 201.175007,166.217802 C203.075729,184.326868 212.50969,205.199504 219.791667,221.765761 L223.834435,221.765761 C224.08883,209.151865 224.08883,201.045446 223.834435,197.446504 C223.021174,185.941296 221.201188,176.49303 221.201188,168.056158 C221.201188,155.660581 222.078937,149.161548 223.834435,148.559058 L229.101054,134.166573 C233.746118,137.091773 237.317391,139.108097 239.814872,140.215543 C242.312353,141.32299 245.913834,142.094377 250.619314,142.529703 C245.25151,144.717305 241.652339,146.72709 239.821801,148.559058 C237.991264,150.391025 232.662142,158.689751 223.834435,173.455235 L225.484319,177.284101 C268.342041,152.504521 288.805664,136.760694 286.875188,130.052619 C285.507074,125.298658 276.412718,114.870893 260.784247,107.832195 C256.501531,105.90336 250.509913,102.959295 242.80939,99 L188.321801,103.46897 Z" id="Path-269" fill="#3277DC" transform="translate(237.660901, 160.382880) scale(-1, 1) translate(-237.660901, -160.382880) "></path>
                    <path d="M259.402048,34.0565322 C250.477131,33.6116324 242.546099,35.7927039 235.608951,40.5997467 C225.203228,47.810311 225.850835,47.7584309 220.943933,60.7057833 C216.037032,73.6531357 214.525786,81.6700198 217.577355,88.1779239 C219.611734,92.5165266 226.111161,94.8268632 237.075636,95.1089338 L240.274958,104 L270.458374,102.246436 L290.976278,98.9025563 L290.976278,95.1089338 C298.41628,95.5486562 303.663425,93.2383195 306.717714,88.1779239 C311.299148,80.5873303 310.884126,82.6782969 306.717714,69.0282661 C302.551302,55.3782353 298.206243,48.1842061 292.796804,42.5701272 C289.19051,38.8274079 283.329018,36.7477085 275.212326,36.331029 C271.900706,39.5636705 268.900448,40.9865764 266.211553,40.5997467 C263.522657,40.212917 261.252822,38.0318455 259.402048,34.0565322 Z" id="Line-64" fill="#3277DC" transform="translate(263.000000, 69.000000) scale(-1, 1) translate(-263.000000, -69.000000) "></path>
                    <path d="M249.603642,220.629197 C246.139563,244.55511 258.660792,233.214225 259.901984,224.963837 C260.301909,222.305473 259.521896,218.800105 256.749017,218.073949 C255.213462,217.67182 253.919184,219.008344 249.851608,219.708335 L249.603642,220.629197 Z" id="Path-271" fill="#333333" transform="translate(254.500000, 226.500000) scale(-1, 1) translate(-254.500000, -226.500000) "></path>
                    <path d="M249.405424,175.629712 C252.19031,179.957288 253.582753,183.110541 253.582753,185.08947 C253.582753,186.832918 255.005742,192.386897 253.582753,197.458906 C253.454621,197.915609 252.537949,197.915609 250.832737,197.458906 L245.36756,181.83488 L245.36756,173.749772 C246.591577,171.931317 247.413204,171.119684 247.832441,171.314871 C248.251677,171.510058 248.776005,172.948339 249.405424,175.629712 Z" id="Line-63" fill="#333333" transform="translate(249.791376, 184.543962) scale(-1, 1) translate(-249.791376, -184.543962) "></path>
                    <polygon id="Line-66" fill="#2968C5" transform="translate(263.500000, 31.000000) scale(-1, 1) translate(-263.500000, -31.000000) " points="263.170268 29 266 32.257267 261 33"></polygon>
                    <circle id="Oval-42" fill="#333333" transform="translate(256.500000, 18.500000) scale(-1, 1) translate(-256.500000, -18.500000) " cx="256.5" cy="18.5" r="1"></circle>
                    <circle id="Oval-42" fill="#333333" transform="translate(250.500000, 18.500000) scale(-1, 1) translate(-250.500000, -18.500000) " cx="250.5" cy="18.5" r="1"></circle>
                    <path d="M261.240174,13.9382849 C263.489996,11.9268499 271.293974,19.2569744 274.955879,13.9382849 C281.962303,3.76188764 264.195818,-0.474689108 261.240174,1.03165408 C260.097784,1.61387283 252.724563,3.8980293 251.692362,10.7332656 C251.354714,12.9691698 249.399638,17.2181779 245.827134,23.4802897 C250.52626,22.1043418 255.66394,18.9236736 261.240174,13.9382849 Z" id="Path-273" fill="#F03F6D" transform="translate(261.203010, 12.108028) scale(-1, 1) translate(-261.203010, -12.108028) "></path>
                    <polygon id="Line-71" fill="#0544A2" transform="translate(266.000000, 89.000000) scale(-1, 1) translate(-266.000000, -89.000000) " points="267 86 267 92 265 87.3373191"></polygon>
                    <path d="M293.632709,162.314704 C296.53039,158.097128 299.428071,153.879552 302.325752,149.661976 L288.813106,149.661976 L293.632709,162.314704 Z" id="Path-317" fill="#333333"></path>
                    <path d="M193.015537,124.147542 C208.119433,126.026928 215.047405,132.191099 227.319537,141.682807 C232.447901,141.451629 236.227042,140.782994 238.656959,139.676903 C240.507305,138.834631 243.148559,136.580722 246.580722,132.915175 L251.865188,150.120528 C256.864534,146.683047 261.066915,144.964306 264.472332,144.964306 C267.877748,144.964306 271.209175,146.683047 274.466611,150.120528 C280.845376,141.112687 284.982166,132.971593 286.876982,125.697247 C288.771797,118.422901 288.771797,110.682532 286.876982,102.476138 L292.369968,64.4461884 L293.788492,71.9705325 C296.832479,69.6475184 299.231928,68.2182258 300.98684,67.6826549 C302.741752,67.147084 305.025683,67.147084 307.838633,67.6826549 C304.979622,55.9641671 302.121037,48.1102372 299.262878,44.1208654 C294.97564,38.1368078 290.243402,38.195829 285.594534,36.6347011 C282.495289,35.5939491 276.678917,34.6061709 268.145418,33.6713665 L258.928439,39.7331332 L256.658213,66.2249723 L255.036064,39.7331332 L248.767735,36.6347011 C245.532365,34.5747426 241.275488,35.6075533 235.997104,39.7331332 C230.718721,43.858713 226.417138,49.5151871 223.092355,56.7025556 C226.761489,57.2600716 229.236645,57.9946235 230.517823,58.9062114 C231.799002,59.8177993 233.289592,62.7432805 234.989595,67.6826549 L235.997104,61.689416 L233.975536,98.2675572 C221.747406,102.941995 213.186988,106.824906 208.294282,109.916291 C204.084765,112.576014 198.99185,117.319764 193.015537,124.147542 Z" id="Path-315" fill="#FCB405"></path>
                    <path d="M170.969944,53.2836547 C173.974935,53.1385646 176.979927,52.9934745 179.984918,52.8483844 C182.989909,52.7032942 171.568929,56.3409888 170.969944,57.2861407 C170.370959,58.2312926 176.614074,57.3158259 176.614074,58.167313 C176.614074,58.7349711 174.732697,59.5265044 170.969944,60.5419129" id="Path-325" stroke="#FFFFFF"></path>
                    <path d="M110.969944,53.2836547 C113.974935,53.1385646 116.979927,52.9934745 119.984918,52.8483844 C122.989909,52.7032942 111.568929,56.3409888 110.969944,57.2861407 C110.370959,58.2312926 116.614074,57.3158259 116.614074,58.167313 C116.614074,58.7349711 114.732697,59.5265044 110.969944,60.5419129" id="Path-325" stroke="#FFFFFF" transform="translate(115.708580, 56.693038) rotate(-285.000000) translate(-115.708580, -56.693038) "></path>
                    <path d="M0.96994366,203.283655 C3.97493509,203.138565 6.97992652,202.993474 9.98491794,202.848384 C12.9899094,202.703294 1.5689288,206.340989 0.96994366,207.286141 C0.370958523,208.231293 6.61407428,207.315826 6.61407428,208.167313 C6.61407428,208.734971 4.73269741,209.526504 0.96994366,210.541913" id="Path-325" stroke="#FFFFFF" transform="translate(5.708580, 206.693038) rotate(-285.000000) translate(-5.708580, -206.693038) "></path>
                    <path d="M224.969944,130.283655 C227.974935,130.138565 230.979927,129.993474 233.984918,129.848384 C236.989909,129.703294 225.568929,133.340989 224.969944,134.286141 C224.370959,135.231293 230.614074,134.315826 230.614074,135.167313 C230.614074,135.734971 228.732697,136.526504 224.969944,137.541913" id="Path-325" stroke="#FFFFFF" transform="translate(229.708580, 133.693038) rotate(-285.000000) translate(-229.708580, -133.693038) "></path>
                    <polygon id="Line-98" fill="#EFAC08" points="291.920203 60.9276653 294.512874 71.7070999 290.506763 74.8431721"></polygon>
                    <path d="M273.043052,148.279463 C284.263277,118.315363 280.12789,133.189955 285.927844,103.791529 C289.239813,107.021514 289.649299,113.704367 287.156302,123.840086 C284.663304,133.975806 280.427879,142.847982 274.450026,150.456614 L273.043052,148.279463 Z" id="Path-316" fill="#EFAC08"></path>
                    <path d="M261.273267,13.9019385 C261.357694,24.7958534 265.717815,34.031179 254.275928,32.2077152" id="Path-318" stroke="#F03F6D"></path>
                </g>
                <circle id="Oval-46" fill="#FFD364" cx="169" cy="137" r="12"></circle>
                <path d="M421,189.101499 C425.122507,174.224708 429.590167,161.18441 439.757427,149.193794 C441.663268,146.946168 445.079758,140.479318 446.243599,143.186628 L450.659161,142 C458.181172,159.497594 433.707358,176.999616 442.189469,192.628723 C443.209439,194.508115 446.629251,191.549539 447.998502,189.9071 C454.300433,182.347826 458.530926,173.223968 464.735396,165.584498 C466.521047,163.385852 468.938051,160.104757 471.702751,160.720413 C480.693845,162.722589 459.965474,182.308425 464.580807,190.211921 C465.129407,191.151367 466.887325,191.186036 467.81845,190.623431 C472.113685,188.028159 475.289498,183.843694 479.538848,181.173955 C480.262343,180.719406 481.555521,180.985483 482.051451,181.681266 C483.813205,184.152981 484.558247,187.210152 485.811645,189.974596" id="Path-319" stroke="#3277DC" stroke-width="3"></path>
                <path d="M136.323079,86.296888 C130.641322,84.772313 118.532693,81.0469723 124.934577,71.8520842 C125.213149,71.4519778 126.311281,71.829493 126.32134,72.316921 L128.186498,80.538722 C128.249578,83.5953499 128.155562,86.9092451 126.677715,89.5856084 C118.431396,104.519593 101.08441,91.4390435 103.999489,77.6915966 C104.172479,76.8757806 105.817122,77.0802662 106.497987,77.5618296 C116.844856,84.8799775 108.396492,110.269355 94.0926549,105.798729 C90.6359903,104.718358 87.650116,101.921338 85.750771,98.8377978 C84.4399139,96.7096532 84.471422,93.7510323 85.1987773,91.3597356 C85.4730737,90.4579423 87.8382913,90.4322635 88.0265345,91.3558619 L89.980786,93.9880004 C90.9258543,98.6248927 91.9273462,103.402176 91.4411483,108.109355 C91.190824,110.532897 89.599923,112.773974 87.8638417,114.48343 C86.5360902,115.790818 84.4395438,115.954122 82.7273949,116.689468" id="Path-320" stroke="#3277DC" stroke-width="3"></path>
            </g>
            <path d="M93.2989554,319.590494 C131.267227,335.070188 125.021626,306.32847 154.396848,302.60485 C176.572275,299.793881 182.758307,326.837349 204.912564,323.143566 C206.410228,322.89386 207.670918,321.863436 208.983889,321.1009 L222.589212,307.36718 C226.2446,305.244235 231.411359,303.977397 235.183707,305.884788 C244.451697,310.57091 251.137513,319.185073 259.114416,325.835216" id="Path-321" stroke="#3277DC" stroke-width="4" stroke-linecap="round"></path>
            <path d="M27.1144157,239.590494 C52.3021148,255.070188 48.1588572,226.32847 67.6460295,222.60485 C82.3569437,219.793881 86.4606834,246.837349 101.157553,243.143566 C102.151086,242.89386 102.987413,241.863436 103.858422,241.1009 L112.884031,227.36718 C115.308971,225.244235 118.736538,223.977397 121.239069,225.884788 C127.387343,230.57091 131.822633,239.185073 137.114416,245.835216" id="Path-321" stroke="#3277DC" stroke-width="4" stroke-linecap="round"></path>
            <path d="M323.220365,172.690933 C334.404016,174.264878 331.358045,171.013135 345.587667,174.264878 L325.820568,170.153087 L323.220365,172.690933 Z" id="Path-323" fill="#EFAC08"></path>
            <path d="M165.5,78.5 C164.739248,77.6754267 164.289218,77.287724 164.149909,77.3368918 C164.0106,77.3860596 163.806754,78.0045423 163.53837,79.19234 C162.57251,78.2836623 161.995568,77.8625041 161.807544,77.9288654 C161.619521,77.9952267 161.394898,78.6992901 161.133676,80.0410556 C159.954356,79.386069 159.238363,79.1031638 158.985697,79.19234 C158.733031,79.2815161 158.532788,79.8877987 158.384968,81.0111878 C157.714762,80.2751014 157.253106,79.951724 157,80.0410556 C156.746894,80.1303872 156.327417,80.7647527 155.741569,81.944152 C154.868032,81.2357655 154.308848,80.9247774 154.064019,81.0111878 C153.819189,81.0975982 153.470177,81.7291259 153.016982,82.905771 C152.081967,82.1606689 151.467094,81.8401293 151.172363,81.944152 C150.877632,82.0481747 150.6551,82.6642691 150.504767,83.7924353 C149.746491,83.1126263 149.241695,82.8170716 148.99038,82.905771 C148.739065,82.9944704 148.575605,83.5258801 148.5,84.5 C147.636793,84.4658511 147.132879,84.5380095 146.988257,84.7164752 C146.843636,84.8949408 146.908539,85.3645295 147.182968,86.1252412 C146.340676,86.1103837 145.834457,86.2079367 145.66431,86.4179002 C145.494164,86.6278637 145.494164,87.1549945 145.66431,87.9992927 C144.770835,87.8026777 144.244432,87.8026777 144.085103,87.9992927 C143.925774,88.1959076 144.006229,88.7462148 144.326468,89.6502144 C143.331638,89.4356546 142.747288,89.4356546 142.573417,89.6502144 C142.399546,89.8647741 142.469784,90.499198 142.784132,91.5534859 C142.020197,91.3472411 141.554664,91.3472411 141.387531,91.5534859 C141.220399,91.7597306 141.220399,92.3342075 141.387531,93.2769163" id="Line-101" stroke="#3277DC" stroke-linecap="square"></path>
            <path d="M158.682299,90 C160.732131,101.367545 156.909295,95.9121307 156.121391,91.3489404" id="Path-324" stroke="#FCB405"></path>
            <g id="Group-145" transform="translate(235.836803, 186.404961) rotate(-108.000000) translate(-235.836803, -186.404961) translate(221.836803, 176.404961)">
                <path d="M4.40849566,0.176663238 C13.3552828,20.5979904 7.25905274,13.3044539 19.6955091,24.2503925 L23.4084957,20.833622 L19.6955091,12.2135279 L18.4314481,3.65000271 L13.9084957,5.20616576 L11.9023516,2.07121204 L11.9023516,-3.25039246 L4.40849566,0.176663238 Z" id="Path-291" fill="#F03F6D" transform="translate(13.908496, 10.500000) rotate(90.000000) translate(-13.908496, -10.500000) "></path>
                <path d="M24.5,1.5 C23.7392482,0.675426701 23.2892179,0.287723955 23.1499091,0.336891763 C23.0106003,0.38605957 22.806754,1.0045423 22.5383701,2.19233996 C21.57251,1.28366231 20.9955681,0.862504116 20.8075445,0.928865386 C20.6195209,0.995226656 20.394898,1.69929006 20.1336758,3.0410556 C18.9543557,2.38606905 18.2383629,2.10316383 17.9856972,2.19233996 C17.7330315,2.28151609 17.5327884,2.88779871 17.3849679,4.01118782 C16.7147621,3.27510141 16.2531062,2.951724 16,3.0410556 C15.7468938,3.1303872 15.3274169,3.76475266 14.7415694,4.94415199 C13.8680318,4.23576548 13.3088483,3.92477742 13.0640189,4.01118782 C12.8191894,4.09759821 12.4701772,4.72912593 12.0169822,5.90577098 C11.0819674,5.16066893 10.4670944,4.84012927 10.1723634,4.94415199 C9.87763232,5.04817472 9.65510009,5.66426915 9.50476669,6.79243529 C8.7464907,6.11262633 8.24169519,5.81707156 7.99038015,5.90577098 C7.73906512,5.99447041 7.57560507,6.52588008 7.5,7.5 C6.63679308,7.46585111 6.13287883,7.5380095 5.98825725,7.71647517 C5.84363567,7.89494084 5.90853936,8.3645295 6.18296831,9.12524116 C5.34067594,9.11038366 4.83445666,9.20793666 4.66431048,9.41790016 C4.49416429,9.62786366 4.49416429,10.1549945 4.66431048,10.9992927 C3.77083461,10.8026777 3.24443217,10.8026777 3.08510315,10.9992927 C2.92577413,11.1959076 3.00622916,11.7462148 3.32646826,12.6502144 C2.33163814,12.4356546 1.74728768,12.4356546 1.57341687,12.6502144 C1.39954607,12.8647741 1.46978435,13.499198 1.78413171,14.5534859 C1.02019743,14.3472411 0.55466395,14.3472411 0.387531276,14.5534859 C0.220398603,14.7597306 0.220398603,15.3342075 0.387531276,16.2769163" id="Line-101" stroke="#3277DC" stroke-linecap="square"></path>
                <path d="M17.6822992,13 C19.7321306,24.3675445 15.9092946,18.9121307 15.1213911,14.3489404" id="Path-324" stroke="#FCB405"></path>
            </g>
        </g>
    </g>
</svg>