<?xml version="1.0" encoding="UTF-8"?>
<svg width="499px" height="336px" viewBox="0 0 499 336" version="1.1" xmlns="http://www.w3.org/2000/svg" xmlns:xlink="http://www.w3.org/1999/xlink">
    <!-- Generator: Sketch 50 (54983) - http://www.bohemiancoding.com/sketch -->
    <title>Group 144</title>
    <desc>Created with Sketch.</desc>
    <defs></defs>
    <g id="Page-1" stroke="none" stroke-width="1" fill="none" fill-rule="evenodd">
        <g id="Group-144" transform="translate(-1.000000, 0.000000)">
            <path d="M242.792008,178.712391 L236.792008,171.712391 C231.029676,169.300345 228.547066,169.300345 229.344178,171.712391 C230.141291,174.124437 233.887875,177.806454 240.583931,182.758441" id="Line-83" fill="#3277DC" transform="translate(235.995443, 176.330899) rotate(-85.000000) translate(-235.995443, -176.330899) "></path>
            <path d="M227.959731,178.281588 C233.379341,190.652021 229.686486,186.233885 237.22,192.864501 L239.46918,190.794757 L237.22,185.573045 L236.454281,180.3856 L233.714456,181.328262 L232.499213,179.429231 L232.499213,176.205613 L227.959731,178.281588 Z" id="Path-291" fill="#333333" transform="translate(233.714456, 184.535057) rotate(-15.000000) translate(-233.714456, -184.535057) "></path>
            <path d="M266,27.0886074 C268.982271,30.925158 271.959006,28.0886074 271.024763,25" id="Path-290" fill="#000000"></path>
            <path d="M163,97.1972482 C170.809079,109.627707 176.847986,118.237593 181.116721,123.026904 C187.519823,130.210872 194.391828,138.006252 199.119334,140.578226 C202.271004,142.292875 207.023738,142.292875 213.377534,140.578226 C223.365627,133.495395 230.640252,127.644955 235.20141,123.026904 C239.762568,118.408854 246.770125,109.798969 256.22408,97.1972482 L217.860456,86 C212.51786,93.2784855 208.908259,99.4798412 207.031654,104.604067 C205.155049,109.728293 204.144497,115.869239 204,123.026904 C196.755712,112.206536 191.098265,104.827808 187.02766,100.890721 C182.957056,96.9536349 177.200362,92.3393412 169.757579,87.0478402" id="Line-75" fill="#F03F6D"></path>
            <path d="M239.31218,115.244636 C244.210613,119.472019 247.960849,122.453058 250.562889,124.187751 C253.164929,125.922444 256.414693,127.608072 260.31218,129.244636 C252.472992,137.673031 247.085102,144.291452 244.148513,149.099899 C241.211923,153.908347 238.495752,160.559722 236,169.054025 L240.984132,176.859911 C255.403825,165.921466 265.038089,158.11282 269.886923,153.433972 C280.089678,143.588899 285.73394,134.323719 286.311269,131.308152 C287.30016,126.142872 278.938439,114.373488 261.226108,96 L255.186062,96 L239.31218,115.244636 Z" id="Line-76" fill="#D8335E"></path>
            <path d="M254.313446,31.0612073 L249.313446,31.0612073 L231.386818,33.9042545 C221.575414,35.2914343 215.396777,38.7887467 212.850907,44.3961918 C209.032102,52.8073595 219.129065,64.9894656 222.159321,70.8710614 C224.179491,74.7921252 222.939109,79.8223831 218.438175,85.9618352 C229.374665,90.1774682 238.933738,93.3503515 247.115394,95.480485 C255.29705,97.6106186 260.581314,98.2641543 262.968186,97.4410921 L265.770072,64.5557997 L269.947288,59.2764568 L269.947288,53.9086333 L292.795464,62.1249114 C294.098959,61.801175 294.842829,61.4933725 295.027075,61.2015039 C295.21132,60.9096352 301.517203,50.0497145 313.944725,28.6217417 L311.885707,23 C306.945757,29.0548501 303.358176,33.712925 301.122963,36.9742246 C298.88775,40.2355242 296.111917,44.862024 292.795464,50.8537239 C288.850785,47.5419828 285.776605,45.1950727 283.572924,43.8129936 C281.538201,42.5368801 275.747491,40.0016666 267.351822,35.450393 C266.88705,35.1984411 266.3598,34.6830616 265.770072,33.9042545 L265.770072,27.4569751 L258.703183,27.4569751 L254.313446,31.0612073 Z" id="Line-77" fill="#3277DC"></path>
            <path d="M262.525447,97.7562488 L266.386419,66.0472181 C268.450525,62.632106 269.752663,60.2226385 270.29283,58.8188157 C270.832998,57.414993 270.832998,55.5975422 270.29283,53.3664635 L270.29283,36.5214575 L266.386419,35.1054945 C263.455941,44.7109619 260.759002,49.2093523 258.2956,48.6006657 C255.832198,47.9919792 253.72834,42.1250906 251.984027,31 L245.676565,31.5521445 L239.892378,46.4874667 L230,50.8790149 L238.552021,75.7709547 L245.676565,95.3497263 C248.893635,96.1571308 251.39911,96.7268397 253.19299,97.0588528 C254.986871,97.390866 258.097689,97.6233313 262.525447,97.7562488 Z" id="Line-80" fill="#FCB405"></path>
            <polygon id="Line-78" fill="#1A54A8" points="227 49.3740799 238.298103 75.1692981 230.290653 50.557635 239.928909 46"></polygon>
            <path d="M221.894272,70 L239.543812,92.9333599 C233.277213,91.0985792 228.866617,89.7399102 226.312023,88.8573529 C223.757429,87.9747956 220.986755,86.7624044 218,85.2201792 C220.596182,81.9376546 221.894272,79.0330917 221.894272,76.5064902 C221.894272,73.9798887 221.894272,71.8110587 221.894272,70 Z" id="Line-81" fill="#ECA804"></path>
            <path d="M292.663522,62.0278446 C278.936873,57.4958972 286.276548,60.5695916 271,52 L271,54.628325 L292.663522,62.0278446 Z" id="Path-285" fill="#1A54A8"></path>
            <polygon id="Line-79" fill="#1A54A8" points="256 29.4032138 265.555757 27 258.59138 27"></polygon>
            <path d="M257.648922,28.2912261 C259.390392,29.4494933 261.356552,29.7398163 263.547402,29.1621951 C266.833677,28.2957633 270.098136,28.7171204 271.343509,21.7623342 C272.588882,14.807548 268.574307,9.28853113 267.648922,6.25725302 C267.031998,4.23640094 262.800901,4.65171907 254.95563,7.5032074 C253.249047,9.36536766 252.659403,12.3313933 253.186697,16.4012844 C253.713992,20.4711755 255.2014,24.4344894 257.648922,28.2912261 Z" id="Line-82" fill="#3277DC"></path>
            <path d="M268,12 C270.079234,12.8138728 270.885974,14.7382383 272.424111,14.9757135 C276.345692,15.5811718 276.125786,17.7835784 269.517648,16.6947722" id="Path-286" fill="#3277DC"></path>
            <path d="M252,11.1579828 C253.929098,1.90914126 259.796182,-0.980374483 267.722407,5.49071753 C263.946544,8.21888819 261.090179,9.932053 259.153312,10.630212 C257.216445,11.3283709 254.832008,11.5042945 252,11.1579828 Z" id="Path-287" fill="#EF3062"></path>
            <path d="M263,8.76067441 C275.265806,-4.31582457 278.396764,-0.850016142 267.422256,6.82037158" id="Path-288" fill="#EF3062"></path>
            <circle id="Oval-44" fill="#333333" cx="266.5" cy="12.5" r="1"></circle>
            <path d="M252.334106,11.534148 L257.634817,11.534148 L265.133508,8 C264.503951,9.67349346 264.930778,11.0952987 264.315548,12.363857 C263.682253,13.6696629 262.007309,14.8110262 261.387929,15.7504571 C260.820146,16.6116298 261.945051,19.1963131 261.387929,19.8008248 C260.66398,20.5863544 259.352341,19.3463819 258.160776,19.2591926 C257.348954,19.1997898 256.592569,20.3024241 256.116914,20.4920612 C255.722733,20.6492158 254.810331,21.9814794 254.453344,21.8714436 C253.944778,21.7146861 254.077538,19.4584603 252.334106,19.2591926 C250.802698,19.0841584 250.589707,17.1169934 251.695133,13.3576978 L252.334106,11.534148 Z" id="Path-289" fill="#000000"></path>
            <path d="M166.593129,90.8090345 L160.593129,83.8090345 C154.830797,81.3969885 152.348187,81.3969885 153.145299,83.8090345 C153.942412,86.2210806 157.688996,89.9030975 164.385052,94.8550852" id="Line-83" fill="#3277DC"></path>
            <path d="M145.57472,78.5012551 C150.99433,90.8716877 147.301474,86.4535517 154.834988,93.0841684 L157.084168,91.014424 L154.834988,85.7927118 L154.06927,80.6052669 L151.329444,81.5479289 L150.114201,79.6488979 L150.114201,76.4252803 L145.57472,78.5012551 Z" id="Path-291" fill="#333333" transform="translate(151.329444, 84.754724) rotate(90.000000) translate(-151.329444, -84.754724) "></path>
            <path d="M238.40908,107.313998 C239.021794,104.682691 240.561135,102.362358 241.128011,100.483952 C243.450062,92.7895768 244.333059,94.5109105 243.847288,96.2171558 C243.118685,98.776339 242.384481,100.576575 243.847288,99.5506842 C245.941744,98.0818082 246.219456,96.2171558 246.888599,94.5235505 C247.062835,94.0825582 247.355847,92.1775999 248.194953,92.1775999 C249.034059,92.1775999 247.21133,96.8510425 247.761134,97.0056482 C247.962834,97.0623663 248.251869,96.652647 248.576916,95.9172345 C249.128184,94.6700006 249.763754,92.8029384 250.112481,92.9885807 C250.819857,93.3651478 249.745056,97.5250853 250.112481,97.7577893 C250.522332,98.0173634 251.257755,96.0552594 251.715217,96.2171558 C252.215708,96.394281 251.311992,98.0674401 251.715217,98.4302849 C252.097612,98.7743862 252.70978,97.6452661 253.157638,97.7577893 C254.058059,97.9840183 250.601577,103.457052 250.112481,103.758941 C246.128941,106.217733 243.684854,109.030197 240.261418,113.270404" id="Path-78" fill="#3277DC" transform="translate(245.857824, 102.724002) rotate(-240.000000) translate(-245.857824, -102.724002) "></path>
            <path d="M311.346184,22.6557178 C311.929667,20.1499439 313.395569,17.9403075 313.935401,16.1515157 C316.146674,8.82421849 316.987545,10.4634319 316.524949,12.0882768 C315.831105,14.5253681 315.131928,16.2397194 316.524949,15.2627713 C318.519484,13.8639716 318.783947,12.0882768 319.421167,10.4754689 C319.58709,10.0555152 319.866123,8.24143743 320.665198,8.24143743 C321.464273,8.24143743 319.728501,12.6919224 320.252076,12.8391522 C320.444152,12.8931645 320.719399,12.5029918 321.028939,11.8026639 C321.553907,10.6149323 322.159156,8.83694264 322.491246,9.01372845 C323.164875,9.37233057 322.14135,13.3338084 322.491246,13.5554108 C322.881544,13.8026012 323.581882,11.934104 324.017519,12.0882768 C324.494134,12.2569518 323.633531,13.8502889 324.017519,14.1958233 C324.381671,14.5235085 324.964635,13.4482557 325.391126,13.5554108 C326.248591,13.7708469 322.957009,18.982777 322.491246,19.2702634 C318.69775,21.6117531 316.370264,24.290042 313.110151,28.3279596" id="Path-78" fill="#3277DC" transform="translate(318.439567, 18.284699) rotate(-2.000000) translate(-318.439567, -18.284699) "></path>
            <path d="M308,26.4749529 C309.20513,28.6740073 310.41026,30.8730618 311.615391,33.0721162 L312.89449,31.2108053 L309.536128,25 L308,26.4749529 Z" id="Path-292" fill="#D8D8D8"></path>
            <polygon id="Line-85" fill="#1A54A8" points="316 22 323 19 316.567895 24.3538983"></polygon>
            <polygon id="Line-86" fill="#1A54A8" points="240 95 243.008793 104.38775 242.295521 105.975701"></polygon>
            <path d="M262.385802,71.8591134 L260.181071,84.3292742 C255.028944,84.4279484 251.232185,84.4279484 248.790793,84.3292742 C246.349402,84.2306001 244.093002,83.9859484 242.021594,83.5953193 L237,70 C242.619164,71.0312204 246.850131,71.6509249 249.692901,71.8591134 C252.535672,72.067302 256.766639,72.067302 262.385802,71.8591134 Z" id="Line-70" fill="#FFFFFF"></path>
            <path d="M242,77.3483732 C250.760726,67.9966457 247.812685,81.2043117 247.757209,81.1850649 C244.911136,80.197652 251.287787,74.6778138 253.590606,75.2565295 C254.26615,75.4262987 254.284072,76.4647643 254.630804,77.0688817" id="Path-298" stroke="#979797" stroke-width="0.5"></path>
            <rect id="Rectangle-103" fill="#D0F0FE" style="mix-blend-mode: screen;" x="154" y="150" width="45" height="45" rx="5"></rect>
            <g id="Group-133" transform="translate(104.000000, 211.500000) scale(-1, 1) translate(-104.000000, -211.500000) translate(69.000000, 170.000000)">
                <path d="M27.8665072,52.3822257 C27.5486773,52.1161037 21.741752,46.0127423 14.3422126,38.9545329 C10.898609,35.6697776 6.27494469,32.8631421 4.26207632,29.274696 C0.903375832,23.2869644 -3.35806014,17.1235054 4.26207632,13.044767 C6.60480202,11.7908045 10.3715956,8.966068 11.9829049,11.0854931 C15.7632891,16.0579969 13.1229057,24.0842446 16.6010046,29.274696 L23.8033448,40.6183425 C24.3961953,41.5030676 26.2225589,41.9648644 26.9388778,41.1777427 C29.9757633,37.8406832 19.169706,12.5594396 25.1537836,2.07283327 C26.1083356,0.400059097 30.3307443,-0.971787773 30.7915467,0.90001559 C33.2474872,10.8761743 34.8179928,15.7123552 35.9228157,24.55955 C36.2399,27.0986957 34.4780747,32.2334317 35.1998342,35.1262985 C35.48215,36.2578417 36.1088049,43.1778919 37.1464455,42.6545225 C48.6563729,36.8490984 31.6760427,13.5552663 45.0385848,6.08018925 C46.5084008,5.25796639 48.6981689,4.59430176 50.0612695,5.58487749 C50.6116519,5.98484466 51.0994673,10.9823719 50.0612695,17.3657039 C49.799891,18.9727826 47.8703,20.7941879 47.6583632,22.5042601 C46.648278,30.6544184 46.6107544,39.3358566 47.6583632,42.8770007 C48.1129669,44.4136595 50.5641562,41.3602355 51.5875751,40.1303551 C53.5900969,37.7238506 54.3849746,33.7303398 56.0594347,31.0541601 C57.6335298,28.5383872 60.0762104,27.3295212 62.2471116,25.3451617 C63.6023677,24.1063603 66.3046174,24.2231041 67.7436344,25.3625571 C75.3601551,31.3935265 61.3394554,40.1355903 60.2788607,42.3111917 C59.1341136,44.6594153 60.8573463,47.5654179 60.4820644,50.152865 C60.3487519,51.0720111 56.9775996,52.2739245 56.0594347,52.3822257 C45.7987303,53.5925167 38.1837259,53.4607419 27.8665072,54 L27.8665072,52.3822257 Z" id="Path-275" fill="#2F9E84"></path>
                <path d="M27.8311246,10 C31.8583525,12.3584469 30.0787686,15.5180778 28.0758765,19.3245476 C21.6611378,31.5156733 32.3403796,14.2150151 30.4093366,24.2460679 C30.1519236,25.5832327 28.7978098,26.3839529 28.8698775,27.7678043 C28.9145468,28.6255478 30.3567856,27.5289879 30.6204818,28.3004957 C31.2055874,30.0123657 30.8734939,32.1001652 31,34" id="Path-277" stroke="#FFFFFF" stroke-width="0.5"></path>
                <path d="M25,51 L57,51 L57,67 C57,75.836556 49.836556,83 41,83 L41,83 C32.163444,83 25,75.836556 25,67 L25,51 Z" id="Rectangle-100" fill="#EED45F"></path>
                <path d="M25,51 L45.9731192,71.5796807 C48.6000404,74.157323 48.6399888,78.3764552 46.0623465,81.0033764 C44.809199,82.2804813 43.0951239,83 41.305885,83 L41.305885,83 C32.3003934,83 25,75.6996066 25,66.694115 L25,51 Z" id="Rectangle-100" fill="#E5CB56"></path>
                <path d="M48.857593,10 C36.2194016,20.6916239 52.7777207,18.667049 48.1629882,15.3227692" id="Path-276" stroke="#FFFFFF" stroke-width="0.5"></path>
                <path d="M60,33 C52.7286819,42.8524556 60.5379908,42.570761 46,47" id="Path-278" stroke="#FFFFFF" stroke-width="0.5"></path>
                <path d="M8,16 C8.62091074,27.2266884 14.4462789,24.5581217 16,35" id="Path-279" stroke="#FFFFFF" stroke-width="0.5"></path>
            </g>
            <polygon id="Line-97" fill="#2968C5" points="253 277 261 286 261.853689 279.265284"></polygon>
            <g id="Group-142" transform="translate(0.000000, 218.000000)">
                <path d="M166.071068,65 L194,65 C196.761424,65 199,67.2385763 199,70 L199,97.9289322 C199,100.690356 196.761424,102.928932 194,102.928932 C192.673918,102.928932 191.402148,102.402148 190.464466,101.464466 L162.535534,73.5355339 C160.582912,71.5829124 160.582912,68.4170876 162.535534,66.4644661 C163.473216,65.5267842 164.744985,65 166.071068,65 Z" id="Rectangle-103" fill="#D0F0FE" style="mix-blend-mode: screen;" transform="translate(180.035534, 83.964466) rotate(-30.000000) translate(-180.035534, -83.964466) "></path>
                <path d="M312.084607,106.293202 C312.96149,102.669011 315.164508,99.4731345 315.97579,96.8859407 C319.298982,86.2882077 320.562678,88.659061 319.86747,91.0091325 C318.824732,94.533985 317.773981,97.0135129 319.86747,95.6005178 C322.864939,93.5773835 323.262385,91.0091325 324.220025,88.6764705 C324.469381,88.0690763 324.888724,85.4453106 326.089606,85.4453106 C327.290489,85.4453106 324.681899,91.8822067 325.468749,92.0951506 C325.75741,92.1732704 326.171062,91.6089497 326.636251,90.5960403 C327.425195,88.8781814 328.334788,86.3066111 328.833866,86.5623028 C329.846224,87.0809619 328.308028,92.8105895 328.833866,93.131101 C329.420422,93.4886214 330.47292,90.7861468 331.127613,91.0091325 C331.843889,91.2530932 330.55054,93.5575938 331.127613,94.0573526 C331.674875,94.5312955 332.550977,92.9761188 333.191926,93.131101 C334.480559,93.442694 329.533834,100.980896 328.833866,101.396697 C323.132844,104.783278 323.722023,105.189675 318.82259,111.02986" id="Path-78" fill="#3277DC" transform="translate(322.744836, 98.237586) scale(-1, 1) rotate(-150.000000) translate(-322.744836, -98.237586) "></path>
                <path d="M147.936334,32.1915849 C148.685666,29.0945669 150.568235,26.3635607 151.261507,24.1526986 C154.10131,15.0965055 155.18119,17.1224959 154.587106,19.1307274 C153.696044,22.142857 152.798134,24.2617142 154.587106,23.0542525 C157.148565,21.3254022 157.488198,19.1307274 158.306541,17.137373 C158.519626,16.61833 158.877972,14.3762157 159.904174,14.3762157 C160.930377,14.3762157 158.701232,19.8768048 159.373626,20.0587739 C159.620299,20.1255305 159.973781,19.6432955 160.371304,18.7777233 C161.045489,17.3097432 161.822773,15.112232 162.249256,15.3307309 C163.114357,15.7739462 161.799906,20.6701455 162.249256,20.9440356 C162.750491,21.2495513 163.649893,18.9401771 164.209355,19.1307274 C164.821442,19.3392017 163.716223,21.308491 164.209355,21.7355552 C164.677013,22.1405586 165.425678,20.811597 165.973395,20.9440356 C167.074584,21.2103045 162.847406,27.6520037 162.249256,28.0073234 C157.377501,30.901294 157.880978,31.2485769 153.694214,36.2392522 L150.523292,38.8656033" id="Path-78" fill="#3277DC" transform="translate(157.045933, 26.620909) scale(-1, 1) rotate(-300.000000) translate(-157.045933, -26.620909) "></path>
                <path d="M220.824501,67.1205197 C199.237882,67.1205197 184.042261,70.6413416 163.043724,76.699125" id="Path-314" stroke="#979797" transform="translate(191.934112, 71.909822) scale(-1, 1) translate(-191.934112, -71.909822) "></path>
                <g id="Group-140">
                    <path d="M248.995756,62.4263617 L253.164356,54.5477916 L252.306529,40.0046723 L252.306529,27.8456625 C254.522289,24.7738517 257.203556,22.9082856 260.350329,22.2489642 C265.070489,21.2599821 266.838656,21.2763298 270.034968,24.1311465 C273.231279,26.9859631 274.657601,27.9466356 274.970212,35.3068548 C275.282823,42.6670739 272.650973,47.0794946 271.186289,51.2382691 C270.209832,54.0107855 268.838275,56.1759785 267.071616,57.7338481 C267.098754,59.7094406 267.778676,61.2736118 269.111383,62.4263617 C270.44409,63.5791116 272.397033,64.0728179 274.970212,63.9074805 L268.331767,72.6569214 L253.992078,69.3477406 L248.995756,62.4263617 Z" id="Line-65" fill="#3277DC" transform="translate(261.995756, 47.156921) rotate(-285.000000) translate(-261.995756, -47.156921) "></path>
                    <path d="M66.9018292,68.7308623 C66.9018292,68.7308623 63.333709,72.257865 49.9426085,77.685751 C45.9438033,79.306608 41.0968397,80.4531461 35.1725489,82.5334211 C30.8660605,82.5334211 27.9076431,83.2216288 26.2972968,84.598044 C24.6869505,85.9744593 24.6869505,89.3194816 26.2972968,94.6331109 L23,114.481279 C24.4835829,116.813899 25.5826818,117.653472 26.2972968,117 C27.0119117,116.346528 27.0119117,114.501894 26.2972968,111.466099 L36.4374163,92.8654311 C47.5132122,88.5695655 55.8089805,85.8137698 61.3247211,84.598044 C66.8404617,83.3823183 77.5846337,81.9415159 93.5572373,80.275637 C95.1033084,81.7808264 96.7389664,82.5334211 98.4642114,82.5334211 C100.189456,82.5334211 101.941463,81.7808264 103.720231,80.275637 C107.773413,82.2524354 114.919815,82.2524354 125.159438,80.275637 C135.399061,78.2988386 143.872458,75.2833766 150.579631,71.2292508 L138.98826,55.5662439 C90.9306394,64.3426561 66.9018292,68.7308623 66.9018292,68.7308623 Z" id="Path-308" fill="#1A54A8"></path>
                    <path d="M2.12600729,55.4669031 C-0.529968049,56.4083885 2.10734822,57.4783647 3.78498919,57.7744189 C4.9034165,57.9717885 15.3084201,59.2026165 35,61.4669031 C52.260854,64.258879 64.1979809,66.448935 70.8113807,68.037071 C81.2376399,70.5408238 87.6330608,75.2267758 95.7044367,75.8587912 C111.455351,77.0921397 129.917194,75.3249195 151.089966,70.5571305 C153.592112,63.3950929 154.45986,58.3650171 153.693209,55.4669031 C152.926558,52.5687891 149.502448,47.935236 143.420879,41.5662439 L95.7044367,55.4669031 C91.9428798,51.68142 84.4996173,49.7886785 73.3746493,49.7886785 C62.2496813,49.7886785 50.1288935,51.68142 37.0122858,55.4669031 C36.9581606,51.0831932 35.9462816,48.6500975 33.9766489,48.1676159 C31.0221999,47.4438936 25.2849072,50.6638407 21.4719094,51.66013 C9.60901597,54.7597577 3.46596522,54.9919173 2.12600729,55.4669031 Z" id="Line-92" fill="#2D7FF9"></path>
                    <path d="M174.318279,43.7369185 L207.318279,35.7369185 C205.00286,32.6423519 203.555043,30.2778377 202.974828,28.6433759 C202.394612,27.0089141 201.984013,24.1382856 201.74303,20.0314903 C192.9172,20.6490776 186.524689,21.3993425 182.565497,22.2822849 C178.606305,23.1652273 174.675528,24.8247702 170.773168,27.2609135 L160,22.2822849 C168.180694,19.7755139 174.183178,17.5057238 178.007452,15.4729145 C183.743862,12.4237005 187.843949,1.5662439 199.209791,1.5662439 C210.575633,1.5662439 219.069152,10.7973422 224.057981,15.4729145 C227.383866,18.5899627 228.239861,22.5192957 226.625964,27.2609135 L242.765377,38.1067086 L247.426068,54.8186908 C255.400478,57.9181435 261.206655,60.3003201 264.844597,61.9652204 C268.482539,63.6301207 272.963248,65.9557264 278.286725,68.9420376 C285.788007,72.994083 292.400026,76.5982505 298.122782,79.7545401 C303.845539,82.9108297 308.897554,85.9541991 313.278827,88.8846483 L309.534179,96.9032748 C298.220002,94.0250033 289.797166,91.3521278 284.265672,88.8846483 C278.734178,86.4171687 274.34257,83.3737993 271.09085,79.7545401 L245.11681,77.1662438 L238.780987,68.9420376 L219.696698,77.1662438 L170.773168,68.9420376 C172.798145,64.1810903 173.979848,60.5975266 174.318279,58.1913464 C174.656709,55.7851662 174.656709,50.9670236 174.318279,43.7369185 Z" id="Line-93" fill="#3277DC"></path>
                    <path d="M39.7872431,80.4528648 L43.9493325,89.9865675 C50.9399536,88.7291196 56.0762284,87.7196564 59.3581569,86.9581781 C62.6400855,86.1966999 73.5185191,84.3708047 91.9934577,81.4804925 C94.5085763,84.1601642 96.7785803,85.5 98.8034698,85.5 C100.828359,85.5 102.668337,84.1601642 104.323402,81.4804925 C107.616082,84.9636995 115.007935,85.5318016 126.498962,83.1847988 C137.989989,80.837796 149.34413,75.7781153 160.561387,68.0057568 L143.363762,60.1591474 L67.0780254,66.580693 C63.2975641,70.5438001 59.5138335,73.3745215 55.7268335,75.0728575 C51.9398335,76.7711934 46.6266367,78.5645292 39.7872431,80.4528648 Z" id="Line-94" fill="#EDA905"></path>
                    <path d="M45.4697007,52.9442788 C46.2056646,56.4472306 46.9416284,59.9501824 47.6775923,63.4531342 L70.021289,68.2494087 L95.6830779,77.1925166 L151.389081,70.8461312 L163.001367,68.2494087 L219.771122,78.3965815 C227.633365,74.2500334 233.348102,72.1767594 236.915334,72.1767594 C242.266182,72.1767594 234.572512,75.8229437 244.361725,78.3965815 C244.709085,78.4879043 253.307538,79.3277763 270.157085,80.9161976 L281.833464,89.3580064 L298.89994,95.0323454 L304.838786,82.666344 L277.132252,68.2494087 L249.315809,54.8763803 C245.139067,52.5161353 242.621069,49.852567 241.761818,46.8856756 C240.902566,43.9187841 241.769202,40.8804019 244.361725,37.770529 L228.436337,27.4487574 C229.892604,23.8836716 228.955824,19.8229608 225.625999,15.266625 C222.296173,10.7102891 217.114725,6.39917914 210.081653,2.333295 C208.702915,1.189871 205.035694,0.618159 199.079991,0.618159 C190.146436,0.618159 183.689912,9.78618426 180.004928,12.5099819 C177.548272,14.325847 175.459787,15.244728 173.739475,15.266625 L177.420653,24.5787707 C180.06196,23.5506453 182.541633,22.8492298 184.859669,22.4745242 C187.177706,22.0998186 192.692308,21.5089769 201.403475,20.7019992 C201.093625,23.8926955 201.093625,26.1416149 201.403475,27.4487574 C201.713324,28.7558998 202.792991,31.0616943 204.642473,34.3661409 L169.388391,39.0515764 C165.130375,33.9863793 159.130605,32.4245674 151.389081,34.3661409 C143.647556,36.3077143 125.078889,42.500427 95.6830779,52.9442788 C82.8457044,50.1033064 72.5589342,48.6828202 64.8227672,48.6828202 C60.2624111,48.6828202 53.8113889,50.1033064 45.4697007,52.9442788 Z" id="Path-309" fill="#FCB405"></path>
                    <path d="M260.792218,37.6074444 C275.333004,37.2467831 281.498899,39.62916 282.388274,54.9985024 C286.908833,50.8336123 289.169113,47.6943472 289.169113,45.5807068 C289.169113,42.4102464 289.169113,32.208112 278.348166,32.208112 C271.134201,32.208112 265.282218,34.0078895 260.792218,37.6074444 Z" id="Path-310" fill="#F03F6D"></path>
                    <path d="M272.310918,41.6631408 C271.835,43.5978204 271.670268,46.0808484 272.249391,47.0074461 C272.936623,48.1070167 274.274225,48.1396557 274.981856,47.0074461 C275.717241,45.8308297 275.646287,43.9253084 274.929848,41.6967309 C274.724041,41.0565429 274.2281,40.8098997 273.546533,40.9148272 C272.936753,41.0087029 272.378592,41.3880341 272.310918,41.6631408 Z" id="Rectangle-104" stroke="#333333" fill="#D8D8D8"></path>
                    <path d="M273.310918,51.6631408 C272.835,53.5978204 272.670268,56.0808484 273.249391,57.0074461 C273.936623,58.1070167 275.274225,58.1396557 275.981856,57.0074461 C276.717241,55.8308297 276.646287,53.9253084 275.929848,51.6967309 C275.724041,51.0565429 275.2281,50.8098997 274.546533,50.9148272 C273.936753,51.0087029 273.378592,51.3880341 273.310918,51.6631408 Z" id="Rectangle-104" stroke="#333333" fill="#D8D8D8"></path>
                    <path d="M274.592986,47.6332384 C275.633997,48.4214435 275.633997,49.6946458 274.716935,50.8845748" id="Path-311" stroke="#33363A"></path>
                    <path d="M274.141777,40.7811352 C274.433891,38.0351673 275.359815,35.1422236 275.07258,32.426581" id="Path-312" stroke="#333333"></path>
                    <path d="M272.19588,41.2883355 C269.623876,36.5516137 267.720356,38.7885574 265.655986,34.6764438" id="Path-313" stroke="#333333"></path>
                </g>
                <polygon id="Line-95" fill="#EDA905" points="163.5 68.5 232.5 72.5 219.934249 78.4503326"></polygon>
                <path d="M197.072536,20.816639 L202.960098,18.4913693 C202.577525,23.0155353 202.156688,25.5189195 201.697588,26.001522 C201.238489,26.4841246 201.005959,24.8937408 201,21.2303707 L197.072536,20.816639 Z" id="Line-96" fill="#EDA905"></path>
                <path d="M99.0710678,26 L127,26 C129.761424,26 132,28.2385763 132,31 L132,58.9289322 C132,61.6903559 129.761424,63.9289322 127,63.9289322 C125.673918,63.9289322 124.402148,63.402148 123.464466,62.4644661 L95.5355339,34.5355339 C93.5829124,32.5829124 93.5829124,29.4170876 95.5355339,27.4644661 C96.4732158,26.5267842 97.7449854,26 99.0710678,26 Z" id="Rectangle-103" fill="#D0F0FE" style="mix-blend-mode: screen;" transform="translate(113.035534, 44.964466) rotate(-30.000000) translate(-113.035534, -44.964466) "></path>
            </g>
            <polygon id="Line-99" fill="#2968C5" points="345 170.028695 346 175.028695 348.743779 166.553127 346 164"></polygon>
            <polygon id="Line-100" fill="#2968C5" points="345.391194 201 357.391194 207 343 202.915535"></polygon>
            <g id="Group-141" transform="translate(279.000000, 73.000000)">
                <g id="Group-83" transform="translate(127.000000, 152.500000) rotate(-360.000000) translate(-127.000000, -152.500000) translate(37.000000, 86.000000)">
                    <g id="Group-76" transform="translate(0.000000, 39.000000)">
                        <ellipse id="Oval-21" stroke="#4F5E71" stroke-width="8" cx="149.037008" cy="62.4899311" rx="30.9455893" ry="30.828366"></ellipse>
                        <ellipse id="Oval-21" stroke="#4F5E71" stroke-width="8" cx="30.9455893" cy="62.4899311" rx="30.9455893" ry="30.828366"></ellipse>
                        <path d="M61.5590804,23.0189742 C67.183441,39.6633575 73.1398998,56.6771359 78.7642604,73.3215191 L134.832093,19.867778 C135.231824,19.4866834 135.246933,18.8536987 134.865838,18.4539671 C134.660978,18.2390888 134.371232,18.1263456 134.075016,18.1462499 L61.5590804,23.0189742 Z" id="Path-140" stroke="#333333" stroke-width="7" stroke-linecap="round"></path>
                        <path d="M135.491499,18.3303798 L150.54611,61.656732" id="Line-16" stroke="#333333" stroke-width="3" stroke-linecap="round"></path>
                        <path d="M60.2184441,24.9959724 L31.7819566,58.3239357" id="Line-16" stroke="#333333" stroke-width="3" stroke-linecap="square"></path>
                        <path d="M76.9457897,76.6543154 L31.7819566,61.656732" id="Line-16" stroke="#333333" stroke-width="3" stroke-linecap="square"></path>
                        <path d="M135.491499,18.3303798 C136.841554,-7.83354582 145.52362,13.0207842 159.745108,10.554072 C160.328542,10.4528757 160.303381,9.40296983 160.582518,8.82741874" id="Path-141" stroke="#333333" stroke-width="3" stroke-linecap="round"></path>
                        <ellipse id="Oval-22" fill="#333333" cx="75.2730551" cy="73.3215191" rx="10.0364073" ry="9.99838897"></ellipse>
                        <ellipse id="Oval-22" fill="#333333" cx="30.9455893" cy="60.8235329" rx="2.50910184" ry="2.49959724"></ellipse>
                        <path d="M71.6984762,84.3045361 C58.7983218,79.6634656 44.8700551,70.8405107 32.3381481,65.2549137 C26.3067683,62.5666671 28.2029074,58.7405284 29.0739971,57.4967326 C31.2650644,54.368191 45.7459135,57.0079456 49.2766677,57.4967326 C60.107208,58.9960799 71.0804876,60.3133123 81.5018673,63.6624203 C88.3658739,65.8682991 89.2851525,75.9899619 81.5018673,83.1008874 C80.025188,84.4500036 76.757391,84.8512199 71.6984762,84.3045361 Z" id="Path-142" stroke="#333333"></path>
                        <path d="M63.1362261,27.2758615 C61.4634915,18.9438707 58.5457095,11.6647871 56.872975,3.33279632 L63.1362261,27.2758615 Z" id="Path-143" stroke="#333333" stroke-width="5"></path>
                        <rect id="Rectangle-65" fill="#6C6B6B" x="46.8365676" y="0" width="21.7455493" height="4.99919449" rx="2.49959724"></rect>
                    </g>
                    <g id="Group-82" transform="translate(95.000000, 6.500000) scale(-1, 1) translate(-95.000000, -6.500000) translate(88.000000, 0.000000)" stroke="#FFFFFF" stroke-linecap="round">
                        <g id="Group-81" transform="translate(6.791912, 6.175205) rotate(-34.000000) translate(-6.791912, -6.175205) translate(1.291912, 2.675205)">
                            <path d="M10.5130776,6.54148134 C2.68401298,4.22029209 6.22008394,6.24272376 0.089037513,0.167084248" id="Path-54" transform="translate(5.301058, 3.354283) scale(-1, 1) translate(-5.301058, -3.354283) "></path>
                        </g>
                    </g>
                </g>
                <path d="M61,34.9790276 L63.885954,29.5721658 L63.2920735,19.5915937 L63.2920735,11.2471752 C64.8260612,9.13906983 66.6823227,7.85877939 68.860858,7.4063039 C72.128661,6.72759067 73.352777,6.73880969 75.5656081,8.69799759 C77.7784391,10.6571855 78.7658929,11.3164706 78.9823155,16.3676013 C79.1987382,21.4187321 77.3766889,24.446864 76.3626763,27.3009249 C75.6866679,29.2036322 74.7371281,30.689549 73.5140571,31.7586752 C73.5328445,33.1144739 74.0035599,34.1879248 74.9262032,34.9790276 C75.8488466,35.7701305 77.200884,36.1089486 78.9823155,35.9954818 L74.3864693,42 L64.4589917,39.7289936 L61,34.9790276 Z" id="Line-65" fill="#FCB405" transform="translate(70.000000, 24.500000) scale(-1, 1) translate(-70.000000, -24.500000) "></path>
                <path d="M62.678219,19 C63.3908796,20.4283769 62.8760857,22.6285397 63.4779761,23.032061 C66.2849049,24.9138909 65.0660456,25.4850063 61,24.576819" id="Path-272" fill="#FCB405" transform="translate(63.000000, 22.000000) scale(-1, 1) translate(-63.000000, -22.000000) "></path>
                <path d="M0.321801385,103.46897 C1.39721534,123.495604 -0.902976204,123.133247 8.05965639,140.215543 C9.30309704,142.585474 12.6586174,145.934156 13.1750068,148.559058 C14.448063,155.030234 12.4865993,159.659025 13.1750068,166.217802 C15.0757294,184.326868 24.5096898,205.199504 31.7916671,221.765761 L35.8344346,221.765761 C36.0888304,209.151865 36.0888304,201.045446 35.8344346,197.446504 C35.021174,185.941296 33.2011882,176.49303 33.2011882,168.056158 C33.2011882,155.660581 34.078937,149.161548 35.8344346,148.559058 L41.1010536,134.166573 C45.7461185,137.091773 49.3173913,139.108097 51.8148721,140.215543 C54.3123529,141.32299 57.9138336,142.094377 62.6193142,142.529703 C57.2515099,144.717305 53.652339,146.72709 51.8218014,148.559058 C49.9912638,150.391025 44.6621415,158.689751 35.8344346,173.455235 L37.4843194,177.284101 C80.3420413,152.504521 100.805664,136.760694 98.8751879,130.052619 C97.507074,125.298658 88.4127177,114.870893 72.7842466,107.832195 C68.5015314,105.90336 62.5099125,102.959295 54.80939,99 L0.321801385,103.46897 Z" id="Path-269" fill="#FCB405" transform="translate(49.660901, 160.382880) scale(-1, 1) translate(-49.660901, -160.382880) "></path>
                <path d="M71.4020483,34.0565322 C62.4771315,33.6116324 54.546099,35.7927039 47.6089507,40.5997467 C37.2032284,47.810311 37.850835,47.7584309 32.9439335,60.7057833 C28.037032,73.6531357 26.5257862,81.6700198 29.5773546,88.1779239 C31.6117336,92.5165266 38.1111606,94.8268632 49.0756356,95.1089338 L52.2749577,104 L82.4583738,102.246436 L102.976278,98.9025563 L102.976278,95.1089338 C110.41628,95.5486562 115.663425,93.2383195 118.717714,88.1779239 C123.299148,80.5873303 122.884126,82.6782969 118.717714,69.0282661 C114.551302,55.3782353 110.206243,48.1842061 104.796804,42.5701272 C101.19051,38.8274079 95.3290179,36.7477085 87.2123262,36.331029 C83.9007061,39.5636705 80.9004483,40.9865764 78.2115526,40.5997467 C75.5226569,40.212917 73.2528221,38.0318455 71.4020483,34.0565322 Z" id="Line-64" fill="#FCB405" transform="translate(75.000000, 69.000000) scale(-1, 1) translate(-75.000000, -69.000000) "></path>
                <path d="M61.439012,221.855904 C58.9196825,238.744784 68.0260304,230.739453 68.9287153,224.915649 C69.21957,223.039157 68.6522878,220.56478 66.635649,220.052199 C65.5188815,219.768344 64.577588,220.711772 61.619351,221.205883 L61.439012,221.855904 Z" id="Path-271" fill="#07176E" transform="translate(65.000000, 226.000000) scale(-1, 1) translate(-65.000000, -226.000000) "></path>
                <path d="M61.4054238,175.629712 C64.1903097,179.957288 65.5827527,183.110541 65.5827527,185.08947 C65.5827527,186.832918 67.0057421,192.386897 65.5827527,197.458906 C65.454621,197.915609 64.5379492,197.915609 62.8327371,197.458906 L57.3675602,181.83488 L57.3675602,173.749772 C58.5915772,171.931317 59.413204,171.119684 59.8324407,171.314871 C60.2516775,171.510058 60.7760052,172.948339 61.4054238,175.629712 Z" id="Line-63" fill="#0A1D75" transform="translate(61.791376, 184.543962) scale(-1, 1) translate(-61.791376, -184.543962) "></path>
                <polygon id="Line-66" fill="#D2990D" transform="translate(75.500000, 31.000000) scale(-1, 1) translate(-75.500000, -31.000000) " points="75.170268 29 78 32.257267 73 33"></polygon>
                <circle id="Oval-42" fill="#333333" transform="translate(68.500000, 18.500000) scale(-1, 1) translate(-68.500000, -18.500000) " cx="68.5" cy="18.5" r="1"></circle>
                <circle id="Oval-42" fill="#333333" transform="translate(62.500000, 18.500000) scale(-1, 1) translate(-62.500000, -18.500000) " cx="62.5" cy="18.5" r="1"></circle>
                <path d="M73.2401743,13.9382849 C75.4899955,11.9268499 83.2939741,19.2569744 86.9558786,13.9382849 C93.9623027,3.76188764 76.1958182,-0.474689108 73.2401743,1.03165408 C72.0977844,1.61387283 64.724563,3.8980293 63.6923617,10.7332656 C63.3547138,12.9691698 61.3996379,17.2181779 57.827134,23.4802897 C62.5262598,22.1043418 67.6639398,18.9236736 73.2401743,13.9382849 Z" id="Path-273" fill="#333333" transform="translate(73.203010, 12.108028) scale(-1, 1) translate(-73.203010, -12.108028) "></path>
                <polygon id="Line-71" fill="#0544A2" transform="translate(78.000000, 89.000000) scale(-1, 1) translate(-78.000000, -89.000000) " points="79 86 79 92 77 87.3373191"></polygon>
                <path d="M105.632709,162.314704 C108.53039,158.097128 111.428071,153.879552 114.325752,149.661976 L100.813106,149.661976 L105.632709,162.314704 Z" id="Path-317" fill="#333333"></path>
                <path d="M5.01553681,124.147542 C20.119433,126.026928 27.0474052,132.191099 39.3195365,141.682807 C44.4479008,141.451629 48.2270416,140.782994 50.656959,139.676903 C52.507305,138.834631 55.1485593,136.580722 58.5807219,132.915175 L63.8651884,150.120528 C68.8645339,146.683047 73.066915,144.964306 76.4723317,144.964306 C79.8777484,144.964306 83.2091747,146.683047 86.4666108,150.120528 C92.8453758,141.112687 96.9821661,132.971593 98.8769816,125.697247 C100.771797,118.422901 100.771797,110.682532 98.8769816,102.476138 L104.369968,64.4461884 L105.788492,71.9705325 C108.832479,69.6475184 111.231928,68.2182258 112.98684,67.6826549 C114.741752,67.147084 117.025683,67.147084 119.838633,67.6826549 C116.979622,55.9641671 114.121037,48.1102372 111.262878,44.1208654 C106.97564,38.1368078 102.243402,38.195829 97.5945342,36.6347011 C94.4952892,35.5939491 88.6789171,34.6061709 80.1454177,33.6713665 L70.9284388,39.7331332 L68.6582132,66.2249723 L67.0360641,39.7331332 L60.7677352,36.6347011 C57.5323648,34.5747426 53.2754878,35.6075533 47.9971044,39.7331332 C42.7187209,43.858713 38.4171378,49.5151871 35.0923549,56.7025556 C38.7614886,57.2600716 41.2366448,57.9946235 42.5178233,58.9062114 C43.7990019,59.8177993 45.2895924,62.7432805 46.9895948,67.6826549 L47.9971044,61.689416 L45.9755365,98.2675572 C33.7474056,102.941995 25.1869876,106.824906 20.2942824,109.916291 C16.0847654,112.576014 10.9918502,117.319764 5.01553681,124.147542 Z" id="Path-315" fill="#3277DC"></path>
                <polygon id="Line-98" fill="#2968C5" points="103.920203 60.9276653 106.512874 71.7070999 102.506763 74.8431721"></polygon>
                <path d="M85.0430519,148.279463 C96.2632766,118.315363 92.1278895,133.189955 97.9278436,103.791529 C101.239813,107.021514 101.649299,113.704367 99.1563019,123.840086 C96.6633043,133.975806 92.427879,142.847982 86.450026,150.456614 L85.0430519,148.279463 Z" id="Path-316" fill="#2968C5"></path>
                <path d="M73.2732667,13.9019385 C73.3576939,24.7958534 77.717815,34.031179 66.2759278,32.2077152" id="Path-318" stroke="#333333"></path>
            </g>
            <circle id="Oval-46" fill="#FFD364" cx="169" cy="137" r="12"></circle>
            <path d="M421,189.101499 C425.122507,174.224708 429.590167,161.18441 439.757427,149.193794 C441.663268,146.946168 445.079758,140.479318 446.243599,143.186628 L450.659161,142 C458.181172,159.497594 433.707358,176.999616 442.189469,192.628723 C443.209439,194.508115 446.629251,191.549539 447.998502,189.9071 C454.300433,182.347826 458.530926,173.223968 464.735396,165.584498 C466.521047,163.385852 468.938051,160.104757 471.702751,160.720413 C480.693845,162.722589 459.965474,182.308425 464.580807,190.211921 C465.129407,191.151367 466.887325,191.186036 467.81845,190.623431 C472.113685,188.028159 475.289498,183.843694 479.538848,181.173955 C480.262343,180.719406 481.555521,180.985483 482.051451,181.681266 C483.813205,184.152981 484.558247,187.210152 485.811645,189.974596" id="Path-319" stroke="#3277DC"></path>
            <path d="M136.323079,86.296888 C130.641322,84.772313 118.532693,81.0469723 124.934577,71.8520842 C125.213149,71.4519778 126.311281,71.829493 126.32134,72.316921 L128.186498,80.538722 C128.249578,83.5953499 128.155562,86.9092451 126.677715,89.5856084 C118.431396,104.519593 101.08441,91.4390435 103.999489,77.6915966 C104.172479,76.8757806 105.817122,77.0802662 106.497987,77.5618296 C116.844856,84.8799775 108.396492,110.269355 94.0926549,105.798729 C90.6359903,104.718358 87.650116,101.921338 85.750771,98.8377978 C84.4399139,96.7096532 84.471422,93.7510323 85.1987773,91.3597356 C85.4730737,90.4579423 87.8382913,90.4322635 88.0265345,91.3558619 L89.980786,93.9880004 C90.9258543,98.6248927 91.9273462,103.402176 91.4411483,108.109355 C91.190824,110.532897 89.599923,112.773974 87.8638417,114.48343 C86.5360902,115.790818 84.4395438,115.954122 82.7273949,116.689468" id="Path-320" stroke="#3277DC"></path>
        </g>
        <path d="M365.703125,133.520996 C365.609049,133.692546 365.485922,133.919432 365.33374,134.20166 C365.181558,134.483888 365.007244,134.799315 364.810791,135.147949 C364.614338,135.496584 364.401287,135.871499 364.171631,136.272705 C363.941975,136.673912 363.704021,137.076495 363.457764,137.480469 C363.211506,137.884442 362.959718,138.281492 362.702393,138.671631 C362.445067,139.06177 362.194663,139.42285 361.951172,139.754883 C362.548831,139.69401 363.124346,139.541831 363.677734,139.29834 C364.231123,139.054849 364.749916,138.751874 365.234131,138.389404 C365.718346,138.026935 366.161049,137.620201 366.562256,137.169189 C366.963462,136.718178 367.306558,136.250572 367.591553,135.766357 C367.876548,135.282143 368.0979,134.796552 368.255615,134.30957 C368.413331,133.822589 368.492188,133.363283 368.492188,132.931641 C368.492188,132.566404 368.446534,132.228843 368.355225,131.918945 C368.263916,131.609048 368.125571,131.340659 367.940186,131.11377 C367.754801,130.88688 367.518231,130.709799 367.230469,130.58252 C366.942707,130.45524 366.605145,130.391602 366.217773,130.391602 C365.858071,130.391602 365.496991,130.426188 365.134521,130.495361 C364.772052,130.564535 364.424806,130.657226 364.092773,130.773438 C363.760741,130.889649 363.454998,131.026611 363.175537,131.184326 C362.896076,131.342042 362.656739,131.512206 362.45752,131.694824 C362.236164,131.938315 362.041098,132.181802 361.872314,132.425293 C361.703531,132.668784 361.537517,132.887369 361.374268,133.081055 C361.211018,133.274741 361.03532,133.432454 360.847168,133.554199 C360.659016,133.675945 360.437664,133.736816 360.183105,133.736816 C359.707192,133.736816 359.469238,133.526532 359.469238,133.105957 C359.469238,132.840331 359.555012,132.553957 359.726562,132.246826 C359.898113,131.939696 360.13745,131.635337 360.44458,131.33374 C360.751711,131.032144 361.116941,130.741619 361.540283,130.462158 C361.963625,130.182697 362.429848,129.936443 362.938965,129.723389 C363.448082,129.510334 363.990394,129.34017 364.565918,129.212891 C365.141442,129.085611 365.733558,129.021973 366.342285,129.021973 C367.050622,129.021973 367.667641,129.127115 368.193359,129.337402 C368.719078,129.54769 369.154865,129.836831 369.500732,130.204834 C369.8466,130.572837 370.103922,131.005857 370.272705,131.503906 C370.441488,132.001956 370.525879,132.538734 370.525879,133.114258 C370.525879,133.689782 370.427654,134.292966 370.231201,134.923828 C370.034748,135.554691 369.746991,136.174476 369.36792,136.783203 C368.988849,137.39193 368.521243,137.970212 367.965088,138.518066 C367.408933,139.065921 366.769779,139.547361 366.047607,139.962402 C365.325436,140.377443 364.525802,140.706705 363.648682,140.950195 C362.771561,141.193686 361.823898,141.31543 360.805664,141.31543 C360.584309,141.31543 360.409994,141.244874 360.282715,141.10376 C360.155436,140.962646 360.091797,140.789715 360.091797,140.584961 C360.091797,140.424478 360.119466,140.269532 360.174805,140.120117 C360.230144,139.970702 360.302083,139.832357 360.390625,139.705078 L363.802246,132.92334 C363.962729,132.674315 364.121825,132.475098 364.279541,132.325684 C364.437257,132.176269 364.583902,132.060059 364.719482,131.977051 C364.855063,131.894043 364.975423,131.840088 365.080566,131.815186 C365.18571,131.790283 365.26595,131.777832 365.321289,131.777832 C365.570314,131.777832 365.747395,131.849771 365.852539,131.993652 C365.957683,132.137533 366.010254,132.309081 366.010254,132.508301 C366.010254,132.668783 365.982585,132.837564 365.927246,133.014648 C365.871907,133.191733 365.797201,133.360514 365.703125,133.520996 Z" id="D" fill="#FFFFFF"></path>
        <path d="M215.703125,123.520996 C215.609049,123.692546 215.485922,123.919432 215.33374,124.20166 C215.181558,124.483888 215.007244,124.799315 214.810791,125.147949 C214.614338,125.496584 214.401287,125.871499 214.171631,126.272705 C213.941975,126.673912 213.704021,127.076495 213.457764,127.480469 C213.211506,127.884442 212.959718,128.281492 212.702393,128.671631 C212.445067,129.06177 212.194663,129.42285 211.951172,129.754883 C212.548831,129.69401 213.124346,129.541831 213.677734,129.29834 C214.231123,129.054849 214.749916,128.751874 215.234131,128.389404 C215.718346,128.026935 216.161049,127.620201 216.562256,127.169189 C216.963462,126.718178 217.306558,126.250572 217.591553,125.766357 C217.876548,125.282143 218.0979,124.796552 218.255615,124.30957 C218.413331,123.822589 218.492188,123.363283 218.492188,122.931641 C218.492188,122.566404 218.446534,122.228843 218.355225,121.918945 C218.263916,121.609048 218.125571,121.340659 217.940186,121.11377 C217.754801,120.88688 217.518231,120.709799 217.230469,120.58252 C216.942707,120.45524 216.605145,120.391602 216.217773,120.391602 C215.858071,120.391602 215.496991,120.426188 215.134521,120.495361 C214.772052,120.564535 214.424806,120.657226 214.092773,120.773438 C213.760741,120.889649 213.454998,121.026611 213.175537,121.184326 C212.896076,121.342042 212.656739,121.512206 212.45752,121.694824 C212.236164,121.938315 212.041098,122.181802 211.872314,122.425293 C211.703531,122.668784 211.537517,122.887369 211.374268,123.081055 C211.211018,123.274741 211.03532,123.432454 210.847168,123.554199 C210.659016,123.675945 210.437664,123.736816 210.183105,123.736816 C209.707192,123.736816 209.469238,123.526532 209.469238,123.105957 C209.469238,122.840331 209.555012,122.553957 209.726562,122.246826 C209.898113,121.939696 210.13745,121.635337 210.44458,121.33374 C210.751711,121.032144 211.116941,120.741619 211.540283,120.462158 C211.963625,120.182697 212.429848,119.936443 212.938965,119.723389 C213.448082,119.510334 213.990394,119.34017 214.565918,119.212891 C215.141442,119.085611 215.733558,119.021973 216.342285,119.021973 C217.050622,119.021973 217.667641,119.127115 218.193359,119.337402 C218.719078,119.54769 219.154865,119.836831 219.500732,120.204834 C219.8466,120.572837 220.103922,121.005857 220.272705,121.503906 C220.441488,122.001956 220.525879,122.538734 220.525879,123.114258 C220.525879,123.689782 220.427654,124.292966 220.231201,124.923828 C220.034748,125.554691 219.746991,126.174476 219.36792,126.783203 C218.988849,127.39193 218.521243,127.970212 217.965088,128.518066 C217.408933,129.065921 216.769779,129.547361 216.047607,129.962402 C215.325436,130.377443 214.525802,130.706705 213.648682,130.950195 C212.771561,131.193686 211.823898,131.31543 210.805664,131.31543 C210.584309,131.31543 210.409994,131.244874 210.282715,131.10376 C210.155436,130.962646 210.091797,130.789715 210.091797,130.584961 C210.091797,130.424478 210.119466,130.269532 210.174805,130.120117 C210.230144,129.970702 210.302083,129.832357 210.390625,129.705078 L213.802246,122.92334 C213.962729,122.674315 214.121825,122.475098 214.279541,122.325684 C214.437257,122.176269 214.583902,122.060059 214.719482,121.977051 C214.855063,121.894043 214.975423,121.840088 215.080566,121.815186 C215.18571,121.790283 215.26595,121.777832 215.321289,121.777832 C215.570314,121.777832 215.747395,121.849771 215.852539,121.993652 C215.957683,122.137533 216.010254,122.309081 216.010254,122.508301 C216.010254,122.668783 215.982585,122.837564 215.927246,123.014648 C215.871907,123.191733 215.797201,123.360514 215.703125,123.520996 Z" id="D" fill="#FFFFFF"></path>
        <path d="M216.703125,281.520996 C216.609049,281.692546 216.485922,281.919432 216.33374,282.20166 C216.181558,282.483888 216.007244,282.799315 215.810791,283.147949 C215.614338,283.496584 215.401287,283.871499 215.171631,284.272705 C214.941975,284.673912 214.704021,285.076495 214.457764,285.480469 C214.211506,285.884442 213.959718,286.281492 213.702393,286.671631 C213.445067,287.06177 213.194663,287.42285 212.951172,287.754883 C213.548831,287.69401 214.124346,287.541831 214.677734,287.29834 C215.231123,287.054849 215.749916,286.751874 216.234131,286.389404 C216.718346,286.026935 217.161049,285.620201 217.562256,285.169189 C217.963462,284.718178 218.306558,284.250572 218.591553,283.766357 C218.876548,283.282143 219.0979,282.796552 219.255615,282.30957 C219.413331,281.822589 219.492188,281.363283 219.492188,280.931641 C219.492188,280.566404 219.446534,280.228843 219.355225,279.918945 C219.263916,279.609048 219.125571,279.340659 218.940186,279.11377 C218.754801,278.88688 218.518231,278.709799 218.230469,278.58252 C217.942707,278.45524 217.605145,278.391602 217.217773,278.391602 C216.858071,278.391602 216.496991,278.426188 216.134521,278.495361 C215.772052,278.564535 215.424806,278.657226 215.092773,278.773438 C214.760741,278.889649 214.454998,279.026611 214.175537,279.184326 C213.896076,279.342042 213.656739,279.512206 213.45752,279.694824 C213.236164,279.938315 213.041098,280.181802 212.872314,280.425293 C212.703531,280.668784 212.537517,280.887369 212.374268,281.081055 C212.211018,281.274741 212.03532,281.432454 211.847168,281.554199 C211.659016,281.675945 211.437664,281.736816 211.183105,281.736816 C210.707192,281.736816 210.469238,281.526532 210.469238,281.105957 C210.469238,280.840331 210.555012,280.553957 210.726562,280.246826 C210.898113,279.939696 211.13745,279.635337 211.44458,279.33374 C211.751711,279.032144 212.116941,278.741619 212.540283,278.462158 C212.963625,278.182697 213.429848,277.936443 213.938965,277.723389 C214.448082,277.510334 214.990394,277.34017 215.565918,277.212891 C216.141442,277.085611 216.733558,277.021973 217.342285,277.021973 C218.050622,277.021973 218.667641,277.127115 219.193359,277.337402 C219.719078,277.54769 220.154865,277.836831 220.500732,278.204834 C220.8466,278.572837 221.103922,279.005857 221.272705,279.503906 C221.441488,280.001956 221.525879,280.538734 221.525879,281.114258 C221.525879,281.689782 221.427654,282.292966 221.231201,282.923828 C221.034748,283.554691 220.746991,284.174476 220.36792,284.783203 C219.988849,285.39193 219.521243,285.970212 218.965088,286.518066 C218.408933,287.065921 217.769779,287.547361 217.047607,287.962402 C216.325436,288.377443 215.525802,288.706705 214.648682,288.950195 C213.771561,289.193686 212.823898,289.31543 211.805664,289.31543 C211.584309,289.31543 211.409994,289.244874 211.282715,289.10376 C211.155436,288.962646 211.091797,288.789715 211.091797,288.584961 C211.091797,288.424478 211.119466,288.269532 211.174805,288.120117 C211.230144,287.970702 211.302083,287.832357 211.390625,287.705078 L214.802246,280.92334 C214.962729,280.674315 215.121825,280.475098 215.279541,280.325684 C215.437257,280.176269 215.583902,280.060059 215.719482,279.977051 C215.855063,279.894043 215.975423,279.840088 216.080566,279.815186 C216.18571,279.790283 216.26595,279.777832 216.321289,279.777832 C216.570314,279.777832 216.747395,279.849771 216.852539,279.993652 C216.957683,280.137533 217.010254,280.309081 217.010254,280.508301 C217.010254,280.668783 216.982585,280.837564 216.927246,281.014648 C216.871907,281.191733 216.797201,281.360514 216.703125,281.520996 Z" id="D" fill="#FFFFFF" transform="translate(215.997559, 283.168701) rotate(-285.000000) translate(-215.997559, -283.168701) "></path>
    </g>
</svg>