<?xml version="1.0" encoding="UTF-8"?>
<svg width="595px" height="483px" viewBox="0 0 595 483" version="1.1" xmlns="http://www.w3.org/2000/svg" xmlns:xlink="http://www.w3.org/1999/xlink">
    <!-- Generator: Sketch 49.3 (51167) - http://www.bohemiancoding.com/sketch -->
    <title>Group 8</title>
    <desc>Created with Sketch.</desc>
    <defs></defs>
    <g id="Assets" stroke="none" stroke-width="1" fill="none" fill-rule="evenodd">
        <g id="Group-8" transform="translate(2.000000, 0.000000)">
            <g id="Group-62" transform="translate(150.000000, 0.000000)">
                <g id="Group-53" transform="translate(131.000000, 0.000000)">
                    <g id="Group-57" transform="translate(0.847059, 0.391304)">
                        <rect id="Rectangle-56" fill="#FFA4A4" x="0" y="0" width="311.152941" height="482.608696" rx="7"></rect>
                        <rect id="Rectangle-57" fill="#FED0D0" x="18.125414" y="27.1467391" width="277.923015" height="386.086957"></rect>
                    </g>
                    <ellipse id="Oval-14" fill="#F37777" cx="155.279585" cy="447.71493" rx="19.4470588" ry="19.3498769"></ellipse>
                    <rect id="Rectangle-58" fill="#F97777" x="39.7411765" y="141.531583" width="73.2124567" height="72.8465956" rx="2"></rect>
                    <rect id="Rectangle-58" fill="#F97777" x="124.39308" y="52.7497949" width="73.2124567" height="72.8465956" rx="2"></rect>
                    <rect id="Rectangle-58" fill="#F97777" x="209.044983" y="52.7497949" width="73.2124567" height="72.8465956" rx="2"></rect>
                    <g id="Group-2" transform="translate(83.000000, 84.000000) rotate(14.000000) translate(-83.000000, -84.000000) translate(46.000000, 47.000000)">
                        <rect id="Rectangle-58" fill="#F97777" x="0.741176471" y="0.749794914" width="73.2124567" height="72.8465956" rx="2"></rect>
                        <rect id="Rectangle-8" fill="#FFA4A4" x="22" y="19" width="6" height="36"></rect>
                        <rect id="Rectangle-8" fill="#FFA4A4" transform="translate(45.500000, 31.000000) rotate(-270.000000) translate(-45.500000, -31.000000) " x="42.5" y="20.5" width="6" height="21"></rect>
                        <rect id="Rectangle-8" fill="#FFA4A4" transform="translate(45.500000, 43.000000) rotate(-270.000000) translate(-45.500000, -43.000000) " x="42.5" y="32.5" width="6" height="21"></rect>
                    </g>
                </g>
                <g id="Group-60" transform="translate(0.000000, 33.000000)">
                    <g id="Group-59" transform="translate(226.566626, 375.734003) rotate(28.000000) translate(-226.566626, -375.734003) translate(202.566626, 364.234003)">
                        <path d="M0,1.53916543 C1.0216783,5.94344259 14.9728948,28.0805039 21.1098581,9.59445287 C22.3972031,5.7166513 15.905778,3.19815096 13.303738,0" id="Path-89" fill="#FF3D3D"></path>
                        <path d="M3.47727273,10.3468748 L6.95454545,22.1497859 L47.6410291,7.13010588 L47.6410291,4.21532539 L19.4970905,4.21532539 C18.3266179,7.46805583 16.6506252,9.51190562 14.4691124,10.3468748 C12.2875995,11.1818439 8.623653,11.1818439 3.47727273,10.3468748 Z" id="Line-5" fill="#B01B1B"></path>
                    </g>
                    <g id="Group-33" transform="translate(60.310939, 410.683734) rotate(77.000000) translate(-60.310939, -410.683734) translate(34.310939, 398.183734)">
                        <path d="M0.288159676,1.77554613 C1.31389226,6.28613342 15.3204708,28.9575376 21.481787,10.0252715 C22.7742406,6.05386786 16.2570559,3.47457613 13.6446903,0.199228423" id="Path-89" fill="#FF3D3D"></path>
                        <path d="M7.31077443,12.8100467 L10.8018459,24.8978557 L51.6497838,9.5156317 L51.6497838,6.53049444 L23.3941629,6.53049444 C22.2190456,9.86173906 20.5364021,11.9549232 18.3462325,12.8100467 C16.1560629,13.6651703 12.4775768,13.6651703 7.31077443,12.8100467 Z" id="Line-5" fill="#B01B1B"></path>
                    </g>
                    <path d="M227.678571,104.625571 C228.521342,101.078656 230.638661,97.9509221 231.418383,95.4188928 C234.612299,85.0471261 235.826837,87.3674277 235.158673,89.6673907 C234.156499,93.1170859 233.146622,95.5437449 235.158673,94.1608779 C238.039537,92.1808811 238.421522,89.6673907 239.341909,87.384466 C239.581566,86.7900228 239.984595,84.2222013 241.138762,84.2222013 C242.292929,84.2222013 239.785816,90.5218491 240.542057,90.7302525 C240.819489,90.8067067 241.217049,90.2544185 241.664142,89.2631065 C242.422395,87.581876 243.296604,85.0651371 243.776268,85.3153769 C244.749244,85.8229771 243.270885,91.4304368 243.776268,91.7441143 C244.340006,92.0940116 245.35156,89.4491595 245.980785,89.6673907 C246.669198,89.9061496 245.426161,92.1615133 245.980785,92.6506162 C246.506759,93.1144536 247.348779,91.5924366 247.964795,91.7441143 C249.203299,92.0490635 244.449006,99.4265345 243.776268,99.8334707 C238.297021,103.147842 238.863281,103.545574 234.15444,109.261234" id="Path-78" fill="#FF3D3D"></path>
                    <path d="M43.2589286,86.4153653 C44.1016994,82.86845 46.2190185,79.7407164 46.9987401,77.2086871 C50.1926566,66.8369204 51.4071939,69.157222 50.7390298,71.457185 C49.7368561,74.9068802 48.7269796,77.3335392 50.7390298,75.9506722 C53.6198944,73.9706755 54.0018793,71.457185 54.9222662,69.1742603 C55.1619227,68.5798171 55.5649526,66.0119956 56.7191194,66.0119956 C57.8732862,66.0119956 55.3661736,72.3116434 56.1224139,72.5200468 C56.3998458,72.596501 56.7974062,72.0442128 57.2444988,71.0529008 C58.0027522,69.3716703 58.8769613,66.8549314 59.3566249,67.1051712 C60.3296011,67.6127714 58.8512424,73.2202311 59.3566249,73.5339086 C59.920363,73.8838059 60.9319175,71.2389538 61.5611423,71.457185 C62.2495548,71.6959439 61.0065185,73.9513076 61.5611423,74.4404106 C62.0871159,74.9042479 62.9291364,73.3822309 63.5451517,73.5339086 C64.7836558,73.8388578 60.0293629,81.2163288 59.3566249,81.623265 C53.877378,84.9376365 54.4436377,85.3353685 49.7347975,91.0510284" id="Path-78" fill="#FF3D3D" transform="translate(53.504464, 78.531512) scale(-1, 1) translate(-53.504464, -78.531512) "></path>
                    <g id="Group-29" transform="translate(2.276786, 214.522468)">
                        <path d="M100.354032,31.7717218 C119.505264,53.2556787 114.672615,42.7661124 139.705907,59.186384 C143.449072,61.6416658 146.085999,65.5037278 148.781147,69.0723341 C149.784953,70.4014586 149.249401,72.8154139 150.664776,73.6968607 C153.691359,75.5817116 158.058636,74.5693412 160.951927,76.6518747 C177.186124,88.3369276 189.545907,157.089303 220.689373,151.968192 C220.711808,151.964502 223.841847,150.359651 222.946453,147.804805 C218.259168,134.430487 198.900214,91.7334476 188.097792,77.1389135 C185.445805,73.5559647 183.543858,69.4652419 180.955503,65.8363362 C178.30225,62.1164426 175.491434,58.4902463 172.396969,55.1261667 C169.563453,52.0457711 165.63935,49.9660661 163.218388,46.5538163 C158.755332,40.2633158 145.946897,15.2188714 143.97961,15.7436658 C140.154851,16.7639607 133.945872,30.9941954 129.99183,30.7906197 C121.582261,30.3576491 113.409602,27.816766 105.058407,26.7397685 C102.472293,26.4062548 99.8443718,26.6242529 97.2373541,26.5664951" id="Path-48" fill="#F39A9A"></path>
                        <path d="M33.7740967,42.0927081 C40.400079,49.5257715 41.7056609,55.7405583 44.8199366,57.9576029 C50.7069246,62.1485341 56.7537492,58.7682179 73.1259718,69.5073702 C76.8691369,71.9626521 94.7255883,84.9543538 98.5673055,92.2891449 C111.216257,116.439132 130.22125,166.217259 154.109438,162.289178 C154.131873,162.285489 157.261912,160.680637 156.366517,158.125791 C151.679233,144.751473 137.339002,99.4035691 126.53658,84.8090349 C123.884593,81.2260861 121.603146,73.3915109 119.014791,69.7626053 C116.361538,66.0427116 109.831436,64.4527352 106.736971,61.0886557 C103.903455,58.0082601 65.8864898,18.949288 63.9192034,19.4740824 C60.094444,20.4943773 62.2109753,34.8876161 58.2569341,34.6840404 C49.8473653,34.2510698 46.8296667,38.1377523 38.4784718,37.0607548 C35.8923575,36.727241 33.2644365,36.9452392 30.6574188,36.8874814" id="Path-48" fill="#FAA3A3" transform="translate(93.592474, 90.988771) rotate(-300.000000) translate(-93.592474, -90.988771) "></path>
                    </g>
                    <g id="Group-27" transform="translate(141.496711, 116.169650) scale(-1, 1) translate(-141.496711, -116.169650) translate(106.996711, 79.669650)">
                        <g id="Group-24" transform="translate(34.543341, 36.306262) scale(-1, 1) rotate(-25.000000) translate(-34.543341, -36.306262) translate(10.543341, 7.806262)">
                            <path d="M5.06912275,33.9944672 C11.3225354,22.3392623 5.06912275,21.4264855 7.82356592,13.2521218 C10.8692746,4.21336916 29.3339184,4.93353391 32.08783,13.1927394 C33.1503266,16.3792532 32.127221,20.2458286 33.8373062,23.1274923 C34.3766489,24.0363385 35.1040579,25.8861016 35.0521076,27.0031916 C35.0057077,28.0009319 33.7072876,26.6557019 32.7943551,27.3751483 C31.19436,28.636042 33.420805,33.6632322 31.8594284,34.9730562 C29.5259489,36.9305901 25.7316926,35.9676749 23.1425014,37.5598502 C11.3838185,44.7906345 10.4499078,67.326347 0.0129347399,50.2603094 L5.06912275,33.9944672 Z" id="Path-55" fill="#FF3D3D"></path>
                            <path d="M33.4067267,15.7905805 C33.4067267,8.03561654 27.4067453,1.74897612 20.0053931,1.74897612 C12.6040409,1.74897612 6.60405942,8.03561654 6.60405942,15.7905805" id="Oval-8" fill="#FF6666" transform="translate(20.005393, 8.769778) rotate(-5.000000) translate(-20.005393, -8.769778) "></path>
                            <path d="M33.7194846,13.7200962 C35.7174217,13.2298481 39.9527104,12.0960131 47.3424397,13.7200962" id="Path-56" stroke="#FF6666" stroke-width="2" stroke-linecap="round"></path>
                        </g>
                    </g>
                    <path d="M141.160714,179.825781 C146.501731,171.109018 145.653794,169.134009 154.821429,168.444403" id="Path-58" stroke="#FED0D0" stroke-linecap="round" transform="translate(147.991071, 174.135092) scale(-1, 1) translate(-147.991071, -174.135092) "></path>
                    <path d="M113.676928,102.432407 C112.972119,115.331303 112.267309,128.230198 111.5625,141.129094 L138.883929,141.129094 L138.883929,121.780751 L131.456581,111.183228 L113.676928,102.432407 Z" id="Path-63" fill="#C20000" transform="translate(125.223214, 121.780751) scale(-1, 1) translate(-125.223214, -121.780751) "></path>
                    <path d="M22.0560666,24.7307874 C39.6616523,19.2466451 47.716259,40.9492438 24.2015974,38.7238998 C16.216356,37.9682049 14.8216542,23.5067785 16.4222999,18.7760292 C18.9969226,11.1666656 27.1303682,11.1023641 33.1893295,11.9872633 C40.0959754,12.9959652 42.8717535,25.7596057 43.4806045,30.264272 C45.8048298,47.4603656 39.0555781,60.077866 20.190266,56.3633053 C4.1363352,53.2023028 -5.36187303,34.7648681 3.244209,19.3623964 C11.6315522,4.3514059 21.4274838,-0.942701333 37.9335541,0.13467585 C57.0121594,1.37996644 61.2576512,30.6596852 58.3790362,44.5904182 C56.2199725,55.038964 47.2754025,56.6664385 40.495883,64.0600864 C35.4680391,69.5433817 34.0955516,76.4778048 42.5435082,74.8851081 C43.7600349,74.6557558 44.8111879,73.8774674 45.9450278,73.373647" id="Path-77" stroke="#F97777" stroke-width="5"></path>
                    <path d="M154.821429,282.258188 C156.920637,291.329472 152.769473,278.225452 164.401735,284.750758 C167.087288,286.257262 166.707642,290.803126 168.874761,293.031894 C169.868323,294.053721 171.64873,293.430864 173.035714,293.63035" id="Path-85" stroke="#FED0D0"></path>
                    <path d="M117.232713,143.730061 C99.6524882,137.716292 89.330151,127.901183 80.2397498,111.048181 C68.3739058,89.0496901 75.27181,89.1981323 62.5143878,79.3548159 C61.9185939,78.8951158 61.0775316,78.1116736 60.4317409,78.4964233 C52.4025386,83.2800686 49.5683973,92.2737165 54.5953413,100.355002 C74.820276,132.868486 87.1690333,145.786684 118.116071,164.891851" id="Path-79" stroke="#FED0D0" stroke-width="0.5" fill="#DC6868"></path>
                </g>
            </g>
            <path d="M337,190.382196 C337.322581,184.637474 336.643453,178.751258 337.967742,173.14803 C339.256932,167.693309 350.306053,156.651225 355.891453,165.045951 C359.276255,170.13323 359.493196,183.958256 358.947257,188.274791 C358.644345,190.669805 356.97331,196.981052 355.847657,194.838131 C352.461271,188.391416 359.007558,155.602155 369.612197,164.142777 C377.365879,170.387335 378.074713,187.739861 376.921827,196.439591 C376.867253,196.851413 376.058093,197.17454 375.746409,196.895359 C365.381532,187.611337 378.961475,169.660512 385,162.05628" id="Path-9" stroke="#FFA4A4"></path>
            <path d="M504,101.382196 C504.322581,95.6374741 503.643453,89.7512582 504.967742,84.14803 C506.256932,78.6933094 517.306053,67.6512252 522.891453,76.0459509 C526.276255,81.1332301 526.493196,94.9582563 525.947257,99.2747914 C525.644345,101.669805 523.97331,107.981052 522.847657,105.838131 C519.461271,99.3914164 526.007558,66.6021548 536.612197,75.1427774 C544.365879,81.387335 545.074713,98.7398613 543.921827,107.439591 C543.867253,107.851413 543.058093,108.17454 542.746409,107.895359 C532.381532,98.611337 545.961475,80.6605122 552,73.0562795" id="Path-9" stroke="#FFA4A4"></path>
            <path d="M419,101.382196 C419.322581,95.6374741 418.643453,89.7512582 419.967742,84.14803 C421.256932,78.6933094 432.306053,67.6512252 437.891453,76.0459509 C441.276255,81.1332301 441.493196,94.9582563 440.947257,99.2747914 C440.644345,101.669805 438.97331,107.981052 437.847657,105.838131 C434.461271,99.3914164 441.007558,66.6021548 451.612197,75.1427774 C459.365879,81.387335 460.074713,98.7398613 458.921827,107.439591 C458.867253,107.851413 458.058093,108.17454 457.746409,107.895359 C447.381532,98.611337 460.961475,80.6605122 467,73.0562795" id="Path-9" stroke="#FFA4A4"></path>
            <path d="M250,278.737474 C268.162825,278.737474 281.735145,283.487935 290.283161,282.958876 C298.831178,282.429817 294.49973,224.402534 304.950515,212.735879 C306.516411,210.987803 326.674263,202.083379 338.784105,208 C352.784409,214.840262 397.461028,159.898921 384.750473,135.682741 C377.153558,121.20908 373.100459,169.228327 348.73021,186.039588 C332.326093,197.355594 292.237964,178.519843 290.283161,177.36631 C288.158228,176.112383 267.76023,173.673506 264.818093,177.36631 C259.090452,184.555323 257.398601,193.268693 257.398601,202.360033 C257.398601,208.669145 253.063553,218.526095 251.766607,223.674051 C250.675443,228.005199 250.588869,232.526056 250,236.952059 L250,278.737474 Z" id="Path-50" fill="#DC6868"></path>
            <polyline id="Path-10" stroke="#FED0D0" stroke-width="5" stroke-linecap="round" points="97.0024164 27.7197556 97.0024164 35.4377528 97.0024164 38.0138036 97.0024164 40.0753213 97.0024164 60.0100957 97.0024164 62.5861465 97.0024164 67.1357028 97.0024164 67.3557334"></polyline>
            <path d="M0.826592647,69.6495072 C12.8171758,91.5407919 3.55293497,84.2345554 35.8221765,64.3415438" id="Path-15" stroke="#F97777" stroke-width="4" stroke-linecap="round"></path>
            <path d="M81.7743117,49.411976 C91.4071395,49.4785493 101.039967,49.5451227 110.672795,49.6116961" id="Path-11" stroke="#FED0D0" stroke-width="5" stroke-linecap="round"></path>
            <g id="Group-61" transform="translate(3.000000, 108.000000)">
                <g id="Group-56">
                    <path d="M36.8003887,49.8061403 C46.0857204,49.8061403 61.2102441,45.5826583 67.6850446,41.1289655 C75.3826775,35.8341472 79,33.6653631 79,25 C79,9.04583813 57.2139084,0 36.889615,0 C16.5653215,0 0,4.96441298 0,20.9185749 C0,27.1849576 2.54179274,32.9853232 6.86020494,37.7190261 C8.14077473,39.1227451 2.70430499,48.6056762 4.27737387,49.8061403 C6.14084326,51.2282193 15.0688096,44.3236873 17.2815742,45.4125246 C22.939307,48.196531 29.6303867,49.8061403 36.8003887,49.8061403 Z" id="Oval-7" fill="#F97777"></path>
                    <path d="M11.2857143,31.978043 C11.9500903,26.5980215 14.9620737,8.45723579 25.7567822,14.8673245 C33.4420504,19.4309725 25.2300218,34.8151708 24.7235382,33.7290452 C20.9519049,25.6409906 34.8558211,11.346929 41.1188701,19.1595958 C43.2898586,21.8677351 44.9158863,32.2951026 43.1618112,29.3089229 L41.071776,32.7331048 C36.1813963,24.4076047 48.3167604,13.6539288 56.2756278,18.7047058 C57.2205628,19.3043711 59.4592728,29.6878639 56.8671294,30.7171362 C55.8324312,31.1279878 55.2580482,20.5802893 61.5228499,18.4036076 C64.4052339,17.4021341 67.5314261,17.2924778 70.5357143,16.736913" id="Path-44" stroke="#FFFFFF"></path>
                </g>
            </g>
            <path d="M75.8377739,108.476051 C78.1186144,100.206031 80.399455,91.9360106 82.6802955,83.6659903" id="Path-12" stroke="#F97777" stroke-width="4" stroke-linecap="round"></path>
            <path d="M82.5896392,113.55957 C87.9221245,108.75659 93.2546097,103.953609 98.587095,99.150629" id="Path-13" stroke="#F97777" stroke-width="4" stroke-linecap="round"></path>
            <path d="M87.7218687,122.764568 C94.4791464,121.732168 101.236424,120.699769 107.993702,119.667369" id="Path-14" stroke="#F97777" stroke-width="4" stroke-linecap="round"></path>
        </g>
    </g>
</svg>