<?xml version="1.0" encoding="UTF-8"?>
<svg width="622px" height="443px" viewBox="0 0 622 443" version="1.1" xmlns="http://www.w3.org/2000/svg" xmlns:xlink="http://www.w3.org/1999/xlink">
    <!-- Generator: Sketch 49.3 (51167) - http://www.bohemiancoding.com/sketch -->
    <title>Group 6</title>
    <desc>Created with Sketch.</desc>
    <defs></defs>
    <g id="Assets" stroke="none" stroke-width="1" fill="none" fill-rule="evenodd">
        <g id="Group-6">
            <g id="Group-5">
                <g id="Group-61" transform="translate(534.000000, 31.000000)">
                    <g id="Group-56">
                        <path d="M40.992838,54.7867544 C51.3359924,54.7867544 68.1835631,50.1409241 75.3959991,45.2418621 C83.9705775,39.417562 88,37.0318994 88,27.5 C88,9.95042194 63.7319486,0 41.0922293,0 C18.45251,0 0,5.46085428 0,23.0104323 C0,29.9034533 2.83136406,36.2838555 7.64174727,41.4909288 C9.06820476,43.0350196 3.01239037,53.4662438 4.76466963,54.7867544 C6.840433,56.3510413 16.7855095,48.756056 19.2503612,49.9537771 C25.5526458,53.0161841 33.0060004,54.7867544 40.992838,54.7867544 Z" id="Oval-7" fill="#FFCF83"></path>
                        <path d="M12.5714286,35.1758473 C13.311493,29.2578236 16.6666138,9.30295936 28.6910992,16.3540569 C37.2519042,21.3740698 28.1043281,38.2966878 27.5401438,37.1019497 C23.3388307,28.2050897 38.8267374,12.4816219 45.8032983,21.0755554 C48.2216146,24.0545087 50.032886,35.5246129 48.0789795,32.2398152 L45.7508391,36.0064153 C40.3033275,26.8483652 53.8212015,15.0193217 62.6867753,20.5751764 C63.7393611,21.2348082 66.233114,32.6566503 63.3456631,33.7888498 C62.1930879,34.2407866 61.5532689,22.6383183 68.5317821,20.2439683 C71.7425391,19.1423475 75.2248798,19.0217256 78.5714286,18.4106043" id="Path-44" stroke="#FFEAB8"></path>
                    </g>
                </g>
                <g id="Group-61" transform="translate(503.000000, 183.000000)">
                    <g id="Group-56">
                        <path d="M40.992838,54.7867544 C51.3359924,54.7867544 68.1835631,50.1409241 75.3959991,45.2418621 C83.9705775,39.417562 88,37.0318994 88,27.5 C88,9.95042194 63.7319486,0 41.0922293,0 C18.45251,0 0,5.46085428 0,23.0104323 C0,29.9034533 2.83136406,36.2838555 7.64174727,41.4909288 C9.06820476,43.0350196 3.01239037,53.4662438 4.76466963,54.7867544 C6.840433,56.3510413 16.7855095,48.756056 19.2503612,49.9537771 C25.5526458,53.0161841 33.0060004,54.7867544 40.992838,54.7867544 Z" id="Oval-7" fill="#FFCF83"></path>
                        <path d="M12.5714286,35.1758473 C13.311493,29.2578236 16.6666138,9.30295936 28.6910992,16.3540569 C37.2519042,21.3740698 28.1043281,38.2966878 27.5401438,37.1019497 C23.3388307,28.2050897 38.8267374,12.4816219 45.8032983,21.0755554 C48.2216146,24.0545087 50.032886,35.5246129 48.0789795,32.2398152 L45.7508391,36.0064153 C40.3033275,26.8483652 53.8212015,15.0193217 62.6867753,20.5751764 C63.7393611,21.2348082 66.233114,32.6566503 63.3456631,33.7888498 C62.1930879,34.2407866 61.5532689,22.6383183 68.5317821,20.2439683 C71.7425391,19.1423475 75.2248798,19.0217256 78.5714286,18.4106043" id="Path-44" stroke="#FFEAB8"></path>
                    </g>
                </g>
                <g id="Group-61" transform="translate(534.000000, 336.000000)">
                    <g id="Group-56">
                        <path d="M40.992838,54.7867544 C51.3359924,54.7867544 68.1835631,50.1409241 75.3959991,45.2418621 C83.9705775,39.417562 88,37.0318994 88,27.5 C88,9.95042194 63.7319486,0 41.0922293,0 C18.45251,0 0,5.46085428 0,23.0104323 C0,29.9034533 2.83136406,36.2838555 7.64174727,41.4909288 C9.06820476,43.0350196 3.01239037,53.4662438 4.76466963,54.7867544 C6.840433,56.3510413 16.7855095,48.756056 19.2503612,49.9537771 C25.5526458,53.0161841 33.0060004,54.7867544 40.992838,54.7867544 Z" id="Oval-7" fill="#FFCF83"></path>
                        <path d="M12.5714286,35.1758473 C13.311493,29.2578236 16.6666138,9.30295936 28.6910992,16.3540569 C37.2519042,21.3740698 28.1043281,38.2966878 27.5401438,37.1019497 C23.3388307,28.2050897 38.8267374,12.4816219 45.8032983,21.0755554 C48.2216146,24.0545087 50.032886,35.5246129 48.0789795,32.2398152 L45.7508391,36.0064153 C40.3033275,26.8483652 53.8212015,15.0193217 62.6867753,20.5751764 C63.7393611,21.2348082 66.233114,32.6566503 63.3456631,33.7888498 C62.1930879,34.2407866 61.5532689,22.6383183 68.5317821,20.2439683 C71.7425391,19.1423475 75.2248798,19.0217256 78.5714286,18.4106043" id="Path-44" stroke="#FFEAB8"></path>
                    </g>
                </g>
                <path d="M543,180 C558.649503,200.986276 561.105391,218.677665 545.217903,240" id="Path-120" stroke="#FDB406" stroke-width="3"></path>
                <path d="M577,333 C592.649503,353.986276 595.105391,371.677665 579.217903,393 C568.245311,405.15881 561.824363,411.67925 559.955058,412.561322 C557.151101,413.884429 553.672821,407.832429 554.683317,404.577169 C555.693813,401.32191 559.893766,396.981389 563.389822,401.496406 C565.720527,404.506417 567.318314,411.344851 568.183184,422.011707" id="Path-120" stroke="#FDB406" stroke-width="3"></path>
                <path d="M573,27 C588.649503,47.9862763 591.105391,65.6776648 575.217903,87" id="Path-120" stroke="#FDB406" stroke-width="3"></path>
                <path d="M578,333.13233 C593.191493,316.349239 603.165198,333.605751 581.427264,340" id="Path-121" stroke="#FDB406" stroke-width="3"></path>
                <path d="M578.56263,333.365437 C559.014948,316.551483 561.568733,332.952425 580,339" id="Path-123" stroke="#FDB406" stroke-width="3"></path>
                <path d="M544,180.13233 C559.191493,163.349239 569.165198,180.605751 547.427264,187" id="Path-121" stroke="#FDB406" stroke-width="3"></path>
                <path d="M572,23.1323297 C587.191493,6.34923929 597.165198,23.6057513 575.427264,30" id="Path-121" stroke="#FDB406" stroke-width="3"></path>
                <path d="M573.56263,23.3654373 C554.014948,6.55148256 556.568733,22.9524254 575,29" id="Path-123" stroke="#FDB406" stroke-width="3"></path>
                <path d="M544.56263,181.365437 C525.014948,164.551483 527.568733,180.952425 546,187" id="Path-123" stroke="#FDB406" stroke-width="3"></path>
                <g id="Group-61" transform="translate(326.000000, 0.000000)">
                    <g id="Group-56">
                        <path d="M40.992838,54.7867544 C51.3359924,54.7867544 68.1835631,50.1409241 75.3959991,45.2418621 C83.9705775,39.417562 88,37.0318994 88,27.5 C88,9.95042194 63.7319486,0 41.0922293,0 C18.45251,0 0,5.46085428 0,23.0104323 C0,29.9034533 2.83136406,36.2838555 7.64174727,41.4909288 C9.06820476,43.0350196 3.01239037,53.4662438 4.76466963,54.7867544 C6.840433,56.3510413 16.7855095,48.756056 19.2503612,49.9537771 C25.5526458,53.0161841 33.0060004,54.7867544 40.992838,54.7867544 Z" id="Oval-7" fill="#FFCF83"></path>
                        <path d="M12.5714286,35.1758473 C13.311493,29.2578236 16.6666138,9.30295936 28.6910992,16.3540569 C37.2519042,21.3740698 28.1043281,38.2966878 27.5401438,37.1019497 C23.3388307,28.2050897 38.8267374,12.4816219 45.8032983,21.0755554 C48.2216146,24.0545087 50.032886,35.5246129 48.0789795,32.2398152 L45.7508391,36.0064153 C40.3033275,26.8483652 53.8212015,15.0193217 62.6867753,20.5751764 C63.7393611,21.2348082 66.233114,32.6566503 63.3456631,33.7888498 C62.1930879,34.2407866 61.5532689,22.6383183 68.5317821,20.2439683 C71.7425391,19.1423475 75.2248798,19.0217256 78.5714286,18.4106043" id="Path-44" stroke="#FFEAB8"></path>
                    </g>
                </g>
                <g id="Group-32" transform="translate(136.000000, 332.500000) rotate(58.000000) translate(-136.000000, -332.500000) translate(107.000000, 317.000000)">
                    <path d="M0.63328342,2.8696962 C1.87265266,8.65354862 18.7964813,37.72472 26.241059,13.4481844 C27.802701,8.35571829 19.9281357,5.04833462 16.7716741,0.848409752" id="Path-89" fill="#EEB226"></path>
                    <path d="M4.21818182,14.6950245 L8.43636364,30.1950245 L57.7919935,10.4706499 L57.7919935,6.64285714 L23.6513725,6.64285714 C22.2315051,10.9144577 20.1984055,13.5985135 17.5520736,14.6950245 C14.9057417,15.7915355 10.4611111,15.7915355 4.21818182,14.6950245 Z" id="Line-5" fill="#F1B72E"></path>
                </g>
                <path d="M186,307.191992 C187.296488,313.464315 205.000278,344.990667 212.787951,318.663877 C214.421563,313.141332 206.184086,309.554626 202.882154,305" id="Path-89" fill="#EEB226"></path>
                <path d="M134.53929,204.965771 C148.338098,209.991226 154.074951,211.561232 169.50696,224.927971 C190.835003,243.401678 160.48713,284.517371 154.304872,298.827644 C151.20602,306.000655 149.050103,313.594141 146.194311,320.879779 C145.433701,322.820235 144.751673,324.882041 143.465598,326.480585 C143.050244,326.996855 141.842919,327.254056 141.552632,326.649217 L129.339879,310.054135 C121.87273,294.495689 152.73353,267.269237 145.253466,246.504619 C130.254924,204.868747 108.619831,218.136855 107,191" id="Path-49" fill="#F6BF69"></path>
                <path d="M56.4095847,206.883645 C83.5054158,236.766993 76.6680154,222.176415 112.085991,245.016374 C117.381952,248.431575 121.112768,253.803553 124.925958,258.767345 C126.346177,260.616106 125.588459,263.973824 127.590982,265.199882 C131.873096,267.821636 138.052073,266.413468 142.145602,269.310191 C165.114311,285.563645 163.934088,313.999471 207.996951,306.876205 C208.194859,306.844211 198.75574,294.165987 180.55252,269.987643 C176.800395,265.003901 174.109455,259.313865 170.44736,254.266198 C166.693445,249.091971 162.716604,244.048073 158.338448,239.368769 C154.32949,235.084059 148.777532,232.19127 145.352271,227.444963 C139.037783,218.695122 114.253973,195.534387 112.085991,196.007131 C109.273453,196.620425 112.92443,202.257098 110.141045,202.987066 C104.729642,204.406257 103.936492,205.802136 98.3421765,205.51897 C86.4440249,204.916725 74.8810609,201.382456 63.0654989,199.884394 C59.406574,199.420489 55.6884996,199.723716 52,199.643378" id="Path-48" fill="#FFCF83"></path>
                <path d="M128,250 C131.454227,271.41455 130.980992,246.464424 143,262" id="Path-86" stroke="#FFEAB8"></path>
                <g id="Group-28" transform="translate(247.368402, 117.810635) scale(-1, 1) rotate(-19.000000) translate(-247.368402, -117.810635) translate(220.868402, 66.810635)">
                    <polyline id="Line-4" stroke="#F3CA6A" stroke-width="8" stroke-linecap="square" points="0.147136067 21.6238168 8.79450744 91.1486447 48.6964682 101.742704"></polyline>
                    <path d="M14.9367803,39.211558 C27.5111417,26.2414041 40.0855031,13.2712503 52.6598646,0.301096401" id="Path-71" stroke="#FDB406" stroke-width="3" stroke-linecap="round"></path>
                    <path d="M21.1444526,61.4854885 C31.7264258,60.0218256 42.308399,58.5581627 52.8903722,57.0944997" id="Path-72" stroke="#FDB406" stroke-width="3" stroke-linecap="round"></path>
                    <path d="M24.0328141,75.6508577 C31.7665141,76.6176629 39.5002141,77.584468 47.233914,78.5512732" id="Path-73" stroke="#FDB406" stroke-width="3" stroke-linecap="round"></path>
                </g>
                <path d="M220,183 L260,183 L260,373.003464 C240.615544,379.133112 230.923316,383.762768 230.923316,386.892431 C230.923316,390.022094 240.615544,395.276884 260,402.656799 L260,442 L220,442 L220,339.054683 C238.596572,326.458621 247.894859,317.60706 247.894859,312.5 C247.894859,307.39294 238.596572,303.455972 220,300.689095 L220,183 Z" id="Rectangle-12" fill="#FFBC1E"></path>
                <g id="Group-67" transform="translate(52.000000, 49.000000)">
                    <path d="M6.5635254,112.74195 C9.96908978,124.873455 -4.11349341,148.748176 2.9887685,155.691918 C18.1048536,170.470618 41.5530337,160.418903 48.6257375,159.978278 C63.6234667,159.043929 60.6119363,146.520206 64.7349493,128.983944 C67.491281,117.260538 78.8799467,101.432218 80.8465263,92.2216536 C81.7328258,88.0706302 73.4364872,81.0160714 75.3805124,78.8316122 C82.3358734,71.0160227 93.1993656,77.6829308 112.355949,73.8532904 C131.512532,70.0236501 133.91437,59.8755023 138.729201,51.9229613 C143.443801,44.1359683 132.402791,38.8761254 127.978327,36.7266447 C124.889911,35.2262389 121.093628,40.6068777 119.96899,41.25814 C113.719576,44.8770883 107.499959,48.7669458 100.657939,51.0820001 C76.5186154,59.2497408 76.4473091,46.7627281 57.5425888,35.5337023 C54.9583197,33.9986982 51.3453946,32.8914935 48.6257375,34.172146 C43.4067692,36.629693 39.3720375,41.2543088 35.7939136,45.7748815 C28.8281566,54.5753623 22.5511488,63.9807648 17.217316,73.8532904 C14.1287201,79.5700505 12.2774005,85.9197469 10.7001002,92.2216536 C9.37306462,97.5236586 9.267776,103.057899 8.5516139,108.476022 L6.5635254,112.74195 Z" id="Path-50" fill="#FDB406"></path>
                    <path d="M79.0612245,76.3888889 C58.5067441,70.8255999 67.7903693,75.6728444 51.6938776,61.1111111" id="Path-54" stroke="#FFEAB8" stroke-linecap="round"></path>
                    <path d="M52.6536107,33.9647415 C60.6974541,19.443482 52.6536107,18.3062503 56.1966856,8.12178268 C60.114419,-3.13963005 83.8657227,-2.24237434 87.4081139,8.04779797 C88.7748165,12.0178863 87.4587829,16.8352658 89.658487,20.4255405 C90.3522504,21.5578751 91.2879257,23.8625011 91.2211015,25.2542874 C91.1614167,26.4973755 89.4912426,24.8213488 88.316926,25.7177096 C86.2588321,27.2886613 89.1227364,33.5520547 87.114318,35.1839689 C84.1127339,37.6228671 79.2321343,36.4231678 75.901625,38.4068643 C60.7762833,47.4157232 65.1190874,57.5492795 51.6938776,36.2866451 L52.6536107,33.9647415 Z" id="Path-55" fill="#EEB226"></path>
                    <path d="M127.714286,40.1763551 C128.589739,35.8479944 130.789168,32.0311682 131.599127,28.94129 C134.916903,16.2844475 136.17854,19.1159508 135.484465,21.9226345 C134.443427,26.132356 133.394388,29.0936491 135.484465,27.406113 C138.477049,24.9898895 138.873848,21.9226345 139.829927,19.1367429 C140.078877,18.4113338 140.497537,15.2777778 141.696462,15.2777778 C142.895387,15.2777778 140.291049,22.9653447 141.076616,23.2196629 C141.364807,23.3129612 141.777785,22.6389945 142.242216,21.4292797 C143.029874,19.3776457 143.937985,16.3064266 144.43625,16.6117984 C145.446958,17.2312315 143.911269,24.0741096 144.43625,24.4568955 C145.02185,24.8838811 146.072632,21.6563234 146.726258,21.9226345 C147.441368,22.2139961 146.150126,24.9662546 146.726258,25.5631152 C147.272629,26.1291438 148.147303,24.2718007 148.787208,24.4568955 C150.073741,24.8290302 145.135077,33.8318829 144.43625,34.328474 C138.744518,38.3730577 139.332737,38.8584167 134.441289,45.8333333" id="Path-78" fill="#EEB226"></path>
                </g>
                <path d="M189,319.205275 L193.094266,335 L241,314.900576 L241,311 L207.862311,311 C206.484155,315.352823 204.51078,318.087915 201.942189,319.205275 C199.373597,320.322636 195.059534,320.322636 189,319.205275 Z" id="Line-5" fill="#F2B72F"></path>
                <g id="Group-68" transform="translate(24.000000, 238.000000)" fill="#F8CD68">
                    <ellipse id="Oval-18" cx="31.862069" cy="31.9701493" rx="31.862069" ry="31.9701493"></ellipse>
                    <ellipse id="Oval-18" cx="56.137931" cy="111.134328" rx="31.862069" ry="31.9701493"></ellipse>
                    <path d="M72.8275862,204 C72.8275862,190.547333 61.9589125,179.641791 48.5517241,179.641791 C35.1445357,179.641791 24.2758621,190.547333 24.2758621,204" id="Oval-18"></path>
                </g>
                <path d="M136.563088,58.892152 C121.610861,77.9615362 131.866207,61.6996854 110.894733,66.0494172 C106.472524,66.9666357 110.161242,74.5486214 108.44006,78.1406632 C105.377699,84.5316919 98.4262249,88.3878452 92.5073615,91.5359763 C79.3928456,98.5113387 68.4109535,95.6661077 55.2874214,102.624464 C42.5243512,109.391697 24.3115091,109.391697 0.648895192,102.624464 L23,78.1406632 C41.1151545,77.0773232 51.8776283,75.7517065 55.2874214,74.1638133 C60.3558801,71.8035027 68.569396,55.1094252 86.7530029,46.7711019 C110.944245,35.6779016 145.184568,34.6363682 139.339983,55.7900288 L136.563088,58.892152 Z" id="Path-119" fill="#A38046"></path>
                <g id="Group-65" transform="translate(392.500000, 246.000000) scale(-1, 1) translate(-392.500000, -246.000000) translate(225.000000, 25.000000)">
                    <g id="Group-32" transform="translate(216.588465, 395.919174) rotate(58.000000) translate(-216.588465, -395.919174) translate(187.588465, 380.919174)">
                        <path d="M0.63357852,2.82750405 C1.87352528,8.52631848 18.8052402,37.1700664 26.2532869,13.2504603 C27.8156566,8.23286704 19.9374219,4.9741107 16.7794895,0.835935876" id="Path-89" fill="#EEB226"></path>
                        <path d="M4.22014742,14.4789686 L8.44029484,29.7510775 L57.8189236,10.3167035 L57.8189236,6.5451895 L23.6623936,6.5451895 C22.2418646,10.7539862 20.2078176,13.3985792 17.5602525,14.4789686 C14.9126875,15.559358 10.4659858,15.559358 4.22014742,14.4789686 Z" id="Line-5" fill="#F1B72E"></path>
                    </g>
                    <path d="M215.107968,267.993582 C228.915197,273.016492 234.655553,274.585702 250.096981,287.945669 C271.438043,306.410017 241.071645,347.50488 234.885614,361.807903 C231.784871,368.97728 229.627637,376.566919 226.770103,383.848867 C226.009028,385.788339 225.326584,387.8491 224.039724,389.446835 C223.624116,389.962843 222.416054,390.219913 222.12559,389.615382 L209.905383,373.028707 C202.433676,357.478143 233.313312,330.265484 225.828683,309.511386 C210.820986,267.896607 189.172688,281.157994 187.551868,254.034886" id="Path-49" fill="#F6BF69"></path>
                    <g id="Group-74" transform="translate(167.366710, 220.933451) scale(-1, 1) rotate(-345.000000) translate(-167.366710, -220.933451) translate(46.866710, 24.933451)">
                        <path d="M218.891892,30.56367 C219.771156,26.6695908 221.98016,23.2357218 222.793645,20.4558633 C226.125865,9.06893185 227.392994,11.6163392 226.695897,14.1414173 C225.650327,17.9287608 224.596721,20.5929357 226.695897,19.0747168 C229.70151,16.9009225 230.100035,14.1414173 231.060277,11.6350452 C231.310311,10.9824193 231.730793,8.16326531 232.934938,8.16326531 C234.139082,8.16326531 231.523406,15.0795082 232.312393,15.3083097 C232.601839,15.392247 233.016614,14.7859021 233.483067,13.6975627 C234.274154,11.8517773 235.186219,9.08870573 235.686653,9.36343839 C236.701761,9.92072134 235.159386,16.0770264 235.686653,16.4214059 C236.274802,16.8055503 237.330159,13.9018262 237.98663,14.1414173 C238.704853,14.4035454 237.40799,16.879659 237.98663,17.4166342 C238.53538,17.9258709 239.413862,16.2548824 240.056552,16.4214059 C241.348686,16.7562028 236.388522,24.8557638 235.686653,25.3025299 C229.970143,28.9413045 230.560923,29.3779656 225.64818,35.6530612" id="Path-78" fill="#EEB226"></path>
                        <g id="Group-73" transform="translate(0.000000, -0.000000)">
                            <g id="Group-72" transform="translate(142.189189, 54.000000) scale(-1, 1) translate(-142.189189, -54.000000) translate(110.189189, -0.000000)">
                                <g id="Group-27" transform="translate(0.099662, 36.482197)" fill="#EEB226">
                                    <g id="Group-24" transform="translate(31.503332, 35.273947) scale(-1, 1) rotate(-25.000000) translate(-31.503332, -35.273947) translate(11.503332, 5.773947)">
                                        <path d="M5.76757103,32.3241819 C12.8826092,18.7612514 5.76757103,17.6990712 8.90153472,8.18672646 C12.3668959,-2.3314905 33.3756878,-1.49344908 36.5090467,8.11762437 C37.7179391,11.8257071 36.5538651,16.3251642 38.4995741,19.678499 C39.1132301,20.7361053 39.940865,22.8886378 39.8817568,24.1885733 C39.8289637,25.3496239 38.351641,23.7842064 37.3129202,24.621412 C35.49247,26.0886889 38.0256854,31.9387303 36.2491748,33.4629465 C33.5941771,35.7408898 29.2771298,34.6203646 26.3311873,36.4731472 C12.9523362,44.8874674 11.8897467,71.1118285 0.014716951,51.2524194 L5.76757103,32.3241819 Z" id="Path-55"></path>
                                    </g>
                                </g>
                                <path d="M24.2910698,46.1306186 C24.4129505,43.9766075 21.2368305,-8.29835544 44.5713503,1.82837989 C47.6422279,3.16108204 49.5725572,6.69791959 50.7096812,9.90004218 C58.8307435,32.7688208 38.1749023,8.23860276 43.4597366,41.6239215 C44.4043597,47.5912883 60.840685,49.7133782 56.5523229,53.882319 C51.3200821,69.9240231 47.3264246,77.0548594 44.5713503,75.2748278 C40.220238,72.4636087 40.8165803,65.9971887 37.6689289,59.2589604 C34.6584104,52.814295 27.884771,46.1159005 24.6245539,42.3478069" id="Path-122" fill="#C5972B"></path>
                            </g>
                            <g id="Group-59" transform="translate(31.004663, 367.416294) scale(-1, 1) rotate(28.000000) translate(-31.004663, -367.416294) translate(3.504663, 354.416294)">
                                <path d="M0,1.79109625 C1.16245009,6.91626612 17.0359328,32.6767248 24.0184766,11.1648743 C25.4831982,6.6523536 18.0973532,3.72162476 15.1367915,0" id="Path-89" fill="#A67400"></path>
                                <path d="M3.95638821,12.0404527 L7.91277641,25.775266 L54.2052409,8.29716262 L54.2052409,4.90529045 L22.183494,4.90529045 C20.8517481,8.69042827 18.944829,11.0688157 16.4627368,12.0404527 C13.9806445,13.0120897 9.81186168,13.0120897 3.95638821,12.0404527 Z" id="Line-5" fill="#F2B72F"></path>
                            </g>
                            <path d="M6.77147683,52.1711495 C7.73036867,48.0436747 10.1394223,44.4039933 11.0265777,41.457521 C14.6605675,29.3881021 16.0424496,32.0881909 15.2822226,34.7646122 C14.1419646,38.778954 12.9929424,41.6028089 15.2822226,39.993594 C18.5600268,37.6895111 18.9946434,34.7646122 20.0418456,32.1080181 C20.3145232,31.4162763 20.7730844,28.4281535 22.0862779,28.4281535 C23.3994714,28.4281535 20.5469167,35.7589285 21.4073555,36.0014434 C21.7230132,36.0904117 22.1753514,35.4477248 22.6840466,34.2941547 C23.5467759,32.3377402 24.5414377,29.4090611 25.0871917,29.7002602 C26.1942293,30.2909444 24.5121752,36.816234 25.0871917,37.1812542 C25.7286044,37.5884227 26.8795358,34.510661 27.5954582,34.7646122 C28.3787235,35.0424512 26.9644157,37.6669732 27.5954582,38.2361326 C28.1939031,38.7758909 29.1519412,37.00475 29.8528341,37.1812542 C31.2619852,37.5361176 25.8526229,46.1211341 25.0871917,46.5946776 C18.8529877,50.4515459 19.4972694,50.9143787 14.1396224,57.5655787" id="Path-78" fill="#EEB226" transform="translate(18.428692, 42.996866) scale(-1, 1) translate(-18.428692, -42.996866) "></path>
                            <g id="Group-29" transform="translate(104.598697, 277.788391) scale(-1, 1) translate(-104.598697, -277.788391) translate(32.598697, 197.788391)" fill="#F6BF69">
                                <path d="M4.23535065,19.2397171 C26.0253317,44.2401711 20.526817,32.0336711 49.0093177,51.1416151 C53.2682342,53.9987778 56.2684891,58.4929826 59.3349882,62.6456989 C60.4771032,64.1923746 59.8677601,67.0014465 61.4781527,68.0271687 C64.9217524,70.2205322 69.8907742,69.0424569 73.182717,71.4658598 C91.6537407,85.0635237 105.716514,165.069297 141.151078,159.109962 C141.176604,159.105669 144.737915,157.238135 143.719149,154.265112 C138.386028,138.701683 116.359703,89.0159867 104.068871,72.0326171 C101.05148,67.8632107 98.8874741,63.1029179 95.9424829,58.8800324 C92.9236516,54.551266 89.7255473,50.3315334 86.204713,46.4168208 C82.9807813,42.8322257 78.5159961,40.4121142 75.7614624,36.4413469 C70.6834649,29.1212164 56.1102213,-0.0225062737 53.8718727,0.588186558 C49.5201194,1.77548348 42.4556365,18.334925 37.9567884,18.0980281 C28.3885084,17.5941888 19.0897804,14.6374135 9.58791741,13.384133 C6.64547569,12.9960296 3.65546698,13.2497098 0.689241771,13.1824982" id="Path-48"></path>
                            </g>
                            <path d="M19.7239382,216.826742 C40.3300662,216.826742 55.7281634,222.36339 65.4260775,221.746773 C75.1239916,221.130156 70.2098679,153.499531 82.0665153,139.90208 C83.8430589,137.864703 106.712589,127.486623 120.451473,134.382427 C136.335128,142.354732 187.021744,78.3207636 172.601337,50.0968781 C163.982468,33.2278695 159.384137,89.1941583 131.735549,108.787633 C113.124716,121.976404 67.6438447,100.023393 65.4260775,98.678953 C63.0152942,97.2175044 39.8733127,94.3750007 36.5353934,98.678953 C30.0372578,107.057726 28.1178148,117.213133 28.1178148,127.809063 C28.1178148,135.162313 23.1996074,146.65056 21.7281935,152.650487 C20.4902438,157.698426 20.3920233,162.967473 19.7239382,168.125965 L19.7239382,216.826742 Z" id="Path-50" fill="#FDB406" transform="translate(97.438707, 134.382427) scale(-1, 1) translate(-97.438707, -134.382427) "></path>
                            <path d="M112.98166,139.680141 C119.058588,129.536616 118.093819,127.238338 128.524614,126.435857" id="Path-58" stroke="#FFFFFF" stroke-width="0.6" stroke-linecap="round"></path>
                            <path d="M229.207382,97.0302258 C209.204868,90.0321221 197.460269,78.6104755 187.117349,58.9989707 C173.616571,33.3997643 181.464902,33.5725035 166.9497,22.1180317 C166.271815,21.5830878 165.314867,20.6714116 164.580096,21.1191373 C155.444592,26.6857703 152.219949,37.1514998 157.939529,46.5555309 C180.951154,84.3908274 195.001382,99.4234779 230.212453,121.655781" id="Path-79" stroke="#FFEAB8" stroke-width="0.5" fill="#FDB406" transform="translate(192.650315, 71.327501) scale(-1, 1) translate(-192.650315, -71.327501) "></path>
                            <path d="M89.5494132,256.498559 C91.9378605,267.054632 87.2147297,251.805744 100.449741,259.399113 C103.505322,261.152202 103.073366,266.442134 105.539081,269.035706 C106.669542,270.224786 108.695261,269.499981 110.273351,269.732118" id="Path-85" stroke="#FFEAB8" transform="translate(99.911382, 263.120701) scale(-1, 1) translate(-99.911382, -263.120701) "></path>
                        </g>
                    </g>
                </g>
            </g>
        </g>
    </g>
</svg>