<?xml version="1.0" encoding="UTF-8"?>
<svg width="544px" height="508px" viewBox="0 0 544 508" version="1.1" xmlns="http://www.w3.org/2000/svg" xmlns:xlink="http://www.w3.org/1999/xlink">
    <!-- Generator: Sketch 49.3 (51167) - http://www.bohemiancoding.com/sketch -->
    <title>Group 7</title>
    <desc>Created with Sketch.</desc>
    <defs></defs>
    <g id="Assets" stroke="none" stroke-width="1" fill="none" fill-rule="evenodd">
        <g id="Group-7" transform="translate(0.000000, 1.000000)">
            <g id="Group-2">
                <g id="Group-90" transform="translate(490.000000, 460.000000) rotate(26.000000) translate(-490.000000, -460.000000) translate(462.000000, 438.000000)" fill="#3F6ACD">
                    <path d="M13.9951965,34.098321 C17.5608075,37.3259588 21.1264184,40.5535966 24.6920294,43.7812344 L55.9518892,17.5109043 L41.9466602,11.4498893 L13.9951965,34.098321 Z" id="Path-186"></path>
                    <path d="M0.344402861,25.8630269 C3.91001381,29.0906647 9.43920881,29.7176203 13.0048198,32.9452581 L39.6157927,11.5445494 L32.8536959,0.373438182 L0.344402861,25.8630269 Z" id="Path-186"></path>
                </g>
                <path d="M293,219 C297.666667,216 302.333333,213 307,210" id="Path-181" stroke="#979797"></path>
                <g id="Group-61" transform="translate(232.000000, 76.000000)">
                    <g id="Group-56">
                        <path d="M36.8003887,49.8061403 C46.0857204,49.8061403 61.2102441,45.5826583 67.6850446,41.1289655 C75.3826775,35.8341472 79,33.6653631 79,25 C79,9.04583813 57.2139084,0 36.889615,0 C16.5653215,0 0,4.96441298 0,20.9185749 C0,27.1849576 2.54179274,32.9853232 6.86020494,37.7190261 C8.14077473,39.1227451 2.70430499,48.6056762 4.27737387,49.8061403 C6.14084326,51.2282193 15.0688096,44.3236873 17.2815742,45.4125246 C22.939307,48.196531 29.6303867,49.8061403 36.8003887,49.8061403 Z" id="Oval-7" fill="#6EA9FF"></path>
                        <path d="M11.2857143,31.978043 C11.9500903,26.5980215 14.9620737,8.45723579 25.7567822,14.8673245 C33.4420504,19.4309725 25.2300218,34.8151708 24.7235382,33.7290452 C20.9519049,25.6409906 34.8558211,11.346929 41.1188701,19.1595958 C43.2898586,21.8677351 44.9158863,32.2951026 43.1618112,29.3089229 L41.071776,32.7331048 C36.1813963,24.4076047 48.3167604,13.6539288 56.2756278,18.7047058 C57.2205628,19.3043711 59.4592728,29.6878639 56.8671294,30.7171362 C55.8324312,31.1279878 55.2580482,20.5802893 61.5228499,18.4036076 C64.4052339,17.4021341 67.5314261,17.2924778 70.5357143,16.736913" id="Path-44" stroke="#CFDFFF"></path>
                    </g>
                </g>
                <path d="M374,137.371563 C374.863702,133.830177 377.033608,130.707319 377.832696,128.179237 C381.105938,117.823639 382.350641,120.140323 381.665882,122.436701 C380.638817,125.881019 379.603859,128.303895 381.665882,126.923183 C384.618297,124.946273 385.009769,122.436701 385.953015,120.157335 C386.198624,119.563819 386.611664,117 387.794496,117 C388.977329,117 386.407948,123.289827 387.182971,123.497906 C387.467293,123.574241 387.874727,123.022814 388.332924,122.033047 C389.11001,120.354437 390.005932,117.841622 390.497508,118.091471 C391.49465,118.59828 389.979574,124.196999 390.497508,124.510187 C391.075248,124.859539 392.111926,122.21881 392.756779,122.436701 C393.462289,122.675088 392.18838,124.926936 392.756779,125.415276 C393.295816,125.87839 394.158749,124.358746 394.790064,124.510187 C396.059328,124.814661 391.186955,132.180631 390.497508,132.586933 C384.882176,135.896138 385.462499,136.29325 380.636708,142" id="Path-78" fill="#3177DC"></path>
                <rect id="Rectangle-70" stroke="#1483D9" x="0.5" y="139.5" width="543" height="75"></rect>
                <rect id="Rectangle-70" stroke="#1483D9" x="0.5" y="212.5" width="543" height="75"></rect>
                <rect id="Rectangle-70" stroke="#1483D9" x="0.5" y="286.5" width="543" height="75"></rect>
                <rect id="Rectangle-70" stroke="#1483D9" x="0.5" y="286.5" width="188" height="75"></rect>
                <rect id="Rectangle-70" stroke="#1483D9" x="219.5" y="212.5" width="188" height="75"></rect>
                <rect id="Rectangle-70" stroke="#1483D9" x="27.5" y="139.5" width="188" height="75"></rect>
                <rect id="Rectangle-70" stroke="#1483D9" x="328.5" y="139.5" width="64" height="75"></rect>
                <rect id="Rectangle-71" fill="#2850AE" x="32" y="147" width="13" height="65"></rect>
                <rect id="Rectangle-71" fill="#2850AE" x="147" y="147" width="13" height="65"></rect>
                <rect id="Rectangle-71" fill="#4269C4" x="164" y="147" width="13" height="65"></rect>
                <rect id="Rectangle-71" fill="#4269C4" x="181" y="147" width="13" height="65"></rect>
                <rect id="Rectangle-71" fill="#2850AE" x="197" y="147" width="13" height="65"></rect>
                <rect id="Rectangle-71" fill="#2850AE" x="50" y="158" width="11" height="55"></rect>
                <rect id="Rectangle-71" fill="#456BC4" x="63" y="158" width="11" height="55"></rect>
                <rect id="Rectangle-71" fill="#456BC4" x="82" y="158" width="11" height="55"></rect>
                <rect id="Rectangle-71" fill="#456BC4" x="36" y="231" width="11" height="55"></rect>
                <rect id="Rectangle-71" fill="#456BC4" x="50" y="231" width="11" height="55"></rect>
                <rect id="Rectangle-71" fill="#456BC4" x="55" y="305" width="11" height="55"></rect>
                <rect id="Rectangle-71" fill="#456BC4" x="69" y="305" width="11" height="55"></rect>
                <rect id="Rectangle-71" fill="#456BC4" x="79" y="231" width="11" height="55"></rect>
                <rect id="Rectangle-71" fill="#456BC4" x="93" y="231" width="11" height="55"></rect>
                <rect id="Rectangle-71" fill="#456BC4" transform="translate(174.500000, 239.500000) rotate(-270.000000) translate(-174.500000, -239.500000) " x="169" y="212" width="11" height="55"></rect>
                <rect id="Rectangle-71" fill="#2850AE" x="95" y="158" width="11" height="55"></rect>
                <rect id="Rectangle-71" fill="#2850AE" x="6" y="231" width="11" height="55"></rect>
                <rect id="Rectangle-71" fill="#2850AE" x="76" y="160" width="2" height="52"></rect>
                <rect id="Rectangle-71" fill="#2850AE" x="19" y="234" width="2" height="52"></rect>
                <rect id="Rectangle-71" fill="#2850AE" x="24" y="234" width="2" height="52"></rect>
                <rect id="Rectangle-71" fill="#2850AE" x="30" y="234" width="2" height="52"></rect>
                <rect id="Rectangle-71" fill="#2850AE" x="107" y="234" width="2" height="52"></rect>
                <rect id="Rectangle-71" fill="#2850AE" x="113" y="234" width="2" height="52"></rect>
                <rect id="Rectangle-71" fill="#2850AE" x="121" y="234" width="2" height="52"></rect>
                <rect id="Rectangle-71" fill="#2850AE" x="126" y="234" width="2" height="52"></rect>
                <rect id="Rectangle-71" fill="#2850AE" x="134" y="234" width="2" height="52"></rect>
                <rect id="Rectangle-71" fill="#2850AE" x="139" y="234" width="2" height="52"></rect>
                <rect id="Rectangle-71" fill="#2850AE" x="227" y="234" width="2" height="52"></rect>
                <rect id="Rectangle-71" fill="#2850AE" x="232" y="234" width="2" height="52"></rect>
                <rect id="Rectangle-71" fill="#2850AE" x="241" y="234" width="2" height="52"></rect>
                <rect id="Rectangle-71" fill="#2850AE" x="247" y="234" width="2" height="52"></rect>
                <rect id="Rectangle-71" fill="#2850AE" x="254" y="234" width="2" height="52"></rect>
                <rect id="Rectangle-71" fill="#2850AE" x="260" y="234" width="2" height="52"></rect>
                <rect id="Rectangle-71" fill="#2850AE" x="268" y="234" width="2" height="52"></rect>
                <rect id="Rectangle-71" fill="#2850AE" x="273" y="234" width="2" height="52"></rect>
                <rect id="Rectangle-71" fill="#456BC4" x="241" y="158" width="11" height="55"></rect>
                <rect id="Rectangle-71" fill="#2850AE" x="223" y="160" width="2" height="52"></rect>
                <rect id="Rectangle-71" fill="#2850AE" x="229" y="160" width="2" height="52"></rect>
                <rect id="Rectangle-71" fill="#2850AE" x="234" y="160" width="2" height="52"></rect>
                <rect id="Rectangle-71" fill="#2850AE" x="6" y="310" width="2" height="52"></rect>
                <rect id="Rectangle-71" fill="#2850AE" x="11" y="310" width="2" height="52"></rect>
                <rect id="Rectangle-71" fill="#2850AE" x="17" y="310" width="2" height="52"></rect>
                <rect id="Rectangle-71" fill="#2850AE" x="21" y="310" width="2" height="52"></rect>
                <rect id="Rectangle-71" fill="#2850AE" x="27" y="310" width="2" height="52"></rect>
                <rect id="Rectangle-71" fill="#2850AE" x="32" y="310" width="2" height="52"></rect>
                <rect id="Rectangle-71" fill="#2850AE" x="39" y="310" width="2" height="52"></rect>
                <rect id="Rectangle-71" fill="#2850AE" x="44" y="310" width="2" height="52"></rect>
                <rect id="Rectangle-71" fill="#2850AE" x="50" y="310" width="2" height="52"></rect>
                <rect id="Rectangle-71" fill="#2850AE" x="82" y="310" width="2" height="52"></rect>
                <rect id="Rectangle-71" fill="#2850AE" x="87" y="310" width="2" height="52"></rect>
                <rect id="Rectangle-71" fill="#2850AE" x="93" y="310" width="2" height="52"></rect>
                <rect id="Rectangle-71" fill="#2850AE" x="97" y="310" width="2" height="52"></rect>
                <rect id="Rectangle-71" fill="#2850AE" x="105" y="310" width="2" height="52"></rect>
                <rect id="Rectangle-71" fill="#2850AE" x="109" y="310" width="2" height="52"></rect>
                <rect id="Rectangle-71" fill="#2850AE" x="115" y="310" width="2" height="52"></rect>
                <rect id="Rectangle-71" fill="#2850AE" x="121" y="310" width="2" height="52"></rect>
                <rect id="Rectangle-71" fill="#2850AE" x="126" y="310" width="2" height="52"></rect>
                <rect id="Rectangle-71" fill="#2850AE" x="132" y="310" width="2" height="52"></rect>
                <rect id="Rectangle-71" fill="#2850AE" x="137" y="310" width="2" height="52"></rect>
                <rect id="Rectangle-71" fill="#2850AE" x="142" y="310" width="2" height="52"></rect>
                <rect id="Rectangle-71" fill="#2850AE" x="147" y="310" width="2" height="52"></rect>
                <rect id="Rectangle-71" fill="#2850AE" x="153" y="310" width="2" height="52"></rect>
                <rect id="Rectangle-71" fill="#2850AE" x="158" y="310" width="2" height="52"></rect>
                <rect id="Rectangle-71" fill="#2850AE" x="164" y="310" width="2" height="52"></rect>
                <path d="M154.228189,155 C161.170542,157.579661 151.87727,168.881351 151.022003,176.346165 C150.382474,181.928014 163.989214,201.300242 152.126921,205" id="Path-179" stroke="#CFDFFF" stroke-linecap="round"></path>
                <path d="M39.2281887,155 C46.1705417,157.579661 36.87727,168.881351 36.0220035,176.346165 C35.3824739,181.928014 48.9892136,201.300242 37.1269211,205" id="Path-179" stroke="#CFDFFF" stroke-linecap="round"></path>
                <rect id="Rectangle-71" fill="#2850AE" x="11" y="147" width="13" height="65"></rect>
                <path d="M17.2281887,155 C24.1705417,157.579661 14.87727,168.881351 14.0220035,176.346165 C13.3824739,181.928014 26.9892136,201.300242 15.1269211,205" id="Path-179" stroke="#CFDFFF" stroke-linecap="round"></path>
                <rect id="Rectangle-71" fill="#2850AE" x="63" y="221" width="13" height="65"></rect>
                <path d="M138.987287,175 C138.750154,212.967618 150.182196,211.340351 130,208.937342" id="Path-180" stroke="#1483D9"></path>
                <path d="M70.2281887,229 C77.1705417,231.579661 67.87727,242.881351 67.0220035,250.346165 C66.3824739,255.928014 79.9892136,275.300242 68.1269211,279" id="Path-179" stroke="#CFDFFF" stroke-linecap="round"></path>
                <rect id="Rectangle-71" fill="#2850AE" x="169" y="294" width="13" height="65"></rect>
                <path d="M175.228189,302 C182.170542,304.579661 172.87727,315.881351 172.022003,323.346165 C171.382474,328.928014 184.989214,348.300242 173.126921,352" id="Path-179" stroke="#CFDFFF" stroke-linecap="round"></path>
                <rect id="Rectangle-71" fill="#2850AE" x="197" y="294" width="13" height="65"></rect>
                <path d="M203.228189,302 C210.170542,304.579661 200.87727,315.881351 200.022003,323.346165 C199.382474,328.928014 212.989214,348.300242 201.126921,352" id="Path-179" stroke="#CFDFFF" stroke-linecap="round"></path>
                <rect id="Rectangle-71" fill="#2850AE" x="213" y="294" width="13" height="65"></rect>
                <path d="M220.228189,302 C227.170542,304.579661 217.87727,315.881351 217.022003,323.346165 C216.382474,328.928014 229.989214,348.300242 218.126921,352" id="Path-179" stroke="#CFDFFF" stroke-linecap="round"></path>
                <g id="Group-91" transform="translate(178.500000, 275.500000) rotate(-270.000000) translate(-178.500000, -275.500000) translate(172.000000, 243.000000)">
                    <rect id="Rectangle-71" fill="#2850AE" x="0" y="0" width="13" height="65"></rect>
                    <path d="M5.97479021,7.34107485 C11.744755,9.89495644 4.02088234,21.0837046 3.31004875,28.4739194 C2.77851961,33.9999871 14.0874244,53.1786207 4.22837371,56.841406" id="Path-179" stroke="#CFDFFF" stroke-linecap="round"></path>
                </g>
                <g id="Group-91" transform="translate(178.500000, 255.500000) rotate(-270.000000) translate(-178.500000, -255.500000) translate(172.000000, 223.000000)">
                    <rect id="Rectangle-71" fill="#2850AE" x="0" y="0" width="13" height="65"></rect>
                    <path d="M5.97479021,7.34107485 C11.744755,9.89495644 4.02088234,21.0837046 3.31004875,28.4739194 C2.77851961,33.9999871 14.0874244,53.1786207 4.22837371,56.841406" id="Path-179" stroke="#CFDFFF" stroke-linecap="round"></path>
                </g>
                <path d="M170.228189,155 C177.170542,157.579661 167.87727,168.881351 167.022003,176.346165 C166.382474,181.928014 179.989214,201.300242 168.126921,205" id="Path-179" stroke="#CFDFFF" stroke-linecap="round"></path>
                <path d="M187.228189,155 C194.170542,157.579661 184.87727,168.881351 184.022003,176.346165 C183.382474,181.928014 196.989214,201.300242 185.126921,205" id="Path-179" stroke="#CFDFFF" stroke-linecap="round" transform="translate(187.000000, 180.000000) rotate(-180.000000) translate(-187.000000, -180.000000) "></path>
                <path d="M203.228189,155 C210.170542,157.579661 200.87727,168.881351 200.022003,176.346165 C199.382474,181.928014 212.989214,201.300242 201.126921,205" id="Path-179" stroke="#CFDFFF" stroke-linecap="round"></path>
                <rect id="Rectangle-71" fill="#2850AE" x="258" y="147" width="13" height="65"></rect>
                <rect id="Rectangle-71" fill="#4269C4" x="273" y="147" width="13" height="65"></rect>
                <rect id="Rectangle-71" fill="#2850AE" x="307" y="147" width="13" height="65"></rect>
                <path d="M263.228189,155 C270.170542,157.579661 260.87727,168.881351 260.022003,176.346165 C259.382474,181.928014 272.989214,201.300242 261.126921,205" id="Path-179" stroke="#CFDFFF" stroke-linecap="round"></path>
                <path d="M281.228189,155 C288.170542,157.579661 278.87727,168.881351 278.022003,176.346165 C277.382474,181.928014 290.989214,201.300242 279.126921,205" id="Path-179" stroke="#CFDFFF" stroke-linecap="round"></path>
                <path d="M313.228189,155 C320.170542,157.579661 310.87727,168.881351 310.022003,176.346165 C309.382474,181.928014 322.989214,201.300242 311.126921,205" id="Path-179" stroke="#CFDFFF" stroke-linecap="round"></path>
                <path d="M455.333333,179 L484.666667,179" id="Line-23" stroke="#456BC4" stroke-width="2" stroke-linecap="round"></path>
                <path d="M455.333333,255 L484.666667,255" id="Line-23" stroke="#456BC4" stroke-width="2" stroke-linecap="round"></path>
                <path d="M369.333333,327 L398.666667,327" id="Line-23" stroke="#456BC4" stroke-width="2" stroke-linecap="round"></path>
                <path d="M329.333333,251 L358.666667,251" id="Line-23" stroke="#456BC4" stroke-width="2" stroke-linecap="round"></path>
                <path d="M337,2.39247312 L337,442.607527" id="Line-24" stroke="#9CC6FF" stroke-width="5" stroke-linecap="square"></path>
                <path d="M376,2.39247312 L376,442.607527" id="Line-24" stroke="#9CC6FF" stroke-width="5" stroke-linecap="square"></path>
                <path d="M337.4,96 L376.699873,96" id="Line-25" stroke="#9CC6FF" stroke-width="3" stroke-linecap="square"></path>
                <path d="M337.4,66 L376.699873,66" id="Line-25" stroke="#9CC6FF" stroke-width="3" stroke-linecap="square"></path>
                <path d="M337.4,36 L376.699873,36" id="Line-25" stroke="#9CC6FF" stroke-width="3" stroke-linecap="square"></path>
                <path d="M337.4,6 L376.699873,6" id="Line-25" stroke="#9CC6FF" stroke-width="3" stroke-linecap="square"></path>
                <path d="M337.4,124 L376.699873,124" id="Line-25" stroke="#9CC6FF" stroke-width="3" stroke-linecap="square"></path>
                <path d="M337.4,151 L376.699873,151" id="Line-25" stroke="#9CC6FF" stroke-width="3" stroke-linecap="square"></path>
                <path d="M337.4,179 L376.699873,179" id="Line-25" stroke="#9CC6FF" stroke-width="3" stroke-linecap="square"></path>
                <path d="M337.4,206 L376.699873,206" id="Line-25" stroke="#9CC6FF" stroke-width="3" stroke-linecap="square"></path>
                <path d="M337.4,233 L376.699873,233" id="Line-25" stroke="#9CC6FF" stroke-width="3" stroke-linecap="square"></path>
                <path d="M337.4,260 L376.699873,260" id="Line-25" stroke="#9CC6FF" stroke-width="3" stroke-linecap="square"></path>
                <path d="M337.4,288 L376.699873,288" id="Line-25" stroke="#9CC6FF" stroke-width="3" stroke-linecap="square"></path>
                <path d="M337.4,316 L376.699873,316" id="Line-25" stroke="#9CC6FF" stroke-width="3" stroke-linecap="square"></path>
                <path d="M337.4,342 L376.699873,342" id="Line-25" stroke="#9CC6FF" stroke-width="3" stroke-linecap="square"></path>
                <path d="M337.4,369 L376.699873,369" id="Line-25" stroke="#9CC6FF" stroke-width="3" stroke-linecap="square"></path>
                <path d="M337.4,398 L376.699873,398" id="Line-25" stroke="#9CC6FF" stroke-width="3" stroke-linecap="square"></path>
                <g id="Group-92" transform="translate(227.000000, 134.000000)">
                    <g id="Group-29" transform="translate(104.500000, 189.380213) scale(-1, 1) translate(-104.500000, -189.380213) translate(4.000000, 111.880213)">
                        <path d="M26.9885329,31.9529267 C43.7042858,50.6192812 39.486209,41.5054125 61.3359959,55.7721796 C64.6031394,57.9054534 80.1887704,69.1933046 83.5419331,75.5661442 C94.5823068,96.5488809 111.170418,139.79865 132.020724,136.385733 C132.040306,136.382528 134.772295,134.988151 133.990769,132.768371 C129.899571,121.148083 117.382999,81.7475178 107.954331,69.0670442 C105.639599,65.9539961 103.648286,59.1469186 101.389094,55.9939408 C99.0732572,52.761908 93.373594,51.3804556 90.6726556,48.4575722 C88.1994802,45.7811678 66.7833136,17.5709683 65.0662087,18.0269364 C61.7278473,18.9134205 56.308469,31.2773722 52.8572667,31.1004953 C45.51715,30.7243085 38.3838148,28.51666 31.0946486,27.5809098 C28.8374127,27.2911361 26.5436866,27.480544 24.2682057,27.430361" id="Path-48" fill="#2850AE" transform="translate(79.199756, 77.298967) rotate(-300.000000) translate(-79.199756, -77.298967) "></path>
                        <path d="M93.0585893,35.3600349 C109.774342,54.0263894 105.556265,44.9125206 127.406052,59.1792878 C130.673196,61.3125615 132.974782,64.6681174 135.327186,67.7687041 C136.203337,68.923515 135.735891,71.0208822 136.971272,71.786728 C139.612962,73.4243823 143.424848,72.5447834 145.950197,74.3541945 C160.119878,84.5067627 170.907856,144.242323 198.090781,139.792841 C198.110363,139.789636 200.842352,138.395259 200.060825,136.175479 C195.969627,124.555191 179.072568,87.4578321 169.643899,74.7773585 C167.329167,71.6643104 165.669093,68.1100823 163.409901,64.9571045 C161.094065,61.7250717 158.640702,58.5744479 155.939764,55.6515645 C153.466588,52.9751601 150.041517,51.1682066 147.928431,48.2034705 C144.032945,42.7379637 126.725954,21.5929029 125.008849,22.048871 C121.670488,22.9353551 122.378525,34.6844804 118.927323,34.5076035 C111.587206,34.1314166 104.453871,31.9237681 97.164705,30.988018 C94.907469,30.6982442 92.613743,30.8876521 90.338262,30.8374692" id="Path-48" fill="#2658CF"></path>
                    </g>
                    <path d="M0,146.737064 C15.5820249,146.737064 27.2258201,150.895875 34.5592278,150.432708 C41.8926356,149.969541 38.1766537,99.1693057 47.1424611,88.9556824 C48.485855,87.4253217 65.7794286,79.6299054 76.1685533,84.8096367 C88.1795195,90.7979735 126.507929,42.6993397 115.603447,21.4991804 C109.085997,8.82815145 105.608812,50.8668084 84.7013915,65.5842994 C70.6281765,75.4909455 36.236268,59.0011065 34.5592278,57.9912407 C32.736232,56.8934845 15.2366352,54.7583592 12.712554,57.9912407 C7.79876755,64.2848927 6.34731545,71.9130508 6.34731545,79.8721034 C6.34731545,85.3954423 2.62824551,94.0247524 1.51558583,98.5315524 C0.579468008,102.323274 0.505195278,106.281079 0,110.155842 L0,146.737064 Z" id="Path-50" fill="#6EA9FF" transform="translate(58.766667, 84.809637) scale(-1, 1) translate(-58.766667, -84.809637) "></path>
                    <path d="M160.498724,55.7950819 C145.215459,50.6595484 136.241795,42.2778137 128.339108,27.8859809 C118.023606,9.1000945 124.020259,9.22685856 112.929668,0.821035201 C112.411718,0.428468541 111.680546,-0.240561753 111.119131,0.088000118 C104.138991,4.17305395 101.675147,11.8532922 106.045291,18.7544069 C123.62772,46.5197044 134.36304,57.5513614 161.266667,73.8664578" id="Path-79" stroke="#CFDFFF" fill="#6EA9FF" transform="translate(132.566667, 36.933229) scale(-1, 1) translate(-132.566667, -36.933229) "></path>
                </g>
                <path d="M291,223 C296.666667,219.333333 302.333333,215.666667 308,212" id="Path-182" stroke="#CFDFFF" transform="translate(299.500000, 217.500000) rotate(23.000000) translate(-299.500000, -217.500000) "></path>
                <path d="M273,309 C280.857511,301.527874 283.196596,309.419679 287,301" id="Path-183" stroke="#CFDFFF"></path>
                <g id="Group-33" transform="translate(382.000000, 406.500000) scale(-1, 1) rotate(77.000000) translate(-382.000000, -406.500000) translate(362.000000, 397.000000)">
                    <path d="M0.220691728,1.34217593 C1.00626554,4.75183205 11.7334292,21.8896651 16.4521725,7.57833209 C17.4420189,4.5762572 12.450728,2.62651158 10.4500058,0.150601322" id="Path-89" fill="#3177DC"></path>
                    <path d="M5.59907432,9.68340737 L8.2727676,18.8208587 L39.5568187,7.19308368 L39.5568187,4.93655013 L17.9167964,4.93655013 C17.0168139,7.45471415 15.7281343,9.03699989 14.0507576,9.68340737 C12.3733809,10.3298148 9.55615316,10.3298148 5.59907432,9.68340737 Z" id="Line-5" fill="#123DA2"></path>
                </g>
                <g id="Group-93" transform="translate(225.726995, 395.445503) rotate(63.000000) translate(-225.726995, -395.445503) translate(210.726995, 373.445503)">
                    <g id="Group-33" transform="translate(14.807975, 21.804772) scale(-1, 1) rotate(77.000000) translate(-14.807975, -21.804772) translate(-5.192025, 11.804772)">
                        <path d="M0.219266666,1.35741219 C0.999767833,4.80577442 11.6576635,22.1381546 16.3459367,7.66436063 C17.3293914,4.62820646 12.3703306,2.6563275 10.3825275,0.152310935" id="Path-89" fill="#3177DC"></path>
                        <path d="M5.56291969,9.79333253 L8.21934825,19.0345113 L39.3013903,7.27473891 L39.3013903,4.9925894 L17.8011031,4.9925894 C16.906932,7.53933939 15.6265737,9.13958709 13.9600283,9.79333253 C12.2934829,10.447078 9.49444666,10.447078 5.56291969,9.79333253 Z" id="Line-5" fill="#123DA2"></path>
                    </g>
                </g>
                <g id="Group-27" transform="translate(281.000000, 139.000000)" fill="#3177DC">
                    <g id="Group-24" transform="translate(25.838262, 29.634227) scale(-1, 1) rotate(-25.000000) translate(-25.838262, -29.634227) translate(8.838262, 5.634227)">
                        <path d="M4.8032037,26.1566428 C10.7285712,15.3079335 4.8032037,14.4583174 7.41315266,6.84958843 C10.2990877,-1.56371707 27.7951024,-0.893384972 30.4045477,6.79431509 C31.4113071,9.76033424 30.4418722,13.3593574 32.0622487,16.0416211 C32.5732983,16.8875786 33.2625485,18.6093451 33.2133234,19.6491368 C33.1693576,20.5778373 31.9390508,19.325692 31.0740094,19.9953555 C29.5579478,21.1690002 31.6675967,25.848328 30.1881277,27.0675172 C27.9770592,28.8895972 24.3818442,27.9933121 21.9284783,29.4753149 C10.7866394,36.2057566 9.90172038,57.1820839 0.0122562017,41.2969509 L4.8032037,26.1566428 Z" id="Path-55"></path>
                    </g>
                </g>
                <path d="M310.208864,129.003186 C312.675277,128.834694 311.165362,135.385707 313.400701,139.815742 C315.679322,144.331555 320.951666,149.531187 323.075976,153.85071 C324.788391,157.332696 323.715769,160.119246 323.075976,162.466254 C320.878541,170.527292 311.15524,169.128813 305.479408,162.466254 C304.600708,161.434795 307.290753,154.808796 306.452111,153.85071 C303.696774,150.702947 299.308553,150.278125 299.095111,149.166189 C297.962675,139.851251 307.258313,129.204753 310.208864,129.003186 Z" id="Path-184" stroke="#2850AE" fill="#153D9A"></path>
                <path d="M213,156.371563 C213.863702,152.830177 216.033608,149.707319 216.832696,147.179237 C220.105938,136.823639 221.350641,139.140323 220.665882,141.436701 C219.638817,144.881019 218.603859,147.303895 220.665882,145.923183 C223.618297,143.946273 224.009769,141.436701 224.953015,139.157335 C225.198624,138.563819 225.611664,136 226.794496,136 C227.977329,136 225.407948,142.289827 226.182971,142.497906 C226.467293,142.574241 226.874727,142.022814 227.332924,141.033047 C228.11001,139.354437 229.005932,136.841622 229.497508,137.091471 C230.49465,137.59828 228.979574,143.196999 229.497508,143.510187 C230.075248,143.859539 231.111926,141.21881 231.756779,141.436701 C232.462289,141.675088 231.18838,143.926936 231.756779,144.415276 C232.295816,144.87839 233.158749,143.358746 233.790064,143.510187 C235.059328,143.814661 230.186955,151.180631 229.497508,151.586933 C223.882176,154.896138 224.462499,155.29325 219.636708,161" id="Path-78" fill="#3177DC" transform="translate(223.500000, 148.500000) scale(-1, 1) translate(-223.500000, -148.500000) "></path>
                <path d="M367,474.122048 C395.595058,473.200934 417.386108,482.094286 435.636648,458.163779 C437.065806,456.289837 434.507996,453.06574 432.501009,451.82852 C430.104676,450.351286 426.012184,448.9904 424.089568,451.045511 C402.781167,473.822354 453.269105,473.492531 463,468.950181" id="Path-188" stroke="#8FB1F6" stroke-width="2" stroke-linecap="round" stroke-dasharray="4"></path>
                <g id="Group-90" transform="translate(272.000000, 432.000000) rotate(26.000000) translate(-272.000000, -432.000000) translate(244.000000, 410.000000)" fill="#3F6ACD">
                    <path d="M13.9951965,34.098321 C17.5608075,37.3259588 21.1264184,40.5535966 24.6920294,43.7812344 L55.9518892,17.5109043 L41.9466602,11.4498893 L13.9951965,34.098321 Z" id="Path-186"></path>
                    <path d="M0.344402861,25.8630269 C3.91001381,29.0906647 9.43920881,29.7176203 13.0048198,32.9452581 L39.6157927,11.5445494 L32.8536959,0.373438182 L0.344402861,25.8630269 Z" id="Path-186"></path>
                </g>
                <path d="M147,448.122048 C175.595058,447.200934 197.386108,456.094286 215.636648,432.163779 C217.065806,430.289837 214.507996,427.06574 212.501009,425.82852 C210.104676,424.351286 206.012184,422.9904 204.089568,425.045511 C182.781167,447.822354 233.269105,447.492531 243,442.950181" id="Path-188" stroke="#8FB1F6" stroke-width="2" stroke-linecap="round" stroke-dasharray="4"></path>
                <g id="Group-90" transform="translate(135.000000, 488.000000) rotate(26.000000) translate(-135.000000, -488.000000) translate(107.000000, 466.000000)" fill="#3F6ACD">
                    <path d="M13.9951965,34.098321 C17.5608075,37.3259588 21.1264184,40.5535966 24.6920294,43.7812344 L55.9518892,17.5109043 L41.9466602,11.4498893 L13.9951965,34.098321 Z" id="Path-186"></path>
                    <path d="M0.344402861,25.8630269 C3.91001381,29.0906647 9.43920881,29.7176203 13.0048198,32.9452581 L39.6157927,11.5445494 L32.8536959,0.373438182 L0.344402861,25.8630269 Z" id="Path-186"></path>
                </g>
                <path d="M11,501.122048 C39.5950579,500.200934 61.3861077,509.094286 79.6366483,485.163779 C81.0658059,483.289837 78.5079963,480.06574 76.5010091,478.82852 C74.1046765,477.351286 70.012184,475.9904 68.0895678,478.045511 C46.7811673,500.822354 97.2691048,500.492531 107,495.950181" id="Path-188" stroke="#8FB1F6" stroke-width="2" stroke-linecap="round" stroke-dasharray="4"></path>
            </g>
        </g>
    </g>
</svg>