<?xml version="1.0" encoding="UTF-8"?>
<svg width="240px" height="257px" viewBox="0 0 240 257" version="1.1" xmlns="http://www.w3.org/2000/svg" xmlns:xlink="http://www.w3.org/1999/xlink">
    <!-- Generator: Sketch 49.3 (51167) - http://www.bohemiancoding.com/sketch -->
    <title>Group 4</title>
    <desc>Created with Sketch.</desc>
    <defs></defs>
    <g id="Assets" stroke="none" stroke-width="1" fill="none" fill-rule="evenodd">
        <g id="Group-4">
            <g id="Group-3">
                <g id="Group-2" transform="translate(150.186326, 127.252427)">
                    <g id="Group-90" transform="translate(38.687004, 10.669220) rotate(26.000000) translate(-38.687004, -10.669220) translate(29.687004, 3.669220)" fill="#BF9DF3">
                        <path d="M4.4193489,10.4101978 C5.54528371,11.4036174 6.67121851,12.3970369 7.79715331,13.3904565 L17.6682707,5.30483429 L13.2457538,3.43934278 L4.4193489,10.4101978 Z" id="Path-186"></path>
                        <path d="M0.1087542,7.87549509 C1.234689,8.86891465 2.98067677,9.06188238 4.10661157,10.0553019 L12.5097214,3.46847777 L10.3744127,0.0301736036 L0.1087542,7.87549509 Z" id="Path-186"></path>
                    </g>
                    <g id="Group-90" transform="translate(81.285823, 27.692409) rotate(26.000000) translate(-81.285823, -27.692409) translate(72.285823, 20.692409)" fill="#BF9DF3">
                        <path d="M4.4193489,10.4101978 C5.54528371,11.4036174 6.67121851,12.3970369 7.79715331,13.3904565 L17.6682707,5.30483429 L13.2457538,3.43934278 L4.4193489,10.4101978 Z" id="Path-186"></path>
                        <path d="M0.1087542,7.87549509 C1.234689,8.86891465 2.98067677,9.06188238 4.10661157,10.0553019 L12.5097214,3.46847777 L10.3744127,0.0301736036 L0.1087542,7.87549509 Z" id="Path-186"></path>
                    </g>
                    <path d="M0,15.1838648 C8.88209344,14.8898591 15.6507505,17.7284818 21.3196674,10.0902282 C21.7635872,9.49209423 20.9690896,8.46301151 20.3456865,8.06810984 C19.6013464,7.59659923 18.3301511,7.16222496 17.7329551,7.8181851 C11.1142168,15.0882071 26.7965973,14.9829326 29.8191728,13.5330835" id="Path-188" stroke="#DCC7FC" stroke-linecap="round" stroke-dasharray="4"></path>
                    <path d="M43.1313035,31.1431041 C52.0133969,30.8490985 58.782054,33.6877211 64.4509709,26.0494675 C64.8948907,25.4513336 64.1003931,24.4222509 63.47699,24.0273492 C62.7326498,23.5558386 61.4614546,23.1214643 60.8642585,23.7774245 C54.2455202,31.0474464 69.9279007,30.9421719 72.9504762,29.4923228" id="Path-188" stroke="#DCC7FC" stroke-linecap="round" stroke-dasharray="4"></path>
                    <g id="Group-90" transform="translate(47.206768, 53.227192) rotate(26.000000) translate(-47.206768, -53.227192) translate(38.206768, 46.227192)" fill="#BF9DF3">
                        <path d="M4.4193489,10.4101978 C5.54528371,11.4036174 6.67121851,12.3970369 7.79715331,13.3904565 L17.6682707,5.30483429 L13.2457538,3.43934278 L4.4193489,10.4101978 Z" id="Path-186"></path>
                        <path d="M0.1087542,7.87549509 C1.234689,8.86891465 2.98067677,9.06188238 4.10661157,10.0553019 L12.5097214,3.46847777 L10.3744127,0.0301736036 L0.1087542,7.87549509 Z" id="Path-186"></path>
                    </g>
                    <path d="M9.5847341,56.6778871 C18.4668275,56.3838814 25.2354846,59.2225041 30.9044015,51.5842505 C31.3483213,50.9861165 30.5538237,49.9570338 29.9304206,49.5621321 C29.1860805,49.0906215 27.9148852,48.6562473 27.3176892,49.3122074 C20.6989509,56.5822294 36.3813314,56.4769549 39.4039069,55.0271058" id="Path-188" stroke="#DCC7FC" stroke-linecap="round" stroke-dasharray="4"></path>
                </g>
                <path d="M14.8699332,71.3009709 C12.391611,69.6504854 9.91328882,68 7.43496661,66.3495146" id="Path-175" stroke="#AE88E9" stroke-linecap="round"></path>
                <g id="Group-61" transform="translate(165.056259, 79.223301)" fill="#553BFF">
                    <g id="Group-56">
                        <path d="M14.5463364,19.2358084 C18.2166118,19.2358084 24.1949837,17.6046422 26.7543215,15.8845655 C29.7970164,13.8396347 31.2268598,13.0020208 31.2268598,9.65533981 C31.2268598,3.49362564 22.6153253,0 14.5816055,0 C6.54788572,0 0,1.91732377 0,8.07903794 C0,10.4992001 1.00471146,12.7393802 2.71167921,14.5676006 C3.21785862,15.1097359 1.06894877,18.7721728 1.69074625,19.2358084 C2.4273323,19.7850346 5.95634943,17.1184105 6.83100374,17.5389343 C9.06737371,18.6141554 11.7122016,19.2358084 14.5463364,19.2358084 Z" id="Oval-7"></path>
                    </g>
                </g>
                <g id="Group-61" transform="translate(74.845331, 0.000000)">
                    <g id="Group-56">
                        <path d="M14.5463364,19.2358084 C18.2166118,19.2358084 24.1949837,17.6046422 26.7543215,15.8845655 C29.7970164,13.8396347 31.2268598,13.0020208 31.2268598,9.65533981 C31.2268598,3.49362564 22.6153253,0 14.5816055,0 C6.54788572,0 0,1.91732377 0,8.07903794 C0,10.4992001 1.00471146,12.7393802 2.71167921,14.5676006 C3.21785862,15.1097359 1.06894877,18.7721728 1.69074625,19.2358084 C2.4273323,19.7850346 5.95634943,17.1184105 6.83100374,17.5389343 C9.06737371,18.6141554 11.7122016,19.2358084 14.5463364,19.2358084 Z" id="Oval-7" fill="#BF9DF3"></path>
                        <path d="M4.46097997,12.3503549 C4.72359233,10.2725174 5.91415921,3.26629941 10.181056,5.74196279 C13.2188635,7.50450569 9.97283993,13.4460922 9.77263873,13.0266157 C8.28179994,9.90289909 13.7776941,4.38233821 16.2533315,7.39969632 C17.1114727,8.44561654 17.7542036,12.4728076 17.0608585,11.3195044 L16.2347163,12.64197 C14.3016632,9.42654869 19.0984899,5.2733329 22.2444448,7.22401163 C22.6179556,7.45561049 23.5028655,11.4658566 22.4782516,11.8633755 C22.0692595,12.022052 21.8422193,7.94838748 24.3185494,7.10772339 C25.4578887,6.72094071 26.6935997,6.67858999 27.8811248,6.46402328" id="Path-44" stroke="#F0E6FF"></path>
                    </g>
                </g>
                <rect id="Rectangle-66" fill="#C5ADEA" x="13.8786043" y="89.6213592" width="90.2109282" height="101.009709" rx="10"></rect>
                <rect id="Rectangle-66" fill="#CEB7F1" x="6.44363773" y="93.5825243" width="90.2109282" height="101.009709" rx="10"></rect>
                <rect id="Rectangle-66" fill="#DCC7FC" x="0" y="96.5533981" width="90.2109282" height="101.009709" rx="10"></rect>
                <path d="M10.9437491,118.339806 L71.3756795,118.339806" id="Line-17" stroke="#CAB0F1" stroke-width="4" stroke-linecap="round"></path>
                <path d="M10.9483528,125.271845 L46.565064,125.271845" id="Line-17" stroke="#CAB0F1" stroke-width="3" stroke-linecap="round"></path>
                <rect id="Rectangle-67" fill="#BF9DF3" x="9.41762438" y="131.708738" width="70.880015" height="24.2621359"></rect>
                <path d="M9.95397769,132.236176 L80.752615,155.443436" id="Line-18" stroke="#B08BE9" stroke-linecap="square"></path>
                <path d="M9.91328882,156.466019 L80.7933039,132.699029" id="Line-18" stroke="#B08BE9" stroke-linecap="square"></path>
                <ellipse id="Oval-23" fill="#B08BE9" cx="9.91328882" cy="132.203883" rx="1.48699332" ry="1.48543689"></ellipse>
                <ellipse id="Oval-23" fill="#B08BE9" cx="9.91328882" cy="155.970874" rx="1.48699332" ry="1.48543689"></ellipse>
                <ellipse id="Oval-23" fill="#B08BE9" cx="80.2976394" cy="155.970874" rx="1.48699332" ry="1.48543689"></ellipse>
                <ellipse id="Oval-23" fill="#B08BE9" cx="80.2976394" cy="132.203883" rx="1.48699332" ry="1.48543689"></ellipse>
                <path d="M8.92195994,254.933366 C30.9436317,254.455564 31.0384856,255.595247 54.4414833,249.483369 C55.8420707,249.117595 66.3300461,242.021387 62.3036156,239.562439 C54.7228822,234.932873 53.6260211,260.851662 69.3707222,253.764446 C82.1388488,248.017085 85.7013826,233.395025 99.7541085,230.341372 C109.471713,228.22974 105.387485,260.861672 123.451617,247.380057 C128.565882,243.563182 130.817532,237.007978 135.384663,232.584284 C144.699053,223.562426 144.905113,245.63819 151.703761,252.025187 C156.208803,256.257454 167.957403,246.865987 171.499897,241.239504" id="Path-146" stroke="#BF9DF3" stroke-width="4"></path>
                <g id="Group-59" transform="translate(94.933810, 225.668009) scale(-1, 1) rotate(28.000000) translate(-94.933810, -225.668009) translate(84.433810, 220.668009)">
                    <path d="M0,0.606930059 C0.408768537,2.34364278 5.99058265,11.0728201 8.4459519,3.78332421 C8.9610124,2.25421351 6.36382471,1.26110807 5.32276111,0" id="Path-89" fill="#9960F3"></path>
                    <path d="M1.86071153,4.60419795 L3.35919674,9.61714247 L20.8925049,3.23796856 L20.8925049,2 L8.7642425,2 C8.25984266,3.38150301 7.53759552,4.24956899 6.59750109,4.60419795 C5.65740666,4.95882691 4.07847681,4.95882691 1.86071153,4.60419795 Z" id="Line-5" fill="#BF9DF3"></path>
                </g>
                <g id="Group-33" transform="translate(162.279897, 235.948938) scale(-1, 1) rotate(77.000000) translate(-162.279897, -235.948938) translate(151.779897, 230.448938)">
                    <path d="M0.941245363,1.21946053 C1.35037326,2.98501572 6.93709446,11.8591629 9.39462228,4.44860666 C9.91013558,2.89410125 7.31066464,1.88450281 6.26868582,0.602450878" id="Path-89" fill="#9960F3"></path>
                    <path d="M2.76794415,5.31368535 L4.16040718,10.0451521 L20.4531828,4.02417 L20.4531828,2.8557136 L9.18303026,2.8557136 C8.71431817,4.15964496 8.04317212,4.97896888 7.1695921,5.31368535 C6.29601208,5.64840183 4.8287961,5.64840183 2.76794415,5.31368535 Z" id="Line-5" fill="#BF9DF3"></path>
                </g>
                <path d="M86.2456127,116.01126 C86.5921752,114.608459 87.4628547,113.371443 87.7834902,112.370028 C89.0968859,108.268005 89.5963253,109.185681 89.3215643,110.095315 C88.9094525,111.459666 88.4941732,112.419407 89.3215643,111.872484 C90.5062274,111.089398 90.6633064,110.095315 91.041786,109.19242 C91.1403371,108.957318 91.3060701,107.941748 91.7806842,107.941748 C92.2552983,107.941748 91.2243287,110.433252 91.5353082,110.515675 C91.6493932,110.545913 91.8128771,110.327483 91.9967296,109.935421 C92.308537,109.270496 92.6680274,108.275128 92.8652737,108.374097 C93.2653789,108.574853 92.6574514,110.792598 92.8652737,110.916657 C93.0970929,111.055041 93.5130622,110.009004 93.7718107,110.095315 C94.0548983,110.189743 93.5437395,111.081738 93.7718107,111.275177 C93.9881005,111.458625 94.3343544,110.856668 94.5876709,110.916657 C95.096966,111.037264 93.1419156,113.955046 92.8652737,114.115989 C90.6121093,115.42682 90.8449654,115.584122 88.908606,117.84466" id="Path-78" fill="#9960F3" transform="translate(90.458760, 112.893204) scale(-1, 1) translate(-90.458760, -112.893204) "></path>
                <path d="M162.595279,108.079221 C162.941841,106.67642 163.812521,105.439404 164.133156,104.437989 C165.446552,100.335966 165.945991,101.253643 165.67123,102.163276 C165.259119,103.527627 164.843839,104.487368 165.67123,103.940445 C166.855894,103.157359 167.012973,102.163276 167.391452,101.260381 C167.490003,101.02528 167.655736,100.009709 168.13035,100.009709 C168.604964,100.009709 167.573995,102.501213 167.884974,102.583637 C167.999059,102.613874 168.162543,102.395445 168.346396,102.003382 C168.658203,101.338457 169.017694,100.343089 169.21494,100.442059 C169.615045,100.642814 169.007117,102.860559 169.21494,102.984618 C169.446759,103.123002 169.862728,102.076966 170.121477,102.163276 C170.404564,102.257705 169.893406,103.149699 170.121477,103.343138 C170.337767,103.526586 170.684021,102.924629 170.937337,102.984618 C171.446632,103.105225 169.491582,106.023007 169.21494,106.18395 C166.961775,107.494781 167.194632,107.652084 165.258272,109.912621" id="Path-78" fill="#9960F3"></path>
                <path d="M96.9151014,172.825616 C104.607504,181.47575 102.666392,177.252312 112.721421,183.863643 C114.224924,184.852219 115.284088,186.407209 116.366638,187.844045 C116.769833,188.379194 116.55472,189.35113 117.123228,189.706029 C118.338904,190.464931 120.093092,190.057318 121.255229,190.895813 C127.775958,195.600592 132.740466,223.282515 145.249744,221.22059 C145.258756,221.219105 146.515986,220.57294 146.156337,219.544276 C144.273613,214.159345 136.497775,196.96814 132.158807,191.09191 C131.093593,189.6493 130.329645,188.002243 129.28999,186.541128 C128.224268,185.043379 127.095258,183.583356 125.852316,182.228869 C124.714189,180.988602 123.138009,180.151246 122.16559,178.777364 C120.372931,176.244606 115.228216,166.160905 114.438023,166.372204 C112.901746,166.783008 110.407809,172.512559 108.819604,172.430593 C105.441764,172.256265 102.159083,171.233224 98.80469,170.79959 C97.7659352,170.665306 96.7103881,170.753079 95.6632371,170.729824" id="Path-48" fill="#CAAFF2" transform="translate(120.942124, 193.849515) scale(-1, 1) translate(-120.942124, -193.849515) "></path>
                <path d="M124.67231,176.293466 C132.364713,184.947041 130.423601,180.721923 140.478629,187.335884 C141.982132,188.324853 149.154466,193.557812 150.697554,196.512211 C155.778211,206.239643 163.411874,226.289896 173.006953,224.707695 C173.015964,224.706209 174.273195,224.059787 173.913545,223.030714 C172.030822,217.64364 166.270835,199.377847 161.931867,193.499279 C160.866653,192.056094 159.950273,188.900387 158.910618,187.438691 C157.844896,185.940346 155.221975,185.299916 153.979033,183.94489 C152.840905,182.70413 142.985424,169.626103 142.195232,169.837486 C140.658955,170.248453 138.165018,175.980284 136.576813,175.898285 C133.198973,175.723888 129.916292,174.700439 126.561899,174.266633 C125.523144,174.132296 124.467597,174.220104 123.420446,174.19684" id="Path-48" fill="#CAAFF2" transform="translate(148.699332, 197.315534) scale(-1, 1) rotate(-300.000000) translate(-148.699332, -197.315534) "></path>
                <g id="Group-27" transform="translate(119.330706, 110.417476)" fill="#9960F3">
                    <g id="Group-24" transform="translate(11.024527, 12.371286) scale(-1, 1) rotate(-25.000000) translate(-11.024527, -12.371286) translate(4.024527, 2.371286)">
                        <path d="M2.01702513,10.8000194 C4.50528418,6.19417062 2.01702513,5.83346383 3.11302958,2.60315744 C4.3249298,-0.968734064 11.6720888,-0.684142766 12.7678817,2.579691 C13.1906535,3.83892242 12.7835555,5.36689741 13.4640056,6.50565965 C13.6786123,6.8648132 13.9680514,7.5957938 13.9473802,8.03724016 C13.9289175,8.43152246 13.4122707,7.8999208 13.049011,8.18422826 C12.4123662,8.68250227 13.298278,10.6691235 12.6769998,11.1867336 C11.7484985,11.9603025 10.2387481,11.5797823 9.20849804,12.2089705 C4.52966897,15.0663977 4.15806201,23.9719539 0.00514678708,17.2278779 L2.01702513,10.8000194 Z" id="Path-55"></path>
                    </g>
                </g>
                <path d="M90.7065927,172.588735 C97.9350112,172.588735 103.336506,174.486152 106.738435,174.274836 C110.140364,174.063521 108.416539,150.88641 112.57573,146.226544 C113.198923,145.528332 121.22132,141.97175 126.04078,144.334951 C131.612603,147.067072 149.392948,125.12254 144.334417,115.450174 C141.311007,109.669141 139.697959,128.848868 129.999118,135.563579 C123.470628,140.08339 107.516405,132.560062 106.738435,132.09932 C105.892757,131.59848 97.7747867,130.62435 96.6038789,132.09932 C94.3243995,134.970738 93.6510786,138.45101 93.6510786,142.08225 C93.6510786,144.60222 91.9258218,148.539258 91.4096649,150.595441 C90.9754048,152.325377 90.9409501,154.131087 90.7065927,155.89891 L90.7065927,172.588735 Z" id="Path-50" fill="#AE88E9" transform="translate(117.968137, 144.334951) scale(-1, 1) translate(-117.968137, -144.334951) "></path>
                <path d="M124.411775,146.563107 C126.543499,142.770888 126.205067,141.911663 129.864084,141.61165" id="Path-58" stroke="#E5D4FF" stroke-width="0.5" stroke-linecap="round"></path>
                <path d="M165.185157,132.525485 C158.058501,130.081325 153.874041,126.092197 150.188982,119.242678 C145.378817,110.301891 148.175083,110.362222 143.003491,106.36163 C142.761969,106.174795 142.421019,105.856383 142.159229,106.012756 C138.904359,107.95696 137.755457,111.612223 139.793275,114.896678 C147.992041,128.111045 152.997969,133.361353 165.543252,141.126214" id="Path-79" stroke="#E5D4FF" stroke-width="0.5" fill="#AE88E9" transform="translate(152.160312, 123.548544) scale(-1, 1) translate(-152.160312, -123.548544) "></path>
                <path d="M114.976808,186.165049 C115.833693,190.111501 114.139212,184.410611 118.887434,187.249438 C119.983661,187.904841 119.828692,189.882514 120.713297,190.852137 C121.118864,191.296682 121.845616,191.025709 122.411775,191.112495" id="Path-85" stroke="#E5D4FF" transform="translate(118.694291, 188.640777) scale(-1, 1) translate(-118.694291, -188.640777) "></path>
                <g id="Group-86" transform="translate(40.024396, 28.223301)">
                    <path d="M25.9918975,10.9221116 C28.5001692,6.38789679 25.9918975,6.03280001 27.096717,2.85273398 C28.3183643,-0.66360457 35.7246152,-0.383439467 36.8292215,2.8296325 C37.2553936,4.06927933 36.8450213,5.57349001 37.5309441,6.69454129 C37.7472769,7.04810899 38.0390439,7.76772079 38.0182064,8.20230141 C37.9995952,8.59045152 37.4787931,8.06711776 37.1126118,8.34700344 C36.4708466,8.83752788 37.3638837,10.7932516 36.7376086,11.3028113 C35.8016395,12.0643491 34.2797464,11.689747 33.2412103,12.3091497 C31.9649083,13.0703603 29.8930954,11.7809446 29.6183014,12.90188 C28.6121899,17.0059938 26.0472156,16.9299751 23.2183782,16.1625333 L25.9918975,10.9221116 Z" id="Path-55" fill="#9960F3"></path>
                    <path d="M13.5884591,49.2399185 C19.55343,49.2399185 24.0108032,50.8015653 26.8181125,50.6276447 C29.6254218,50.453724 28.202903,31.3780739 31.6351129,27.5428259 C32.1493789,26.9681705 44.1818011,35.5035532 47.3799961,31.8040541 C50.8115907,27.8345708 66.5797316,30.9737053 67.6993429,31.0228698 C69.148281,31.0864958 67.6841021,26.893229 66.8082814,25.5953499 C65.9324607,24.2974707 46.4035212,27.9147926 40.5521169,24.1319131 C37.1975459,21.9632135 35.6356092,20.4868312 33.5572277,19.4323095 C30.9636764,18.1164028 27.8312105,13.8572644 26.23547,12.9146986 C25.5376071,12.5024877 16.0182814,21.1432635 16.0182814,24.1319131 C16.0182814,26.2059444 14.5945805,29.4462778 14.1686421,31.1385955 C13.8102859,32.5623991 13.7818534,34.0485673 13.5884591,35.5035532 L13.5884591,49.2399185 Z" id="Path-50" fill="#AE88E9"></path>
                    <path d="M67.9181603,30.5279105 C68.2574923,29.0975326 69.1100063,27.8361997 69.4239522,26.8150987 C70.7099458,22.6324373 71.1989652,23.568154 70.9299367,24.4956688 C70.526423,25.8868404 70.1198079,26.8654483 70.9299367,26.3077743 C72.0898836,25.5092935 72.2436854,24.4956688 72.6142685,23.5750251 C72.7107634,23.3353018 72.8730387,22.2997667 73.3377507,22.2997667 C73.8024626,22.2997667 72.7930027,24.8402495 73.0974941,24.9242931 C73.2091988,24.9551251 73.3692719,24.7324017 73.5492886,24.3326316 C73.8545906,23.6546354 74.2065808,22.6397006 74.3997118,22.7406158 C74.7914694,22.9453176 74.1962254,25.206659 74.3997118,25.3331569 C74.6266944,25.4742613 75.0339852,24.4076619 75.2873353,24.4956688 C75.5645166,24.591954 75.0640224,25.501483 75.2873353,25.6987254 C75.4991125,25.8857788 75.8381423,25.2719893 76.0861737,25.3331569 C76.5848431,25.4561349 74.670582,28.4312755 74.3997118,28.5953822 C72.1935563,29.9319812 72.4215543,30.0923761 70.5255942,32.3973519" id="Path-78" fill="#9960F3" transform="translate(72.043407, 27.348559) rotate(44.000000) translate(-72.043407, -27.348559) "></path>
                    <g id="Group-84" transform="translate(11.022284, 61.314925) rotate(134.000000) translate(-11.022284, -61.314925) translate(1.022284, 55.814925)">
                        <path d="M0,0.635687581 C0.412999375,2.45468912 6.05258641,11.5974717 8.53336923,3.96258544 C9.05376071,2.36102251 6.42969159,1.32086181 5.37785277,0" id="Path-89" fill="#9960F3"></path>
                        <path d="M1.85283718,5.86060806 L3.25847677,10.7353043 L19.7054271,4.53205689 L19.7054271,3.32822933 L8.32862775,3.32822933 C7.85548035,4.6716329 7.17798339,5.51575915 6.29613689,5.86060806 C5.41429039,6.20545697 3.93319049,6.20545697 1.85283718,5.86060806 Z" id="Line-5" fill="#BF9DF3"></path>
                    </g>
                    <path d="M41.7280416,46.693433 C61.1895797,47.4173868 61.6699496,58.6124185 56.8535403,61.338048 C54.9532715,62.4134194 52.8016649,62.3441014 49.7980849,59.5302058 C46.2628693,56.2182487 44.1884536,51.6319291 41.3836379,47.6827908" id="Path-167" fill="#BE9FEB"></path>
                    <path d="M13.3785638,50.6739198 C13.3785638,52.7494906 17.5578085,53.4122514 17.5578085,55.4213525 C17.5578085,57.6174239 17.5291401,59.0343118 17.5578085,61.3949115 C17.576148,62.9050121 34.9621681,63.5410345 42.0288555,63.3411166 C45.5890338,63.2403985 50.7082286,62.5916634 57.3864401,61.3949115 C59.5032942,52.3299209 46.8033773,45.5933323 39.8458858,46.1394039 C31.5592916,46.7897927 21.5617978,45.3697854 13.3785638,46.8271163 L13.3785638,50.6739198 Z" id="Path-165" fill="#CAAFF2"></path>
                    <path d="M16.9925597,55.663724 C18.4122327,55.6332316 19.8406134,53.9479551 21.2602864,53.9174628 C22.483873,53.8911821 23.1438994,55.6318695 24.3671801,55.663724 C25.0305221,55.6809975 25.6978287,53.9133831 26.3695179,53.9174628 C27.0788218,53.921771 27.8906247,55.6365397 28.6073457,55.663724 C29.2812636,55.6892847 30.6516068,53.2882159 31.3282644,53.2920519 C31.8994295,53.2952898 33.2738331,55.6255275 33.8325323,55.663724 C34.4679752,55.7071671 36.2704595,53.2863585 36.8683347,53.2920519 C37.7325774,53.3002817 38.9644187,55.522701 39.6879349,55.663724 C42.2172072,56.156713 43.692346,55.0902549 46.8885209,55.0216062" id="Path-166" stroke="#E5D4FF" stroke-width="0.5"></path>
                </g>
                <path d="M64.9236678,23.8221168 C62.3102698,23.2697204 52.2828852,26.985882 46.1950027,29.7288825 C42.7310888,31.2896087 36.6103973,27.5688086 34.8300416,30.88798 C33.5230856,33.324578 42.04955,41.3868149 49.9330766,39.257252 C52.7886118,38.4858914 65.7392593,32.2128941 63.7401428,29.7288825 C63.0262984,29.0356389 67.222274,28.5439823 67.3643306,27.8280386 C67.7374503,25.9475711 65.7442411,23.9955622 64.9236678,23.8221168 Z" id="Path-176" fill="#553BFF"></path>
                <path d="M15.8612621,94.0776699 C15.0351547,78.7281553 14.2090473,63.3786408 13.3829399,48.0291262" id="Path-168" stroke="#AE88E9"></path>
                <path d="M13.3829399,53.3768768 C17.5096402,49.8795601 22.7016129,50.9276756 22.2808823,52.2038761 C21.7557963,53.7966174 14.8791154,56.3915405 13.9137887,58.4271845" id="Path-169" stroke="#AE88E9"></path>
                <path d="M13.3829399,65.7555176 C17.5096402,62.2582009 22.7016129,63.3063164 22.2808823,64.5825168 C21.7557963,66.1752582 14.8791154,68.7701812 13.9137887,70.8058252" id="Path-169" stroke="#AE88E9"></path>
                <path d="M13.8786043,51.4951456 C12.0611681,50.5048544 10.2437318,49.5145631 8.4262955,48.5242718" id="Path-173" stroke="#AE88E9"></path>
                <path d="M14.3742688,66.8446602 C16.0264836,66.0194175 17.6786984,65.1941748 19.3309132,64.368932" id="Path-174" stroke="#AE88E9" stroke-linecap="round"></path>
                <path d="M15.3655977,71.0419435 C13.9076765,70.3509947 10.84416,66.3173996 8.69695391,65.0318254 C6.29090107,63.5912747 4.84995149,64.9325029 4.43015709,65.0318254 C2.90505825,65.3926609 5.34188937,68.2850349 8.69695391,70.291187 C11.124159,71.742528 14.3559226,72.2553897 15.3655977,73.2815534" id="Path-170" stroke="#AE88E9"></path>
                <path d="M14.8699332,79.6762329 C17.1478454,74.9664293 22.4425366,74.7292861 22.7766964,75.7629862 C23.1893903,77.039626 18.1452031,80.5624436 15.7768221,83.6796117" id="Path-171" stroke="#AE88E9"></path>
                <path d="M13.0954252,48.387123 C-0.645248967,39.0038405 7.0002845,52.2027754 13.8786043,54.4660194" id="Path-172" stroke="#AE88E9"></path>
                <g id="Group-88" transform="translate(23.296229, 49.514563)" stroke="#AE88E9">
                    <path d="M8.45933979,22.7115483 C6.69697733,21.2695452 4.93461488,19.8275422 3.17225242,18.3855391" id="Path-175" stroke-linecap="round"></path>
                    <path d="M10.5741747,41.0970874 C9.86922976,28.1190598 9.16428477,15.1410322 8.45933979,2.1630046" id="Path-168"></path>
                    <path d="M8.45933979,6.05654232 C11.8829727,3.51025035 16.190387,4.27335199 15.8413365,5.20251545 C15.4057096,6.36214294 9.70061129,8.251429 8.89974766,9.73352069" id="Path-169"></path>
                    <path d="M8.45933979,15.790063 C11.8829727,13.243771 16.190387,14.0068727 15.8413365,14.9360361 C15.4057096,16.0956636 9.70061129,17.9849497 8.89974766,19.4670414" id="Path-169"></path>
                    <path d="M8.45933979,5.4075115 C7.04944983,4.68650996 5.63955986,3.96550843 4.2296699,3.2445069" id="Path-173"></path>
                    <path d="M9.51675727,18.3855391 C10.9266472,17.6645376 12.3365372,16.943536 13.7464272,16.2225345" id="Path-174" stroke-linecap="round"></path>
                    <path d="M9.51675727,21.8906919 C8.29971002,21.3037895 5.7423397,17.8775924 3.94988943,16.7856062 C1.94135837,15.5619805 0.738478717,16.7012401 0.38804165,16.7856062 C-0.885084336,17.0921053 1.14913991,19.5489318 3.94988943,21.2529879 C5.97607804,22.485779 8.67389805,22.9214115 9.51675727,23.7930506" id="Path-170"></path>
                    <path d="M9.51675727,28.2773707 C11.339087,24.6465933 15.5748399,24.4637801 15.8421678,25.2606573 C16.1723229,26.2448162 12.1369732,28.9605486 10.2422683,31.3635667" id="Path-171"></path>
                    <path d="M7.77137065,2.6787726 C-4.29886861,-4.87204066 2.41720785,5.74926293 8.45933979,7.5705161" id="Path-172"></path>
                </g>
                <path d="M66.6852005,35.6504854 C74.2986791,35.3730944 64.3867711,36.5580388 72.5238096,31.3373697 C74.2724789,30.2154352 76.8448447,30.9962276 78.5839408,29.8596057 C85.5922736,25.2791661 59.8041593,17.660608 65.8619918,35.5412344 L66.6852005,35.6504854 Z" id="Path-177" fill="#553BFF"></path>
                <path d="M183.695534,93.6187573 C183.695534,93.8227573 183.551534,93.9307573 183.287534,93.9307573 C183.191534,93.9307573 183.071534,93.7867573 182.951534,93.5107573 C182.807534,93.2347573 182.747534,93.0427573 182.747534,92.9227573 C182.747534,92.8747573 182.759534,92.8147573 182.795534,92.7427573 C182.723534,92.4547573 182.603534,92.0347573 182.459534,91.4707573 C181.823534,91.2907573 181.079534,91.1947573 180.215534,91.1947573 C179.795534,91.1947573 179.207534,91.2427573 178.439534,91.3147573 C178.295534,92.0107573 178.235534,92.5387573 178.235534,92.8747573 C178.235534,93.0067573 178.247534,93.1507573 178.271534,93.3067573 C178.199534,93.4987573 178.079534,93.5947573 177.923534,93.5947573 C177.611534,93.5947573 177.467534,93.3667573 177.467534,92.9347573 C177.491534,92.7547573 177.527534,92.5147573 177.575534,92.2027573 C177.599534,92.0347573 177.647534,91.7587573 177.719534,91.3867573 C177.431534,91.4347573 177.083534,91.4947573 176.687534,91.5427573 C176.423534,91.5427573 176.303534,91.4347573 176.303534,91.1947573 C176.303534,90.9787573 176.447534,90.8587573 176.747534,90.8107573 C176.915534,90.7867573 177.287534,90.7387573 177.863534,90.6787573 C178.199534,89.2027573 178.811534,87.3547573 179.711534,85.1467573 C179.927534,84.5827573 180.119534,84.2947573 180.287534,84.2947573 C180.503534,84.2947573 180.719534,84.5707573 180.947534,85.0987573 C182.207534,88.1227573 183.095534,90.7987573 183.611534,93.1507573 C183.659534,93.4147573 183.695534,93.5707573 183.695534,93.6187573 Z M182.243534,90.6907573 C182.027534,89.9707573 181.811534,89.3227573 181.619534,88.7347573 C181.151534,87.3667573 180.707534,86.2627573 180.299534,85.4227573 C179.591534,87.1507573 179.027534,88.8667573 178.595534,90.5947573 C179.399534,90.5227573 179.963534,90.4867573 180.287534,90.4867573 C180.887534,90.4867573 181.535534,90.5587573 182.243534,90.6907573 Z" id="A" fill="#F2F2F2"></path>
                <ellipse id="Oval" fill="#553BFF" cx="14.622101" cy="172.558252" rx="5.20447663" ry="5.19902913"></ellipse>
                <ellipse id="Oval" fill="#BF9DF3" cx="34.9443431" cy="172.558252" rx="5.20447663" ry="5.19902913"></ellipse>
                <ellipse id="Oval" fill="#BF9DF3" cx="55.7622496" cy="172.558252" rx="5.20447663" ry="5.19902913"></ellipse>
                <ellipse id="Oval" fill="#BF9DF3" cx="76.0844917" cy="172.558252" rx="5.20447663" ry="5.19902913"></ellipse>
                <path d="M16.1172755,174.039369 C16.1172755,174.124369 16.0572755,174.169369 15.9472755,174.169369 C15.9072755,174.169369 15.8572755,174.109369 15.8072755,173.994369 C15.7472755,173.879369 15.7222755,173.799369 15.7222755,173.749369 C15.7222755,173.729369 15.7272755,173.704369 15.7422755,173.674369 C15.7122755,173.554369 15.6622755,173.379369 15.6022755,173.144369 C15.3372755,173.069369 15.0272755,173.029369 14.6672755,173.029369 C14.4922755,173.029369 14.2472755,173.049369 13.9272755,173.079369 C13.8672755,173.369369 13.8422755,173.589369 13.8422755,173.729369 C13.8422755,173.784369 13.8472755,173.844369 13.8572755,173.909369 C13.8272755,173.989369 13.7772755,174.029369 13.7122755,174.029369 C13.5822755,174.029369 13.5222755,173.934369 13.5222755,173.754369 C13.5322755,173.679369 13.5472755,173.579369 13.5672755,173.449369 C13.5772755,173.379369 13.5972755,173.264369 13.6272755,173.109369 C13.5072755,173.129369 13.3622755,173.154369 13.1972755,173.174369 C13.0872755,173.174369 13.0372755,173.129369 13.0372755,173.029369 C13.0372755,172.939369 13.0972755,172.889369 13.2222755,172.869369 C13.2922755,172.859369 13.4472755,172.839369 13.6872755,172.814369 C13.8272755,172.199369 14.0822755,171.429369 14.4572755,170.509369 C14.5472755,170.274369 14.6272755,170.154369 14.6972755,170.154369 C14.7872755,170.154369 14.8772755,170.269369 14.9722755,170.489369 C15.4972755,171.749369 15.8672755,172.864369 16.0822755,173.844369 C16.1022755,173.954369 16.1172755,174.019369 16.1172755,174.039369 Z M15.5122755,172.819369 C15.4222755,172.519369 15.3322755,172.249369 15.2522755,172.004369 C15.0572755,171.434369 14.8722755,170.974369 14.7022755,170.624369 C14.4072755,171.344369 14.1722755,172.059369 13.9922755,172.779369 C14.3272755,172.749369 14.5622755,172.734369 14.6972755,172.734369 C14.9472755,172.734369 15.2172755,172.764369 15.5122755,172.819369 Z" id="A" fill="#F2F2F2"></path>
                <path d="M36.4038531,172.779369 C36.4038531,172.954369 36.3638531,173.089369 36.2938531,173.184369 C36.1288531,173.394369 35.8438531,173.574369 35.4338531,173.724369 C35.2488531,173.794369 34.9088531,173.894369 34.4188531,174.029369 C34.2288531,174.079369 34.1138531,174.104369 34.0838531,174.104369 C34.0538531,174.104369 34.0238531,174.089369 33.9938531,174.064369 C33.9538531,174.034369 33.9338531,173.999369 33.9338531,173.954369 C33.9338531,173.864369 33.9688531,173.809369 34.0488531,173.784369 L34.2838531,173.724369 C34.2838531,173.694369 34.2838531,173.399369 34.2888531,172.844369 L34.2888531,171.789369 C34.2888531,171.579369 34.2938531,171.244369 34.3088531,170.774369 L34.0438531,170.799369 C33.9238531,170.799369 33.8638531,170.749369 33.8638531,170.644369 C33.8638531,170.579369 33.8788531,170.539369 33.9088531,170.519369 C33.9338531,170.499369 33.9838531,170.489369 34.0638531,170.479369 C34.6788531,170.429369 35.0888531,170.404369 35.2888531,170.404369 C35.5088531,170.404369 35.6938531,170.444369 35.8388531,170.519369 C36.0238531,170.619369 36.1188531,170.779369 36.1188531,170.989369 C36.1188531,171.309369 35.7138531,171.689369 34.9088531,172.139369 C35.3288531,172.159369 35.6288531,172.194369 35.8138531,172.239369 C36.2038531,172.344369 36.4038531,172.524369 36.4038531,172.779369 Z M35.7888531,171.009369 C35.7888531,170.819369 35.6088531,170.724369 35.2488531,170.724369 C35.0188531,170.724369 34.8088531,170.734369 34.6188531,170.744369 C34.6088531,170.974369 34.6038531,171.189369 34.6038531,171.384369 L34.6038531,171.949369 C35.3938531,171.554369 35.7888531,171.239369 35.7888531,171.009369 Z M36.0888531,172.854369 C36.0888531,172.654369 35.8888531,172.534369 35.4988531,172.494369 L34.5888531,172.414369 L34.5888531,173.639369 C35.5888531,173.384369 36.0888531,173.124369 36.0888531,172.854369 Z" id="B" fill="#F2F2F2"></path>
                <path d="M56.4424241,173.449369 C56.4424241,173.514369 56.4074241,173.569369 56.3474241,173.619369 C56.3374241,173.624369 56.2774241,173.654369 56.1724241,173.714369 C56.0274241,173.794369 55.8624241,173.859369 55.6724241,173.914369 C55.4824241,173.969369 55.3374241,173.999369 55.2374241,173.999369 C54.9074241,173.999369 54.6574241,173.864369 54.4924241,173.594369 C54.3524241,173.369369 54.2824241,173.074369 54.2824241,172.709369 C54.2824241,172.234369 54.4024241,171.739369 54.6424241,171.224369 C54.9324241,170.614369 55.2874241,170.304369 55.7074241,170.304369 C55.9074241,170.304369 56.0924241,170.409369 56.2724241,170.619369 C56.3574241,170.729369 56.4024241,170.814369 56.4024241,170.874369 C56.4024241,170.989369 56.3424241,171.044369 56.2274241,171.044369 C56.1874241,171.044369 56.1274241,171.004369 56.0574241,170.914369 C55.9674241,170.809369 55.9174241,170.749369 55.9024241,170.734369 C55.8324241,170.674369 55.7524241,170.644369 55.6674241,170.644369 C55.3774241,170.644369 55.1224241,170.894369 54.9074241,171.394369 C54.7124241,171.839369 54.6174241,172.284369 54.6174241,172.729369 C54.6174241,173.339369 54.8224241,173.639369 55.2424241,173.639369 C55.4774241,173.639369 55.7374241,173.554369 56.0274241,173.384369 C56.1674241,173.304369 56.2424241,173.259369 56.2624241,173.259369 C56.3024241,173.259369 56.3424241,173.279369 56.3824241,173.319369 C56.4224241,173.364369 56.4424241,173.409369 56.4424241,173.449369 Z" id="C" fill="#F2F2F2"></path>
                <path d="M77.9146661,171.479369 C77.9146661,171.924369 77.7596661,172.369369 77.4546661,172.814369 C77.1546661,173.234369 76.8046661,173.539369 76.4046661,173.729369 C76.2046661,173.829369 76.0846661,173.874369 76.0446661,173.874369 C76.0246661,173.874369 75.9996661,173.869369 75.9596661,173.864369 L75.6696661,173.864369 C75.5546661,173.864369 75.4996661,173.814369 75.4996661,173.704369 C75.4996661,173.664369 75.5146661,173.624369 75.5446661,173.589369 C75.5696661,173.559369 75.5996661,173.539369 75.6396661,173.539369 C75.7346661,173.539369 75.8046661,173.544369 75.8446661,173.554369 C75.8446661,173.534369 75.8396661,173.434369 75.8396661,173.244369 C75.8296661,173.044369 75.8296661,172.904369 75.8296661,172.824369 C75.8246661,172.644369 75.8196661,172.269369 75.8096661,171.694369 C75.7996661,171.194369 75.7946661,170.924369 75.7946661,170.884369 C75.6846661,170.839369 75.6346661,170.779369 75.6346661,170.709369 C75.6346661,170.599369 75.7246661,170.494369 75.9096661,170.389369 C76.1396661,170.259369 76.3896661,170.189369 76.6596661,170.189369 C77.0096661,170.189369 77.3046661,170.314369 77.5496661,170.554369 C77.7896661,170.804369 77.9146661,171.114369 77.9146661,171.479369 Z M77.6246661,171.484369 C77.6246661,171.184369 77.5296661,170.949369 77.3446661,170.779369 C77.1646661,170.609369 76.9296661,170.524369 76.6446661,170.524369 C76.4546661,170.524369 76.2596661,170.574369 76.0696661,170.669369 C76.0896661,171.059369 76.1046661,171.364369 76.1046661,171.594369 C76.1046661,172.074369 76.1146661,172.714369 76.1396661,173.504369 C76.5496661,173.314369 76.8946661,173.044369 77.1696661,172.689369 C77.4696661,172.304369 77.6246661,171.904369 77.6246661,171.484369 Z" id="D" fill="#F2F2F2"></path>
                <path d="M122.924781,23.2438786 L122.924781,29.7089817 L122.924781,34.688296 C122.924781,35.2405808 123.372497,35.688296 123.924781,35.688296 C124.136055,35.688296 124.341901,35.6213811 124.512791,35.49715 L132.384145,29.7749413 C132.830862,29.4501926 132.929738,28.8247954 132.604989,28.3780777 C132.543395,28.2933506 132.468872,28.2188271 132.384145,28.1572333 L124.512791,22.4350246 C124.066073,22.1102759 123.440676,22.2091513 123.115927,22.655869 C122.991696,22.8267588 122.924781,23.0326046 122.924781,23.2438786 Z" id="Path-2" fill="#553BFF"></path>
                <path d="M119.45513,53.4757282 C120.7361,48.6056498 126.408996,40.0210955 132.609909,41.2214219 C134.113815,41.5125368 134.756128,48.0010653 131.984122,47.6423426 C131.681833,47.6032237 131.466812,47.1312946 131.54484,46.8344817 L132.305063,40.0673348 C133.441603,35.744047 138.434514,32.735644 142.70013,33.0970304 C143.171101,33.1369315 143.513863,33.6744259 143.696088,34.1137716 C144.089774,35.0629546 144.740558,44.8390338 142.962374,42.0798337 C137.208041,33.150862 148.29335,23.4201923 155.14297,20.3009709" id="Path-3" stroke="#BF9DF3" stroke-width="2" stroke-linecap="round"></path>
                <path d="M129.477518,115.214569 C127.951933,113.546456 120.999095,100.367789 127.926337,102.168643 C130.884255,102.937605 127.110279,105.600969 129.187365,106.668716 C129.862749,107.015905 129.732324,104.448648 130.432009,104.742257 L132.049254,104.729935 C132.449585,104.897925 132.575155,105.428783 132.858934,105.760666 L132.816124,110.652352 C133.56652,111.52995 134.939678,109.27466 136.062241,109.506977 C137.642853,109.834087 135.942141,113.369568 136.118792,113.627757 C136.538082,114.240583 137.791106,113.351901 138.312114,113.878476 C142.984434,118.600717 137.983737,116.151027 136.882491,118.265511 C136.532183,118.938131 138.342487,119.702165 137.88772,120.307151 C135.271512,123.787546 130.246291,117.177596 129.408283,116.173513 L129.477518,115.214569 Z" id="Path-4" fill="#553BFF"></path>
                <path d="M190.83081,75.7572816 C191.326474,73.2815534 191.822139,70.8058252 192.317803,68.3300971" id="Path-5" stroke="#553BFF" stroke-width="2" stroke-linecap="round"></path>
                <path d="M179.430528,109.74239 C180.473726,108.67777 187.59964,100.295711 190.634796,102.968602 C193.232236,105.25602 191.288374,118.017059 189.882398,112.521791 C188.817411,108.359281 198.260874,100.696701 198.02859,112.042215 C198.01387,112.761187 197.477931,110.459429 197.917257,109.887689 L199.17694,106.675956 C200.26094,105.265234 201.665932,104.093941 203.140049,103.090724 C204.438238,102.207237 205.872174,101.436198 207.403939,101.07704 C209.592703,100.563832 211.886005,100.702055 214.127038,100.514563" id="Path-8" stroke="#553BFF" stroke-width="2"></path>
                <path d="M193.309132,79.7184466 C194.630904,77.5728155 195.952676,75.4271845 197.274447,73.2815534" id="Path-6" stroke="#553BFF" stroke-width="2" stroke-linecap="round"></path>
                <path d="M196.283119,82.1941748 C198.430998,81.6990291 200.578877,81.2038835 202.726756,80.7087379" id="Path-7" stroke="#553BFF" stroke-width="2" stroke-linecap="round"></path>
            </g>
        </g>
    </g>
</svg>