<?xml version="1.0" encoding="UTF-8"?>
<svg width="53px" height="61px" viewBox="0 0 53 61" version="1.1" xmlns="http://www.w3.org/2000/svg" xmlns:xlink="http://www.w3.org/1999/xlink">
    <!-- Generator: Sketch 50 (54983) - http://www.bohemiancoding.com/sketch -->
    <title>Fill 657</title>
    <desc>Created with Sketch.</desc>
    <defs></defs>
    <g id="Icons" stroke="none" stroke-width="1" fill="none" fill-rule="evenodd">
        <path d="M57.1071429,42 L7.89285714,42 C6.85178571,42 6,41.1 6,40 C6,38.89 6.84232143,38 7.89285714,38 L57.1071429,38 C58.1576786,38 59,38.89 59,40 C59,41.1 58.1482143,42 57.1071429,42 L57.1071429,42 Z M10,18.8133333 C12.465625,20.1624928 15.79375,22.173913 19.375,22.173913 C23.25625,22.173913 26.63125,19.9663768 29.6875,17 L35.940625,19.7298551 L28.740625,24.4701449 L30.559375,28.0662609 L39.75625,21.4052174 L44.040625,23.2776812 L36.240625,28.4121739 L38.059375,32.0082899 L47.828125,24.9431884 L49.80625,25.8094493 L49.88125,25.84 L49.95625,25.8695652 C51.990625,26.6569855 55,28.7571014 55,30.057971 C54.990625,30.6295652 54.634375,32.2063768 54.1375,34 L10,34 L10,18.8133333 L10,18.8133333 Z M58.25,34 L57.5375,34 C57.921875,32.5 58.25,30.939 58.25,30 C58.25,24.93 50.75,22 50.75,22 L28.25,12 C25.146875,15.959 21.96875,18 18.875,18 C15.284375,18 11.853125,15.5 9.5,14 C9.490625,14.01 9.06875,14.01 8.515625,14.01 C7.409375,14.01 5.75,14 5.75,14 L5.75,34 C3.678125,34 2,35.789 2,38 L2,42 C2,44.209 3.678125,46 5.75,46 L58.25,46 C60.321875,46 62,44.209 62,42 L62,38 C62,35.789 60.321875,34 58.25,34 L58.25,34 Z" id="Fill-657" fill="#373B39" transform="translate(32.000000, 29.000000) rotate(-317.000000) translate(-32.000000, -29.000000) "></path>
    </g>
</svg>