<?xml version="1.0" encoding="UTF-8"?>
<svg width="66px" height="54px" viewBox="0 0 66 54" version="1.1" xmlns="http://www.w3.org/2000/svg" xmlns:xlink="http://www.w3.org/1999/xlink">
    <!-- Generator: Sketch 50 (54983) - http://www.bohemiancoding.com/sketch -->
    <title>Group 9</title>
    <desc>Created with Sketch.</desc>
    <defs></defs>
    <g id="Icons" stroke="none" stroke-width="1" fill="none" fill-rule="evenodd" stroke-linecap="round">
        <g id="Group-9" transform="translate(2.000000, 2.000000)" stroke="#333333" stroke-width="4">
            <path d="M4.58864302,6.6713421 C12.4371963,20.9439454 13.6714191,0.99021321 23.0873454,1.09754779 C28.1603993,1.15537685 24.609411,10.8434286 31.942701,11.2129951 C37.2057764,11.4782317 37.7386812,-2.9769053 43.9812636,1.07787694 C46.5115462,2.72138672 46.4333313,6.77265181 48.622428,8.84902133 C50.037123,10.1908669 52.2335592,10.4338273 54.1603519,10.7327949 C55.2435025,10.9008601 56.3249172,10.3856622 57.4071999,10.2120958" id="Path-2"></path>
            <path d="M8.58864302,24.6713421 C16.4371963,38.9439454 17.6714191,18.9902132 27.0873454,19.0975478 C32.1603993,19.1553768 28.609411,28.8434286 35.942701,29.2129951 C41.2057764,29.4782317 41.7386812,15.0230947 47.9812636,19.0778769 C50.5115462,20.7213867 50.4333313,24.7726518 52.622428,26.8490213 C54.037123,28.1908669 56.2335592,28.4338273 58.1603519,28.7327949 C59.2435025,28.9008601 60.3249172,28.3856622 61.4071999,28.2120958" id="Path-2"></path>
            <path d="M0.588643021,44.6713421 C8.43719626,58.9439454 9.67141915,38.9902132 19.0873454,39.0975478 C24.1603993,39.1553768 20.609411,48.8434286 27.942701,49.2129951 C33.2057764,49.4782317 33.7386812,35.0230947 39.9812636,39.0778769 C42.5115462,40.7213867 42.4333313,44.7726518 44.622428,46.8490213 C46.037123,48.1908669 48.2335592,48.4338273 50.1603519,48.7327949 C51.2435025,48.9008601 52.3249172,48.3856622 53.4071999,48.2120958" id="Path-2"></path>
        </g>
    </g>
</svg>