<?xml version="1.0" encoding="UTF-8"?>
<svg width="1165px" height="317px" viewBox="0 0 1165 317" version="1.1" xmlns="http://www.w3.org/2000/svg" xmlns:xlink="http://www.w3.org/1999/xlink">
    <!-- Generator: Sketch 50 (54983) - http://www.bohemiancoding.com/sketch -->
    <title>Rectangle 105</title>
    <desc>Created with Sketch.</desc>
    <defs></defs>
    <g id="Page-1" stroke="none" stroke-width="1" fill="none" fill-rule="evenodd">
        <rect id="Rectangle-105" fill="#FFFFFF" x="0" y="0" width="1165" height="317"></rect>
        <path d="M481,106.856727 C477.108015,102.719425 474.805673,100.774124 474.092973,101.020824 C473.380273,101.267524 472.337401,104.370765 470.964356,110.330547 C466.023043,105.771251 463.071424,103.658087 462.109501,103.991055 C461.147577,104.324023 459.998413,107.856666 458.662008,114.588983 C452.628639,111.302584 448.96564,109.883105 447.673009,110.330547 C446.380378,110.777989 445.35594,113.820016 444.599695,119.456628 C441.170941,115.76331 438.809122,114.140761 437.514238,114.588983 C436.219354,115.037205 434.073322,118.220138 431.076142,124.137782 C426.607148,120.583448 423.746381,119.023063 422.493841,119.456628 C421.2413,119.890193 419.455763,123.058887 417.13723,128.962711 C412.35372,125.224157 409.208048,123.615847 407.700212,124.137782 C406.192376,124.659716 405.053907,127.750974 404.284806,133.411555 C400.405487,130.000609 397.822967,128.517661 396.537247,128.962711 C395.251526,129.407761 394.415269,132.074113 394.028476,136.961766 C389.612333,136.790423 387.034322,137.152479 386.294442,138.047931 C385.554562,138.943384 385.886607,141.299548 387.290578,145.116424 C382.981434,145.041876 380.39163,145.531349 379.521167,146.584842 C378.650704,147.638335 378.650704,150.283218 379.521167,154.519489 C374.95017,153.532973 372.25711,153.532973 371.441987,154.519489 C370.626864,155.506006 371.03847,158.267176 372.676804,162.803 C367.587281,161.726445 364.59776,161.726445 363.708242,162.803 C362.818724,163.879555 363.178061,167.06278 364.786253,172.352677 C360.877987,171.317842 358.496331,171.317842 357.641285,172.352677 C356.786238,173.387511 356.786238,176.269952 357.641285,181" id="Line-101" stroke="#F03F6D" stroke-width="5" stroke-linecap="round"></path>
        <path d="M834.831394,76.7817707 C817.039342,72.0053636 779.121958,60.3340825 799.169043,31.5270197 C800.041372,30.2735091 803.480102,31.4562427 803.511601,32.983327 L809.352221,58.7417634 C809.549751,68.3180052 809.255348,78.7002506 804.627566,87.0851453 C778.804754,133.872472 724.483796,92.8918521 733.612179,49.8218808 C734.153885,47.2659756 739.303976,47.9066173 741.436062,49.4153283 C773.836609,72.3426706 747.381107,151.886149 702.589572,137.879932 C691.765251,134.495191 682.415181,125.732286 676.467505,116.07173 C672.362642,109.404373 672.461307,100.135182 674.738973,92.643385 C675.597914,89.818118 683.004439,89.7376676 683.593911,92.6312491 L689.713522,100.87759 C692.672942,115.40471 695.809048,130.371668 694.286551,145.118993 C693.502677,152.711812 688.520874,159.732981 683.084448,165.088608 C678.926681,169.184581 672.361483,169.696203 667,172" id="Path-320" stroke="#3277DC" stroke-width="5" stroke-linecap="round"></path>
        <path d="M219.471442,77.3960552 L285.920844,77.3960552 C291.443691,77.3960552 295.920844,81.8732077 295.920844,87.3960552 C295.920844,89.0748273 295.498205,90.7265839 294.691893,92.1990432 L259.927426,155.684701 C257.274809,160.528817 251.197506,162.305379 246.353389,159.652762 C244.565314,158.67362 243.119207,157.171373 242.208844,155.34732 L210.523908,91.8616624 C208.057622,86.9200762 210.064248,80.9148087 215.005834,78.4485219 C216.392689,77.7563593 217.921456,77.3960552 219.471442,77.3960552 Z" id="Rectangle-108" fill="#F03F6D" transform="translate(252.695045, 119.139822) rotate(-330.000000) translate(-252.695045, -119.139822) "></path>
        <path d="M79.5791579,48.789524 C86.4563313,47.9703667 93.2927444,46.6617894 100.210678,46.3320522 C108.881304,45.9187745 117.72435,44.9382926 126.251045,46.5649498 C136.161409,48.4555727 138.368202,71.2696273 131.836574,76.3437261 C118.224225,86.9184861 99.0372459,81.623037 85.4618315,91.2933464 C78.0688477,96.5596638 77.4110396,103.725868 77.1979802,111.796371 C76.9869478,119.79009 91.0013704,120.85225 95.8579011,120.060223 C108.161861,118.053632 114.076735,113.044546 127.04611,116.631005 C136.204758,119.163673 148.557829,140.428656 143.971345,149.525792 C137.230329,162.896366 103.85642,159.58422 97.3797668,159.857614" id="Path-327" stroke="#3277DC" stroke-width="7"></path>
        <path d="M944.468722,100.953707 L1020.91051,100.953707 C1024.5608,100.953707 1027.92108,102.942685 1029.67721,106.142787 L1065.48294,171.389807 C1068.13994,176.231522 1066.36887,182.31043 1061.52716,184.967428 C1060.37231,185.601177 1059.10363,186.000507 1057.79398,186.14248 L982.200401,194.337274 C978.042272,194.788039 974.042859,192.603424 972.175123,188.861127 L935.521189,115.419314 C933.054902,110.477728 935.061529,104.47246 940.003115,102.006174 C941.389969,101.314011 942.918737,100.953707 944.468722,100.953707 Z" id="Rectangle-108" fill="#FCB405" transform="translate(1000.592317, 147.674749) rotate(-345.000000) translate(-1000.592317, -147.674749) "></path>
        <path d="M1094.46872,40.9537069 L1170.91051,40.9537069 C1174.5608,40.9537069 1177.92108,42.942685 1179.67721,46.1427871 L1215.48294,111.389807 C1218.13994,116.231522 1216.36887,122.31043 1211.52716,124.967428 C1210.37231,125.601177 1209.10363,126.000507 1207.79398,126.14248 L1132.2004,134.337274 C1128.04227,134.788039 1124.04286,132.603424 1122.17512,128.861127 L1085.52119,55.4193141 C1083.0549,50.4777279 1085.06153,44.4724604 1090.00311,42.0061736 C1091.38997,41.314011 1092.91874,40.9537069 1094.46872,40.9537069 Z" id="Rectangle-108" fill="#FFFFFF" transform="translate(1150.592317, 87.674749) rotate(-60.000000) translate(-1150.592317, -87.674749) "></path>
        <circle id="Oval-49" fill="#3277DC" cx="135.5" cy="216.5" r="22.5"></circle>
        <circle id="Oval-49" fill="#FCB405" cx="295.5" cy="256.5" r="22.5"></circle>
        <circle id="Oval-49" fill="#F03F6D" cx="1119.5" cy="-0.5" r="57.5"></circle>
        <path d="M657.49764,276.794164 C692.943418,266.98922 726.618108,259.101826 764.036895,260.804752 C780.254784,261.542827 775.866565,292.674742 763.997932,291.892298 C762.268944,291.778314 763.193522,288.156972 764.124561,286.695618 C766.662506,282.712071 770.115548,279.27668 773.865293,276.404534 C790.716868,263.496945 845.104647,237.912476 836.717365,283.330195 C836.37058,285.20806 823.890956,296.887839 822.656619,291.142262 C816.207514,261.123043 880.730971,241.139411 902.613416,245.99397 C905.975029,246.739734 908.450115,249.855543 910.600816,252.544612 C912.336576,254.71487 913.726222,257.407025 913.956498,260.176475 C914.857468,271.012097 913.95943,272.152263 906.402561,276.277905 C906.00358,276.495727 905.302577,276.648154 905.038858,276.277905 C896.045101,263.651077 916.231283,246.110827 924.081989,239.828086 C945.71632,222.514625 987.421886,198.48535 1016.53615,213.294333 C1017.59171,213.831245 1017.62386,215.398331 1018.16772,216.45033" id="Path-326" stroke="#F03F6D" stroke-width="5"></path>
        <path d="M472.1,162.7 L472.1,153 L524.9,153 L524.9,162.7 L504.4,162.7 L504.4,223 L492.6,223 L492.6,162.7 L472.1,162.7 Z M585.2,173 C585.2,183.4 579.4,190.2 570.5,192.9 L588,223 L574.5,223 L558.3,194.3 L546.8,194.3 L546.8,223 L535.1,223 L535.1,153 L560.2,153 C572.4,153 585.2,157.6 585.2,173 Z M573.2,173.3 C573.2,165.7 568,162.7 558.3,162.7 L546.8,162.7 L546.8,184.8 L559.1,184.8 C568.9,184.8 573.2,180.4 573.2,173.3 Z M599.6,223 L599.6,153 L611.4,153 L611.4,223 L599.6,223 Z" id="TRI" fill="#333333"></path>
    </g>
</svg>