<?xml version="1.0" encoding="UTF-8"?>
<svg width="271px" height="73px" viewBox="0 0 271 73" version="1.1" xmlns="http://www.w3.org/2000/svg" xmlns:xlink="http://www.w3.org/1999/xlink">
    <!-- Generator: Sketch 50 (54983) - http://www.bohemiancoding.com/sketch -->
    <title>Group 159</title>
    <desc>Created with Sketch.</desc>
    <defs></defs>
    <g id="Page-1" stroke="none" stroke-width="1" fill="none" fill-rule="evenodd">
        <g id="Group-159" transform="translate(5.000000, -22.000000)">
            <g id="Group-156" transform="translate(0.000000, 28.000000)">
                <path d="M54,27 C54,12.0883118 41.9116882,0 27,0 C12.0883118,0 0,12.0883118 0,27" id="Oval-50" stroke="#FFBF20" stroke-width="10" stroke-linecap="round"></path>
                <g id="Group-151" transform="translate(1.000000, 22.000000)">
                    <path d="M24,5 L58,5 L58,5 C58,13.2842712 51.2842712,20 43,20 L9,20 L9,20 C9,11.7157288 15.7157288,5 24,5 Z" id="Rectangle-110" fill="#F92A5F"></path>
                    <polygon id="Line-105" fill="#D72B57" points="26.2755828 5.5 32 20 21.6139785 20"></polygon>
                    <path d="M-7.71125588,16.2012865 L20.6818395,16.1639933 C28.9552297,16.1531265 35.6709469,22.8512252 35.6818137,31.1246154 C35.6818223,31.131174 35.6818266,31.1377327 35.6818266,31.1442914 L10.0627212,31.3991916 C1.1722759,31.4876481 -6.41785806,24.9975904 -7.71125588,16.2012865 Z" id="Rectangle-110" fill="#2D7FF9" transform="translate(13.985285, 23.782033) rotate(-254.000000) translate(-13.985285, -23.782033) "></path>
                </g>
            </g>
            <path d="M83.347,27.156 L105.481,27.156 C108.643016,27.156 111.696485,27.4659969 114.6415,28.086 C117.586515,28.7060031 120.174989,29.7444927 122.407,31.2015 C124.639011,32.6585073 126.421493,34.6114878 127.7545,37.0605 C129.087507,39.5095122 129.754,42.5629817 129.754,46.221 C129.754,50.3750208 129.041007,53.7229873 127.615,56.265 C126.188993,58.8070127 124.267012,60.775493 121.849,62.1705 C119.430988,63.565507 116.625516,64.5109975 113.4325,65.007 C110.239484,65.5030025 106.907017,65.751 103.435,65.751 L95.065,65.751 L95.065,93 L83.347,93 L83.347,27.156 Z M102.133,55.707 C103.807008,55.707 105.542991,55.6450006 107.341,55.521 C109.139009,55.3969994 110.797492,55.0250031 112.3165,54.405 C113.835508,53.7849969 115.075495,52.8550062 116.0365,51.615 C116.997505,50.3749938 117.478,48.6390112 117.478,46.407 C117.478,44.3609898 117.044004,42.733506 116.176,41.5245 C115.307996,40.315494 114.192007,39.3855033 112.828,38.7345 C111.463993,38.0834967 109.945008,37.6650009 108.271,37.479 C106.596992,37.2929991 104.985008,37.2 103.435,37.2 L95.065,37.2 L95.065,55.707 L102.133,55.707 Z M139.333,22.692 L150.493,22.692 L150.493,93 L139.333,93 L139.333,22.692 Z M161.095,70.68 C161.095,67.1459823 161.730494,63.9375144 163.0015,61.0545 C164.272506,58.1714856 165.992989,55.7070102 168.163,53.661 C170.333011,51.6149898 172.905985,50.0340056 175.882,48.918 C178.858015,47.8019944 182.019983,47.244 185.368,47.244 C188.716017,47.244 191.877985,47.8019944 194.854,48.918 C197.830015,50.0340056 200.402989,51.6149898 202.573,53.661 C204.743011,55.7070102 206.463494,58.1714856 207.7345,61.0545 C209.005506,63.9375144 209.641,67.1459823 209.641,70.68 C209.641,74.2140177 209.005506,77.4224856 207.7345,80.3055 C206.463494,83.1885144 204.743011,85.6529898 202.573,87.699 C200.402989,89.7450102 197.830015,91.3259944 194.854,92.442 C191.877985,93.5580056 188.716017,94.116 185.368,94.116 C182.019983,94.116 178.858015,93.5580056 175.882,92.442 C172.905985,91.3259944 170.333011,89.7450102 168.163,87.699 C165.992989,85.6529898 164.272506,83.1885144 163.0015,80.3055 C161.730494,77.4224856 161.095,74.2140177 161.095,70.68 Z M172.255,70.68 C172.255,72.4160087 172.549497,74.0899919 173.1385,75.702 C173.727503,77.3140081 174.595494,78.7399938 175.7425,79.98 C176.889506,81.2200062 178.268992,82.2119963 179.881,82.956 C181.493008,83.7000037 183.32199,84.072 185.368,84.072 C187.41401,84.072 189.242992,83.7000037 190.855,82.956 C192.467008,82.2119963 193.846494,81.2200062 194.9935,79.98 C196.140506,78.7399938 197.008497,77.3140081 197.5975,75.702 C198.186503,74.0899919 198.481,72.4160087 198.481,70.68 C198.481,68.9439913 198.186503,67.2700081 197.5975,65.658 C197.008497,64.0459919 196.140506,62.6200062 194.9935,61.38 C193.846494,60.1399938 192.467008,59.1480037 190.855,58.404 C189.242992,57.6599963 187.41401,57.288 185.368,57.288 C183.32199,57.288 181.493008,57.6599963 179.881,58.404 C178.268992,59.1480037 176.889506,60.1399938 175.7425,61.38 C174.595494,62.6200062 173.727503,64.0459919 173.1385,65.658 C172.549497,67.2700081 172.255,68.9439913 172.255,70.68 Z M255.397,86.304 L255.211,86.304 C253.598992,89.0320136 251.429014,91.0159938 248.701,92.256 C245.972986,93.4960062 243.028016,94.116 239.866,94.116 C236.393983,94.116 233.309513,93.511506 230.6125,92.3025 C227.915487,91.093494 225.60601,89.4350105 223.684,87.327 C221.76199,85.2189895 220.305005,82.7390143 219.313,79.887 C218.320995,77.0349857 217.825,73.9660164 217.825,70.68 C217.825,67.3939836 218.351995,64.3250143 219.406,61.473 C220.460005,58.6209857 221.932491,56.1410105 223.8235,54.033 C225.714509,51.9249895 227.992987,50.266506 230.659,49.0575 C233.325013,47.848494 236.238984,47.244 239.401,47.244 C241.509011,47.244 243.368992,47.4609978 244.981,47.895 C246.593008,48.3290022 248.018994,48.8869966 249.259,49.569 C250.499006,50.2510034 251.552996,50.9794961 252.421,51.7545 C253.289004,52.5295039 254.001997,53.2889963 254.56,54.033 L254.839,54.033 L254.839,22.692 L265.999,22.692 L265.999,93 L255.397,93 L255.397,86.304 Z M228.985,70.68 C228.985,72.4160087 229.279497,74.0899919 229.8685,75.702 C230.457503,77.3140081 231.325494,78.7399938 232.4725,79.98 C233.619506,81.2200062 234.998992,82.2119963 236.611,82.956 C238.223008,83.7000037 240.05199,84.072 242.098,84.072 C244.14401,84.072 245.972992,83.7000037 247.585,82.956 C249.197008,82.2119963 250.576494,81.2200062 251.7235,79.98 C252.870506,78.7399938 253.738497,77.3140081 254.3275,75.702 C254.916503,74.0899919 255.211,72.4160087 255.211,70.68 C255.211,68.9439913 254.916503,67.2700081 254.3275,65.658 C253.738497,64.0459919 252.870506,62.6200062 251.7235,61.38 C250.576494,60.1399938 249.197008,59.1480037 247.585,58.404 C245.972992,57.6599963 244.14401,57.288 242.098,57.288 C240.05199,57.288 238.223008,57.6599963 236.611,58.404 C234.998992,59.1480037 233.619506,60.1399938 232.4725,61.38 C231.325494,62.6200062 230.457503,64.0459919 229.8685,65.658 C229.279497,67.2700081 228.985,68.9439913 228.985,70.68 Z" id="Plod" fill="#333333"></path>
        </g>
    </g>
</svg>