<?xml version="1.0" encoding="UTF-8"?>
<svg width="217px" height="60px" viewBox="0 0 217 60" version="1.1" xmlns="http://www.w3.org/2000/svg" xmlns:xlink="http://www.w3.org/1999/xlink">
    <!-- Generator: Sketch 50 (54983) - http://www.bohemiancoding.com/sketch -->
    <title>Group 155</title>
    <desc>Created with Sketch.</desc>
    <defs></defs>
    <g id="Page-1" stroke="none" stroke-width="1" fill="none" fill-rule="evenodd">
        <g id="Group-155">
            <path d="M87.8,35.72 L76.92,35.72 L76.92,57 L67.48,57 L67.48,1 L87.8,1 C100.28,1 108.36,6.04 108.36,18.12 C108.36,30.2 99.88,35.72 87.8,35.72 Z M98.76,18.12 C98.76,11.16 94.76,8.76 86.36,8.76 L76.92,8.76 L76.92,28.04 L86.36,28.04 C94.68,28.04 98.76,25 98.76,18.12 Z M116.52,57 L116.52,1 L125.64,1 L125.64,57 L116.52,57 Z M153.48,18.04 C165.24,18.04 172.52,26.12 172.52,38.04 C172.52,49.96 165.24,58.04 153.48,58.04 C141.8,58.04 134.52,49.96 134.52,38.04 C134.52,26.12 141.8,18.04 153.48,18.04 Z M153.48,51.08 C160.2,51.08 163.24,45.24 163.24,38.04 C163.24,30.84 160.2,25 153.48,25 C146.92,25 143.8,30.84 143.8,38.04 C143.8,45.24 146.92,51.08 153.48,51.08 Z M196.12,18.04 C201.72,18.04 205.64,20.68 207.88,23.88 L207.88,1 L216.92,1 L216.92,57 L208.28,57 L208.28,51.4 C206.2,54.84 202.36,58.04 195.8,58.04 C186.12,58.04 178.76,50.36 178.76,38.04 C178.76,25.72 186.28,18.04 196.12,18.04 Z M207.88,40.04 L207.88,36.04 C207.88,28.04 202.28,25.24 197.96,25.24 C191.88,25.24 188.12,30.76 188.12,38.04 C188.12,45.4 191.8,50.84 197.72,50.84 C202.12,50.84 207.88,48.04 207.88,40.04 Z" id="Plod" fill="#333333"></path>
            <g id="Group-151">
                <path d="M1.5084591,0.5 C1.7719802,8.27661213 8.15921504,14.5 16,14.5 L49.4915409,14.5 C49.2280198,6.72338787 42.840785,0.5 35,0.5 L1.5084591,0.5 Z" id="Rectangle-110" stroke="#FFBF20" fill="#FFBF20"></path>
                <path d="M16,17 L50,17 L50,17 C50,25.2842712 43.2842712,32 35,32 L1,32 L1,32 C1,23.7157288 7.71572875,17 16,17 Z" id="Rectangle-110" fill="#F92A5F"></path>
                <polygon id="Line-105" fill="#D72B57" points="15.2755828 17.5 21 32 10.6139785 32"></polygon>
                <path d="M-13.2695649,30.7304351 L14.2695649,30.7304351 C22.5538362,30.7304351 29.2695649,37.4461638 29.2695649,45.7304351 L2.27925052,45.7304351 C-6.09617776,45.7304351 -12.9687296,39.1004588 -13.2695649,30.7304351 Z" id="Rectangle-110" fill="#2D7FF9" transform="translate(8.000000, 38.230435) rotate(-270.000000) translate(-8.000000, -38.230435) "></path>
            </g>
        </g>
    </g>
</svg>