<?xml version="1.0" encoding="UTF-8"?>
<svg width="177px" height="46px" viewBox="0 0 177 46" version="1.1" xmlns="http://www.w3.org/2000/svg" xmlns:xlink="http://www.w3.org/1999/xlink">
    <!-- Generator: Sketch 50 (54983) - http://www.bohemiancoding.com/sketch -->
    <title>Group 150</title>
    <desc>Created with Sketch.</desc>
    <defs></defs>
    <g id="Page-1" stroke="none" stroke-width="1" fill="none" fill-rule="evenodd">
        <g id="Group-150" transform="translate(0.000000, 1.000000)">
            <g id="Group-148" transform="translate(54.000000, 7.000000)" fill="#333333">
                <path d="M0.24,28 L0.24,0 L10.16,0 C18.36,0 23.36,5.16 23.36,14 C23.36,22.84 18.36,28 10.16,28 L0.24,28 Z M18.48,14 C18.48,7.92 15.84,3.88 9.8,3.88 L5,3.88 L5,24.12 L9.8,24.12 C15.84,24.12 18.48,20.08 18.48,14 Z M36.32,8.52 C42.2,8.52 45.84,12.56 45.84,18.52 C45.84,24.48 42.2,28.52 36.32,28.52 C30.48,28.52 26.84,24.48 26.84,18.52 C26.84,12.56 30.48,8.52 36.32,8.52 Z M36.32,25.04 C39.68,25.04 41.2,22.12 41.2,18.52 C41.2,14.92 39.68,12 36.32,12 C33.04,12 31.48,14.92 31.48,18.52 C31.48,22.12 33.04,25.04 36.32,25.04 Z M57.64,8.52 C60.44,8.52 62.4,9.84 63.52,11.44 L63.52,0 L68.04,0 L68.04,28 L63.72,28 L63.72,25.2 C62.68,26.92 60.76,28.52 57.48,28.52 C52.64,28.52 48.96,24.68 48.96,18.52 C48.96,12.36 52.72,8.52 57.64,8.52 Z M63.52,19.52 L63.52,17.52 C63.52,13.52 60.72,12.12 58.56,12.12 C55.52,12.12 53.64,14.88 53.64,18.52 C53.64,22.2 55.48,24.92 58.44,24.92 C60.64,24.92 63.52,23.52 63.52,19.52 Z M81.16,8.52 C83.96,8.52 85.92,9.84 87.04,11.44 L87.04,0 L91.56,0 L91.56,28 L87.24,28 L87.24,25.2 C86.2,26.92 84.28,28.52 81,28.52 C76.16,28.52 72.48,24.68 72.48,18.52 C72.48,12.36 76.24,8.52 81.16,8.52 Z M87.04,19.52 L87.04,17.52 C87.04,13.52 84.24,12.12 82.08,12.12 C79.04,12.12 77.16,14.88 77.16,18.52 C77.16,22.2 79,24.92 81.96,24.92 C84.16,24.92 87.04,23.52 87.04,19.52 Z M109.56,22.28 L113.48,23.84 C112,26.68 109.36,28.52 105.4,28.52 C99.6,28.52 96,24.52 96,18.48 C96,12.52 99.68,8.52 105.24,8.52 C111.32,8.52 114.16,13.12 114.16,18.28 L114.16,19.56 L100.64,19.56 C100.76,22.4 102,25.12 105.36,25.12 C107.68,25.12 108.8,23.92 109.56,22.28 Z M105.2,11.84 C102.52,11.84 100.96,13.8 100.72,16.56 L109.6,16.56 C109.48,13.56 107.72,11.84 105.2,11.84 Z M118.32,28 L118.32,0 L122.88,0 L122.88,28 L118.32,28 Z" id="Doddel"></path>
            </g>
            <g id="Group-149" transform="translate(20.000000, 21.500000) scale(-1, 1) translate(-20.000000, -21.500000) " stroke-width="3">
                <path d="M21.6250339,21.1298395 L35.7060258,29.5093048 C37.1298412,30.3566039 37.5972,32.1977059 36.7499009,33.6215213 C36.5380722,33.9774817 36.2548238,34.2857183 35.9179978,34.5268148 L24.6643586,42.5820513" id="Line-107" stroke="#2D7FF9" stroke-linecap="square"></path>
                <path d="M22.8069659,20.5 L36.7528879,12.1668969 C37.7010802,11.6003238 38.0104437,10.3723638 37.4438706,9.42417145 C37.2656855,9.12596856 37.0129016,8.87931869 36.7104125,8.70851121 L22.8377077,0.87496862 C22.2108701,0.521010343 21.4421726,0.531229715 20.8249662,0.901726808 L5,10.4011494" id="Line-104" stroke="#F92A5F" stroke-linecap="square"></path>
                <path d="M4,11 L22,20.7902154 C19.452822,23.3362188 18.1792331,26.616299 18.1792331,30.6304559 C18.1792331,34.6446128 19.020184,38.2536868 20.7020858,41.4576778 L4,32.5739664 C1.41068771,29.4564287 0.116031563,26.0204502 0.116031563,22.2660309 C0.116031563,18.5116115 1.41068771,14.7562679 4,11 Z" id="Line-106" stroke="#FFBF20" stroke-linecap="round"></path>
            </g>
        </g>
    </g>
</svg>