<?xml version="1.0" encoding="UTF-8"?>
<svg width="590px" height="592px" viewBox="0 0 590 592" version="1.1" xmlns="http://www.w3.org/2000/svg" xmlns:xlink="http://www.w3.org/1999/xlink">
    <!-- Generator: Sketch 49.3 (51167) - http://www.bohemiancoding.com/sketch -->
    <title>Group 129</title>
    <desc>Created with Sketch.</desc>
    <defs></defs>
    <g id="Page-1" stroke="none" stroke-width="1" fill="none" fill-rule="evenodd">
        <g id="Group-129">
            <g id="Group-83" transform="translate(327.000000, 433.500000) rotate(-360.000000) translate(-327.000000, -433.500000) translate(116.000000, 277.000000)">
                <g id="Group-76" transform="translate(0.000000, 91.398583)">
                    <ellipse id="Oval-21" stroke="#4F5E71" stroke-width="5" fill="#E6E6E6" cx="348.281685" cy="147.546342" rx="72.804646" ry="72.7895288"></ellipse>
                    <ellipse id="Oval-21" stroke="#4F5E71" stroke-width="5" fill="#E6E6E6" cx="72.804646" cy="147.546342" rx="72.804646" ry="72.7895288"></ellipse>
                    <path d="M144.827976,54.3506032 C158.060219,93.6500203 172.07378,133.821624 185.306023,173.121041 L319.928565,44.313826 C320.327613,43.9320157 320.341587,43.2990049 319.959777,42.8999569 C319.754908,42.6858382 319.465622,42.5736127 319.169953,42.5935517 L144.827976,54.3506032 Z" id="Path-140" stroke="#333333" stroke-width="7" stroke-linecap="round"></path>
                    <path d="M318.766288,43.2802603 L354.184764,145.579058" id="Line-16" stroke="#333333" stroke-width="5" stroke-linecap="round"></path>
                    <path d="M141.673906,59.0185368 L74.7723391,137.709919" id="Line-16" stroke="#333333" stroke-width="5" stroke-linecap="square"></path>
                    <path d="M181.027768,180.99018 L74.7723391,145.579058" id="Line-16" stroke="#333333" stroke-width="7" stroke-linecap="square"></path>
                    <path d="M318.766288,43.2802603 C321.942516,-18.4959563 342.368521,30.7436581 375.826937,24.9194501 C377.199562,24.6805132 377.140367,22.2015576 377.797082,20.8426113" id="Path-141" stroke="#333333" stroke-width="7" stroke-linecap="round"></path>
                    <ellipse id="Oval-22" fill="#A9B4C6" cx="177.092382" cy="173.121041" rx="23.6123176" ry="23.6074147"></ellipse>
                    <ellipse id="Oval-22" fill="#333333" cx="72.804646" cy="143.611773" rx="5.90307941" ry="5.90185368"></ellipse>
                    <path d="M166.818281,200.076432 C134.932101,188.563557 100.504668,166.676887 69.5287104,152.820971 C54.6205432,146.152369 59.3073578,136.661055 61.4604888,133.575632 C66.8762972,125.814813 102.669586,132.363122 111.396788,133.575632 C138.167363,137.294989 165.290757,140.562583 191.049982,148.870551 C208.016209,154.342566 210.288451,179.450877 191.049982,197.0906 C187.399974,200.437287 179.32274,201.432564 166.818281,200.076432 Z" id="Path-142" stroke="#333333" stroke-width="3"></path>
                    <path d="M148.538473,64.4016329 C144.603087,44.7287872 137.738519,27.5419839 133.803133,7.86913824 L148.538473,64.4016329 Z" id="Path-143" stroke="#333333" stroke-width="5"></path>
                    <rect id="Rectangle-65" fill="#6C6B6B" x="110.190816" y="0" width="51.1600215" height="11.8037074" rx="5.90185368"></rect>
                </g>
                <g id="Group-82" transform="translate(224.421282, 14.000000) scale(-1, 1) translate(-224.421282, -14.000000) translate(208.921282, 0.000000)" stroke="#FFFFFF" stroke-linecap="round">
                    <g id="Group-81" transform="translate(15.406103, 14.372320) rotate(-34.000000) translate(-15.406103, -14.372320) translate(2.906103, 6.372320)">
                        <path d="M24.2164873,15.2726054 C6.18252513,9.85325072 14.3277345,14.5750865 0.205094635,0.390096929" id="Path-54" transform="translate(12.210791, 7.831351) scale(-1, 1) translate(-12.210791, -7.831351) "></path>
                    </g>
                </g>
            </g>
            <g id="Group-128">
                <path d="M273,174 C273,135.309042 372.863272,100.892207 386.414806,138.223298 C393.090318,156.612668 381.722029,169.021566 361.23988,164.533135 C329.479509,157.57321 352.924363,99.1492483 364.069683,86.8651471 C370.83263,79.4111908 379.261525,73.5218205 387.816128,68.2250475 C399.471079,61.0086258 411.854675,54.9604364 424.424327,49.4952275 C429.891147,47.1182868 435.774852,45.6128843 441.68015,44.8052958 C446.553297,44.1388605 451.771045,43.545946 456.432059,45.1179579 C458.942252,45.9645666 460.364708,48.9308533 461.285089,51.4174198 C471.562572,79.1837899 421.617405,74.9987817 456.317997,46.2109159 C462.574614,41.0203809 469.194664,36.1142931 476.447075,32.4456265 C482.097151,29.5875086 488.385001,28.0707228 494.596377,26.8476152 C500.823988,25.6213109 507.217769,25.3713852 513.560401,25.1374894 C517.709499,24.9844841 521.955362,24.7677899 526.00393,25.689406 C527.103703,25.9397583 527.334643,27.5128152 528,28.4245198" id="Path-21" stroke="#2D7FF9" stroke-width="3"></path>
                <path d="M401.761573,161.965332 C399.174382,177.273428 396.587191,192.581524 394,207.889619 L436.289157,215 L448,156 L401.761573,161.965332 Z" id="Path-16" fill="#5C7ADC"></path>
                <path d="M401.761573,161.965332 C399.174382,177.273428 396.587191,192.581524 394,207.889619 L436.289157,215 C421.294501,209.373902 412.12306,203.989402 408.774835,198.846499 C405.42661,193.703596 403.088856,181.409874 401.761573,161.965332 Z" id="Path-16" fill="#4766CA"></path>
                <path d="M316.770791,48.018283 C313.513861,66.0121887 310.25693,84.0060943 307,102 L347.307609,102 L359,43 L316.770791,48.018283 Z" id="Path-18" fill="#88DA0C"></path>
                <path d="M316.770791,48.018283 C313.513861,66.0121887 310.25693,84.0060943 307,102 L347.307609,102 C333.413641,100.593103 324.908979,97.1360556 321.793622,91.6288566 C318.12302,85.1401185 316.448743,70.6032606 316.770791,48.018283 Z" id="Path-18" fill="#7DC90A"></path>
                <path d="M482.971485,52.5055644 C477.647657,83.0037096 472.323828,113.501855 467,144 L532.887437,144 L552,44 L482.971485,52.5055644 Z" id="Path-18" fill="#55ADEE"></path>
                <path d="M482.971485,52.5055644 C477.647657,83.0037096 472.323828,113.501855 467,144 L532.887437,144 C510.710044,136.889918 497.066449,128.651825 491.956652,119.285719 C485.974016,108.319728 482.97896,86.0596763 482.971485,52.5055644 Z" id="Path-18" fill="#48A1E2"></path>
                <path d="M538.894522,38.9260565 C534.449518,53.3280955 537.8263,59.1230452 549.024868,56.3109056 C555.56121,54.6695257 558.728047,41.1585324 553.054223,34.7763935 C551.435004,32.9550327 546.715103,34.3382537 538.894522,38.9260565 Z" id="Path-24" stroke="#FFFFFF" fill="#2D7FF9"></path>
                <path d="M548,40 C547.666667,44 547.333333,48 547,52" id="Path-25" stroke="#FFFFFF"></path>
                <path d="M306,107 L333,107.018257 L306,107 Z" id="Path-26" stroke="#333333" stroke-width="2" stroke-linecap="round"></path>
                <path d="M306,113 L315,113.73359 L306,113 Z" id="Path-27" stroke="#333333" stroke-width="2" stroke-linecap="round"></path>
                <path d="M467,161 L494,161.018257 L467,161 Z" id="Path-26" stroke="#333333" stroke-width="2" stroke-linecap="round"></path>
                <path d="M464,168 L473,168.73359 L464,168 Z" id="Path-27" stroke="#333333" stroke-width="2" stroke-linecap="round"></path>
                <path d="M392,215 L418.553535,218.894398 L392,215 Z" id="Path-26" stroke="#333333" stroke-width="2" stroke-linecap="round"></path>
                <path d="M389,222 L398,222.73359 L389,222 Z" id="Path-27" stroke="#333333" stroke-width="2" stroke-linecap="round"></path>
                <path d="M359,19.3826948 C365.577324,33.9454435 359.97383,26.6136991 384,6" id="Path-30" stroke="#5C7DCA" stroke-width="2"></path>
                <path d="M555,30 C563.850826,5.29080394 561.929979,15.5145463 564,0" id="Path-37" stroke="#2D7FF9" stroke-linecap="round"></path>
                <path d="M562,34 C568.333333,26 574.666667,18 581,10" id="Path-38" stroke="#2D7FF9" stroke-linecap="round"></path>
                <path d="M565,42 C573.333333,41.3333333 581.666667,40.6666667 590,40" id="Path-39" stroke="#2D7FF9" stroke-linecap="round"></path>
                <path d="M555,61 C548.301026,113.560455 552.884297,83.8129025 539.77528,150 L509,150" id="Path-40" stroke="#55ADEE"></path>
                <g id="Group-136" transform="translate(0.000000, 183.000000)">
                    <g id="Group-134">
                        <path d="M255.378698,50.6980027 L260.552979,41.13186 L259.488199,23.4736361 L259.488199,8.71019275 C262.238514,4.98040682 265.56664,2.71524053 269.472576,1.91469389 C275.331481,0.713873924 277.526221,0.733723285 281.493647,4.20003548 C285.461073,7.66634768 287.231497,8.83279417 287.619525,17.7695563 C288.007554,26.7063184 284.740768,32.0638701 282.922726,37.1134451 C281.710698,40.4798284 280.00825,43.108801 277.815383,45.0003629 C277.849068,47.399123 278.693022,49.2983363 280.347246,50.6980027 C282.001471,52.0976692 284.425564,52.6971263 287.619525,52.496374 L279.379547,63.1199262 L261.580389,59.1019261 L255.378698,50.6980027 Z" id="Line-65" fill="#135FD1"></path>
                        <path d="M284.379902,22.7603786 C285.647828,25.6112309 284.731936,30.002466 285.802786,30.8078413 C290.796718,34.5637259 288.628191,35.703597 281.394108,33.8909747" id="Path-272" fill="#135FD1"></path>
                        <path d="M218.952663,168.820116 C220.872367,204.606726 216.766332,203.959212 232.765385,234.484436 C234.985031,238.719386 240.919809,240.905782 241.841608,245.596351 C244.11412,257.160026 240.66785,269.228981 241.896715,280.949193 C245.289665,313.309204 255.740689,345.665299 268.739631,375.268385 L282.345699,368.438328 L282.345699,249.393885 L291.747057,223.675223 L329.030109,240.224767 L288.379982,280.949193 L298.778788,293.260909 C371.427147,249.066417 406.028296,220.975671 402.582233,208.988672 C399.136171,197.001672 370.347957,180.950211 316.217591,160.834287 L218.952663,168.820116 Z" id="Path-269" fill="#FF9A00"></path>
                        <path d="M256.668367,47.8673472 C240.847358,47.0862202 226.788186,50.915608 214.490852,59.3555106 C196.04485,72.0153645 197.192849,71.9242767 188.494489,94.6564214 C179.79613,117.388566 177.117177,131.464105 182.526627,142.890273 C186.132927,150.507718 197.654322,154.564061 217.090813,155.059303 L222.762182,170.669676 L276.267678,167.590879 L312.639328,161.719906 L312.639328,155.059303 C325.82806,155.83134 335.129562,151.774996 340.543835,142.890273 C348.665244,129.563187 347.929544,133.234375 340.543835,109.268512 C333.158126,85.3026487 325.455733,72.6718259 315.866535,62.8149803 C309.473736,56.2437499 299.083194,52.5923449 284.694908,51.8607654 C278.82447,57.5364333 273.505977,60.0346818 268.739429,59.3555106 C263.972881,58.6763394 259.949194,54.8469516 256.668367,47.8673472 Z" id="Line-64" fill="#2D7FF9"></path>
                        <path d="M271.250657,372.446049 C272.359823,375.487911 273.46899,378.529773 274.578157,381.571635 L282.914628,378.993396 L279.631423,368.873321" id="Path-270" fill="#D36286"></path>
                        <path d="M273.08058,379.742627 C268.43766,407.781366 285.219922,394.491001 286.883497,384.822384 C287.419518,381.707052 286.374063,377.599116 282.657561,376.748135 C280.599449,376.276882 278.864722,377.843152 273.412931,378.663469 L273.08058,379.742627 Z" id="Path-271" fill="#07176E"></path>
                        <polygon id="Line-62" fill="#CF557A" points="290.846154 284.332043 283.177515 290.076124 283.177515 301.134261 296.526381 290.076124"></polygon>
                        <path d="M287.011834,297.7349 C292.12426,305.618172 294.680473,311.362254 294.680473,314.967145 C294.680473,318.572036 292.12426,320.946558 287.011834,322.090712 L281.830043,309.912806 L281.830043,289.301245 L287.011834,297.7349 Z" id="Line-63" fill="#0A1D75"></path>
                        <polygon id="Line-66" fill="#084093" points="260.816674 40.5925577 265.923077 46.9100003 256.900308 48.3505247"></polygon>
                        <ellipse id="Oval-42" fill="#333333" cx="275.508876" cy="22.0189797" rx="1" ry="1"></ellipse>
                        <ellipse id="Oval-42" fill="#333333" cx="285.094675" cy="22.0189797" rx="1" ry="1"></ellipse>
                        <path d="M259.727295,3.42849318 C254.458707,32.1820726 257.60494,15.0320138 270.60946,11.5079843 C276.89089,9.805811 283.643334,21.867243 290.123871,13.0941193 C302.523263,-3.69174333 266.24256,-0.471340092 261.011905,2.01335751 L259.727295,3.42849318 Z" id="Path-273" fill="#333333"></path>
                        <path d="M240.04142,109.137552 C237.578665,113.687961 235.737206,116.83359 234.517042,118.574438 C233.296879,120.315286 230.664966,123.55197 226.621302,128.284491 C230.12059,128.705764 232.752503,129.2295 234.517042,129.855697 C236.281582,130.481895 238.913495,131.82618 242.412783,133.888552 L234.517042,125.358847 L242.412783,109.137552" id="Line-67" fill="#135FD1"></path>
                        <path d="M181.131752,128.284491 C180.18123,139.041401 185.932709,146.700177 198.38619,151.260817 C203.419994,153.104268 209.943191,153.934647 217.152074,154.760255 C224.235859,155.571536 237.090361,155.850832 255.71558,155.598144 C231.3785,160.682117 212.268703,160.682117 198.38619,155.598144 C184.503676,150.514171 178.752197,141.40962 181.131752,128.284491 Z" id="Line-68" fill="#135FD1"></path>
                        <path d="M254.603745,134.039912 L280.238059,86.081249 C280.809284,85.012556 281.967353,84.3924544 283.173469,84.5094487 L327.953468,88.8531509 C329.602582,89.0131165 330.809776,90.4796653 330.64981,92.1287793 C330.600831,92.6337114 330.424608,93.1179768 330.137617,93.5362966 L299.049541,138.850466 C298.464091,139.703822 297.480158,140.195182 296.446246,140.150509 L257.120009,138.451301 C255.464699,138.379778 254.180786,136.979904 254.252308,135.324594 C254.271715,134.875444 254.39182,134.436398 254.603745,134.039912 Z" id="Line-69" fill="#4F5E71"></path>
                        <path d="M301.821811,81.8571275 C301.821811,76.6238742 301.821811,71.390621 301.821811,66.1573678" id="Path-274" stroke="#ACCDFF" stroke-linecap="round"></path>
                        <path d="M289.12274,80.9089204 C287.235142,75.4153996 285.347543,69.9218787 283.459945,64.4283579" id="Path-280" stroke="#ACCDFF" stroke-linecap="round"></path>
                        <path d="M269.337357,95.8728515 C267.75998,93.8673333 266.182604,91.861815 264.605227,89.8562968" id="Path-281" stroke="#ACCDFF" stroke-linecap="round"></path>
                        <path d="M259.228072,150.254475 C260.280312,145.73562 262.923887,141.750812 263.897407,138.524946 C267.885166,125.311065 269.401574,128.267185 268.567339,131.197393 C267.316077,135.592388 266.055197,138.68401 268.567339,136.922204 C272.164237,134.399641 272.641164,131.197393 273.790311,128.288893 C274.089534,127.531558 274.592736,124.260091 276.033769,124.260091 C277.474802,124.260091 274.344551,132.285994 275.288753,132.551505 C275.635141,132.648909 276.131514,131.945281 276.689731,130.682326 C277.636447,128.540398 278.727939,125.334012 279.326822,125.652823 C280.54163,126.299518 278.695828,133.443557 279.326822,133.843189 C280.030676,134.288967 281.293651,130.919362 282.079268,131.197393 C282.938784,131.501578 281.386794,134.374966 282.079268,134.998095 C282.735972,135.589035 283.787275,133.649948 284.5564,133.843189 C286.102732,134.231702 280.166768,143.630777 279.326822,144.149224 C272.485718,148.371813 273.19272,148.878533 267.313506,156.160421" id="Path-78" fill="#135FD1" transform="translate(272.020117, 140.210256) rotate(36.000000) translate(-272.020117, -140.210256) "></path>
                        <polygon id="Line-71" fill="#0544A2" points="258.254438 138.815307 258.254438 150.30347 254.755097 141.375864"></polygon>
                        <path d="M229.497041,169.450409 C230.059382,185.794258 231.129586,198.018854 232.707654,206.124195 C234.285723,214.229536 237.688891,224.981267 242.91716,238.379389 L251.054601,320.289386 L242.91716,287.690701 L240.275821,244.869898 C230.660815,228.458683 224.794825,216.355274 222.677851,208.559669 C220.560877,200.764064 219.599896,187.727644 219.794908,169.450409 L229.497041,169.450409 Z" id="Line-72" fill="#E58B03"></path>
                        <g id="Group-133" transform="translate(0.000000, 292.000000)">
                            <path d="M38.1603902,72.4359477 C37.725154,72.067945 29.7731515,63.6280064 19.6402236,53.867671 C14.9245534,49.3253983 8.59290819,45.444286 5.83648659,40.482059 C1.23708271,32.2020172 -4.59852699,23.6789736 5.83648659,18.0387536 C9.04461477,16.304731 14.2028613,12.3985879 16.4093879,15.3294021 C21.5862454,22.2055518 17.9705048,33.3045237 22.7334129,40.482059 L32.5962964,56.1684444 C33.4081457,57.3918727 35.9091678,58.0304613 36.8900947,56.9420022 C41.0488052,52.3274013 26.2509922,17.3676261 34.445587,2.86638531 C35.7527503,0.553215512 41.5349161,-1.34382164 42.1659388,1.24457259 C45.5291033,15.0399488 47.6797534,21.7275865 49.1926978,33.9617925 C49.6269129,37.4730106 47.2142697,44.5735007 48.202647,48.5738567 C48.5892502,50.1385935 49.4473913,59.7078775 50.8683363,58.9841442 C66.6300288,50.9562037 43.3771675,18.7446896 61.6758304,8.40789531 C63.6885962,7.2708972 66.6872642,6.35315886 68.5538939,7.72296113 C69.3075876,8.27604952 69.9756019,15.1868025 68.5538939,24.013894 C68.1959623,26.2362178 65.5535807,28.7549199 65.2633545,31.1196667 C63.8801441,42.3899866 63.8287592,54.3949786 65.2633545,59.2917949 C65.8858887,61.4167396 69.242547,57.1943596 70.6440166,55.4936386 C73.3862696,52.1658412 74.474775,46.6434768 76.7677804,42.9427632 C78.923346,39.4638657 82.2683524,37.7922041 85.241184,35.0481634 C87.0970716,33.3351061 90.7975318,33.4965435 92.7681214,35.0722184 C103.198184,43.4120507 83.9982399,55.500878 82.5458616,58.5093747 C80.9782451,61.7565791 83.3380397,65.7750997 82.8241287,69.3531108 C82.6415707,70.6241377 78.0251153,72.286185 76.7677804,72.4359477 C62.7167736,74.1095798 52.2887878,73.927357 38.1603902,74.6730617 L38.1603902,72.4359477 Z" id="Path-275" fill="#2F9E84"></path>
                            <path d="M38.5323705,13.4028572 C43.1648741,16.6014808 41.1178261,20.8867033 38.8139076,26.0491957 C31.4350603,42.5833064 43.7193479,19.1194357 41.4980771,32.7239657 C41.201976,34.5374843 39.6443445,35.6234541 39.7272437,37.5002909 C39.7786266,38.6635983 41.4376279,37.1763981 41.7409565,38.2227491 C42.4140011,40.5444583 42.0319954,43.3760186 42.1775148,45.9526534" id="Path-277" stroke="#FFFFFF" stroke-width="0.5"></path>
                            <path d="M34.5088757,70.8436739 L78.6035503,70.8436739 L78.6035503,94.8816334 C78.6035503,105.927328 69.6492453,114.881633 58.6035503,114.881633 L54.5088757,114.881633 C43.4631807,114.881633 34.5088757,105.927328 34.5088757,94.8816334 L34.5088757,70.8436739 Z" id="Rectangle-100" fill="#EED45F"></path>
                            <path d="M34.5088757,70.8436739 L63.0036995,99.3018473 C66.5691338,102.862696 66.5728514,108.639689 63.012003,112.205124 C61.3005855,113.918745 58.9780819,114.881633 56.556213,114.881633 L54.5088757,114.881633 C43.4631807,114.881633 34.5088757,105.927328 34.5088757,94.8816334 L34.5088757,70.8436739 Z" id="Rectangle-100" fill="#E5CB56"></path>
                            <path d="M65.0196218,13.4028572 C50.4819625,28.7562474 69.5289284,25.8489165 64.2206207,21.0464624" id="Path-276" stroke="#FFFFFF" stroke-width="0.5"></path>
                            <path d="M82.4378698,45.9526534 C72.480528,59.4272509 83.1745943,59.0419945 63.2662722,65.0995923" id="Path-278" stroke="#FFFFFF" stroke-width="0.5"></path>
                            <path d="M11.5029586,21.0616328 C12.3957474,36.9005488 20.7718685,33.1356627 23.0059172,47.8673472" id="Path-279" stroke="#FFFFFF" stroke-width="0.5"></path>
                        </g>
                    </g>
                </g>
                <path d="M292.491939,289 C279.6086,305.345632 298.596515,306.642196 297.985513,290.811571" id="Path-282" fill="#788AA2"></path>
            </g>
            <path d="M330.922055,65.5727085 C331.098597,66.5442673 331.275138,67.5158261 331.45168,68.4873849 C331.569375,69.1350907 330.875218,69.5336122 329.36921,69.6829492 L330.410445,76.9145069 C331.623612,76.5758815 332.444894,76.5758815 332.874289,76.9145069 C333.518382,77.4224451 333.993001,78.5931075 333.349496,79.7312973 C332.705991,80.8694872 329.642935,81.410906 328.560446,78.455196 C327.838787,76.4847227 327.423335,73.838332 327.31409,70.5160239 C327.496684,68.899124 327.912136,67.6465454 328.560446,66.7582881 C329.208756,65.8700307 329.995959,65.4748375 330.922055,65.5727085 Z" id="Path-283" fill="#FFFFFF" transform="translate(330.484765, 73.099617) rotate(-19.000000) translate(-330.484765, -73.099617) "></path>
            <rect id="Rectangle-102" fill="#DEB9B9" transform="translate(333.000000, 490.000000) rotate(46.000000) translate(-333.000000, -490.000000) " x="325" y="469" width="16" height="42"></rect>
            <path d="M343.615402,476.901769 L359.615402,476.901769 L358.889322,472.209478 L353.352538,469.289636 C353.431596,467.729948 352.697374,467.020919 351.149872,467.162546 C349.60237,467.304173 349.191234,468.151375 349.916466,469.70415 L344.547675,472.491369 L343.615402,476.901769 Z" id="Rectangle-102" fill="#AC8E8E" transform="translate(351.615402, 472.023315) rotate(46.000000) translate(-351.615402, -472.023315) "></path>
            <path d="M330.834415,89.9796687 C336.909547,89.9796687 341.834415,82.1446518 341.834415,72.4796687 C341.834415,62.8146856 336.909547,54.9796687 330.834415,54.9796687 C324.759282,54.9796687 319.834415,62.8146856 319.834415,72.4796687 C319.834415,76.935804 320.881324,81.0029321 322.605193,84.0924961 C323.198893,85.1565417 321.908222,90.4549297 322.6474,91.2630326 C323.281391,91.9561398 325.927999,88.1959698 326.648356,88.667938 C327.938714,89.5133619 329.352335,89.9796687 330.834415,89.9796687 Z" id="Oval-43" stroke="#FFFFFF" transform="translate(330.834415, 73.164127) rotate(14.000000) translate(-330.834415, -73.164127) "></path>
            <path d="M442.576385,172.729586 L441.213068,180.830599 C434.682963,177.174301 429.469138,178.064102 425.571594,183.5 C421.674051,188.935898 419.028886,198.170615 417.636101,211.204149 L410.308108,209.975096 C412.056111,195.420156 414.865746,185.138082 418.737014,179.128874 C422.608282,173.119666 430.554739,170.98657 442.576385,172.729586 Z" id="Line-73" fill="#FFFFFF"></path>
            <polygon id="Line-74" fill="#FFFFFF" points="428.5 187.5 425.5 195.5 408.209712 194.090072 410.287906 187.5"></polygon>
            <path d="M510.780853,85.5333416 C513.696678,73.6700293 519.27838,74.3742724 521.414774,86.4123675 L525.588446,85.5333416 L521.414774,88.2615145 L526.281413,88.2615145 L521.414774,90.757226 C519.670106,100.429541 516.673333,106.783476 512.424455,109.819032 C508.175576,112.854589 501.37921,112.854589 492.035355,109.819032 L500.364904,105.190284 C498.790852,104.973651 497.629972,104.580515 496.882263,104.010876 C496.134554,103.441236 495.51824,102.480424 495.033322,101.128437 L498.305339,100.429069 C497.003487,100.003562 495.912815,99.1018868 495.033322,97.7240446 C494.153829,96.3462023 493.611024,94.6888191 493.404907,92.751895 L498.305339,93.8664733 L493.404907,81.4913642 C497.76005,85.6787422 500.788789,87.935459 502.491124,88.2615145 C504.101033,88.5698673 506.864276,87.6604764 510.780853,85.5333416 Z" id="Path-284" fill="#FFFFFF"></path>
        </g>
    </g>
</svg>