<?xml version="1.0" encoding="UTF-8"?>
<svg width="179px" height="46px" viewBox="0 0 179 46" version="1.1" xmlns="http://www.w3.org/2000/svg" xmlns:xlink="http://www.w3.org/1999/xlink">
    <!-- Generator: Sketch 50 (54983) - http://www.bohemiancoding.com/sketch -->
    <title>Group 148</title>
    <desc>Created with Sketch.</desc>
    <defs></defs>
    <g id="Page-1" stroke="none" stroke-width="1" fill="none" fill-rule="evenodd">
        <g id="Group-148">
            <g id="Group-147" fill="#333333">
                <path d="M1.16248012,19 L12.1956704,19 C12.5534237,19 12.883924,19.1911153 13.0623776,19.5011828 L21.6953489,34.5011828 C21.9708381,34.9798519 21.8061281,35.5912181 21.327459,35.8667072 C21.1757213,35.954037 21.0037155,36 20.8286417,36 L9.43291361,36 C9.06859684,36 8.73310657,35.8018708 8.55720191,35.4828344 L0.286768419,20.4828344 C0.0201063663,19.9991921 0.196003544,19.3909504 0.679645761,19.1242883 C0.827515781,19.0427584 0.993623154,19 1.16248012,19 Z" id="Rectangle-106"></path>
                <path d="M11.1897625,2.60790237e-05 L21.9935023,5.0076719e-05 C22.5457738,5.0076719e-05 22.9934783,0.447754583 22.9934783,1.00002608 C22.9934783,1.01118492 22.9932915,1.02234298 22.992918,1.03349556 C22.8973483,3.88725397 22.4009446,6.43962115 21.5037067,8.69059711 C20.6822583,10.7514337 19.6192871,12.1630936 18.3147929,12.9255769 L18.3148109,12.9256076 C17.8414689,13.2022783 17.2336156,13.0462398 16.952064,12.5757847 L10.3316896,1.51355396 C10.048076,1.03965338 10.202334,0.425566788 10.6762346,0.141953171 C10.8314265,0.0490760581 11.0089016,2.60790237e-05 11.1897625,2.60790237e-05 Z" id="Rectangle-106"></path>
                <path d="M18.936452,1.5126449e-05 L22.9941301,-2.5891383e-05 C23.5464375,-2.5891383e-05 23.9941711,0.447707723 23.9941711,1.00001513 C23.9941711,1.01119527 23.9939836,1.02237462 23.9936087,1.03354847 C23.8941004,3.99944397 23.361051,6.65111948 22.3944605,8.98857501 C21.5413168,11.051688 20.2615618,12.3998917 18.5551957,13.033186 L18.555205,13.0332113 C18.037416,13.2253816 17.4618803,12.9614155 17.26971,12.4436264 C17.2206984,12.3115683 17.2001381,12.1706457 17.2093758,12.030089 L17.9386047,0.934434578 C17.9731543,0.408742399 18.4096257,1.5126449e-05 18.936452,1.5126449e-05 Z" id="Rectangle-106"></path>
                <path d="M15.3947472,18.2641525 C19.507245,15.5564019 22.2777737,12.9539261 23.7063334,10.456725 C25.1801335,7.88044125 25.8098941,4.39486626 25.5956155,0 L36.1981899,18.5217203 C37.5364047,20.9716857 37.1995169,23.7133208 35.1875265,26.7466255 C33.1755361,29.7799302 29.8095484,32.8643883 25.0895635,36 L15.2366559,18.9318317 C15.1042803,18.7025159 15.1735979,18.4097616 15.3947472,18.2641525 Z" id="Rectangle-107"></path>
                <path d="M15,18.5217203 C19.2801926,15.7213404 22.1486414,13.0330087 23.6053464,10.456725 C25.0620514,7.88044125 25.6845073,4.39486626 25.4727142,0 C30.6597922,12.1052539 32.1960126,20.4738727 30.0813752,25.1058564 C27.9667379,29.73784 26.2637902,33.3692212 24.972532,36 L15,18.5217203 Z" id="Rectangle-107"></path>
            </g>
            <path d="M55.24,32 L55.24,4 L65.16,4 C73.36,4 78.36,9.16 78.36,18 C78.36,26.84 73.36,32 65.16,32 L55.24,32 Z M73.48,18 C73.48,11.92 70.84,7.88 64.8,7.88 L60,7.88 L60,28.12 L64.8,28.12 C70.84,28.12 73.48,24.08 73.48,18 Z M91.32,12.52 C97.2,12.52 100.84,16.56 100.84,22.52 C100.84,28.48 97.2,32.52 91.32,32.52 C85.48,32.52 81.84,28.48 81.84,22.52 C81.84,16.56 85.48,12.52 91.32,12.52 Z M91.32,29.04 C94.68,29.04 96.2,26.12 96.2,22.52 C96.2,18.92 94.68,16 91.32,16 C88.04,16 86.48,18.92 86.48,22.52 C86.48,26.12 88.04,29.04 91.32,29.04 Z M112.64,12.52 C115.44,12.52 117.4,13.84 118.52,15.44 L118.52,4 L123.04,4 L123.04,32 L118.72,32 L118.72,29.2 C117.68,30.92 115.76,32.52 112.48,32.52 C107.64,32.52 103.96,28.68 103.96,22.52 C103.96,16.36 107.72,12.52 112.64,12.52 Z M118.52,23.52 L118.52,21.52 C118.52,17.52 115.72,16.12 113.56,16.12 C110.52,16.12 108.64,18.88 108.64,22.52 C108.64,26.2 110.48,28.92 113.44,28.92 C115.64,28.92 118.52,27.52 118.52,23.52 Z M136.16,12.52 C138.96,12.52 140.92,13.84 142.04,15.44 L142.04,4 L146.56,4 L146.56,32 L142.24,32 L142.24,29.2 C141.2,30.92 139.28,32.52 136,32.52 C131.16,32.52 127.48,28.68 127.48,22.52 C127.48,16.36 131.24,12.52 136.16,12.52 Z M142.04,23.52 L142.04,21.52 C142.04,17.52 139.24,16.12 137.08,16.12 C134.04,16.12 132.16,18.88 132.16,22.52 C132.16,26.2 134,28.92 136.96,28.92 C139.16,28.92 142.04,27.52 142.04,23.52 Z M164.56,26.28 L168.48,27.84 C167,30.68 164.36,32.52 160.4,32.52 C154.6,32.52 151,28.52 151,22.48 C151,16.52 154.68,12.52 160.24,12.52 C166.32,12.52 169.16,17.12 169.16,22.28 L169.16,23.56 L155.64,23.56 C155.76,26.4 157,29.12 160.36,29.12 C162.68,29.12 163.8,27.92 164.56,26.28 Z M160.2,15.84 C157.52,15.84 155.96,17.8 155.72,20.56 L164.6,20.56 C164.48,17.56 162.72,15.84 160.2,15.84 Z M173.32,32 L173.32,4 L177.88,4 L177.88,32 L173.32,32 Z" id="Doddel" fill="#333333"></path>
            <path d="M56.5,44.5 L177.202113,44.5" id="Line-103" stroke-opacity="0.1" stroke="#333333" stroke-width="3" stroke-linecap="round"></path>
        </g>
    </g>
</svg>