<?xml version="1.0" encoding="UTF-8"?>
<svg width="590px" height="590px" viewBox="0 0 590 590" version="1.1" xmlns="http://www.w3.org/2000/svg" xmlns:xlink="http://www.w3.org/1999/xlink">
    <!-- Generator: Sketch 49.3 (51167) - http://www.bohemiancoding.com/sketch -->
    <title>Group 128</title>
    <desc>Created with Sketch.</desc>
    <defs></defs>
    <g id="Page-1" stroke="none" stroke-width="1" fill="none" fill-rule="evenodd">
        <g id="Group-83" transform="translate(327.000000, 433.500000) rotate(-360.000000) translate(-327.000000, -433.500000) translate(116.000000, 277.000000)">
            <g id="Group-76" transform="translate(0.000000, 91.398583)">
                <ellipse id="Oval-21" stroke="#4F5E71" stroke-width="5" fill="#E6E6E6" cx="348.281685" cy="147.546342" rx="72.804646" ry="72.7895288"></ellipse>
                <ellipse id="Oval-21" stroke="#4F5E71" stroke-width="5" fill="#E6E6E6" cx="72.804646" cy="147.546342" rx="72.804646" ry="72.7895288"></ellipse>
                <path d="M144.827976,54.3506032 C158.060219,93.6500203 172.07378,133.821624 185.306023,173.121041 L319.928565,44.313826 C320.327613,43.9320157 320.341587,43.2990049 319.959777,42.8999569 C319.754908,42.6858382 319.465622,42.5736127 319.169953,42.5935517 L144.827976,54.3506032 Z" id="Path-140" stroke="#333333" stroke-width="7" stroke-linecap="round"></path>
                <path d="M318.766288,43.2802603 L354.184764,145.579058" id="Line-16" stroke="#333333" stroke-width="5" stroke-linecap="round"></path>
                <path d="M141.673906,59.0185368 L74.7723391,137.709919" id="Line-16" stroke="#333333" stroke-width="5" stroke-linecap="square"></path>
                <path d="M181.027768,180.99018 L74.7723391,145.579058" id="Line-16" stroke="#333333" stroke-width="7" stroke-linecap="square"></path>
                <path d="M318.766288,43.2802603 C321.942516,-18.4959563 342.368521,30.7436581 375.826937,24.9194501 C377.199562,24.6805132 377.140367,22.2015576 377.797082,20.8426113" id="Path-141" stroke="#333333" stroke-width="7" stroke-linecap="round"></path>
                <ellipse id="Oval-22" fill="#A9B4C6" cx="177.092382" cy="173.121041" rx="23.6123176" ry="23.6074147"></ellipse>
                <ellipse id="Oval-22" fill="#333333" cx="72.804646" cy="143.611773" rx="5.90307941" ry="5.90185368"></ellipse>
                <path d="M166.818281,200.076432 C134.932101,188.563557 100.504668,166.676887 69.5287104,152.820971 C54.6205432,146.152369 59.3073578,136.661055 61.4604888,133.575632 C66.8762972,125.814813 102.669586,132.363122 111.396788,133.575632 C138.167363,137.294989 165.290757,140.562583 191.049982,148.870551 C208.016209,154.342566 210.288451,179.450877 191.049982,197.0906 C187.399974,200.437287 179.32274,201.432564 166.818281,200.076432 Z" id="Path-142" stroke="#333333" stroke-width="3"></path>
                <path d="M148.538473,64.4016329 C144.603087,44.7287872 137.738519,27.5419839 133.803133,7.86913824 L148.538473,64.4016329 Z" id="Path-143" stroke="#333333" stroke-width="5"></path>
                <rect id="Rectangle-65" fill="#6C6B6B" x="110.190816" y="0" width="51.1600215" height="11.8037074" rx="5.90185368"></rect>
            </g>
            <g id="Group-82" transform="translate(224.421282, 14.000000) scale(-1, 1) translate(-224.421282, -14.000000) translate(208.921282, 0.000000)" stroke="#FFFFFF" stroke-linecap="round">
                <g id="Group-81" transform="translate(15.406103, 14.372320) rotate(-34.000000) translate(-15.406103, -14.372320) translate(2.906103, 6.372320)">
                    <path d="M24.2164873,15.2726054 C6.18252513,9.85325072 14.3277345,14.5750865 0.205094635,0.390096929" id="Path-54" transform="translate(12.210791, 7.831351) scale(-1, 1) translate(-12.210791, -7.831351) "></path>
                </g>
            </g>
        </g>
        <g id="Group-128">
            <path d="M273,174 C273,135.309042 372.863272,100.892207 386.414806,138.223298 C393.090318,156.612668 381.722029,169.021566 361.23988,164.533135 C329.479509,157.57321 352.924363,99.1492483 364.069683,86.8651471 C370.83263,79.4111908 379.261525,73.5218205 387.816128,68.2250475 C399.471079,61.0086258 411.854675,54.9604364 424.424327,49.4952275 C429.891147,47.1182868 435.774852,45.6128843 441.68015,44.8052958 C446.553297,44.1388605 451.771045,43.545946 456.432059,45.1179579 C458.942252,45.9645666 460.364708,48.9308533 461.285089,51.4174198 C471.562572,79.1837899 421.617405,74.9987817 456.317997,46.2109159 C462.574614,41.0203809 469.194664,36.1142931 476.447075,32.4456265 C482.097151,29.5875086 488.385001,28.0707228 494.596377,26.8476152 C500.823988,25.6213109 507.217769,25.3713852 513.560401,25.1374894 C517.709499,24.9844841 521.955362,24.7677899 526.00393,25.689406 C527.103703,25.9397583 527.334643,27.5128152 528,28.4245198" id="Path-21" stroke="#2D7FF9" stroke-width="3"></path>
            <path d="M401.761573,161.965332 C399.174382,177.273428 396.587191,192.581524 394,207.889619 L436.289157,215 L448,156 L401.761573,161.965332 Z" id="Path-16" fill="#FF2295"></path>
            <path d="M401.761573,161.965332 C399.174382,177.273428 396.587191,192.581524 394,207.889619 L436.289157,215 C421.294501,209.373902 412.12306,203.989402 408.774835,198.846499 C405.42661,193.703596 403.088856,181.409874 401.761573,161.965332 Z" id="Path-16" fill="#F4198B"></path>
            <path d="M316.770791,48.018283 C313.513861,66.0121887 310.25693,84.0060943 307,102 L347.307609,102 L359,43 L316.770791,48.018283 Z" id="Path-18" fill="#88DA0C"></path>
            <path d="M316.770791,48.018283 C313.513861,66.0121887 310.25693,84.0060943 307,102 L347.307609,102 C333.413641,100.593103 324.908979,97.1360556 321.793622,91.6288566 C318.12302,85.1401185 316.448743,70.6032606 316.770791,48.018283 Z" id="Path-18" fill="#7DC90A"></path>
            <path d="M482.971485,52.5055644 C477.647657,83.0037096 472.323828,113.501855 467,144 L532.887437,144 L552,44 L482.971485,52.5055644 Z" id="Path-18" fill="#FFA61C"></path>
            <path d="M482.971485,52.5055644 C477.647657,83.0037096 472.323828,113.501855 467,144 L532.887437,144 C510.710044,136.889918 497.066449,128.651825 491.956652,119.285719 C485.974016,108.319728 482.97896,86.0596763 482.971485,52.5055644 Z" id="Path-18" fill="#F79F18"></path>
            <path d="M538.894522,38.9260565 C534.449518,53.3280955 537.8263,59.1230452 549.024868,56.3109056 C555.56121,54.6695257 558.728047,41.1585324 553.054223,34.7763935 C551.435004,32.9550327 546.715103,34.3382537 538.894522,38.9260565 Z" id="Path-24" stroke="#FFFFFF" fill="#2D7FF9"></path>
            <path d="M548,40 C547.666667,44 547.333333,48 547,52" id="Path-25" stroke="#FFFFFF"></path>
            <path d="M306,107 L333,107.018257 L306,107 Z" id="Path-26" stroke="#333333" stroke-width="2" stroke-linecap="round"></path>
            <path d="M306,113 L315,113.73359 L306,113 Z" id="Path-27" stroke="#333333" stroke-width="2" stroke-linecap="round"></path>
            <path d="M467,161 L494,161.018257 L467,161 Z" id="Path-26" stroke="#333333" stroke-width="2" stroke-linecap="round"></path>
            <path d="M464,168 L473,168.73359 L464,168 Z" id="Path-27" stroke="#333333" stroke-width="2" stroke-linecap="round"></path>
            <path d="M392,215 L418.553535,218.894398 L392,215 Z" id="Path-26" stroke="#333333" stroke-width="2" stroke-linecap="round"></path>
            <path d="M389,222 L398,222.73359 L389,222 Z" id="Path-27" stroke="#333333" stroke-width="2" stroke-linecap="round"></path>
            <path d="M359,19.3826948 C365.577324,33.9454435 359.97383,26.6136991 384,6" id="Path-30" stroke="#5C7DCA" stroke-width="2"></path>
            <path d="M555,30 C563.850826,5.29080394 561.929979,15.5145463 564,0" id="Path-37" stroke="#2D7FF9" stroke-linecap="round"></path>
            <path d="M562,34 C568.333333,26 574.666667,18 581,10" id="Path-38" stroke="#2D7FF9" stroke-linecap="round"></path>
            <path d="M565,42 C573.333333,41.3333333 581.666667,40.6666667 590,40" id="Path-39" stroke="#2D7FF9" stroke-linecap="round"></path>
            <path d="M555,61 C548.301026,113.560455 552.884297,83.8129025 539.77528,150 L509,150" id="Path-40" stroke="#FFA61C"></path>
            <path d="M492.969205,74 C491.503063,96.9523001 493.083309,82.1245848 485,118 L523.861462,118 L531,74 L495.55997,76.4297152" id="Path-256" stroke="#FFFFFF"></path>
            <path d="M530,82 C517.333333,82.2479175 504.666667,82.495835 492,82.7437525" id="Path-257" stroke="#FFFFFF"></path>
            <path d="M500,96.3057856 C521.636398,94.6136504 517.674267,91.1991649 501.990107,112" id="Path-258" stroke="#FFFFFF"></path>
            <path d="M325,71.9649682 C325.86972,67.8034091 334.538342,42.3742782 339.480484,55.9523488 C341.165911,60.5829032 338.276247,68.7318497 337.520307,73" id="Path-259" stroke="#FFFFFF"></path>
            <path d="M341.895947,73.9212516 C342.179421,75.1957854 342.069862,77.2963442 339.123634,84.4108414 C338.730524,85.3601161 336.344389,85.098662 336.168034,84.081022 C335.543472,80.4770506 336.836712,76.7894429 337.171051,73.1436533 C340.130441,72.8053599 341.705406,73.0645593 341.895947,73.9212516 Z" id="Path-260" stroke="#FFFFFF"></path>
            <path d="M326.895947,73.9212516 C327.179421,75.1957854 327.069862,77.2963442 324.123634,84.4108414 C323.730524,85.3601161 321.344389,85.098662 321.168034,84.081022 C320.543472,80.4770506 321.836712,76.7894429 322.171051,73.1436533 C325.130441,72.8053599 326.705406,73.0645593 326.895947,73.9212516 Z" id="Path-260" stroke="#FFFFFF"></path>
            <path d="M403,190.48202 C412.064283,191.321347 421.128566,192.160673 430.192849,193 L431,189.366488 L403,188 L403,190.48202 Z" id="Path-261" stroke="#FFFFFF"></path>
            <path d="M405,187.432929 C406.25986,177.896042 408.584477,180.825905 416.894732,178.958892 C419.333244,178.411047 421.326512,175.996042 423.820773,176.000005 C425.459664,176.002609 423.479875,177.578317 426.144451,178.958892 C427.920836,179.879276 429.774171,179.311445 431.704456,177.255399 C432.70446,181.052811 430.879846,185.085133 430.467541,189" id="Path-262" stroke="#FFFFFF"></path>
            <path d="M409,183 C409.666667,184.333333 410.333333,185.666667 411,187" id="Path-263" stroke="#FFFFFF" stroke-linecap="round"></path>
            <path d="M415,183 C415.666667,184.333333 416.333333,185.666667 417,187" id="Path-264" stroke="#FFFFFF" stroke-linecap="round"></path>
            <g id="Group-136" transform="translate(0.000000, 183.000000)">
                <g id="Group-134">
                    <path d="M255.378698,50.6980027 L260.552979,41.13186 L259.488199,23.4736361 L259.488199,8.71019275 C262.238514,4.98040682 265.56664,2.71524053 269.472576,1.91469389 C275.331481,0.713873924 277.526221,0.733723285 281.493647,4.20003548 C285.461073,7.66634768 287.231497,8.83279417 287.619525,17.7695563 C288.007554,26.7063184 284.740768,32.0638701 282.922726,37.1134451 C281.710698,40.4798284 280.00825,43.108801 277.815383,45.0003629 C277.849068,47.399123 278.693022,49.2983363 280.347246,50.6980027 C282.001471,52.0976692 284.425564,52.6971263 287.619525,52.496374 L279.379547,63.1199262 L261.580389,59.1019261 L255.378698,50.6980027 Z" id="Line-65" fill="#135FD1"></path>
                    <path d="M284.379902,22.7603786 C285.647828,25.6112309 284.731936,30.002466 285.802786,30.8078413 C290.796718,34.5637259 288.628191,35.703597 281.394108,33.8909747" id="Path-272" fill="#135FD1"></path>
                    <path d="M218.952663,168.820116 C220.872367,204.606726 216.766332,203.959212 232.765385,234.484436 C234.985031,238.719386 240.919809,240.905782 241.841608,245.596351 C244.11412,257.160026 240.66785,269.228981 241.896715,280.949193 C245.289665,313.309204 255.740689,345.665299 268.739631,375.268385 L282.345699,368.438328 L282.345699,249.393885 L291.747057,223.675223 L329.030109,240.224767 L288.379982,280.949193 L298.778788,293.260909 C371.427147,249.066417 406.028296,220.975671 402.582233,208.988672 C399.136171,197.001672 370.347957,180.950211 316.217591,160.834287 L218.952663,168.820116 Z" id="Path-269" fill="#FF6D4E"></path>
                    <path d="M256.668367,47.8673472 C240.847358,47.0862202 226.788186,50.915608 214.490852,59.3555106 C196.04485,72.0153645 197.192849,71.9242767 188.494489,94.6564214 C179.79613,117.388566 177.117177,131.464105 182.526627,142.890273 C186.132927,150.507718 197.654322,154.564061 217.090813,155.059303 L222.762182,170.669676 L276.267678,167.590879 L312.639328,161.719906 L312.639328,155.059303 C325.82806,155.83134 335.129562,151.774996 340.543835,142.890273 C348.665244,129.563187 347.929544,133.234375 340.543835,109.268512 C333.158126,85.3026487 325.455733,72.6718259 315.866535,62.8149803 C309.473736,56.2437499 299.083194,52.5923449 284.694908,51.8607654 C278.82447,57.5364333 273.505977,60.0346818 268.739429,59.3555106 C263.972881,58.6763394 259.949194,54.8469516 256.668367,47.8673472 Z" id="Line-64" fill="#FFD721"></path>
                    <path d="M271.250657,372.446049 C272.359823,375.487911 273.46899,378.529773 274.578157,381.571635 L282.914628,378.993396 L279.631423,368.873321" id="Path-270" fill="#D36286"></path>
                    <path d="M273.08058,379.742627 C268.43766,407.781366 285.219922,394.491001 286.883497,384.822384 C287.419518,381.707052 286.374063,377.599116 282.657561,376.748135 C280.599449,376.276882 278.864722,377.843152 273.412931,378.663469 L273.08058,379.742627 Z" id="Path-271" fill="#07176E"></path>
                    <polygon id="Line-62" fill="#CF557A" points="290.846154 284.332043 283.177515 290.076124 283.177515 301.134261 296.526381 290.076124"></polygon>
                    <path d="M287.011834,297.7349 C292.12426,305.618172 294.680473,311.362254 294.680473,314.967145 C294.680473,318.572036 292.12426,320.946558 287.011834,322.090712 L281.830043,309.912806 L281.830043,289.301245 L287.011834,297.7349 Z" id="Line-63" fill="#0A1D75"></path>
                    <polygon id="Line-66" fill="#084093" points="260.816674 40.5925577 265.923077 46.9100003 256.900308 48.3505247"></polygon>
                    <ellipse id="Oval-42" fill="#333333" cx="275.508876" cy="22.0189797" rx="1" ry="1"></ellipse>
                    <ellipse id="Oval-42" fill="#333333" cx="285.094675" cy="22.0189797" rx="1" ry="1"></ellipse>
                    <path d="M259.727295,3.42849318 C254.458707,32.1820726 257.60494,15.0320138 270.60946,11.5079843 C276.89089,9.805811 283.643334,21.867243 290.123871,13.0941193 C302.523263,-3.69174333 266.24256,-0.471340092 261.011905,2.01335751 L259.727295,3.42849318 Z" id="Path-273" fill="#333333"></path>
                    <path d="M240.04142,109.137552 C237.578665,113.687961 235.737206,116.83359 234.517042,118.574438 C233.296879,120.315286 230.664966,123.55197 226.621302,128.284491 C230.12059,128.705764 232.752503,129.2295 234.517042,129.855697 C236.281582,130.481895 238.913495,131.82618 242.412783,133.888552 L234.517042,125.358847 L242.412783,109.137552" id="Line-67" fill="#D9B616"></path>
                    <path d="M181.131752,128.284491 C180.18123,139.041401 185.932709,146.700177 198.38619,151.260817 C203.419994,153.104268 209.943191,153.934647 217.152074,154.760255 C224.235859,155.571536 237.090361,155.850832 255.71558,155.598144 C231.3785,160.682117 212.268703,160.682117 198.38619,155.598144 C184.503676,150.514171 178.752197,141.40962 181.131752,128.284491 Z" id="Line-68" fill="#D9B616"></path>
                    <path d="M254.603745,134.039912 L280.238059,86.081249 C280.809284,85.012556 281.967353,84.3924544 283.173469,84.5094487 L327.953468,88.8531509 C329.602582,89.0131165 330.809776,90.4796653 330.64981,92.1287793 C330.600831,92.6337114 330.424608,93.1179768 330.137617,93.5362966 L299.049541,138.850466 C298.464091,139.703822 297.480158,140.195182 296.446246,140.150509 L257.120009,138.451301 C255.464699,138.379778 254.180786,136.979904 254.252308,135.324594 C254.271715,134.875444 254.39182,134.436398 254.603745,134.039912 Z" id="Line-69" fill="#4F5E71"></path>
                    <path d="M301.821811,81.8571275 C301.821811,76.6238742 301.821811,71.390621 301.821811,66.1573678" id="Path-274" stroke="#ACCDFF" stroke-linecap="round"></path>
                    <path d="M289.12274,80.9089204 C287.235142,75.4153996 285.347543,69.9218787 283.459945,64.4283579" id="Path-280" stroke="#ACCDFF" stroke-linecap="round"></path>
                    <path d="M269.337357,95.8728515 C267.75998,93.8673333 266.182604,91.861815 264.605227,89.8562968" id="Path-281" stroke="#ACCDFF" stroke-linecap="round"></path>
                    <path d="M259.228072,150.254475 C260.280312,145.73562 262.923887,141.750812 263.897407,138.524946 C267.885166,125.311065 269.401574,128.267185 268.567339,131.197393 C267.316077,135.592388 266.055197,138.68401 268.567339,136.922204 C272.164237,134.399641 272.641164,131.197393 273.790311,128.288893 C274.089534,127.531558 274.592736,124.260091 276.033769,124.260091 C277.474802,124.260091 274.344551,132.285994 275.288753,132.551505 C275.635141,132.648909 276.131514,131.945281 276.689731,130.682326 C277.636447,128.540398 278.727939,125.334012 279.326822,125.652823 C280.54163,126.299518 278.695828,133.443557 279.326822,133.843189 C280.030676,134.288967 281.293651,130.919362 282.079268,131.197393 C282.938784,131.501578 281.386794,134.374966 282.079268,134.998095 C282.735972,135.589035 283.787275,133.649948 284.5564,133.843189 C286.102732,134.231702 280.166768,143.630777 279.326822,144.149224 C272.485718,148.371813 273.19272,148.878533 267.313506,156.160421" id="Path-78" fill="#135FD1" transform="translate(272.020117, 140.210256) rotate(36.000000) translate(-272.020117, -140.210256) "></path>
                    <polygon id="Line-71" fill="#0544A2" points="258.254438 138.815307 258.254438 150.30347 254.755097 141.375864"></polygon>
                    <path d="M229.497041,169.450409 C230.059382,185.794258 231.129586,198.018854 232.707654,206.124195 C234.285723,214.229536 237.688891,224.981267 242.91716,238.379389 L251.054601,320.289386 L242.91716,287.690701 L240.275821,244.869898 C230.660815,228.458683 224.794825,216.355274 222.677851,208.559669 C220.560877,200.764064 219.599896,187.727644 219.794908,169.450409 L229.497041,169.450409 Z" id="Line-72" fill="#EB5B3D"></path>
                    <g id="Group-133" transform="translate(0.000000, 292.000000)">
                        <path d="M38.1603902,72.4359477 C37.725154,72.067945 29.7731515,63.6280064 19.6402236,53.867671 C14.9245534,49.3253983 8.59290819,45.444286 5.83648659,40.482059 C1.23708271,32.2020172 -4.59852699,23.6789736 5.83648659,18.0387536 C9.04461477,16.304731 14.2028613,12.3985879 16.4093879,15.3294021 C21.5862454,22.2055518 17.9705048,33.3045237 22.7334129,40.482059 L32.5962964,56.1684444 C33.4081457,57.3918727 35.9091678,58.0304613 36.8900947,56.9420022 C41.0488052,52.3274013 26.2509922,17.3676261 34.445587,2.86638531 C35.7527503,0.553215512 41.5349161,-1.34382164 42.1659388,1.24457259 C45.5291033,15.0399488 47.6797534,21.7275865 49.1926978,33.9617925 C49.6269129,37.4730106 47.2142697,44.5735007 48.202647,48.5738567 C48.5892502,50.1385935 49.4473913,59.7078775 50.8683363,58.9841442 C66.6300288,50.9562037 43.3771675,18.7446896 61.6758304,8.40789531 C63.6885962,7.2708972 66.6872642,6.35315886 68.5538939,7.72296113 C69.3075876,8.27604952 69.9756019,15.1868025 68.5538939,24.013894 C68.1959623,26.2362178 65.5535807,28.7549199 65.2633545,31.1196667 C63.8801441,42.3899866 63.8287592,54.3949786 65.2633545,59.2917949 C65.8858887,61.4167396 69.242547,57.1943596 70.6440166,55.4936386 C73.3862696,52.1658412 74.474775,46.6434768 76.7677804,42.9427632 C78.923346,39.4638657 82.2683524,37.7922041 85.241184,35.0481634 C87.0970716,33.3351061 90.7975318,33.4965435 92.7681214,35.0722184 C103.198184,43.4120507 83.9982399,55.500878 82.5458616,58.5093747 C80.9782451,61.7565791 83.3380397,65.7750997 82.8241287,69.3531108 C82.6415707,70.6241377 78.0251153,72.286185 76.7677804,72.4359477 C62.7167736,74.1095798 52.2887878,73.927357 38.1603902,74.6730617 L38.1603902,72.4359477 Z" id="Path-275" fill="#2F9E84"></path>
                        <path d="M38.5323705,13.4028572 C43.1648741,16.6014808 41.1178261,20.8867033 38.8139076,26.0491957 C31.4350603,42.5833064 43.7193479,19.1194357 41.4980771,32.7239657 C41.201976,34.5374843 39.6443445,35.6234541 39.7272437,37.5002909 C39.7786266,38.6635983 41.4376279,37.1763981 41.7409565,38.2227491 C42.4140011,40.5444583 42.0319954,43.3760186 42.1775148,45.9526534" id="Path-277" stroke="#FFFFFF" stroke-width="0.5"></path>
                        <path d="M34.5088757,70.8436739 L78.6035503,70.8436739 L78.6035503,94.8816334 C78.6035503,105.927328 69.6492453,114.881633 58.6035503,114.881633 L54.5088757,114.881633 C43.4631807,114.881633 34.5088757,105.927328 34.5088757,94.8816334 L34.5088757,70.8436739 Z" id="Rectangle-100" fill="#EED45F"></path>
                        <path d="M34.5088757,70.8436739 L63.0036995,99.3018473 C66.5691338,102.862696 66.5728514,108.639689 63.012003,112.205124 C61.3005855,113.918745 58.9780819,114.881633 56.556213,114.881633 L54.5088757,114.881633 C43.4631807,114.881633 34.5088757,105.927328 34.5088757,94.8816334 L34.5088757,70.8436739 Z" id="Rectangle-100" fill="#E5CB56"></path>
                        <path d="M65.0196218,13.4028572 C50.4819625,28.7562474 69.5289284,25.8489165 64.2206207,21.0464624" id="Path-276" stroke="#FFFFFF" stroke-width="0.5"></path>
                        <path d="M82.4378698,45.9526534 C72.480528,59.4272509 83.1745943,59.0419945 63.2662722,65.0995923" id="Path-278" stroke="#FFFFFF" stroke-width="0.5"></path>
                        <path d="M11.5029586,21.0616328 C12.3957474,36.9005488 20.7718685,33.1356627 23.0059172,47.8673472" id="Path-279" stroke="#FFFFFF" stroke-width="0.5"></path>
                    </g>
                </g>
            </g>
            <path d="M292.491939,289 C279.6086,305.345632 298.596515,306.642196 297.985513,290.811571" id="Path-282" fill="#788AA2"></path>
        </g>
        <rect id="Rectangle-102" fill="#DEB9B9" transform="translate(333.000000, 490.000000) rotate(46.000000) translate(-333.000000, -490.000000) " x="325" y="469" width="16" height="42"></rect>
        <path d="M343.615402,476.901769 L359.615402,476.901769 L358.889322,472.209478 L353.352538,469.289636 C353.431596,467.729948 352.697374,467.020919 351.149872,467.162546 C349.60237,467.304173 349.191234,468.151375 349.916466,469.70415 L344.547675,472.491369 L343.615402,476.901769 Z" id="Rectangle-102" fill="#AC8E8E" transform="translate(351.615402, 472.023315) rotate(46.000000) translate(-351.615402, -472.023315) "></path>
        <g id="Group-130" transform="translate(20.000000, 109.000000)">
            <path d="M44.1347656,33.1074219 C43.1972609,38.341823 40.550803,45.2167543 36.1953125,53.7324219 C35.0039003,56.154309 33.9394578,58.2831939 33.0019531,60.1191406 C32.0644484,61.9550873 31.1660199,63.4931579 30.3066406,64.7333984 C29.4472613,65.973639 28.5830122,66.9062469 27.7138672,67.53125 C26.8447222,68.1562531 25.8828178,68.46875 24.828125,68.46875 C24.1054651,68.46875 23.4902369,68.2929705 22.9824219,67.9414062 C22.4746068,67.589842 22.0351581,66.9111378 21.6640625,65.9052734 C21.2929669,64.899409 20.98047,63.4882903 20.7265625,61.671875 C20.472655,59.8554597 20.2480479,57.472671 20.0527344,54.5234375 L13.5195312,64.1035156 C12.9335908,64.9628949 12.3818385,65.6904267 11.8642578,66.2861328 C11.3466771,66.8818389 10.8388697,67.3603498 10.3408203,67.7216797 C9.84277095,68.0830096 9.33008076,68.3417961 8.80273438,68.4980469 C8.27538799,68.6542977 7.71875293,68.7324219 7.1328125,68.7324219 C6.29296455,68.7324219 5.59472935,68.4882837 5.03808594,68 C4.48144253,67.5117163 4.203125,66.7988328 4.203125,65.8613281 C4.203125,64.4746024 4.20800776,62.9462974 4.21777344,61.2763672 C4.22753911,59.606437 4.27148398,57.7412212 4.34960938,55.6806641 C4.42773477,53.6201069 4.54980386,51.344739 4.71582031,48.8544922 C4.88183677,46.3642454 5.12109219,43.5957184 5.43359375,40.5488281 C4.74999658,41.3496134 4.17383047,41.9257795 3.70507812,42.2773438 C3.23632578,42.628908 2.85547021,42.8046875 2.5625,42.8046875 C2.30859248,42.8046875 2.12304746,42.6972667 2.00585938,42.4824219 C1.88867129,42.2675771 1.83007812,41.9746112 1.83007812,41.6035156 C1.83007812,40.9589812 1.99609209,40.1386769 2.328125,39.1425781 C2.66015791,38.1464794 3.13866875,37.0820369 3.76367188,35.9492188 C4.388675,34.8164006 5.16503442,33.6884822 6.09277344,32.5654297 C7.02051245,31.4423772 8.0898377,30.4414106 9.30078125,29.5625 C9.53515742,29.4062492 9.79882666,29.328125 10.0917969,29.328125 C10.4433611,29.328125 10.7802718,29.4550769 11.1025391,29.7089844 C11.4248063,29.9628919 11.7080066,30.2949198 11.9521484,30.7050781 C12.1962903,31.1152364 12.3916008,31.5742162 12.5380859,32.0820312 C12.684571,32.5898463 12.7578125,33.0878882 12.7578125,33.5761719 C12.7578125,34.0449242 12.7285159,34.4355453 12.6699219,34.7480469 C12.5722651,35.1777365 12.4794926,35.5585921 12.3916016,35.890625 C12.3037105,36.2226579 12.210938,36.6230445 12.1132812,37.0917969 C12.0156245,37.5605492 11.9082037,38.1708947 11.7910156,38.9228516 C11.6738275,39.6748084 11.5371102,40.6855405 11.3808594,41.9550781 C11.1855459,43.5566486 11.0341802,45.1679606 10.9267578,46.7890625 C10.8193354,48.4101644 10.7265629,50.0458902 10.6484375,51.6962891 C10.5703121,53.3466879 10.4970707,55.0117104 10.4287109,56.6914062 C10.3603512,58.3711021 10.2871098,60.0703039 10.2089844,61.7890625 C10.638674,61.2617161 11.1367159,60.583012 11.703125,59.7529297 C12.2695341,58.9228474 12.8554657,58.04395 13.4609375,57.1162109 C14.0664093,56.1884719 14.6621064,55.2558641 15.2480469,54.3183594 C15.8339873,53.3808547 16.3613258,52.5312538 16.8300781,51.7695312 C17.3183618,51.02734 17.6992174,50.4218773 17.9726562,49.953125 L18.3828125,49.2207031 C19.1054724,47.3847564 19.8378869,45.5781339 20.5800781,43.8007812 C21.3222693,42.0234286 22.0546839,40.2558682 22.7773438,38.4980469 C23.4804723,36.7792883 24.2226523,35.4511766 25.0039062,34.5136719 C25.7851602,33.5761672 26.634761,33.1074219 27.5527344,33.1074219 C28.2949256,33.1074219 28.8906228,33.2392565 29.3398438,33.5029297 C29.7890647,33.7666029 30.0136719,34.1035136 30.0136719,34.5136719 C30.0136719,35.197269 29.8427751,36.002925 29.5009766,36.9306641 C29.159178,37.8584031 28.7636741,38.8496041 28.3144531,39.9042969 C27.8652321,40.9589896 27.4209006,42.0429632 26.9814453,43.15625 C26.54199,44.2695368 26.2148448,45.3339793 26,46.3496094 C25.9023433,48.0488366 25.824219,49.4941347 25.765625,50.6855469 C25.707031,51.8769591 25.6777344,52.9706981 25.6777344,53.9667969 C25.6777344,55.1972718 25.6874999,56.4863214 25.7070312,57.8339844 C25.7265626,59.1816474 25.8144523,60.470697 25.9707031,61.7011719 C26.751957,60.5683537 27.5673786,59.34278 28.4169922,58.0244141 C29.2666058,56.7060481 30.1113239,55.343757 30.9511719,53.9375 C31.7910198,52.531243 32.6015586,51.0908277 33.3828125,49.6162109 C34.1640664,48.1415942 34.8867154,46.6718823 35.5507812,45.2070312 C36.2148471,43.7421802 36.7910132,42.3017649 37.2792969,40.8857422 C37.7675806,39.4697195 38.1386706,38.1171939 38.3925781,36.828125 L38.7734375,34.6308594 C38.7734375,34.552734 38.783203,34.4746098 38.8027344,34.3964844 C38.8222657,34.318359 38.8320312,34.2402348 38.8320312,34.1621094 C38.9492193,33.5761689 39.0761712,33.0488305 39.2128906,32.5800781 C39.3496101,32.1113258 39.5302723,31.7158219 39.7548828,31.3935547 C39.9794933,31.0712875 40.2626936,30.8222665 40.6044922,30.6464844 C40.9462908,30.4707022 41.3710912,30.3828125 41.8789062,30.3828125 C42.7187542,30.3828125 43.3290997,30.4707022 43.7099609,30.6464844 C44.0908222,30.8222665 44.28125,31.2128876 44.28125,31.8183594 C44.28125,32.0136729 44.2666017,32.2089834 44.2373047,32.4042969 C44.2080077,32.5996104 44.1738283,32.833983 44.1347656,33.1074219 Z" id="W" fill="#2D7FF9" transform="translate(23.055664, 49.030273) rotate(-3.000000) translate(-23.055664, -49.030273) "></path>
            <path d="M51.6484375,48.0039062 C50.7304642,48.0039062 49.8418012,48.2382789 48.9824219,48.7070312 C48.1230426,49.1757836 47.3613314,49.7910118 46.6972656,50.5527344 C46.0331998,51.3144569 45.5058613,52.1689406 45.1152344,53.1162109 C44.7246074,54.0634813 44.5292969,55.0156202 44.5292969,55.9726562 C44.5292969,56.3632832 44.5537107,56.7685526 44.6025391,57.1884766 C44.6513674,57.6084005 44.763671,57.9941389 44.9394531,58.3457031 C45.1152353,58.6972674 45.3642562,58.9902332 45.6865234,59.2246094 C46.0087907,59.4589855 46.4433566,59.5761719 46.9902344,59.5761719 C47.419924,59.5761719 47.9228487,59.3857441 48.4990234,59.0048828 C49.0751982,58.6240215 49.6708954,58.1357452 50.2861328,57.5400391 C50.9013703,56.944333 51.5019502,56.2900426 52.0878906,55.5771484 C52.6738311,54.8642542 53.2011695,54.166019 53.6699219,53.4824219 C54.1386742,52.7988247 54.5195298,52.1835965 54.8125,51.6367188 C55.1054702,51.089841 55.2519531,50.6894544 55.2519531,50.4355469 C55.2519531,50.0644513 55.1250013,49.7275406 54.8710938,49.4248047 C54.6171862,49.1220688 54.3046894,48.8632823 53.9335938,48.6484375 C53.5624981,48.4335927 53.1669943,48.2724615 52.7470703,48.1650391 C52.3271463,48.0576167 51.9609391,48.0039062 51.6484375,48.0039062 Z M71.9511719,55.5625 C71.5996076,55.8945329 71.1308623,56.3535127 70.5449219,56.9394531 C69.9589814,57.5253936 69.2900428,58.1601528 68.5380859,58.84375 C67.7861291,59.5273472 66.9853558,60.2158168 66.1357422,60.9091797 C65.2861286,61.6025425 64.4169966,62.232419 63.5283203,62.7988281 C62.639644,63.3652372 61.7656293,63.8290998 60.90625,64.1904297 C60.0468707,64.5517596 59.2363319,64.7324219 58.4746094,64.7324219 C57.7910122,64.7324219 57.2050806,64.585939 56.7167969,64.2929688 C56.2285132,63.9999985 55.8232438,63.619143 55.5009766,63.1503906 C55.1787093,62.6816383 54.9394539,62.149417 54.7832031,61.5537109 C54.6269523,60.9580048 54.5488281,60.3476594 54.5488281,59.7226562 C54.5488281,59.3124979 54.5781247,58.9072286 54.6367188,58.5068359 C54.6953128,58.1064433 54.7929681,57.7304705 54.9296875,57.3789062 C54.3242157,58.1992229 53.635746,59.043941 52.8642578,59.9130859 C52.0927696,60.7822309 51.2626998,61.5732386 50.3740234,62.2861328 C49.4853471,62.999027 48.557622,63.5849586 47.5908203,64.0439453 C46.6240186,64.502932 45.6425831,64.7324219 44.6464844,64.7324219 C44.1386693,64.7324219 43.5478549,64.6298838 42.8740234,64.4248047 C42.2001919,64.2197255 41.5605499,63.8828148 40.9550781,63.4140625 C40.3496063,62.9453102 39.8417989,62.3398475 39.4316406,61.5976562 C39.0214823,60.855465 38.8164062,59.947271 38.8164062,58.8730469 C38.8164062,58.0722616 38.9384753,57.1152399 39.1826172,56.0019531 C39.426759,54.8886663 39.7978491,53.7314513 40.2958984,52.5302734 C40.7939478,51.3290956 41.4287071,50.142584 42.2001953,48.9707031 C42.9716835,47.7988223 43.8847604,46.7490281 44.9394531,45.8212891 C45.9941459,44.89355 47.1953058,44.1416044 48.5429688,43.5654297 C49.8906317,42.9892549 51.3945229,42.7011719 53.0546875,42.7011719 C53.9140668,42.7011719 54.6660124,42.8085927 55.3105469,43.0234375 C55.9550813,43.2382823 56.5019509,43.472655 56.9511719,43.7265625 C57.4589869,44.0390641 57.9082012,44.3808575 58.2988281,44.7519531 C58.630861,44.576171 58.9726545,44.410157 59.3242188,44.2539062 C59.617189,44.1171868 59.9248031,43.9951177 60.2470703,43.8876953 C60.5693375,43.7802729 60.8476551,43.7265625 61.0820312,43.7265625 C61.8242225,43.7265625 62.4296852,43.9316386 62.8984375,44.3417969 C63.3671898,44.7519552 63.6015625,45.2011694 63.6015625,45.6894531 C63.6015625,45.8261726 63.591797,45.9335934 63.5722656,46.0117188 C63.4746089,46.3828144 63.3232432,46.8515597 63.1181641,47.4179688 C62.9130849,47.9843778 62.683595,48.6142543 62.4296875,49.3076172 C62.17578,50.00098 61.9169935,50.7236291 61.6533203,51.4755859 C61.3896471,52.2275428 61.1503917,52.9648401 60.9355469,53.6875 C60.7207021,54.4101599 60.5449226,55.088864 60.4082031,55.7236328 C60.2714837,56.3584016 60.203125,56.9003884 60.203125,57.3496094 C60.203125,57.9355498 60.3007803,58.4189434 60.4960938,58.7998047 C60.6914072,59.180666 61.0234352,59.3710938 61.4921875,59.3710938 C61.7851577,59.3710938 62.1318339,59.2783212 62.5322266,59.0927734 C62.9326192,58.9072256 63.3671852,58.6582047 63.8359375,58.3457031 C64.3046898,58.0332016 64.7880834,57.6767598 65.2861328,57.2763672 C65.7841822,56.8759746 66.2675758,56.4707052 66.7363281,56.0605469 C67.8300836,55.0839795 68.9921813,53.9707094 70.2226562,52.7207031 C70.5351578,52.4667956 70.8378892,52.3398438 71.1308594,52.3398438 C71.5214863,52.3398438 71.8486315,52.5302715 72.1123047,52.9111328 C72.3759779,53.2919941 72.5078125,53.7167945 72.5078125,54.1855469 C72.5078125,54.7324246 72.3222675,55.1914044 71.9511719,55.5625 Z" id="a" fill="#2D7FF9" transform="translate(55.662109, 53.716797) rotate(-3.000000) translate(-55.662109, -53.716797) "></path>
            <path d="M86.9179688,56.0527344 C86.8984374,56.0917971 86.8886719,56.1406247 86.8886719,56.1992187 C86.8886719,56.2578128 86.8789063,56.3066404 86.859375,56.3457031 C86.859375,56.6972674 86.9472647,57.0634747 87.1230469,57.4443359 C87.298829,57.8251972 87.5820293,58.015625 87.9726562,58.015625 C88.128907,58.015625 88.2460934,57.9960939 88.3242188,57.9570312 C89.4375056,57.6249983 90.565424,57.0976599 91.7080078,56.375 C92.8505917,55.6523401 93.9492135,54.8613324 95.0039062,54.0019531 C96.058599,53.1425738 97.030269,52.2636764 97.9189453,51.3652344 C98.8076216,50.4667924 99.5449189,49.6660191 100.130859,48.9628906 C100.404298,48.6308577 100.70703,48.4648437 101.039062,48.4648437 C101.332033,48.4648437 101.590819,48.6015611 101.81543,48.875 C102.04004,49.1484389 102.152344,49.5195289 102.152344,49.9882812 C102.152344,50.3593769 102.049806,50.7988256 101.844727,51.3066406 C101.639647,51.8144557 101.302737,52.3613252 100.833984,52.9472656 C99.6816349,54.2168032 98.5000061,55.4374941 97.2890625,56.609375 C96.0781189,57.7812559 94.857428,58.8212845 93.6269531,59.7294922 C92.3964782,60.6376999 91.1709045,61.3652316 89.9501953,61.9121094 C88.7294861,62.4589871 87.533209,62.7324219 86.3613281,62.7324219 C84.9355397,62.7324219 83.8125041,62.3271525 82.9921875,61.5166016 C82.1718709,60.7060506 81.7617188,59.4902425 81.7617188,57.8691406 L81.7617188,57.5615234 C81.7617188,57.454101 81.7714843,57.351563 81.7910156,57.2539062 C81.3417946,58.0742229 80.7656285,58.8212857 80.0625,59.4951172 C79.3593715,60.1689487 78.5878948,60.7451148 77.7480469,61.2236328 C76.9081989,61.7021508 76.039067,62.0732409 75.140625,62.3369141 C74.242183,62.6005873 73.3730511,62.7324219 72.5332031,62.7324219 C71.8105433,62.7324219 71.1464874,62.6347666 70.5410156,62.4394531 C69.9355438,62.2441396 69.4130881,61.9316428 68.9736328,61.5019531 C68.5341775,61.0722635 68.192384,60.5253939 67.9482422,59.8613281 C67.7041003,59.1972623 67.5820312,58.3964891 67.5820312,57.4589844 C67.5820312,55.8183512 67.835935,54.2607496 68.34375,52.7861328 C68.851565,51.3115161 69.5253864,49.9541078 70.3652344,48.7138672 C71.2050823,47.4736266 72.1669868,46.3603565 73.2509766,45.3740234 C74.3349664,44.3876904 75.458002,43.547855 76.6201172,42.8544922 C77.7822324,42.1611293 78.9394474,41.6289081 80.0917969,41.2578125 C81.2441464,40.8867169 82.2988233,40.7011719 83.2558594,40.7011719 C84.3691462,40.7011719 85.3261679,40.8867169 86.1269531,41.2578125 C86.5175801,41.453126 86.8789046,41.7167952 87.2109375,42.0488281 C87.2890629,41.873046 87.3671871,41.707032 87.4453125,41.5507812 C87.640626,41.0820289 87.8164055,40.6767595 87.9726562,40.3349609 C88.128907,39.9931624 88.2363278,39.7441414 88.2949219,39.5878906 C88.3535159,39.4121085 88.5195299,39.0019563 88.7929688,38.3574219 C89.0664076,37.7128874 89.3837873,36.956059 89.7451172,36.0869141 C90.1064471,35.2177691 90.4970682,34.2851612 90.9169922,33.2890625 C91.3369162,32.2929638 91.7226545,31.3554731 92.0742188,30.4765625 L92.9824219,28.2060547 C93.2363294,27.5712859 93.3925778,27.1660165 93.4511719,26.9902344 C93.5878913,26.5019507 93.7734363,26.0283226 94.0078125,25.5693359 C94.2421887,25.1103493 94.5205062,24.7099626 94.8427734,24.3681641 C95.1650407,24.0263655 95.5410135,23.7529307 95.9707031,23.5478516 C96.4003928,23.3427724 96.8886691,23.2402344 97.4355469,23.2402344 C98.1777381,23.2402344 98.7929663,23.4013656 99.28125,23.7236328 C99.7695337,24.0459 100.013672,24.666011 100.013672,25.5839844 C100.013672,25.95508 99.9648442,26.3359355 99.8671875,26.7265625 C99.7695308,27.1171895 99.6572272,27.498045 99.5302734,27.8691406 C99.4033197,28.2402362 99.2666023,28.6064435 99.1201172,28.9677734 C98.9736321,29.3291034 98.8417975,29.6660141 98.7246094,29.9785156 C97.748042,31.9316504 96.7226616,34.0556526 95.6484375,36.3505859 C94.5742134,38.6455193 93.5097709,40.9550665 92.4550781,43.2792969 C91.4003854,45.6035272 90.394536,47.8691296 89.4375,50.0761719 C88.480464,52.2832142 87.6406286,54.2753817 86.9179688,56.0527344 Z M86.0390625,44.5976562 C84.8671816,44.6367189 83.6367252,44.8906227 82.3476562,45.359375 C80.8632738,45.86719 79.5058655,46.6240184 78.2753906,47.6298828 C77.0449157,48.6357472 76.0048871,49.8710864 75.1552734,51.3359375 C74.3056598,52.8007886 73.8222662,54.4804593 73.7050781,56.375 C73.7050781,57.1562539 74.0371061,57.546875 74.7011719,57.546875 C75.5214885,57.546875 76.3027307,57.3759783 77.0449219,57.0341797 C77.7871131,56.6923811 78.4951138,56.2334013 79.1689453,55.6572266 C79.8427768,55.0810518 80.4726533,54.4218787 81.0585938,53.6796875 C81.6445342,52.9374963 82.1865209,52.1660196 82.6845703,51.3652344 C83.1826197,50.5644491 83.6318339,49.7685586 84.0322266,48.9775391 C84.4326192,48.1865195 84.7792954,47.4492222 85.0722656,46.765625 C85.1699224,46.5507802 85.3066397,46.2480488 85.4824219,45.8574219 C85.6386727,45.4863263 85.8242177,45.0664086 86.0390625,44.5976562 Z" id="d" fill="#2D7FF9" transform="translate(84.867188, 42.986328) rotate(-3.000000) translate(-84.867188, -42.986328) "></path>
            <path d="M114.917969,56.0527344 C114.898437,56.0917971 114.888672,56.1406247 114.888672,56.1992187 C114.888672,56.2578128 114.878906,56.3066404 114.859375,56.3457031 C114.859375,56.6972674 114.947265,57.0634747 115.123047,57.4443359 C115.298829,57.8251972 115.582029,58.015625 115.972656,58.015625 C116.128907,58.015625 116.246093,57.9960939 116.324219,57.9570312 C117.437506,57.6249983 118.565424,57.0976599 119.708008,56.375 C120.850592,55.6523401 121.949213,54.8613324 123.003906,54.0019531 C124.058599,53.1425738 125.030269,52.2636764 125.918945,51.3652344 C126.807622,50.4667924 127.544919,49.6660191 128.130859,48.9628906 C128.404298,48.6308577 128.70703,48.4648437 129.039062,48.4648437 C129.332033,48.4648437 129.590819,48.6015611 129.81543,48.875 C130.04004,49.1484389 130.152344,49.5195289 130.152344,49.9882812 C130.152344,50.3593769 130.049806,50.7988256 129.844727,51.3066406 C129.639647,51.8144557 129.302737,52.3613252 128.833984,52.9472656 C127.681635,54.2168032 126.500006,55.4374941 125.289062,56.609375 C124.078119,57.7812559 122.857428,58.8212845 121.626953,59.7294922 C120.396478,60.6376999 119.170905,61.3652316 117.950195,61.9121094 C116.729486,62.4589871 115.533209,62.7324219 114.361328,62.7324219 C112.93554,62.7324219 111.812504,62.3271525 110.992188,61.5166016 C110.171871,60.7060506 109.761719,59.4902425 109.761719,57.8691406 L109.761719,57.5615234 C109.761719,57.454101 109.771484,57.351563 109.791016,57.2539062 C109.341795,58.0742229 108.765629,58.8212857 108.0625,59.4951172 C107.359371,60.1689487 106.587895,60.7451148 105.748047,61.2236328 C104.908199,61.7021508 104.039067,62.0732409 103.140625,62.3369141 C102.242183,62.6005873 101.373051,62.7324219 100.533203,62.7324219 C99.8105433,62.7324219 99.1464874,62.6347666 98.5410156,62.4394531 C97.9355438,62.2441396 97.4130881,61.9316428 96.9736328,61.5019531 C96.5341775,61.0722635 96.192384,60.5253939 95.9482422,59.8613281 C95.7041003,59.1972623 95.5820312,58.3964891 95.5820312,57.4589844 C95.5820312,55.8183512 95.835935,54.2607496 96.34375,52.7861328 C96.851565,51.3115161 97.5253864,49.9541078 98.3652344,48.7138672 C99.2050823,47.4736266 100.166987,46.3603565 101.250977,45.3740234 C102.334966,44.3876904 103.458002,43.547855 104.620117,42.8544922 C105.782232,42.1611293 106.939447,41.6289081 108.091797,41.2578125 C109.244146,40.8867169 110.298823,40.7011719 111.255859,40.7011719 C112.369146,40.7011719 113.326168,40.8867169 114.126953,41.2578125 C114.51758,41.453126 114.878905,41.7167952 115.210938,42.0488281 C115.289063,41.873046 115.367187,41.707032 115.445312,41.5507812 C115.640626,41.0820289 115.816405,40.6767595 115.972656,40.3349609 C116.128907,39.9931624 116.236328,39.7441414 116.294922,39.5878906 C116.353516,39.4121085 116.51953,39.0019563 116.792969,38.3574219 C117.066408,37.7128874 117.383787,36.956059 117.745117,36.0869141 C118.106447,35.2177691 118.497068,34.2851612 118.916992,33.2890625 C119.336916,32.2929638 119.722654,31.3554731 120.074219,30.4765625 L120.982422,28.2060547 C121.236329,27.5712859 121.392578,27.1660165 121.451172,26.9902344 C121.587891,26.5019507 121.773436,26.0283226 122.007812,25.5693359 C122.242189,25.1103493 122.520506,24.7099626 122.842773,24.3681641 C123.165041,24.0263655 123.541013,23.7529307 123.970703,23.5478516 C124.400393,23.3427724 124.888669,23.2402344 125.435547,23.2402344 C126.177738,23.2402344 126.792966,23.4013656 127.28125,23.7236328 C127.769534,24.0459 128.013672,24.666011 128.013672,25.5839844 C128.013672,25.95508 127.964844,26.3359355 127.867188,26.7265625 C127.769531,27.1171895 127.657227,27.498045 127.530273,27.8691406 C127.40332,28.2402362 127.266602,28.6064435 127.120117,28.9677734 C126.973632,29.3291034 126.841797,29.6660141 126.724609,29.9785156 C125.748042,31.9316504 124.722662,34.0556526 123.648438,36.3505859 C122.574213,38.6455193 121.509771,40.9550665 120.455078,43.2792969 C119.400385,45.6035272 118.394536,47.8691296 117.4375,50.0761719 C116.480464,52.2832142 115.640629,54.2753817 114.917969,56.0527344 Z M114.039062,44.5976562 C112.867182,44.6367189 111.636725,44.8906227 110.347656,45.359375 C108.863274,45.86719 107.505866,46.6240184 106.275391,47.6298828 C105.044916,48.6357472 104.004887,49.8710864 103.155273,51.3359375 C102.30566,52.8007886 101.822266,54.4804593 101.705078,56.375 C101.705078,57.1562539 102.037106,57.546875 102.701172,57.546875 C103.521488,57.546875 104.302731,57.3759783 105.044922,57.0341797 C105.787113,56.6923811 106.495114,56.2334013 107.168945,55.6572266 C107.842777,55.0810518 108.472653,54.4218787 109.058594,53.6796875 C109.644534,52.9374963 110.186521,52.1660196 110.68457,51.3652344 C111.18262,50.5644491 111.631834,49.7685586 112.032227,48.9775391 C112.432619,48.1865195 112.779295,47.4492222 113.072266,46.765625 C113.169922,46.5507802 113.30664,46.2480488 113.482422,45.8574219 C113.638673,45.4863263 113.824218,45.0664086 114.039062,44.5976562 Z" id="d" fill="#2D7FF9" transform="translate(112.867188, 42.986328) rotate(-3.000000) translate(-112.867188, -42.986328) "></path>
            <path d="M130.998047,53.5332031 C130.783202,53.9824241 130.573243,54.5048798 130.368164,55.1005859 C130.163085,55.696292 130.060547,56.2285133 130.060547,56.6972656 C130.060547,56.9902358 130.11914,57.2246085 130.236328,57.4003906 C130.353516,57.5761728 130.578123,57.6640625 130.910156,57.6640625 C131.320315,57.6640625 131.833005,57.5419934 132.448242,57.2978516 C133.06348,57.0537097 133.727535,56.7314473 134.44043,56.3310547 C135.153324,55.9306621 135.895504,55.4716823 136.666992,54.9541016 C137.43848,54.4365208 138.205074,53.8994168 138.966797,53.3427734 C139.728519,52.78613 140.456051,52.229495 141.149414,51.6728516 C141.842777,51.1162082 142.462888,50.603518 143.009766,50.1347656 C143.166016,49.9980462 143.351561,49.9003909 143.566406,49.8417969 C143.781251,49.7832028 143.966796,49.7539062 144.123047,49.7539062 C144.513674,49.7539062 144.835936,49.8906236 145.089844,50.1640625 C145.343751,50.4375014 145.470703,50.7988259 145.470703,51.2480469 C145.470703,51.6582052 145.333986,52.117185 145.060547,52.625 C144.787108,53.132815 144.308597,53.6308569 143.625,54.1191406 C142.374994,55.2714901 141.115241,56.3652292 139.845703,57.4003906 C138.576166,58.4355521 137.31153,59.3486289 136.051758,60.1396484 C134.791986,60.930668 133.541998,61.5605445 132.301758,62.0292969 C131.061517,62.4980492 129.855475,62.7324219 128.683594,62.7324219 C127.882808,62.7324219 127.21387,62.6250011 126.676758,62.4101562 C126.139646,62.1953114 125.709963,61.9023456 125.387695,61.53125 C125.065428,61.1601544 124.835938,60.7207057 124.699219,60.2128906 C124.562499,59.7050756 124.494141,59.1679716 124.494141,58.6015625 C124.494141,57.6445265 124.635741,56.663091 124.918945,55.6572266 C125.20215,54.6513622 125.539061,53.7285198 125.929688,52.8886719 C126.613285,51.3652268 127.306637,49.85157 128.009766,48.3476562 C128.712894,46.8437425 129.357419,45.4668031 129.943359,44.2167969 L138.820312,25.3203125 C139.171877,24.5585899 139.645505,24.0214859 140.241211,23.7089844 C140.836917,23.3964828 141.437497,23.2402344 142.042969,23.2402344 C142.648441,23.2402344 143.200193,23.4062483 143.698242,23.7382812 C144.196292,24.0703142 144.445312,24.6074182 144.445312,25.3496094 C144.445312,25.7011736 144.362306,26.0722637 144.196289,26.4628906 C144.030273,26.8535176 143.820314,27.2734353 143.566406,27.7226562 C143.078123,28.6406296 142.497074,29.7636652 141.823242,31.0917969 C141.149411,32.4199285 140.426762,33.8652266 139.655273,35.4277344 C138.883785,36.9902422 138.092777,38.6162025 137.282227,40.3056641 C136.471676,41.9951256 135.680668,43.640617 134.90918,45.2421875 C134.137691,46.843758 133.415042,48.3622975 132.741211,49.7978516 C132.067379,51.2334056 131.486331,52.4785104 130.998047,53.5332031 Z" id="l" fill="#2D7FF9" transform="translate(134.982422, 42.986328) rotate(-3.000000) translate(-134.982422, -42.986328) "></path>
            <path d="M2.77498345,84.2978266 C27.4450925,78.9421674 55.8076611,71.7552289 81.4009603,76.6438056 C90.2582971,78.3356458 96.5682919,92.9396362 83.0739194,93.8731123 C82.0271638,93.9455219 81.6247527,91.6635525 82.2638223,90.8313684 C84.264176,88.2265465 87.1621091,86.3588066 90.0482037,84.791334 C95.5711391,81.7917616 101.433835,79.4329516 107.31786,77.22422 C111.044601,75.825285 114.865698,74.4964137 118.814411,73.9931431 C126.902676,72.9622788 135.097052,73.0951044 143.238373,72.646085" id="Path-265" stroke="#2D7FF9" stroke-width="4" stroke-linecap="round"></path>
        </g>
    </g>
</svg>