<?xml version="1.0" encoding="UTF-8"?>
<svg width="300px" height="254px" viewBox="0 0 300 254" version="1.1" xmlns="http://www.w3.org/2000/svg" xmlns:xlink="http://www.w3.org/1999/xlink">
    <!-- Generator: Sketch 49.3 (51167) - http://www.bohemiancoding.com/sketch -->
    <title>Group 138</title>
    <desc>Created with Sketch.</desc>
    <defs></defs>
    <g id="Page-1" stroke="none" stroke-width="1" fill="none" fill-rule="evenodd">
        <path d="M83.6699503,239.075975 C89.0895602,251.446407 85.3967051,247.028271 92.9302187,253.658888 L95.1793991,251.589144 L92.9302187,246.367431 L92.1645004,241.179987 L89.4246747,242.122649 L88.2094319,240.223618 L88.2094319,237 L83.6699503,239.075975 Z" id="Path-291" fill="#333333"></path>
        <g id="Group-138">
            <path d="M122.861992,83.8468689 C125.844263,87.6834195 128.820997,84.8468689 127.886755,81.7582615" id="Path-290" fill="#03144D"></path>
            <path d="M20.6699503,153.456555 C28.4790296,165.887014 34.5179365,174.496899 38.7866711,179.286211 C45.1897729,186.470179 52.0617785,194.265559 56.7892841,196.837532 C59.9409545,198.552182 64.693688,198.552182 71.0474845,196.837532 C81.035577,189.754702 88.3102023,183.904261 92.8713606,179.286211 C97.4325188,174.668161 104.440075,166.058275 113.894031,153.456555 L75.530406,142.259307 C70.18781,149.537792 66.5782094,155.739148 64.7016042,160.863374 C62.8249991,165.987599 61.8144478,172.128545 61.6699503,179.286211 C54.4256622,168.465842 48.7682157,161.087115 44.6976108,157.150028 C40.6270059,153.212942 34.870312,148.598648 27.4275291,143.307147" id="Line-75" fill="#142C80"></path>
            <path d="M96.9821306,172.244636 C101.880563,176.472019 105.630799,179.453058 108.232839,181.187751 C110.834879,182.922444 114.084643,184.608072 117.982131,186.244636 C110.142942,194.673031 104.755053,201.291452 101.818463,206.099899 C98.8818734,210.908347 96.1657025,217.559722 93.6699503,226.054025 L98.6540826,233.859911 C113.073775,222.921466 122.708039,215.11282 127.556874,210.433972 C137.759628,200.588899 143.403891,191.323719 143.98122,188.308152 C144.97011,183.142872 136.60839,171.373488 118.896058,153 L112.856013,153 L96.9821306,172.244636 Z" id="Line-76" fill="#03144D"></path>
            <path d="M111.132489,87.6042322 L106.132489,87.6042322 L88.2058614,90.4472794 C78.3944572,91.8344592 72.2158202,95.3317716 69.6699503,100.939217 C65.8511456,109.350384 75.9481079,121.532491 78.9783638,127.414086 C80.9985345,131.33515 79.7581526,136.365408 75.2572182,142.50486 C86.1937084,146.720493 95.7527814,149.893376 103.934437,152.02351 C112.116093,154.153644 117.400357,154.807179 119.787229,153.984117 L122.589115,121.098825 L126.766331,115.819482 L126.766331,110.451658 L149.614508,118.667936 L170.763768,85.1647666 L168.70475,79.5430249 L149.614508,107.396749 L122.589115,90.4472794 L122.589115,84 L115.522227,84 L111.132489,87.6042322 Z" id="Line-77" fill="#FFD1C0"></path>
            <path d="M120.16995,154.5 L122.240612,122.433786 C125.498259,119.256796 127.397166,116.96639 127.937333,115.562567 C128.477501,114.158744 128.477501,112.341293 127.937333,110.110215 L127.937333,93.2652086 L124.030922,91.8492457 C121.100445,101.454713 118.403505,105.953103 115.940103,105.344417 C113.476701,104.73573 111.372843,98.8688418 109.62853,87.7437512 L103.321068,88.2958956 L97.536881,103.231218 L87.6445032,107.622766 L96.196524,132.514706 L103.321068,152.093477 C106.538138,152.900882 109.043613,153.470591 110.837493,153.802604 C112.631374,154.134617 115.742193,154.367083 120.16995,154.5 Z" id="Line-80" fill="#FF7353"></path>
            <polygon id="Line-78" fill="#EDAD95" points="84.6699503 106.534536 95.9680534 132.329754 87.9606035 107.718091 97.5988596 103.160456"></polygon>
            <path d="M79.1984602,127.175028 L96.8479998,150.108388 C90.581401,148.273608 86.1708047,146.914939 83.6162109,146.032381 C81.061617,145.149824 78.2909427,143.937433 75.3041878,142.395208 C77.9003694,139.112683 79.1984602,136.20812 79.1984602,133.681519 C79.1984602,131.154917 79.1984602,128.986087 79.1984602,127.175028 Z" id="Line-81" fill="#E85D3D"></path>
            <path d="M149.76272,118.334841 C136.03607,113.802894 143.375745,116.876588 128.099197,108.306997 L128.099197,110.935322 L149.76272,118.334841 Z" id="Path-285" fill="#EDAD95"></path>
            <polygon id="Line-79" fill="#EDAD95" points="112.795466 86.3548967 122.351222 83.9516829 115.386845 83.9516829"></polygon>
            <path d="M115.16995,84.5 C116.91142,85.6582672 118.87758,85.9485902 121.06843,85.370969 C124.354705,84.5045372 127.619165,84.9258943 128.864538,77.9711081 C130.109911,71.0163219 126.095336,65.4973051 125.16995,62.4660269 C124.553027,60.4451749 120.321929,60.860493 112.476658,63.7119813 C110.770075,65.5741416 110.180431,68.5401673 110.707726,72.6100583 C111.23502,76.6799494 112.722428,80.6432633 115.16995,84.5 Z" id="Line-82" fill="#FFD1C0"></path>
            <path d="M125.61787,69.1909757 C127.697103,70.0048485 128.503844,71.929214 130.041981,72.1666891 C133.963562,72.7721474 133.743655,74.974554 127.135518,73.8857479" id="Path-286" fill="#FFD1C0"></path>
            <path d="M109.690816,68.1579828 C111.619914,58.9091413 117.486999,56.0196255 125.413224,62.4907175 C121.637361,65.2188882 118.780996,66.932053 116.844129,67.630212 C114.907262,68.3283709 112.522824,68.5042945 109.690816,68.1579828 Z" id="Path-287" fill="#2D7FF9"></path>
            <path d="M120.461071,65.2360836 C132.726877,52.1595846 135.857836,55.6253931 124.883327,63.2957808" id="Path-288" fill="#3079E6"></path>
            <circle id="Oval-44" fill="#333333" cx="124.16995" cy="69.5" r="1"></circle>
            <path d="M109.922477,68.0882807 L115.223188,68.0882807 L122.721879,64.5541327 C119.552346,72.9794139 116.571823,75.903344 113.705285,77.0461939 C111.79426,77.8080938 110.320333,75.4299726 109.283504,69.9118305 L109.922477,68.0882807 Z" id="Path-289" fill="#03144D"></path>
            <path d="M24.1699503,147.5 L18.1699503,140.5 C12.4076183,138.087954 9.9250085,138.087954 10.7221208,140.5 C11.5192331,142.912046 15.2658175,146.594063 21.9618738,151.546051" id="Line-83" fill="#FFD1C0"></path>
            <path d="M100.16995,239.5 L94.1699503,232.5 C88.4076183,230.087954 85.9250085,230.087954 86.7221208,232.5 C87.5192331,234.912046 91.2658175,238.594063 97.9618738,243.546051" id="Line-83" fill="#FFD1C0" transform="translate(93.373386, 237.118508) rotate(-85.000000) translate(-93.373386, -237.118508) "></path>
            <path d="M2.99026763,134.817921 C8.4098775,147.188353 4.7170224,142.770217 12.2505359,149.400834 L14.4997164,147.33109 L12.2505359,142.109377 L11.4848177,136.921932 L8.744992,137.864594 L7.52974923,135.965563 L7.52974923,132.741946 L2.99026763,134.817921 Z" id="Path-291" fill="#333333" transform="translate(8.744992, 141.071390) rotate(90.000000) translate(-8.744992, -141.071390) "></path>
            <path d="M95.2166483,163.522194 C95.8293623,160.890888 97.3687026,158.570554 97.9355784,156.692149 C100.25763,148.997773 101.140627,150.719107 100.654856,152.425352 C99.9262526,154.984535 99.1920488,156.784771 100.654856,155.758881 C102.749312,154.290005 103.027024,152.425352 103.696167,150.731747 C103.870403,150.290755 104.163415,148.385796 105.002521,148.385796 C105.841627,148.385796 104.018898,153.059239 104.568702,153.213845 C104.770401,153.270563 105.059437,152.860843 105.384484,152.125431 C105.935752,150.878197 106.571322,149.011135 106.920049,149.196777 C107.627425,149.573344 106.552624,153.733282 106.920049,153.965986 C107.3299,154.22556 108.065323,152.263456 108.522784,152.425352 C109.023276,152.602478 108.11956,154.275637 108.522784,154.638481 C108.905179,154.982583 109.517348,153.853463 109.965205,153.965986 C110.865627,154.192215 107.409145,159.665249 106.920049,159.967138 C102.936509,162.42593 100.492422,165.238394 97.0689855,169.478601" id="Path-78" fill="#FFD1C0" transform="translate(102.665392, 158.932198) rotate(-240.000000) translate(-102.665392, -158.932198) "></path>
            <path d="M168.589395,79.4384664 C169.172878,76.9326925 170.638781,74.7230561 171.178612,72.9342643 C173.389885,65.6069671 174.230757,67.2461805 173.768161,68.8710254 C173.074317,71.3081167 172.37514,73.022468 173.768161,72.0455199 C175.762695,70.6467202 176.027158,68.8710254 176.664378,67.2582175 C176.830302,66.8382638 177.109335,65.0241861 177.90841,65.0241861 C178.707484,65.0241861 176.971713,69.474671 177.495287,69.6219009 C177.687364,69.6759131 177.962611,69.2857405 178.27215,68.5854125 C178.797119,67.3976809 179.402368,65.6196913 179.734457,65.7964771 C180.408087,66.1550792 179.384561,70.116557 179.734457,70.3381594 C180.124755,70.5853498 180.825094,68.7168526 181.260731,68.8710254 C181.737345,69.0397004 180.876743,70.6330375 181.260731,70.9785719 C181.624883,71.3062571 182.207846,70.2310043 182.634338,70.3381594 C183.491802,70.5535955 180.20022,75.7655256 179.734457,76.053012 C175.940961,78.3945017 173.613476,81.0727906 170.353362,85.1107082" id="Path-78" fill="#FFD1C0" transform="translate(175.682779, 75.067447) rotate(-2.000000) translate(-175.682779, -75.067447) "></path>
            <path d="M165.352244,82.9719046 C166.557374,85.1709591 167.762504,87.3700135 168.967635,89.569068 L170.246734,87.707757 L166.888372,81.4969518 L165.352244,82.9719046 Z" id="Path-292" fill="#D8D8D8"></path>
            <path d="M3.99361562,198 C3.8575724,198.227719 -1.05736861,204.588568 1.31685891,206.334324 C7.98305745,211.23594 32.6774038,224.6115 40.2556152,228.148352 C56.724303,235.834509 89.7535212,227.262499 98.9886163,226.635324 C108.741071,225.973014 118.599646,226.930717 128.299012,225.717734 C128.442143,225.699835 145.346262,221.308998 147.781964,217.680225 C156.869664,204.141128 126.828025,203.225137 123.177158,203.771587 C113.140801,205.273795 103.389724,208.355168 93.3726758,209.981156 C89.2845497,210.644749 85.0184297,211.47097 80.9643972,210.62365 C75.5285929,209.48753 71.1096056,204.891163 65.6024561,204.176992 C43.7288266,201.340401 27.0008944,206.041808 6.5237751,199.590851 L3.99361562,198 Z" id="Path-293" fill="#FFFFFF" opacity="0.608129529"></path>
            <path d="M124.157654,236.67665 C119.600749,238.314837 110.355172,247.946484 117.498118,252.105562 C123.436142,255.563059 120.45034,249.443598 126.329973,247.365229 C129.946336,246.086895 134.631449,249.104551 137.830768,246.988758 C141.332577,244.672921 140.123123,238.011938 143.727749,235.859628 C153.670678,229.922738 156.191536,240.880936 161.223248,231.516591 C163.028022,228.157789 165.778357,219.724528 156.478109,223.596278 C116.168878,240.377253 145.84122,235.249765 125.881411,238.096027 L124.157654,236.67665 Z" id="Path-296" fill="#FFFFFF" opacity="0.531929348"></path>
            <polygon id="Line-85" fill="#EFC0AF" points="173.16995 78.5 180.16995 75.5 173.737846 80.8538983"></polygon>
            <polygon id="Line-86" fill="#EDAD95" points="97.4660102 151.31188 100.474803 160.69963 99.761531 162.287581"></polygon>
            <path d="M119.480941,128.539819 L117.27621,141.00998 C112.124083,141.108654 108.327323,141.108654 105.885932,141.00998 C103.44454,140.911305 101.18814,140.666654 99.1167325,140.276025 L94.0951386,126.680705 C99.7143022,127.711926 103.945269,128.33163 106.78804,128.539819 C109.63081,128.748007 113.861777,128.748007 119.480941,128.539819 Z" id="Line-70" fill="#FFFFFF"></path>
            <path d="M99.3975157,134.054531 C108.158242,124.702804 105.210201,137.91047 105.154724,137.891223 C102.308652,136.90381 108.685303,131.383972 110.988122,131.962687 C111.663666,132.132457 111.681587,133.170922 112.02832,133.77504" id="Path-298" stroke="#979797" stroke-width="0.5"></path>
            <g id="Group-137" transform="translate(163.669950, 0.000000)">
                <path d="M0,75 C0,58.3810652 42.6866536,43.597995 48.4792698,59.6328259 C51.3327241,67.5316156 46.4733378,72.8616121 37.7182232,70.9336956 C24.1422215,67.9441974 34.1637475,42.8493416 38.9278252,37.5729491 C41.8186534,34.3712497 45.4215929,31.8415873 49.0782666,29.5664634 C54.0601866,26.4667923 59.3535668,23.8689123 64.7264769,21.52144 C67.0632747,20.5004722 69.5782702,19.8538564 72.1024953,19.5069727 C74.1855271,19.2207186 76.4158586,18.9660439 78.4082133,19.6412705 C79.4811981,20.0049145 80.089228,21.2790242 80.4826459,22.3470796 C84.8757663,34.2735742 63.5266555,32.4759868 78.3594577,20.110729 C81.0338546,17.8812374 83.8636015,15.7739246 86.9636517,14.1981214 C89.3787822,12.9704735 92.0665297,12.3189682 94.7215885,11.7936065 C97.3835868,11.2668718 100.116615,11.1595212 102.827779,11.0590559 C104.601315,10.9933354 106.416213,10.9002588 108.146778,11.2961207 C108.616877,11.4036546 108.715593,12.07933 109,12.4709347" id="Path-21" stroke="#2D7FF9" stroke-width="2"></path>
                <path d="M55.305855,69.5276832 C54.2039033,76.0141644 53.1019517,82.5006456 52,88.9871268 L70.0120482,92 L75,67 L55.305855,69.5276832 Z" id="Path-16" fill="#5C7ADC"></path>
                <path d="M55.3036437,70 C54.2024291,76.6387934 53.1012146,83.2775867 52,89.9163801 L70,93 C63.6176592,90.5600818 59.7139179,88.2249392 58.2887759,85.9945723 C56.8636339,83.7642055 55.8685898,78.4326814 55.3036437,70 Z" id="Path-16" fill="#4766CA"></path>
                <path d="M19.1337961,20.1263911 C17.7558641,27.7509274 16.377932,35.3754637 15,43 L32.053219,43 L37,18 L19.1337961,20.1263911 Z" id="Path-18" fill="#88DA0C"></path>
                <path d="M19.1208955,21 C17.7472637,28.6666667 16.3736318,36.3333333 15,44 L32,44 C26.1401276,43.4005633 22.5532302,41.9276183 21.2393077,39.581165 C19.691207,36.8165072 18.9850696,30.6227855 19.1208955,21 Z" id="Path-18" fill="#7DC90A"></path>
                <path d="M89.7643936,22.6573927 C87.5095958,35.7715951 85.2547979,48.8857976 83,62 L110.905267,62 L119,19 L89.7643936,22.6573927 Z" id="Path-18" fill="#55ADEE"></path>
                <path d="M89.7873573,23 C87.5249049,36 85.2624524,49 83,62 L111,62 C101.575335,58.9692891 95.7772549,55.457757 93.6057584,51.4654037 C91.0633344,46.7910903 89.790534,37.3026224 89.7873573,23 Z" id="Path-18" fill="#48A1E2"></path>
                <path d="M113.797693,17.1417637 C111.926113,23.4035198 113.347916,25.9230632 118.063102,24.7003937 C120.815246,23.9867503 122.148651,18.1124054 119.759673,15.3375624 C119.077896,14.5456664 117.09057,15.1470668 113.797693,17.1417637 Z" id="Path-24" stroke="#FFFFFF" fill="#2D7FF9"></path>
                <path d="M118.5,17 C118.333333,18.6666667 118.166667,20.3333333 118,22" id="Path-25" stroke="#FFFFFF"></path>
                <path d="M14,46 L26,46.0091285 L14,46 Z" id="Path-26" stroke="#333333" stroke-width="2" stroke-linecap="round"></path>
                <path d="M14,49 L18,49.3667951 L14,49 Z" id="Path-27" stroke="#333333" stroke-width="2" stroke-linecap="round"></path>
                <path d="M83,69 L95,69.0091285 L83,69 Z" id="Path-26" stroke="#333333" stroke-width="2" stroke-linecap="round"></path>
                <path d="M82,72 L86,72.3667951 L82,72 Z" id="Path-27" stroke="#333333" stroke-width="2" stroke-linecap="round"></path>
                <path d="M51,92 L62,94 L51,92 Z" id="Path-26" stroke="#333333" stroke-width="2" stroke-linecap="round"></path>
                <path d="M37,8.73544065 C39.8940228,14.9766186 37.4284852,11.8344425 48,3" id="Path-30" stroke="#5C7DCA" stroke-width="2"></path>
                <path d="M121,13 C124.933701,2.29268171 124.079991,6.72297007 125,0" id="Path-37" stroke="#2D7FF9" stroke-linecap="round"></path>
                <path d="M124,14 C126.666667,10.6666667 129.333333,7.33333333 132,4" id="Path-38" stroke="#2D7FF9" stroke-linecap="round"></path>
                <path d="M125,18 C128.666667,17.6666667 132.333333,17.3333333 136,17" id="Path-39" stroke="#2D7FF9" stroke-linecap="round"></path>
                <path d="M121,26 C118.087403,48.4415426 120.080129,35.7403404 114.380556,64 L101,64" id="Path-40" stroke="#55ADEE"></path>
                <path d="M24.7068755,28.005796 C24.7903948,28.3922821 24.8739142,28.7787682 24.9574335,29.1652543 C25.0131131,29.4229117 24.6847178,29.5814435 23.9722474,29.6408497 L24.4648405,32.5175634 C25.0387722,32.3828582 25.4273083,32.3828582 25.6304489,32.5175634 C25.9351599,32.7196212 26.1596954,33.1853106 25.8552625,33.6380826 C25.5508296,34.0908545 24.1017423,34.3062309 23.589633,33.1304495 C23.2482267,32.3465952 23.0516824,31.293861 23,29.9722469 C23.0863826,29.3290441 23.2829269,28.8307683 23.589633,28.4774196 C23.896339,28.1240708 24.2687532,27.966863 24.7068755,28.005796 Z" id="Path-283" fill="#FFFFFF" transform="translate(24.500000, 31.000000) rotate(-19.000000) translate(-24.500000, -31.000000) "></path>
                <path d="M24.5,39.3977645 C26.9852814,39.3977645 29,35.9508575 29,31.6988823 C29,27.446907 26.9852814,24 24.5,24 C22.0147186,24 20,27.446907 20,31.6988823 C20,33.6592972 20.4282811,35.4485738 21.1335002,36.8077846 C21.3763776,37.2758967 20.8483759,39.606849 21.1507669,39.9623627 C21.4101267,40.2672856 22.4928298,38.6130509 22.7875216,38.8206868 C23.3153951,39.1926193 23.8936946,39.3977645 24.5,39.3977645 Z" id="Oval-43" stroke="#FFFFFF" transform="translate(24.500000, 32.000000) rotate(14.000000) translate(-24.500000, -32.000000) "></path>
                <path d="M70,74.1616169 L69.3575893,77.1705346 C66.887496,77.1490345 65.2682995,78.0963769 64.5,80.0125617 C63.7317005,81.9287465 62.9203905,85.5912259 62.0660702,91 L59,90.4700854 C59.7313733,84.1946278 60.9069394,79.7614442 62.5266981,77.1705346 C64.1464568,74.5796251 66.6375574,73.5766525 70,74.1616169 Z" id="Line-73" fill="#FFFFFF"></path>
                <polygon id="Line-74" fill="#FFFFFF" points="67 80 65.6693141 83 58 82.4712771 58.9218079 80"></polygon>
                <path d="M102.210652,36.647174 C103.487803,31.5767612 105.932625,31.8777567 106.86838,37.0228721 L108.696476,36.647174 L106.86838,37.8132027 L109,37.8132027 L106.86838,38.8798768 C106.104204,43.013851 104.791597,45.7295407 102.930561,47.026946 C101.069524,48.3243513 98.0926703,48.3243513 94,47.026946 L97.6483975,45.0486062 C96.9589523,44.9560167 96.4504791,44.7879892 96.1229776,44.5445237 C95.7954762,44.3010582 95.5255267,43.8904041 95.3131293,43.3125613 L96.7462943,43.0136496 C96.1760748,42.8317865 95.6983531,42.4464081 95.3131293,41.8575145 C94.9279055,41.2686208 94.6901533,40.5602506 94.5998728,39.7324039 L96.7462943,40.2087777 L94.5998728,34.9196216 C96.5074545,36.7093186 97.8340622,37.6738457 98.5796961,37.8132027 C99.2848469,37.9449936 100.495166,37.5563173 102.210652,36.647174 Z" id="Path-284" fill="#FFFFFF"></path>
            </g>
            <g id="Group-130" transform="translate(2.000000, 60.000000)">
                <path d="M15.9482402,5.34275093 C15.6169756,7.20248761 14.6818572,9.6450902 13.1428571,12.670632 C12.7218751,13.5311072 12.3457573,14.2874812 12.0144928,14.939777 C11.6832282,15.5920727 11.365771,16.1385356 11.0621118,16.5791822 C10.7584526,17.0198287 10.4530726,17.3511761 10.1459627,17.5732342 C9.83885285,17.7952923 9.49896667,17.9063197 9.126294,17.9063197 C8.8709442,17.9063197 8.65355507,17.8438668 8.47412008,17.7189591 C8.29468509,17.5940514 8.13940714,17.3529138 8.00828157,16.995539 C7.877156,16.6381643 7.76673613,16.1368062 7.67701863,15.4914498 C7.58730114,14.8460934 7.50793685,13.9995096 7.4389234,12.9516729 L5.13043478,16.3553903 C4.92339441,16.6607202 4.72843432,16.9192059 4.54554865,17.130855 C4.36266299,17.3425042 4.18323069,17.5125148 4.00724638,17.6408922 C3.83126206,17.7692695 3.65010445,17.8612141 3.46376812,17.9167286 C3.27743178,17.9722432 3.08074638,18 2.873706,18 C2.57694814,18 2.33022873,17.9132599 2.13354037,17.739777 C1.93685202,17.5662941 1.83850932,17.3130128 1.83850932,16.9799257 C1.83850932,16.4872342 1.84023463,15.9442409 1.8436853,15.3509294 C1.84713597,14.7576179 1.86266377,14.0949231 1.89026915,13.3628253 C1.91787453,12.6307274 1.9610073,11.8223093 2.01966874,10.9375465 C2.07833018,10.0527837 2.16287039,9.06915039 2.27329193,7.9866171 C2.03174482,8.27112906 1.82815818,8.47583581 1.66252588,8.60074349 C1.49689358,8.72565118 1.36231936,8.78810409 1.25879917,8.78810409 C1.16908168,8.78810409 1.10351988,8.74993842 1.0621118,8.67360595 C1.02070373,8.59727347 1,8.49318529 1,8.36133829 C1,8.13234086 1.05866056,7.84089396 1.17598344,7.48698885 C1.29330631,7.13308373 1.46238675,6.75489668 1.68322981,6.35241636 C1.90407288,5.94993603 2.17839726,5.54919654 2.50621118,5.15018587 C2.8340251,4.7511752 3.21186812,4.39554059 3.63975155,4.08327138 C3.7225677,4.02775685 3.81573447,4 3.91925466,4 C4.04347888,4 4.16252531,4.04510488 4.27639752,4.13531599 C4.39026972,4.22552709 4.49033773,4.3434937 4.57660455,4.48921933 C4.66287138,4.63494497 4.7318838,4.79801645 4.78364389,4.97843866 C4.83540399,5.15886088 4.86128364,5.33581078 4.86128364,5.50929368 C4.86128364,5.67583726 4.85093178,5.8146215 4.83022774,5.92565056 C4.79572101,6.07831551 4.76294011,6.21363014 4.73188406,6.33159851 C4.700828,6.44956688 4.6680471,6.59182073 4.63354037,6.75836431 C4.59903364,6.9249079 4.56107681,7.14175827 4.51966874,7.40892193 C4.47826066,7.6760856 4.42995197,8.03518981 4.3747412,8.48624535 C4.30572774,9.05526926 4.25224312,9.62775425 4.21428571,10.2037175 C4.17632831,10.7796807 4.14354741,11.3608397 4.11594203,11.9472119 C4.08833665,12.5335841 4.06245699,13.1251519 4.03830228,13.7219331 C4.01414757,14.3187143 3.98826791,14.9224257 3.96066253,15.5330855 C4.11249213,15.345724 4.28847381,15.1045864 4.48861284,14.8096654 C4.68875186,14.5147445 4.89578913,14.20248 5.10973085,13.8728625 C5.32367257,13.5432449 5.53416046,13.2118976 5.74120083,12.8788104 C5.9482412,12.5457232 6.13457474,12.2438675 6.30020704,11.9732342 C6.47274068,11.7095402 6.60731491,11.4944246 6.70393375,11.327881 L6.84886128,11.067658 C7.10421108,10.4153623 7.36300766,9.77348519 7.6252588,9.14200743 C7.88750994,8.51052968 8.14630652,7.882531 8.40165631,7.25799257 C8.65010476,6.64733276 8.91235197,6.17546635 9.1884058,5.84237918 C9.46445963,5.50929201 9.76466366,5.34275093 10.0890269,5.34275093 C10.3512781,5.34275093 10.5617659,5.38959061 10.7204969,5.48327138 C10.8792278,5.57695214 10.9585921,5.69665355 10.9585921,5.84237918 C10.9585921,6.08525524 10.8982063,6.37149773 10.7774327,6.70111524 C10.6566592,7.03073275 10.516909,7.38289775 10.3581781,7.75762082 C10.1994471,8.13234388 10.0424438,8.51747014 9.88716356,8.91301115 C9.73188328,9.30855216 9.61628747,9.68673921 9.54037267,10.0475836 C9.50586594,10.6513041 9.47826097,11.1648058 9.45755694,11.5881041 C9.4368529,12.0114024 9.42650104,12.3999982 9.42650104,12.7539033 C9.42650104,13.1910803 9.42995166,13.6490682 9.436853,14.127881 C9.44375435,14.6066938 9.47480994,15.0646818 9.5300207,15.5018587 C9.80607453,15.0993784 10.0942014,14.6639429 10.3944099,14.195539 C10.6946185,13.7271352 10.9930972,13.2431252 11.2898551,12.7434944 C11.5866129,12.2438637 11.8730145,11.7320968 12.1490683,11.2081784 C12.4251222,10.6842601 12.6804681,10.1620844 12.9151139,9.64163569 C13.1497596,9.12118699 13.3533463,8.60942011 13.5258799,8.1063197 C13.6984136,7.60321929 13.8295372,7.12267887 13.9192547,6.66468401 L14.0538302,5.88401487 C14.0538302,5.85625761 14.0572808,5.82850076 14.0641822,5.80074349 C14.0710835,5.77298623 14.0745342,5.74522938 14.0745342,5.71747212 C14.1159422,5.50929264 14.1608003,5.32193392 14.2091097,5.15539033 C14.2574192,4.98884675 14.3212556,4.84832771 14.4006211,4.733829 C14.4799866,4.61933028 14.5800546,4.53085533 14.7008282,4.46840149 C14.8216017,4.40594764 14.9717037,4.37472119 15.1511387,4.37472119 C15.4478966,4.37472119 15.6635604,4.40594764 15.7981366,4.46840149 C15.9327129,4.53085533 16,4.66963957 16,4.88475836 C16,4.95415152 15.9948241,5.02354364 15.984472,5.0929368 C15.97412,5.16232996 15.9620429,5.24560051 15.9482402,5.34275093 Z" id="W" fill="#2D7FF9" transform="translate(8.500000, 11.000000) rotate(-3.000000) translate(-8.500000, -11.000000) "></path>
                <path d="M18.5704348,9.92553191 C18.2434766,9.92553191 17.9269581,10.0106374 17.6208696,10.1808511 C17.3147811,10.3510647 17.0434794,10.5744667 16.8069565,10.8510638 C16.5704336,11.127661 16.3826094,11.4379415 16.2434783,11.7819149 C16.1043471,12.1258882 16.0347826,12.4716295 16.0347826,12.8191489 C16.0347826,12.9609936 16.0434782,13.1081553 16.0608696,13.2606383 C16.078261,13.4131213 16.1182606,13.5531909 16.1808696,13.6808511 C16.2434786,13.8085113 16.3321733,13.9148932 16.4469565,14 C16.5617397,14.0851068 16.7165208,14.1276596 16.9113043,14.1276596 C17.0643486,14.1276596 17.2434772,14.0585113 17.4486957,13.9202128 C17.6539141,13.7819142 17.8660859,13.604611 18.0852174,13.3882979 C18.3043489,13.1719847 18.5182598,12.9343985 18.7269565,12.6755319 C18.9356532,12.4166654 19.1234774,12.1631218 19.2904348,11.9148936 C19.4573921,11.6666654 19.593043,11.4432634 19.6973913,11.2446809 C19.8017397,11.0460983 19.853913,10.9007097 19.853913,10.8085106 C19.853913,10.6737582 19.8086961,10.551419 19.7182609,10.4414894 C19.6278256,10.3315597 19.5165224,10.237589 19.3843478,10.1595745 C19.2521733,10.0815599 19.1113051,10.0230498 18.9617391,9.98404255 C18.8121732,9.94503527 18.6817397,9.92553191 18.5704348,9.92553191 Z M25.8017391,12.6702128 C25.6765211,12.7907807 25.5095663,12.9574457 25.3008696,13.1702128 C25.0921729,13.3829798 24.8539144,13.6134739 24.586087,13.8617021 C24.3182595,14.1099303 24.033045,14.3599278 23.7304348,14.6117021 C23.4278246,14.8634764 23.1182625,15.0921976 22.8017391,15.2978723 C22.4852158,15.5035471 22.1739146,15.6719852 21.8678261,15.8031915 C21.5617376,15.9343978 21.2730448,16 21.0017391,16 C20.7582597,16 20.5495661,15.946809 20.3756522,15.8404255 C20.2017383,15.734042 20.0573919,15.5957455 19.9426087,15.4255319 C19.8278255,15.2553183 19.742609,15.0620578 19.6869565,14.8457447 C19.6313041,14.6294315 19.6034783,14.4078026 19.6034783,14.1808511 C19.6034783,14.0319141 19.6139129,13.8847525 19.6347826,13.7393617 C19.6556523,13.5939709 19.6904345,13.4574474 19.7391304,13.3297872 C19.5234772,13.6276611 19.2782622,13.9343956 19.0034783,14.25 C18.7286943,14.5656044 18.4330451,14.8528356 18.1165217,15.1117021 C17.7999984,15.3705687 17.4695669,15.5833325 17.1252174,15.75 C16.7808678,15.9166675 16.4313061,16 16.0765217,16 C15.8956513,16 15.6852186,15.9627663 15.4452174,15.8882979 C15.2052162,15.8138294 14.9773924,15.6914902 14.7617391,15.5212766 C14.5460859,15.351063 14.3652181,15.131207 14.2191304,14.8617021 C14.0730427,14.5921972 14,14.2624133 14,13.8723404 C14,13.5815588 14.0434778,13.2340446 14.1304348,12.8297872 C14.2173917,12.4255299 14.3495643,12.0053213 14.5269565,11.5691489 C14.7043487,11.1329765 14.9304334,10.7021298 15.2052174,10.2765957 C15.4800014,9.8510617 15.8052155,9.46985984 16.1808696,9.13297872 C16.5565236,8.79609761 16.9843454,8.52305069 17.4643478,8.31382979 C17.9443502,8.10460888 18.479997,8 19.0713043,8 C19.3773928,8 19.6452162,8.0390067 19.8747826,8.11702128 C20.104349,8.19503585 20.2991296,8.28014138 20.4591304,8.37234043 C20.6400009,8.48581617 20.7999993,8.6099284 20.9391304,8.74468085 C21.0573919,8.68085074 21.1791298,8.62056766 21.3043478,8.56382979 C21.4086962,8.51418415 21.5182603,8.46985835 21.6330435,8.43085106 C21.7478267,8.39184378 21.8469561,8.37234043 21.9304348,8.37234043 C22.1947839,8.37234043 22.4104339,8.44680777 22.5773913,8.59574468 C22.7443487,8.7446816 22.8278261,8.90780053 22.8278261,9.08510638 C22.8278261,9.13475202 22.8243479,9.17375872 22.8173913,9.20212766 C22.7826085,9.33688011 22.728696,9.50709117 22.6556522,9.71276596 C22.5826083,9.91844074 22.50087,10.1471619 22.4104348,10.3989362 C22.3199995,10.6507105 22.2278266,10.9131192 22.133913,11.1861702 C22.0399995,11.4592212 21.954783,11.726949 21.8782609,11.9893617 C21.8017387,12.2517744 21.7391307,12.4982258 21.6904348,12.7287234 C21.6417389,12.959221 21.6173913,13.1560276 21.6173913,13.3191489 C21.6173913,13.531916 21.6521736,13.7074461 21.7217391,13.8457447 C21.7913047,13.9840432 21.9095644,14.0531915 22.0765217,14.0531915 C22.1808701,14.0531915 22.3043471,14.0195039 22.4469565,13.9521277 C22.5895659,13.8847514 22.744347,13.7943268 22.9113043,13.6808511 C23.0782617,13.5673753 23.2504339,13.437944 23.4278261,13.2925532 C23.6052183,13.1471624 23.7773905,13.0000007 23.9443478,12.8510638 C24.333915,12.4964521 24.7478239,12.0922009 25.186087,11.6382979 C25.2973919,11.5460988 25.4052169,11.5 25.5095652,11.5 C25.6486963,11.5 25.7652169,11.5691482 25.8591304,11.7074468 C25.9530439,11.8457454 26,11.9999991 26,12.1702128 C26,12.3687953 25.9339137,12.5354603 25.8017391,12.6702128 Z" id="a" fill="#2D7FF9" transform="translate(20.000000, 12.000000) rotate(-3.000000) translate(-20.000000, -12.000000) "></path>
                <path d="M30.7118644,12.6320475 C30.7050847,12.6458952 30.7016949,12.6632046 30.7016949,12.6839763 C30.7016949,12.7047479 30.6983051,12.7220573 30.6915254,12.735905 C30.6915254,12.8605347 30.7220336,12.9903554 30.7830508,13.1253709 C30.8440681,13.2603864 30.9423722,13.3278932 31.0779661,13.3278932 C31.1322037,13.3278932 31.1728812,13.3209694 31.2,13.3071217 C31.5864426,13.1894158 31.9779641,13.0024741 32.3745763,12.7462908 C32.7711884,12.4901075 33.1525405,12.2096949 33.5186441,11.9050445 C33.8847476,11.6003941 34.2220324,11.2888245 34.5305085,10.9703264 C34.8389846,10.6518283 35.0949142,10.3679538 35.2983051,10.1186944 C35.3932208,10.0009885 35.4983045,9.9421365 35.6135593,9.9421365 C35.7152547,9.9421365 35.8050844,9.99060288 35.8830508,10.0875371 C35.9610173,10.1844713 36,10.3160229 36,10.4821958 C36,10.6137494 35.9644071,10.7695342 35.8932203,10.9495549 C35.8220335,11.1295756 35.7050856,11.3234411 35.5423729,11.5311573 C35.1423709,11.981209 34.7322055,12.4139445 34.3118644,12.8293769 C33.8915233,13.2448092 33.4677987,13.6134999 33.040678,13.9354599 C32.6135572,14.25742 32.1881377,14.5153304 31.7644068,14.7091988 C31.3406758,14.9030672 30.9254258,15 30.5186441,15 C30.0237263,15 29.6338997,14.8563318 29.3491525,14.5689911 C29.0644054,14.2816504 28.9220339,13.8506458 28.9220339,13.2759644 L28.9220339,13.1669139 C28.9220339,13.1288326 28.9254237,13.0924829 28.9322034,13.0578635 C28.7762704,13.3486661 28.5762724,13.6135003 28.3322034,13.8523739 C28.0881344,14.0912475 27.8203404,14.2954987 27.5288136,14.4651335 C27.2372867,14.6347684 26.9355948,14.76632 26.6237288,14.8597923 C26.3118628,14.9532646 26.0101709,15 25.7186441,15 C25.4677954,15 25.2372892,14.9653812 25.0271186,14.8961424 C24.8169481,14.8269037 24.635594,14.7161234 24.4830508,14.5637982 C24.3305077,14.411473 24.2118648,14.2176075 24.1271186,13.9821958 C24.0423725,13.7467842 24,13.4629097 24,13.1305638 C24,12.5489585 24.0881347,11.996788 24.2644068,11.4740356 C24.4406788,10.9512832 24.6745748,10.4700813 24.9661017,10.0304154 C25.2576286,9.59074953 25.5915235,9.19609473 25.9677966,8.84643917 C26.3440697,8.49678361 26.7338963,8.19906157 27.1372881,7.95326409 C27.54068,7.70746662 27.9423709,7.51879393 28.3423729,7.38724036 C28.7423749,7.25568678 29.1084729,7.18991098 29.440678,7.18991098 C29.8271206,7.18991098 30.1593206,7.25568678 30.4372881,7.38724036 C30.572882,7.45647908 30.6983045,7.54994996 30.8135593,7.66765579 C30.8406781,7.60534093 30.8677965,7.5464889 30.8949153,7.49109792 C30.9627122,7.32492499 31.0237285,7.18125679 31.0779661,7.06008902 C31.1322037,6.93892125 31.1694914,6.8506432 31.1898305,6.79525223 C31.2101696,6.73293737 31.2677961,6.58753823 31.3627119,6.35905045 C31.4576276,6.13056266 31.567796,5.86226662 31.6932203,5.5541543 C31.8186447,5.24604198 31.9542366,4.91543203 32.1,4.56231454 C32.2457634,4.20919705 32.3796604,3.87685616 32.5016949,3.5652819 L32.8169492,2.76038576 C32.9050852,2.5353599 32.9593219,2.39169171 32.979661,2.32937685 C33.0271189,2.15628004 33.091525,1.98837866 33.1728814,1.82566766 C33.2542377,1.66295665 33.3508469,1.5210194 33.4627119,1.39985163 C33.5745768,1.27868386 33.705084,1.18175111 33.8542373,1.10905045 C34.0033906,1.03634978 34.1728804,1 34.3627119,1 C34.6203403,1 34.8338975,1.05712109 35.0033898,1.17136499 C35.1728822,1.28560888 35.2576271,1.50543853 35.2576271,1.83086053 C35.2576271,1.96241411 35.2406781,2.0974276 35.2067797,2.23590504 C35.1728812,2.37438249 35.1338985,2.50939598 35.0898305,2.64094955 C35.0457625,2.77250313 34.9983053,2.90232379 34.9474576,3.03041543 C34.8966099,3.15850707 34.8508477,3.27794208 34.8101695,3.38872404 C34.4711847,4.08111128 34.1152561,4.83407111 33.7423729,5.64762611 C33.3694897,6.46118112 33.0000018,7.27991675 32.6338983,8.10385757 C32.2677948,8.92779838 31.9186457,9.73095553 31.5864407,10.5133531 C31.2542356,11.2957507 30.9627131,12.0019751 30.7118644,12.6320475 Z M30.4067797,8.57121662 C29.999998,8.58506436 29.5728836,8.67507335 29.1254237,8.84124629 C28.6101669,9.02126697 28.1389852,9.289563 27.7118644,9.64614243 C27.2847436,10.0027219 26.9237303,10.4406502 26.6288136,10.9599407 C26.3338968,11.4792311 26.1661019,12.0746752 26.1254237,12.7462908 C26.1254237,13.0232457 26.2406768,13.1617211 26.4711864,13.1617211 C26.7559336,13.1617211 27.0271174,13.1011381 27.2847458,12.9799703 C27.5423742,12.8588026 27.7881344,12.696094 28.0220339,12.4918398 C28.2559334,12.2875855 28.4745753,12.0539083 28.6779661,11.7908012 C28.8813569,11.527694 29.0694907,11.2542052 29.2423729,10.9703264 C29.4152551,10.6864476 29.5711857,10.4043041 29.7101695,10.1238872 C29.8491532,9.84347041 29.969491,9.58209815 30.0711864,9.33976261 C30.1050849,9.26360001 30.1525421,9.1562816 30.2135593,9.01780415 C30.2677969,8.88625058 30.332203,8.73738955 30.4067797,8.57121662 Z" id="d" fill="#2D7FF9" transform="translate(30.000000, 8.000000) rotate(-3.000000) translate(-30.000000, -8.000000) "></path>
                <path d="M40.7118644,12.6320475 C40.7050847,12.6458952 40.7016949,12.6632046 40.7016949,12.6839763 C40.7016949,12.7047479 40.6983051,12.7220573 40.6915254,12.735905 C40.6915254,12.8605347 40.7220336,12.9903554 40.7830508,13.1253709 C40.8440681,13.2603864 40.9423722,13.3278932 41.0779661,13.3278932 C41.1322037,13.3278932 41.1728812,13.3209694 41.2,13.3071217 C41.5864426,13.1894158 41.9779641,13.0024741 42.3745763,12.7462908 C42.7711884,12.4901075 43.1525405,12.2096949 43.5186441,11.9050445 C43.8847476,11.6003941 44.2220324,11.2888245 44.5305085,10.9703264 C44.8389846,10.6518283 45.0949142,10.3679538 45.2983051,10.1186944 C45.3932208,10.0009885 45.4983045,9.9421365 45.6135593,9.9421365 C45.7152547,9.9421365 45.8050844,9.99060288 45.8830508,10.0875371 C45.9610173,10.1844713 46,10.3160229 46,10.4821958 C46,10.6137494 45.9644071,10.7695342 45.8932203,10.9495549 C45.8220335,11.1295756 45.7050856,11.3234411 45.5423729,11.5311573 C45.1423709,11.981209 44.7322055,12.4139445 44.3118644,12.8293769 C43.8915233,13.2448092 43.4677987,13.6134999 43.040678,13.9354599 C42.6135572,14.25742 42.1881377,14.5153304 41.7644068,14.7091988 C41.3406758,14.9030672 40.9254258,15 40.5186441,15 C40.0237263,15 39.6338997,14.8563318 39.3491525,14.5689911 C39.0644054,14.2816504 38.9220339,13.8506458 38.9220339,13.2759644 L38.9220339,13.1669139 C38.9220339,13.1288326 38.9254237,13.0924829 38.9322034,13.0578635 C38.7762704,13.3486661 38.5762724,13.6135003 38.3322034,13.8523739 C38.0881344,14.0912475 37.8203404,14.2954987 37.5288136,14.4651335 C37.2372867,14.6347684 36.9355948,14.76632 36.6237288,14.8597923 C36.3118628,14.9532646 36.0101709,15 35.7186441,15 C35.4677954,15 35.2372892,14.9653812 35.0271186,14.8961424 C34.8169481,14.8269037 34.635594,14.7161234 34.4830508,14.5637982 C34.3305077,14.411473 34.2118648,14.2176075 34.1271186,13.9821958 C34.0423725,13.7467842 34,13.4629097 34,13.1305638 C34,12.5489585 34.0881347,11.996788 34.2644068,11.4740356 C34.4406788,10.9512832 34.6745748,10.4700813 34.9661017,10.0304154 C35.2576286,9.59074953 35.5915235,9.19609473 35.9677966,8.84643917 C36.3440697,8.49678361 36.7338963,8.19906157 37.1372881,7.95326409 C37.54068,7.70746662 37.9423709,7.51879393 38.3423729,7.38724036 C38.7423749,7.25568678 39.1084729,7.18991098 39.440678,7.18991098 C39.8271206,7.18991098 40.1593206,7.25568678 40.4372881,7.38724036 C40.572882,7.45647908 40.6983045,7.54994996 40.8135593,7.66765579 C40.8406781,7.60534093 40.8677965,7.5464889 40.8949153,7.49109792 C40.9627122,7.32492499 41.0237285,7.18125679 41.0779661,7.06008902 C41.1322037,6.93892125 41.1694914,6.8506432 41.1898305,6.79525223 C41.2101696,6.73293737 41.2677961,6.58753823 41.3627119,6.35905045 C41.4576276,6.13056266 41.567796,5.86226662 41.6932203,5.5541543 C41.8186447,5.24604198 41.9542366,4.91543203 42.1,4.56231454 C42.2457634,4.20919705 42.3796604,3.87685616 42.5016949,3.5652819 L42.8169492,2.76038576 C42.9050852,2.5353599 42.9593219,2.39169171 42.979661,2.32937685 C43.0271189,2.15628004 43.091525,1.98837866 43.1728814,1.82566766 C43.2542377,1.66295665 43.3508469,1.5210194 43.4627119,1.39985163 C43.5745768,1.27868386 43.705084,1.18175111 43.8542373,1.10905045 C44.0033906,1.03634978 44.1728804,1 44.3627119,1 C44.6203403,1 44.8338975,1.05712109 45.0033898,1.17136499 C45.1728822,1.28560888 45.2576271,1.50543853 45.2576271,1.83086053 C45.2576271,1.96241411 45.2406781,2.0974276 45.2067797,2.23590504 C45.1728812,2.37438249 45.1338985,2.50939598 45.0898305,2.64094955 C45.0457625,2.77250313 44.9983053,2.90232379 44.9474576,3.03041543 C44.8966099,3.15850707 44.8508477,3.27794208 44.8101695,3.38872404 C44.4711847,4.08111128 44.1152561,4.83407111 43.7423729,5.64762611 C43.3694897,6.46118112 43.0000018,7.27991675 42.6338983,8.10385757 C42.2677948,8.92779838 41.9186457,9.73095553 41.5864407,10.5133531 C41.2542356,11.2957507 40.9627131,12.0019751 40.7118644,12.6320475 Z M40.4067797,8.57121662 C39.999998,8.58506436 39.5728836,8.67507335 39.1254237,8.84124629 C38.6101669,9.02126697 38.1389852,9.289563 37.7118644,9.64614243 C37.2847436,10.0027219 36.9237303,10.4406502 36.6288136,10.9599407 C36.3338968,11.4792311 36.1661019,12.0746752 36.1254237,12.7462908 C36.1254237,13.0232457 36.2406768,13.1617211 36.4711864,13.1617211 C36.7559336,13.1617211 37.0271174,13.1011381 37.2847458,12.9799703 C37.5423742,12.8588026 37.7881344,12.696094 38.0220339,12.4918398 C38.2559334,12.2875855 38.4745753,12.0539083 38.6779661,11.7908012 C38.8813569,11.527694 39.0694907,11.2542052 39.2423729,10.9703264 C39.4152551,10.6864476 39.5711857,10.4043041 39.7101695,10.1238872 C39.8491532,9.84347041 39.969491,9.58209815 40.0711864,9.33976261 C40.1050849,9.26360001 40.1525421,9.1562816 40.2135593,9.01780415 C40.2677969,8.88625058 40.332203,8.73738955 40.4067797,8.57121662 Z" id="d" fill="#2D7FF9" transform="translate(40.000000, 8.000000) rotate(-3.000000) translate(-40.000000, -8.000000) "></path>
                <path d="M47.4804469,11.7388724 C47.3985098,11.8981215 47.3184361,12.0833323 47.2402235,12.2945104 C47.1620108,12.5056885 47.122905,12.6943612 47.122905,12.8605341 C47.122905,12.9643922 47.1452512,13.0474774 47.1899441,13.1097923 C47.2346371,13.1721071 47.3202973,13.2032641 47.4469274,13.2032641 C47.6033527,13.2032641 47.7988815,13.1599905 48.0335196,13.0734421 C48.2681576,12.9868937 48.5214139,12.8726516 48.7932961,12.7307122 C49.0651783,12.5887728 49.3482294,12.4260642 49.6424581,12.2425816 C49.9366868,12.059099 50.2290488,11.8686953 50.5195531,11.671365 C50.8100573,11.4740346 51.087522,11.2767072 51.3519553,11.0793769 C51.6163887,10.8820465 51.8528854,10.7002976 52.0614525,10.5341246 C52.1210431,10.4856575 52.1918059,10.4510387 52.273743,10.4302671 C52.3556801,10.4094954 52.4264429,10.3991098 52.4860335,10.3991098 C52.6350101,10.3991098 52.7579139,10.4475762 52.8547486,10.5445104 C52.9515834,10.6414446 53,10.7695343 53,10.9287834 C53,11.0741847 52.947859,11.2368933 52.8435754,11.4169139 C52.7392918,11.5969346 52.5567983,11.7734907 52.2960894,11.9465875 C51.8193645,12.355096 51.3389223,12.742827 50.8547486,13.1097923 C50.3705749,13.4767575 49.8882706,13.8004437 49.4078212,14.0808605 C48.9273719,14.3612774 48.4506541,14.5845689 47.9776536,14.7507418 C47.5046531,14.9169148 47.044695,15 46.5977654,15 C46.2923635,15 46.037245,14.9619193 45.8324022,14.8857567 C45.6275595,14.8095941 45.4636878,14.7057376 45.3407821,14.574184 C45.2178765,14.4426304 45.1303541,14.2868456 45.0782123,14.1068249 C45.0260705,13.9268042 45,13.7364006 45,13.5356083 C45,13.1963386 45.0540032,12.8484192 45.1620112,12.4918398 C45.2700192,12.1352603 45.3985095,11.8081123 45.547486,11.5103858 C45.808195,10.9703237 46.0726244,10.4337316 46.3407821,9.90059347 C46.6089399,9.3674553 46.8547475,8.87932961 47.0782123,8.43620178 L50.4636872,1.73738872 C50.597766,1.4673577 50.7783974,1.27695407 51.0055866,1.16617211 C51.2327758,1.05539015 51.4618238,1 51.6927374,1 C51.9236511,1 52.1340773,1.05885203 52.3240223,1.17655786 C52.5139674,1.29426369 52.6089385,1.48466733 52.6089385,1.74777448 C52.6089385,1.87240418 52.5772815,2.00395579 52.5139665,2.14243323 C52.4506515,2.28091068 52.3705778,2.42977171 52.273743,2.58902077 C52.0875223,2.91444277 51.8659231,3.31255947 51.6089385,3.78338279 C51.351954,4.25420611 51.0763516,4.76656499 50.7821229,5.32047478 C50.4878942,5.87438457 50.1862213,6.4507883 49.877095,7.04970326 C49.5679687,7.64861823 49.2662957,8.23194573 48.972067,8.79970326 C48.6778384,9.3674608 48.4022359,9.90578381 48.1452514,10.4146884 C47.8882669,10.923593 47.6666676,11.3649833 47.4804469,11.7388724 Z" id="l" fill="#2D7FF9" transform="translate(49.000000, 8.000000) rotate(-3.000000) translate(-49.000000, -8.000000) "></path>
                <path d="M1,23.3909369 C9.95732024,21.3726668 20.2553132,18.6642826 29.547829,20.5065335 C32.7637857,21.1441002 35.0548434,26.6475865 30.1552536,26.9993653 C29.7751934,27.0266527 29.6290844,26.1666968 29.8611203,25.8530898 C30.5874166,24.8714676 31.6396096,24.1676133 32.6875041,23.5769142 C34.6927932,22.446531 36.8214438,21.5576179 38.9578389,20.7252616 C40.3109585,20.1980755 41.6983375,19.6972929 43.1320517,19.5076363 C46.068771,19.119157 49.0440172,19.1692121 52,19" id="Path-265" stroke="#2D7FF9" stroke-width="2" stroke-linecap="round"></path>
            </g>
        </g>
    </g>
</svg>