<?xml version="1.0" encoding="UTF-8"?>
<svg width="78px" height="28px" viewBox="0 0 78 28" version="1.1" xmlns="http://www.w3.org/2000/svg" xmlns:xlink="http://www.w3.org/1999/xlink">
    <!-- Generator: Sketch 50 (54983) - http://www.bohemiancoding.com/sketch -->
    <title>Group 143</title>
    <desc>Created with Sketch.</desc>
    <defs></defs>
    <g id="Page-1" stroke="none" stroke-width="1" fill="none" fill-rule="evenodd">
        <g id="Group-143">
            <path d="M11.140625,8.24169922 C10.9801424,8.53434391 10.7701022,8.92138431 10.510498,9.40283203 C10.2508939,9.88427975 9.95353358,10.4223603 9.6184082,11.0170898 C9.28328283,11.6118194 8.91984245,12.25138 8.52807617,12.935791 C8.13630989,13.620202 7.73038947,14.3069627 7.31030273,14.9960938 C6.890216,15.6852248 6.46069555,16.3625455 6.02172852,17.0280762 C5.58276148,17.6936068 5.15560104,18.3095675 4.74023438,18.8759766 C5.75977072,18.7721349 6.74153174,18.5125346 7.68554688,18.097168 C8.62956201,17.6818013 9.51456293,17.1649608 10.3405762,16.5466309 C11.1665894,15.9283009 11.9217902,15.2344602 12.6062012,14.4650879 C13.2906121,13.6957156 13.8758928,12.8980347 14.3620605,12.0720215 C14.8482283,11.2460082 15.2258287,10.4176474 15.494873,9.58691406 C15.7639174,8.75618074 15.8984375,7.97265993 15.8984375,7.23632812 C15.8984375,6.61327813 15.8205574,6.03743754 15.6647949,5.50878906 C15.5090324,4.98014059 15.2730322,4.52230011 14.9567871,4.13525391 C14.640542,3.7482077 14.2369816,3.44612739 13.7460938,3.22900391 C13.2552059,3.01188042 12.6793653,2.90332031 12.0185547,2.90332031 C11.4049448,2.90332031 10.7889842,2.96232037 10.1706543,3.08032227 C9.55232438,3.19832416 8.95996377,3.35644432 8.39355469,3.5546875 C7.82714561,3.75293068 7.30558507,3.98657092 6.82885742,4.25561523 C6.35212978,4.52465955 5.94384936,4.81493985 5.60400391,5.12646484 C5.22639785,5.5418315 4.89363751,5.95719193 4.60571289,6.37255859 C4.31778827,6.78792525 4.03458798,7.16080564 3.75610352,7.49121094 C3.47761905,7.82161624 3.17789874,8.09065651 2.85693359,8.29833984 C2.53596845,8.50602317 2.15836806,8.60986328 1.72412109,8.60986328 C0.912268076,8.60986328 0.506347656,8.25114291 0.506347656,7.53369141 C0.506347656,7.08056414 0.652667808,6.59204364 0.9453125,6.06811523 C1.23795719,5.54418683 1.64623761,5.0249863 2.17016602,4.51049805 C2.69409442,3.9960098 3.31713506,3.50040928 4.03930664,3.02368164 C4.76147822,2.546954 5.55679904,2.12687356 6.42529297,1.76342773 C7.29378689,1.39998191 8.21890785,1.10970161 9.20068359,0.892578125 C10.1824593,0.675454644 11.1925404,0.566894531 12.230957,0.566894531 C13.4392964,0.566894531 14.4918575,0.746254717 15.3886719,1.10498047 C16.2854863,1.46370622 17.028887,1.95694673 17.6188965,2.5847168 C18.2089059,3.21248686 18.6478664,3.95116763 18.935791,4.80078125 C19.2237156,5.65039487 19.3676758,6.56607582 19.3676758,7.54785156 C19.3676758,8.5296273 19.2001156,9.55858837 18.8649902,10.6347656 C18.5298649,11.7109429 18.0389844,12.768224 17.392334,13.8066406 C16.7456836,14.8450573 15.9480028,15.8315383 14.9992676,16.7661133 C14.0505324,17.7006883 12.9602112,18.5219691 11.7282715,19.2299805 C10.4963317,19.9379918 9.13225032,20.4996724 7.63598633,20.9150391 C6.13972234,21.3304057 4.52312066,21.5380859 2.78613281,21.5380859 C2.40852676,21.5380859 2.11116645,21.4177258 1.89404297,21.177002 C1.67691949,20.9362781 1.56835938,20.6412778 1.56835938,20.2919922 C1.56835938,20.0182278 1.61555942,19.7539075 1.70996094,19.4990234 C1.80436245,19.2441394 1.92708258,19.0081391 2.078125,18.7910156 L7.89794922,7.22216797 C8.17171361,6.79736116 8.44311389,6.45752081 8.7121582,6.20263672 C8.98120252,5.94775263 9.23136278,5.74951243 9.46264648,5.60791016 C9.69393019,5.46630789 9.89925041,5.37426779 10.0786133,5.33178711 C10.2579762,5.28930643 10.3948563,5.26806641 10.4892578,5.26806641 C10.9140646,5.26806641 11.2161449,5.39078653 11.3955078,5.63623047 C11.5748707,5.8816744 11.6645508,6.17431471 11.6645508,6.51416016 C11.6645508,6.78792455 11.6173507,7.07584484 11.5229492,7.37792969 C11.4285477,7.68001453 11.3011076,7.96793483 11.140625,8.24169922 Z" id="D" fill="#333333"></path>
            <path d="M23.9101562,12.1977539 C23.4664691,12.1977539 23.0393087,12.308674 22.6286621,12.5305176 C22.2180155,12.7523611 21.8545751,13.0450014 21.5383301,13.4084473 C21.222085,13.7718931 20.9695647,14.1825335 20.7807617,14.6403809 C20.5919587,15.0982282 20.4975586,15.5678687 20.4975586,16.0493164 C20.4975586,16.2286793 20.5117186,16.4245595 20.5400391,16.6369629 C20.5683595,16.8493663 20.6273596,17.0476065 20.717041,17.2316895 C20.8067225,17.4157724 20.9365226,17.5691726 21.1064453,17.6918945 C21.276368,17.8146165 21.5029283,17.8759766 21.7861328,17.8759766 C22.2203798,17.8759766 22.6428202,17.7603364 23.0534668,17.5290527 C23.4641134,17.297769 23.8299138,16.9956887 24.1508789,16.6228027 C24.4718441,16.2499168 24.7267243,15.8274763 24.9155273,15.3554688 C25.1043304,14.8834612 25.1987305,14.4067407 25.1987305,13.925293 C25.1987305,13.7364899 25.1869305,13.5406097 25.1633301,13.3376465 C25.1397297,13.1346832 25.0830896,12.948243 24.9934082,12.7783203 C24.9037268,12.6083976 24.7739266,12.4691574 24.6040039,12.3605957 C24.4340812,12.252034 24.2028009,12.1977539 23.9101562,12.1977539 Z M24.6464844,9.70556641 C25.0052101,9.70556641 25.3898905,9.75276646 25.8005371,9.84716797 C26.2111837,9.94156948 26.5911441,10.1020496 26.9404297,10.3286133 C27.2897153,10.5551769 27.5799956,10.8548972 27.8112793,11.2277832 C28.042563,11.6006692 28.1582031,12.0608697 28.1582031,12.6083984 C28.1582031,12.891603 28.1204431,13.2149233 28.0449219,13.5783691 C27.9694007,13.941815 27.8561205,14.3217754 27.7050781,14.7182617 C27.7994796,14.8315435 27.9080398,14.9117836 28.0307617,14.9589844 C28.1534837,15.0061851 28.2856438,15.0297852 28.4272461,15.0297852 C28.6254893,15.0297852 28.8449695,14.9731451 29.0856934,14.8598633 C29.3264172,14.7465815 29.5742175,14.6002613 29.8291016,14.4208984 C30.0839856,14.2415356 30.3388659,14.0385754 30.59375,13.8120117 C30.8486341,13.5854481 31.0893543,13.3588879 31.315918,13.1323242 C31.5424816,12.9057606 31.7478018,12.6910004 31.9318848,12.4880371 C32.1159677,12.2850739 32.2693679,12.1127937 32.3920898,11.9711914 C32.4581709,11.9051103 32.538411,11.8720703 32.6328125,11.8720703 C32.7649746,11.8720703 32.8829747,11.9405104 32.9868164,12.0773926 C33.0906581,12.2142748 33.1425781,12.405435 33.1425781,12.6508789 C33.1425781,12.8963228 33.069418,13.1795231 32.9230957,13.5004883 C32.7767734,13.8214534 32.5053731,14.1565738 32.1088867,14.5058594 C31.8823231,14.7513033 31.6227228,15.0345036 31.3300781,15.3554688 C31.0374334,15.6764339 30.7259131,15.9785142 30.3955078,16.2617188 C30.0651025,16.5449233 29.7205422,16.7856435 29.3618164,16.9838867 C29.0030907,17.1821299 28.6443703,17.28125 28.2856445,17.28125 C28.0402006,17.28125 27.8018403,17.24349 27.5705566,17.1679688 C27.3392729,17.0924475 27.1056327,16.9697274 26.8696289,16.7998047 C26.5297835,17.3284532 26.1427431,17.8098937 25.7084961,18.2441406 C25.2742491,18.6783876 24.7904486,19.051268 24.2570801,19.362793 C23.7237115,19.674318 23.1478709,19.9173982 22.529541,20.092041 C21.9112111,20.2666838 21.2527704,20.3540039 20.5541992,20.3540039 C20.289875,20.3540039 19.9830747,20.3020839 19.6337891,20.1982422 C19.2845035,20.0944005 18.9517431,19.9221203 18.635498,19.6813965 C18.319253,19.4406726 18.0525727,19.1267923 17.8354492,18.7397461 C17.6183257,18.3526999 17.5097656,17.8806994 17.5097656,17.3237305 C17.5097656,16.9461244 17.5711257,16.4930039 17.6938477,15.9643555 C17.8165696,15.435707 18.0030098,14.8905464 18.2531738,14.3288574 C18.5033378,13.7671684 18.8195782,13.2102078 19.2019043,12.657959 C19.5842304,12.1057101 20.0397109,11.6101096 20.5683594,11.1711426 C21.0970079,10.7321755 21.7011685,10.3781752 22.3808594,10.1091309 C23.0605503,9.84008655 23.8157511,9.70556641 24.6464844,9.70556641 Z" id="o" fill="#333333"></path>
            <path d="M39.1103516,17.1254883 C39.1009114,17.1443686 39.0961914,17.1679686 39.0961914,17.1962891 C39.0961914,17.2246095 39.0914714,17.2482095 39.0820312,17.2670898 C39.0820312,17.4370126 39.1245113,17.6140128 39.2094727,17.7980957 C39.294434,17.9821787 39.4313142,18.0742188 39.6201172,18.0742188 C39.6956384,18.0742188 39.7522785,18.0647787 39.7900391,18.0458984 C40.3281277,17.8854159 40.8732883,17.6305356 41.4255371,17.28125 C41.977786,16.9319644 42.5087865,16.549644 43.0185547,16.1342773 C43.5283229,15.7189107 43.9979633,15.2941102 44.4274902,14.8598633 C44.8570171,14.4256163 45.2133775,14.0385759 45.496582,13.6987305 C45.6287442,13.5382479 45.7750643,13.4580078 45.9355469,13.4580078 C46.0771491,13.4580078 46.2022293,13.5240879 46.310791,13.65625 C46.4193528,13.7884121 46.4736328,13.9677723 46.4736328,14.1943359 C46.4736328,14.3736988 46.4240728,14.586099 46.3249512,14.831543 C46.2258296,15.0769869 46.0629894,15.3413072 45.8364258,15.6245117 C45.2794569,16.2381216 44.7083363,16.8281222 44.1230469,17.3945312 C43.5377575,17.9609403 42.9477569,18.4636209 42.3530273,18.9025879 C41.7582978,19.3415549 41.1659372,19.6931953 40.5759277,19.9575195 C39.9859183,20.2218438 39.4077177,20.3540039 38.8413086,20.3540039 C38.1521775,20.3540039 37.609377,20.1581237 37.2128906,19.7663574 C36.8164043,19.3745911 36.6181641,18.7869505 36.6181641,18.003418 L36.6181641,17.8547363 C36.6181641,17.8028155 36.6228841,17.7532554 36.6323242,17.7060547 C36.4152007,18.102541 36.1367204,18.4636214 35.796875,18.7893066 C35.4570296,19.1149919 35.0841492,19.3934722 34.6782227,19.6247559 C34.2722961,19.8560396 33.8522157,20.0353998 33.4179688,20.1628418 C32.9837218,20.2902838 32.5636414,20.3540039 32.1577148,20.3540039 C31.8084292,20.3540039 31.4874689,20.3068039 31.1948242,20.2124023 C30.9021795,20.1180008 30.6496593,19.9669607 30.4372559,19.7592773 C30.2248525,19.551594 30.0596523,19.2872737 29.9416504,18.9663086 C29.8236485,18.6453434 29.7646484,18.258303 29.7646484,17.8051758 C29.7646484,17.0122031 29.8873686,16.2593623 30.1328125,15.5466309 C30.3782564,14.8338994 30.7039368,14.1778188 31.1098633,13.5783691 C31.5157898,12.9789195 31.9807103,12.440839 32.5046387,11.9641113 C33.0285671,11.4873837 33.5713676,11.0814633 34.1330566,10.7463379 C34.6947456,10.4112125 35.2540662,10.1539723 35.8110352,9.97460938 C36.3680041,9.7952465 36.8777646,9.70556641 37.340332,9.70556641 C37.8784207,9.70556641 38.3409811,9.7952465 38.7280273,9.97460938 C38.9168304,10.0690109 39.0914706,10.196451 39.2519531,10.3569336 C39.2897137,10.2719722 39.3274738,10.1917321 39.3652344,10.1162109 C39.4596359,9.8896473 39.544596,9.6937671 39.6201172,9.52856445 C39.6956384,9.3633618 39.7475585,9.24300168 39.7758789,9.16748047 C39.8041994,9.08251911 39.8844394,8.8842789 40.0166016,8.57275391 C40.1487637,8.26122891 40.3021638,7.89542853 40.4768066,7.4753418 C40.6514494,7.05525506 40.8402496,6.60449459 41.0432129,6.12304688 C41.2461761,5.64159916 41.4326163,5.18847869 41.6025391,4.76367188 L42.0415039,3.66625977 C42.1642259,3.35945485 42.239746,3.16357464 42.2680664,3.07861328 C42.3341475,2.8426095 42.4238276,2.61368926 42.5371094,2.3918457 C42.6503912,2.17000215 42.7849113,1.97648195 42.9406738,1.8112793 C43.0964363,1.64607665 43.2781565,1.51391651 43.4858398,1.41479492 C43.6935232,1.31567333 43.9295234,1.26611328 44.1938477,1.26611328 C44.5525734,1.26611328 44.8499337,1.34399336 45.0859375,1.49975586 C45.3219413,1.65551836 45.4399414,1.95523867 45.4399414,2.39892578 C45.4399414,2.57828866 45.4163414,2.76236885 45.3691406,2.95117188 C45.3219399,3.1399749 45.2676598,3.32405509 45.2062988,3.50341797 C45.1449378,3.68278084 45.0788578,3.85978103 45.0080566,4.03442383 C44.9372555,4.20906663 44.8735354,4.3719068 44.8168945,4.52294922 C44.344887,5.46696436 43.8492865,6.49356542 43.3300781,7.6027832 C42.8108698,8.71200099 42.2963893,9.82828214 41.7866211,10.9516602 C41.2768529,12.0750382 40.7906924,13.1700793 40.328125,14.2368164 C39.8655576,15.3035535 39.4596372,16.2664345 39.1103516,17.1254883 Z M38.6855469,11.5888672 C38.1191378,11.6077475 37.5244172,11.7304676 36.9013672,11.9570312 C36.1839157,12.2024752 35.527835,12.5682756 34.9331055,13.0544434 C34.3383759,13.5406112 33.8356954,14.1376918 33.4250488,14.8457031 C33.0144022,15.5537145 32.780762,16.3655553 32.7241211,17.28125 C32.7241211,17.6588561 32.8846013,17.8476562 33.2055664,17.8476562 C33.6020528,17.8476562 33.9796532,17.7650562 34.3383789,17.5998535 C34.6971047,17.4346509 35.039305,17.2128106 35.3649902,16.9343262 C35.6906755,16.6558417 35.9951158,16.3372414 36.2783203,15.9785156 C36.5615249,15.6197899 36.8234851,15.2469095 37.064209,14.8598633 C37.3049328,14.4728171 37.5220531,14.0881367 37.7155762,13.7058105 C37.9090993,13.3234844 38.0766594,12.967124 38.2182617,12.6367188 C38.2654625,12.5328771 38.3315425,12.3865569 38.4165039,12.1977539 C38.4920251,12.018391 38.5817052,11.8154308 38.6855469,11.5888672 Z" id="d" fill="#333333"></path>
            <path d="M53.1103516,17.1254883 C53.1009114,17.1443686 53.0961914,17.1679686 53.0961914,17.1962891 C53.0961914,17.2246095 53.0914714,17.2482095 53.0820312,17.2670898 C53.0820312,17.4370126 53.1245113,17.6140128 53.2094727,17.7980957 C53.294434,17.9821787 53.4313142,18.0742188 53.6201172,18.0742188 C53.6956384,18.0742188 53.7522785,18.0647787 53.7900391,18.0458984 C54.3281277,17.8854159 54.8732883,17.6305356 55.4255371,17.28125 C55.977786,16.9319644 56.5087865,16.549644 57.0185547,16.1342773 C57.5283229,15.7189107 57.9979633,15.2941102 58.4274902,14.8598633 C58.8570171,14.4256163 59.2133775,14.0385759 59.496582,13.6987305 C59.6287442,13.5382479 59.7750643,13.4580078 59.9355469,13.4580078 C60.0771491,13.4580078 60.2022293,13.5240879 60.310791,13.65625 C60.4193528,13.7884121 60.4736328,13.9677723 60.4736328,14.1943359 C60.4736328,14.3736988 60.4240728,14.586099 60.3249512,14.831543 C60.2258296,15.0769869 60.0629894,15.3413072 59.8364258,15.6245117 C59.2794569,16.2381216 58.7083363,16.8281222 58.1230469,17.3945312 C57.5377575,17.9609403 56.9477569,18.4636209 56.3530273,18.9025879 C55.7582978,19.3415549 55.1659372,19.6931953 54.5759277,19.9575195 C53.9859183,20.2218438 53.4077177,20.3540039 52.8413086,20.3540039 C52.1521775,20.3540039 51.609377,20.1581237 51.2128906,19.7663574 C50.8164043,19.3745911 50.6181641,18.7869505 50.6181641,18.003418 L50.6181641,17.8547363 C50.6181641,17.8028155 50.6228841,17.7532554 50.6323242,17.7060547 C50.4152007,18.102541 50.1367204,18.4636214 49.796875,18.7893066 C49.4570296,19.1149919 49.0841492,19.3934722 48.6782227,19.6247559 C48.2722961,19.8560396 47.8522157,20.0353998 47.4179688,20.1628418 C46.9837218,20.2902838 46.5636414,20.3540039 46.1577148,20.3540039 C45.8084292,20.3540039 45.4874689,20.3068039 45.1948242,20.2124023 C44.9021795,20.1180008 44.6496593,19.9669607 44.4372559,19.7592773 C44.2248525,19.551594 44.0596523,19.2872737 43.9416504,18.9663086 C43.8236485,18.6453434 43.7646484,18.258303 43.7646484,17.8051758 C43.7646484,17.0122031 43.8873686,16.2593623 44.1328125,15.5466309 C44.3782564,14.8338994 44.7039368,14.1778188 45.1098633,13.5783691 C45.5157898,12.9789195 45.9807103,12.440839 46.5046387,11.9641113 C47.0285671,11.4873837 47.5713676,11.0814633 48.1330566,10.7463379 C48.6947456,10.4112125 49.2540662,10.1539723 49.8110352,9.97460938 C50.3680041,9.7952465 50.8777646,9.70556641 51.340332,9.70556641 C51.8784207,9.70556641 52.3409811,9.7952465 52.7280273,9.97460938 C52.9168304,10.0690109 53.0914706,10.196451 53.2519531,10.3569336 C53.2897137,10.2719722 53.3274738,10.1917321 53.3652344,10.1162109 C53.4596359,9.8896473 53.544596,9.6937671 53.6201172,9.52856445 C53.6956384,9.3633618 53.7475585,9.24300168 53.7758789,9.16748047 C53.8041994,9.08251911 53.8844394,8.8842789 54.0166016,8.57275391 C54.1487637,8.26122891 54.3021638,7.89542853 54.4768066,7.4753418 C54.6514494,7.05525506 54.8402496,6.60449459 55.0432129,6.12304688 C55.2461761,5.64159916 55.4326163,5.18847869 55.6025391,4.76367188 L56.0415039,3.66625977 C56.1642259,3.35945485 56.239746,3.16357464 56.2680664,3.07861328 C56.3341475,2.8426095 56.4238276,2.61368926 56.5371094,2.3918457 C56.6503912,2.17000215 56.7849113,1.97648195 56.9406738,1.8112793 C57.0964363,1.64607665 57.2781565,1.51391651 57.4858398,1.41479492 C57.6935232,1.31567333 57.9295234,1.26611328 58.1938477,1.26611328 C58.5525734,1.26611328 58.8499337,1.34399336 59.0859375,1.49975586 C59.3219413,1.65551836 59.4399414,1.95523867 59.4399414,2.39892578 C59.4399414,2.57828866 59.4163414,2.76236885 59.3691406,2.95117188 C59.3219399,3.1399749 59.2676598,3.32405509 59.2062988,3.50341797 C59.1449378,3.68278084 59.0788578,3.85978103 59.0080566,4.03442383 C58.9372555,4.20906663 58.8735354,4.3719068 58.8168945,4.52294922 C58.344887,5.46696436 57.8492865,6.49356542 57.3300781,7.6027832 C56.8108698,8.71200099 56.2963893,9.82828214 55.7866211,10.9516602 C55.2768529,12.0750382 54.7906924,13.1700793 54.328125,14.2368164 C53.8655576,15.3035535 53.4596372,16.2664345 53.1103516,17.1254883 Z M52.6855469,11.5888672 C52.1191378,11.6077475 51.5244172,11.7304676 50.9013672,11.9570312 C50.1839157,12.2024752 49.527835,12.5682756 48.9331055,13.0544434 C48.3383759,13.5406112 47.8356954,14.1376918 47.4250488,14.8457031 C47.0144022,15.5537145 46.780762,16.3655553 46.7241211,17.28125 C46.7241211,17.6588561 46.8846013,17.8476562 47.2055664,17.8476562 C47.6020528,17.8476562 47.9796532,17.7650562 48.3383789,17.5998535 C48.6971047,17.4346509 49.039305,17.2128106 49.3649902,16.9343262 C49.6906755,16.6558417 49.9951158,16.3372414 50.2783203,15.9785156 C50.5615249,15.6197899 50.8234851,15.2469095 51.064209,14.8598633 C51.3049328,14.4728171 51.5220531,14.0881367 51.7155762,13.7058105 C51.9090993,13.3234844 52.0766594,12.967124 52.2182617,12.6367188 C52.2654625,12.5328771 52.3315425,12.3865569 52.4165039,12.1977539 C52.4920251,12.018391 52.5817052,11.8154308 52.6855469,11.5888672 Z" id="d" fill="#333333"></path>
            <path d="M64.3349609,11.6455078 C64.2877602,11.6360677 64.2452801,11.6313477 64.2075195,11.6313477 L64.0800781,11.6313477 C63.7213524,11.6313477 63.386232,11.7021477 63.074707,11.84375 C62.763182,11.9853523 62.4776217,12.1717925 62.2180176,12.4030762 C61.9584134,12.6343599 61.7271332,12.8963202 61.5241699,13.1889648 C61.3212067,13.4816095 61.1394865,13.7718898 60.9790039,14.0598145 C60.8185213,14.3477391 60.6840012,14.6238594 60.5754395,14.8881836 C60.4668777,15.1525078 60.3842776,15.3743481 60.3276367,15.5537109 C60.658042,15.3837882 61.0002424,15.190268 61.354248,14.9731445 C61.7082537,14.756021 62.0410141,14.5483408 62.3525391,14.3500977 C62.6640641,14.1518545 62.9354643,13.9724943 63.166748,13.8120117 C63.3980318,13.6515291 63.5608719,13.542969 63.6552734,13.4863281 C64.0800802,13.2220039 64.3727206,12.9742036 64.5332031,12.7429199 C64.6936857,12.5116362 64.7739258,12.311036 64.7739258,12.1411133 C64.7739258,11.999511 64.7290857,11.8862309 64.6394043,11.8012695 C64.5497229,11.7163082 64.4482428,11.6643881 64.3349609,11.6455078 Z M64.8447266,9.69140625 C65.6282591,9.69140625 66.2135397,9.88020645 66.6005859,10.2578125 C66.9876321,10.6354186 67.1811523,11.1593391 67.1811523,11.8295898 C67.1811523,12.2260762 67.0773122,12.6414366 66.8696289,13.0756836 C66.6619456,13.5099306 66.3032252,13.951251 65.793457,14.3996582 C65.2836889,14.8480654 64.6016482,15.3059059 63.7473145,15.7731934 C62.8929808,16.2404809 61.8238996,16.7101213 60.5400391,17.1821289 C60.5872398,17.4558933 60.73356,17.6706535 60.9790039,17.826416 C61.2244478,17.9821785 61.5501282,18.0600586 61.9560547,18.0600586 C62.3903017,18.0600586 62.8552221,17.9963385 63.3508301,17.8688965 C63.846438,17.7414544 64.3373185,17.5786143 64.8234863,17.3803711 C65.3096541,17.1821279 65.7840146,16.9673677 66.246582,16.736084 C66.7091494,16.5048003 67.1268699,16.28532 67.4997559,16.0776367 C67.8726418,15.8699534 68.1841622,15.6905932 68.4343262,15.5395508 C68.6844902,15.3885084 68.8520504,15.2941083 68.9370117,15.2563477 C69.0219731,15.1997067 69.0998532,15.1666667 69.1706543,15.1572266 C69.2414554,15.1477864 69.3051755,15.1430664 69.3618164,15.1430664 C69.4750982,15.1430664 69.5694983,15.1690264 69.6450195,15.2209473 C69.7205407,15.2728681 69.7842608,15.3342282 69.8361816,15.4050293 C69.8881025,15.4758304 69.9235025,15.5513505 69.9423828,15.6315918 C69.9612631,15.7118331 69.9707031,15.7802732 69.9707031,15.8369141 C69.9707031,15.9218754 69.9612631,16.0233555 69.9423828,16.1413574 C69.9235025,16.2593593 69.8527024,16.3938795 69.7299805,16.5449219 C69.6827797,16.5921226 69.5246595,16.7195628 69.2556152,16.9272461 C68.9865709,17.1349294 68.6396506,17.3803697 68.2148438,17.6635742 C67.7900369,17.9467788 67.2967964,18.2464991 66.7351074,18.5627441 C66.1734184,18.8789892 65.5786978,19.1692695 64.9509277,19.4335938 C64.3231577,19.697918 63.669437,19.9173982 62.9897461,20.092041 C62.3100552,20.2666838 61.6398145,20.3540039 60.9790039,20.3540039 C60.4125948,20.3540039 59.9099143,20.2454438 59.4709473,20.0283203 C59.0319802,19.8111968 58.6590998,19.5185565 58.3522949,19.1503906 C58.04549,18.7822247 57.8118498,18.3574243 57.6513672,17.8759766 C57.4908846,17.3945288 57.4106445,16.8894883 57.4106445,16.3608398 C57.4106445,15.9549133 57.4908846,15.5088729 57.6513672,15.0227051 C57.8118498,14.5365373 58.04313,14.0480168 58.3452148,13.5571289 C58.6472997,13.066241 59.0178201,12.5871605 59.4567871,12.119873 C59.8957541,11.6525856 60.3889947,11.2395851 60.9365234,10.8808594 C61.4840522,10.5221336 62.0858528,10.2342133 62.7419434,10.0170898 C63.3980339,9.79996636 64.0989546,9.69140625 64.8447266,9.69140625 Z" id="e" fill="#333333"></path>
            <path d="M70.8657227,15.9077148 C70.761881,16.1248383 70.6604009,16.3773586 70.5612793,16.6652832 C70.4621577,16.9532078 70.4125977,17.2104481 70.4125977,17.4370117 C70.4125977,17.578614 70.4409177,17.6918941 70.4975586,17.7768555 C70.5541995,17.8618168 70.6627596,17.9042969 70.8232422,17.9042969 C71.0214854,17.9042969 71.2692856,17.8452968 71.5666504,17.7272949 C71.8640152,17.609293 72.1849755,17.4535329 72.529541,17.2600098 C72.8741065,17.0664867 73.2328269,16.8446464 73.6057129,16.5944824 C73.9785989,16.3443184 74.3491193,16.0847181 74.7172852,15.8156738 C75.0854511,15.5466295 75.4370914,15.2775892 75.7722168,15.0085449 C76.1073422,14.7395006 76.4070625,14.4917004 76.6713867,14.2651367 C76.7469079,14.1990557 76.836588,14.1518556 76.9404297,14.1235352 C77.0442714,14.0952147 77.1339514,14.0810547 77.2094727,14.0810547 C77.3982757,14.0810547 77.5540358,14.1471348 77.6767578,14.2792969 C77.7994798,14.411459 77.8608398,14.5860992 77.8608398,14.8032227 C77.8608398,15.0014658 77.7947598,15.2233061 77.6625977,15.46875 C77.5304355,15.7141939 77.2991553,15.9549142 76.96875,16.190918 C76.3645803,16.7478869 75.7556997,17.2765274 75.1420898,17.7768555 C74.52848,18.2771835 73.9172394,18.7185039 73.3083496,19.1008301 C72.6994598,19.4831562 72.0952992,19.7875965 71.4958496,20.0141602 C70.8964,20.2407238 70.3134794,20.3540039 69.7470703,20.3540039 C69.3600241,20.3540039 69.0367038,20.3020839 68.7770996,20.1982422 C68.5174954,20.0944005 68.3098152,19.9528004 68.1540527,19.7734375 C67.9982902,19.5940746 67.8873701,19.3816744 67.8212891,19.1362305 C67.755208,18.8907865 67.722168,18.6311863 67.722168,18.3574219 C67.722168,17.8948545 67.790608,17.420494 67.9274902,16.9343262 C68.0643724,16.4481584 68.2272126,16.0021179 68.4160156,15.5961914 C68.7464209,14.8598596 69.0815413,14.1282588 69.4213867,13.4013672 C69.7612322,12.6744755 70.0727525,12.0089548 70.355957,11.4047852 L74.6464844,2.27148438 C74.8164071,1.90331847 75.0453273,1.6437182 75.333252,1.49267578 C75.6211766,1.34163336 75.9114569,1.26611328 76.2041016,1.26611328 C76.4967463,1.26611328 76.7634265,1.34635336 77.0041504,1.50683594 C77.2448743,1.66731851 77.3652344,1.92691878 77.3652344,2.28564453 C77.3652344,2.45556726 77.3251143,2.63492744 77.244873,2.82373047 C77.1646318,3.0125335 77.0631517,3.21549371 76.9404297,3.43261719 C76.7044259,3.8763043 76.4235856,4.41910486 76.0979004,5.06103516 C75.7722152,5.70296545 75.4229348,6.40152617 75.0500488,7.15673828 C74.6771628,7.91195039 74.2948425,8.6978312 73.9030762,9.5144043 C73.5113099,10.3309774 73.1289895,11.1262982 72.7561035,11.9003906 C72.3832175,12.674483 72.0339372,13.4084438 71.708252,14.1022949 C71.3825667,14.796146 71.1017264,15.3979467 70.8657227,15.9077148 Z" id="l" fill="#333333"></path>
            <path d="M3.5,26.5 C17.9373315,25.3395585 29.7920847,24.6962877 39.0642595,24.5701878 C48.3364344,24.4440878 60.4065815,24.7619841 75.2747009,25.5238766" id="Line-91" stroke="#333333" stroke-width="3" stroke-linecap="round"></path>
        </g>
    </g>
</svg>