<?xml version="1.0" encoding="UTF-8"?>
<svg width="63px" height="61px" viewBox="0 0 63 61" version="1.1" xmlns="http://www.w3.org/2000/svg" xmlns:xlink="http://www.w3.org/1999/xlink">
    <!-- Generator: Sketch 49.3 (51167) - http://www.bohemiancoding.com/sketch -->
    <title>Star 2</title>
    <desc>Created with Sketch.</desc>
    <defs></defs>
    <g id="Page-1" stroke="none" stroke-width="1" fill="none" fill-rule="evenodd">
        <path d="M31.5,51.25 L14.2205679,60.3343351 C13.2428787,60.8483367 12.0336244,60.4724437 11.5196228,59.4947545 C11.3149446,59.1054335 11.2443153,58.6594974 11.3186689,58.2259821 L14.6187468,38.9850517 L0.639392573,25.358549 C-0.151574582,24.5875466 -0.167759195,23.3213201 0.603243229,22.5303529 C0.910260438,22.2153857 1.31254526,22.0104113 1.74781932,21.9471623 L21.0668118,19.1399483 L29.7065278,1.6339715 C30.1953724,0.643464182 31.3946241,0.236786184 32.3851314,0.725630771 C32.7795566,0.920291249 33.0988117,1.23954629 33.2934722,1.6339715 L41.9331882,19.1399483 L61.2521807,21.9471623 C62.3452704,22.1059975 63.1026333,23.1208832 62.9437981,24.2139729 C62.8805491,24.649247 62.6755747,25.0515318 62.3606074,25.358549 L48.3812532,38.9850517 L51.6813311,58.2259821 C51.8680531,59.314655 51.1368774,60.3485669 50.0482045,60.5352889 C49.6146893,60.6096426 49.1687531,60.5390132 48.7794321,60.3343351 L31.5,51.25 Z" id="Star-2" fill="#00C952"></path>
    </g>
</svg>